%TF.GenerationSoftware,KiCad,Pcbnew,8.0.5*%
%TF.CreationDate,2024-09-26T23:09:15+02:00*%
%TF.ProjectId,2u plate,32752070-6c61-4746-952e-6b696361645f,rev?*%
%TF.SameCoordinates,Original*%
%TF.FileFunction,Copper,L2,Bot*%
%TF.FilePolarity,Positive*%
%FSLAX46Y46*%
G04 Gerber Fmt 4.6, Leading zero omitted, Abs format (unit mm)*
G04 Created by KiCad (PCBNEW 8.0.5) date 2024-09-26 23:09:15*
%MOMM*%
%LPD*%
G01*
G04 APERTURE LIST*
G04 APERTURE END LIST*
%TA.AperFunction,NonConductor*%
G36*
X225482692Y-36698179D02*
G01*
X225528491Y-36750944D01*
X225539472Y-36794394D01*
X225556615Y-37054434D01*
X225556616Y-37054444D01*
X225556617Y-37054454D01*
X225602834Y-37333353D01*
X225618412Y-37427360D01*
X225618413Y-37427363D01*
X225716536Y-37792368D01*
X225716538Y-37792373D01*
X225716539Y-37792377D01*
X225752634Y-37887976D01*
X225850052Y-38145996D01*
X225850055Y-38146002D01*
X226017655Y-38484785D01*
X226080705Y-38585843D01*
X226217735Y-38805477D01*
X226448348Y-39104958D01*
X226707267Y-39380337D01*
X226991985Y-39628947D01*
X226991988Y-39628949D01*
X226991989Y-39628950D01*
X227299747Y-39848383D01*
X227299750Y-39848385D01*
X227627583Y-40036527D01*
X227972313Y-40191554D01*
X228330605Y-40311965D01*
X228339821Y-40314082D01*
X228353274Y-40317173D01*
X228414205Y-40351367D01*
X228446976Y-40413075D01*
X228449512Y-40438034D01*
X228444539Y-110416058D01*
X228424850Y-110483096D01*
X228372042Y-110528847D01*
X228346703Y-110537257D01*
X228174669Y-110574390D01*
X228065873Y-110597873D01*
X228065870Y-110597874D01*
X227731722Y-110703130D01*
X227408708Y-110838837D01*
X227099639Y-111003816D01*
X226807145Y-111196660D01*
X226533726Y-111415720D01*
X226533725Y-111415720D01*
X226281733Y-111659117D01*
X226281724Y-111659126D01*
X226053323Y-111924757D01*
X226053315Y-111924768D01*
X225850441Y-112210388D01*
X225850438Y-112210391D01*
X225674831Y-112513554D01*
X225674824Y-112513567D01*
X225528003Y-112831649D01*
X225528001Y-112831655D01*
X225411206Y-113161962D01*
X225410706Y-113163619D01*
X225410521Y-113163900D01*
X225410250Y-113164669D01*
X225410062Y-113164602D01*
X225372457Y-113222090D01*
X225308668Y-113250600D01*
X225292105Y-113251723D01*
X149671109Y-113306661D01*
X149604055Y-113287025D01*
X149558262Y-113234254D01*
X149553464Y-113222116D01*
X149553455Y-113222090D01*
X149533830Y-113163619D01*
X149532547Y-113159795D01*
X149532545Y-113159791D01*
X149532542Y-113159781D01*
X149378896Y-112819069D01*
X149192066Y-112495363D01*
X148973909Y-112191885D01*
X148726597Y-111911656D01*
X148718094Y-111903768D01*
X148452593Y-111657465D01*
X148298594Y-111540857D01*
X148257031Y-111484695D01*
X148252429Y-111414977D01*
X148286251Y-111353838D01*
X148347757Y-111320691D01*
X148373449Y-111318000D01*
X159275890Y-111318000D01*
X159275892Y-111318000D01*
X159403186Y-111283892D01*
X159517314Y-111218000D01*
X159610500Y-111124814D01*
X159676392Y-111010686D01*
X159710500Y-110883392D01*
X159710500Y-96751608D01*
X159676392Y-96624314D01*
X159610500Y-96510186D01*
X159517314Y-96417000D01*
X159460250Y-96384054D01*
X159403187Y-96351108D01*
X159339539Y-96334054D01*
X159275892Y-96317000D01*
X145275892Y-96317000D01*
X145144108Y-96317000D01*
X145016812Y-96351108D01*
X144902686Y-96417000D01*
X144902683Y-96417002D01*
X144809502Y-96510183D01*
X144809500Y-96510186D01*
X144743608Y-96624312D01*
X144709500Y-96751608D01*
X144709500Y-110883393D01*
X144716401Y-110909148D01*
X144714738Y-110978998D01*
X144675574Y-111036860D01*
X144639149Y-111057721D01*
X144586436Y-111076964D01*
X144410019Y-111162147D01*
X144341089Y-111173570D01*
X144276926Y-111145914D01*
X144237901Y-111087958D01*
X144236327Y-111018388D01*
X144238389Y-111010690D01*
X144238392Y-111010686D01*
X144272500Y-110883392D01*
X144272500Y-95751608D01*
X160147500Y-95751608D01*
X160147500Y-110751608D01*
X160147500Y-110883392D01*
X160154401Y-110909148D01*
X160181608Y-111010687D01*
X160208764Y-111057721D01*
X160247500Y-111124814D01*
X160340686Y-111218000D01*
X160454814Y-111283892D01*
X160582108Y-111318000D01*
X160582110Y-111318000D01*
X167713890Y-111318000D01*
X167713892Y-111318000D01*
X167841186Y-111283892D01*
X167955314Y-111218000D01*
X168048500Y-111124814D01*
X168114392Y-111010686D01*
X168148500Y-110883392D01*
X168148500Y-96751608D01*
X173284500Y-96751608D01*
X173284500Y-110751608D01*
X173284500Y-110883392D01*
X173291401Y-110909148D01*
X173318608Y-111010687D01*
X173345764Y-111057721D01*
X173384500Y-111124814D01*
X173477686Y-111218000D01*
X173591814Y-111283892D01*
X173719108Y-111318000D01*
X173719110Y-111318000D01*
X187850890Y-111318000D01*
X187850892Y-111318000D01*
X187978186Y-111283892D01*
X188092314Y-111218000D01*
X188185500Y-111124814D01*
X188251392Y-111010686D01*
X188285500Y-110883392D01*
X188285500Y-96751608D01*
X192334500Y-96751608D01*
X192334500Y-110883392D01*
X192341401Y-110909148D01*
X192368608Y-111010687D01*
X192395764Y-111057721D01*
X192434500Y-111124814D01*
X192527686Y-111218000D01*
X192641814Y-111283892D01*
X192769108Y-111318000D01*
X192769110Y-111318000D01*
X206900890Y-111318000D01*
X206900892Y-111318000D01*
X207028186Y-111283892D01*
X207142314Y-111218000D01*
X207235500Y-111124814D01*
X207301392Y-111010686D01*
X207335500Y-110883392D01*
X207335500Y-96751608D01*
X211384500Y-96751608D01*
X211384500Y-110883392D01*
X211391401Y-110909148D01*
X211418608Y-111010687D01*
X211445764Y-111057721D01*
X211484500Y-111124814D01*
X211577686Y-111218000D01*
X211691814Y-111283892D01*
X211819108Y-111318000D01*
X211819110Y-111318000D01*
X225950890Y-111318000D01*
X225950892Y-111318000D01*
X226078186Y-111283892D01*
X226192314Y-111218000D01*
X226285500Y-111124814D01*
X226351392Y-111010686D01*
X226385500Y-110883392D01*
X226385500Y-96751608D01*
X226351392Y-96624314D01*
X226285500Y-96510186D01*
X226192314Y-96417000D01*
X226135250Y-96384054D01*
X226078187Y-96351108D01*
X226014539Y-96334054D01*
X225950892Y-96317000D01*
X211950892Y-96317000D01*
X211819108Y-96317000D01*
X211691812Y-96351108D01*
X211577686Y-96417000D01*
X211577683Y-96417002D01*
X211484502Y-96510183D01*
X211484500Y-96510186D01*
X211418608Y-96624312D01*
X211384500Y-96751608D01*
X207335500Y-96751608D01*
X207301392Y-96624314D01*
X207235500Y-96510186D01*
X207142314Y-96417000D01*
X207085250Y-96384054D01*
X207028187Y-96351108D01*
X206964539Y-96334054D01*
X206900892Y-96317000D01*
X192900892Y-96317000D01*
X192769108Y-96317000D01*
X192641812Y-96351108D01*
X192527686Y-96417000D01*
X192527683Y-96417002D01*
X192434502Y-96510183D01*
X192434500Y-96510186D01*
X192368608Y-96624312D01*
X192334500Y-96751608D01*
X188285500Y-96751608D01*
X188251392Y-96624314D01*
X188185500Y-96510186D01*
X188092314Y-96417000D01*
X188035250Y-96384054D01*
X187978187Y-96351108D01*
X187914539Y-96334054D01*
X187850892Y-96317000D01*
X173850892Y-96317000D01*
X173719108Y-96317000D01*
X173591812Y-96351108D01*
X173477686Y-96417000D01*
X173477683Y-96417002D01*
X173384502Y-96510183D01*
X173384500Y-96510186D01*
X173318608Y-96624312D01*
X173284500Y-96751608D01*
X168148500Y-96751608D01*
X168148500Y-95751608D01*
X168114392Y-95624314D01*
X168048500Y-95510186D01*
X167955314Y-95417000D01*
X167898250Y-95384054D01*
X167841187Y-95351108D01*
X167777539Y-95334054D01*
X167713892Y-95317000D01*
X160713892Y-95317000D01*
X160582108Y-95317000D01*
X160454812Y-95351108D01*
X160340686Y-95417000D01*
X160340683Y-95417002D01*
X160247502Y-95510183D01*
X160247500Y-95510186D01*
X160181608Y-95624312D01*
X160147500Y-95751608D01*
X144272500Y-95751608D01*
X144238392Y-95624314D01*
X144172500Y-95510186D01*
X144079314Y-95417000D01*
X144022250Y-95384054D01*
X143965187Y-95351108D01*
X143901539Y-95334054D01*
X143837892Y-95317000D01*
X136837892Y-95317000D01*
X136706108Y-95317000D01*
X136578812Y-95351108D01*
X136464686Y-95417000D01*
X136464683Y-95417002D01*
X136371502Y-95510183D01*
X136371500Y-95510186D01*
X136305608Y-95624312D01*
X136271500Y-95751608D01*
X136271500Y-110751608D01*
X136271500Y-110883392D01*
X136278401Y-110909148D01*
X136305608Y-111010687D01*
X136332764Y-111057721D01*
X136371500Y-111124814D01*
X136464686Y-111218000D01*
X136578814Y-111283892D01*
X136706108Y-111318000D01*
X136706110Y-111318000D01*
X143716531Y-111318000D01*
X143783570Y-111337685D01*
X143829325Y-111390489D01*
X143839269Y-111459647D01*
X143810244Y-111523203D01*
X143791521Y-111540755D01*
X143633495Y-111660751D01*
X143359842Y-111915310D01*
X143359837Y-111915314D01*
X143112904Y-112195886D01*
X142895159Y-112499666D01*
X142708781Y-112823608D01*
X142708779Y-112823610D01*
X142555597Y-113164536D01*
X142534741Y-113226952D01*
X142494825Y-113284297D01*
X142430242Y-113310958D01*
X142417225Y-113311653D01*
X41016516Y-113386620D01*
X40949462Y-113366985D01*
X40903668Y-113314215D01*
X40898697Y-113301561D01*
X40892986Y-113284297D01*
X40792396Y-112980194D01*
X40651824Y-112661325D01*
X40481405Y-112357358D01*
X40282702Y-112071079D01*
X40057536Y-111805112D01*
X39807969Y-111561894D01*
X39536290Y-111343655D01*
X39244987Y-111152393D01*
X39101932Y-111076966D01*
X38936735Y-110989864D01*
X38936734Y-110989863D01*
X38936731Y-110989862D01*
X38677302Y-110883390D01*
X38614343Y-110857551D01*
X38472854Y-110814761D01*
X38280786Y-110756674D01*
X38280780Y-110756672D01*
X38280771Y-110756670D01*
X37939112Y-110688154D01*
X37727566Y-110666469D01*
X37662883Y-110640050D01*
X37622752Y-110582856D01*
X37616211Y-110542993D01*
X37616336Y-110416058D01*
X37629786Y-96751608D01*
X39934500Y-96751608D01*
X39934500Y-110883392D01*
X39941401Y-110909148D01*
X39968608Y-111010687D01*
X39995764Y-111057721D01*
X40034500Y-111124814D01*
X40127686Y-111218000D01*
X40241814Y-111283892D01*
X40369108Y-111318000D01*
X40369110Y-111318000D01*
X54500890Y-111318000D01*
X54500892Y-111318000D01*
X54628186Y-111283892D01*
X54742314Y-111218000D01*
X54835500Y-111124814D01*
X54901392Y-111010686D01*
X54935500Y-110883392D01*
X54935500Y-96751608D01*
X58984500Y-96751608D01*
X58984500Y-110751608D01*
X58984500Y-110883392D01*
X58991401Y-110909148D01*
X59018608Y-111010687D01*
X59045764Y-111057721D01*
X59084500Y-111124814D01*
X59177686Y-111218000D01*
X59291814Y-111283892D01*
X59419108Y-111318000D01*
X59419110Y-111318000D01*
X73550890Y-111318000D01*
X73550892Y-111318000D01*
X73678186Y-111283892D01*
X73792314Y-111218000D01*
X73885500Y-111124814D01*
X73951392Y-111010686D01*
X73985500Y-110883392D01*
X73985500Y-96751608D01*
X78034500Y-96751608D01*
X78034500Y-110883392D01*
X78041401Y-110909148D01*
X78068608Y-111010687D01*
X78095764Y-111057721D01*
X78134500Y-111124814D01*
X78227686Y-111218000D01*
X78341814Y-111283892D01*
X78469108Y-111318000D01*
X78469110Y-111318000D01*
X92600890Y-111318000D01*
X92600892Y-111318000D01*
X92728186Y-111283892D01*
X92842314Y-111218000D01*
X92935500Y-111124814D01*
X93001392Y-111010686D01*
X93035500Y-110883392D01*
X93035500Y-96751608D01*
X93001392Y-96624314D01*
X92935500Y-96510186D01*
X92842314Y-96417000D01*
X92785250Y-96384054D01*
X92728187Y-96351108D01*
X92664539Y-96334054D01*
X92600892Y-96317000D01*
X78600892Y-96317000D01*
X78469108Y-96317000D01*
X78341812Y-96351108D01*
X78227686Y-96417000D01*
X78227683Y-96417002D01*
X78134502Y-96510183D01*
X78134500Y-96510186D01*
X78068608Y-96624312D01*
X78034500Y-96751608D01*
X73985500Y-96751608D01*
X73951392Y-96624314D01*
X73885500Y-96510186D01*
X73792314Y-96417000D01*
X73735250Y-96384054D01*
X73678187Y-96351108D01*
X73614539Y-96334054D01*
X73550892Y-96317000D01*
X59550892Y-96317000D01*
X59419108Y-96317000D01*
X59291812Y-96351108D01*
X59177686Y-96417000D01*
X59177683Y-96417002D01*
X59084502Y-96510183D01*
X59084500Y-96510186D01*
X59018608Y-96624312D01*
X58984500Y-96751608D01*
X54935500Y-96751608D01*
X54901392Y-96624314D01*
X54835500Y-96510186D01*
X54742314Y-96417000D01*
X54685250Y-96384054D01*
X54628187Y-96351108D01*
X54564539Y-96334054D01*
X54500892Y-96317000D01*
X40500892Y-96317000D01*
X40369108Y-96317000D01*
X40241812Y-96351108D01*
X40127686Y-96417000D01*
X40127683Y-96417002D01*
X40034502Y-96510183D01*
X40034500Y-96510186D01*
X39968608Y-96624312D01*
X39934500Y-96751608D01*
X37629786Y-96751608D01*
X37630770Y-95751608D01*
X98171500Y-95751608D01*
X98171500Y-110751608D01*
X98171500Y-110883392D01*
X98178401Y-110909148D01*
X98205608Y-111010687D01*
X98232764Y-111057721D01*
X98271500Y-111124814D01*
X98364686Y-111218000D01*
X98478814Y-111283892D01*
X98606108Y-111318000D01*
X98606110Y-111318000D01*
X105737890Y-111318000D01*
X105737892Y-111318000D01*
X105865186Y-111283892D01*
X105979314Y-111218000D01*
X106072500Y-111124814D01*
X106138392Y-111010686D01*
X106172500Y-110883392D01*
X106172500Y-96751608D01*
X106609500Y-96751608D01*
X106609500Y-110751608D01*
X106609500Y-110883392D01*
X106616401Y-110909148D01*
X106643608Y-111010687D01*
X106670764Y-111057721D01*
X106709500Y-111124814D01*
X106802686Y-111218000D01*
X106916814Y-111283892D01*
X107044108Y-111318000D01*
X107044110Y-111318000D01*
X121175890Y-111318000D01*
X121175892Y-111318000D01*
X121303186Y-111283892D01*
X121417314Y-111218000D01*
X121510500Y-111124814D01*
X121576392Y-111010686D01*
X121610500Y-110883392D01*
X121610500Y-96751608D01*
X121576392Y-96624314D01*
X121510500Y-96510186D01*
X121417314Y-96417000D01*
X121360250Y-96384054D01*
X121303187Y-96351108D01*
X121239539Y-96334054D01*
X121175892Y-96317000D01*
X107175892Y-96317000D01*
X107044108Y-96317000D01*
X106916812Y-96351108D01*
X106802686Y-96417000D01*
X106802683Y-96417002D01*
X106709502Y-96510183D01*
X106709500Y-96510186D01*
X106643608Y-96624312D01*
X106609500Y-96751608D01*
X106172500Y-96751608D01*
X106172500Y-95751608D01*
X122047500Y-95751608D01*
X122047500Y-110751608D01*
X122047500Y-110883392D01*
X122054401Y-110909148D01*
X122081608Y-111010687D01*
X122108764Y-111057721D01*
X122147500Y-111124814D01*
X122240686Y-111218000D01*
X122354814Y-111283892D01*
X122482108Y-111318000D01*
X122482110Y-111318000D01*
X129613890Y-111318000D01*
X129613892Y-111318000D01*
X129741186Y-111283892D01*
X129855314Y-111218000D01*
X129948500Y-111124814D01*
X130014392Y-111010686D01*
X130048500Y-110883392D01*
X130048500Y-95751608D01*
X130014392Y-95624314D01*
X129948500Y-95510186D01*
X129855314Y-95417000D01*
X129798250Y-95384054D01*
X129741187Y-95351108D01*
X129677539Y-95334054D01*
X129613892Y-95317000D01*
X122613892Y-95317000D01*
X122482108Y-95317000D01*
X122354812Y-95351108D01*
X122240686Y-95417000D01*
X122240683Y-95417002D01*
X122147502Y-95510183D01*
X122147500Y-95510186D01*
X122081608Y-95624312D01*
X122047500Y-95751608D01*
X106172500Y-95751608D01*
X106138392Y-95624314D01*
X106072500Y-95510186D01*
X105979314Y-95417000D01*
X105922250Y-95384054D01*
X105865187Y-95351108D01*
X105801539Y-95334054D01*
X105737892Y-95317000D01*
X98737892Y-95317000D01*
X98606108Y-95317000D01*
X98478812Y-95351108D01*
X98364686Y-95417000D01*
X98364683Y-95417002D01*
X98271502Y-95510183D01*
X98271500Y-95510186D01*
X98205608Y-95624312D01*
X98171500Y-95751608D01*
X37630770Y-95751608D01*
X37648536Y-77701608D01*
X39097000Y-77701608D01*
X39097000Y-91833391D01*
X39131108Y-91960687D01*
X39164054Y-92017750D01*
X39197000Y-92074814D01*
X39290186Y-92168000D01*
X39404314Y-92233892D01*
X39531608Y-92268000D01*
X39531610Y-92268000D01*
X41663390Y-92268000D01*
X41663392Y-92268000D01*
X41790686Y-92233892D01*
X41904814Y-92168000D01*
X41998000Y-92074814D01*
X42063892Y-91960686D01*
X42098000Y-91833392D01*
X42098000Y-77701608D01*
X44697000Y-77701608D01*
X44697000Y-91833391D01*
X44731108Y-91960687D01*
X44764054Y-92017750D01*
X44797000Y-92074814D01*
X44890186Y-92168000D01*
X45004314Y-92233892D01*
X45131608Y-92268000D01*
X45131610Y-92268000D01*
X59263390Y-92268000D01*
X59263392Y-92268000D01*
X59390686Y-92233892D01*
X59504814Y-92168000D01*
X59598000Y-92074814D01*
X59663892Y-91960686D01*
X59698000Y-91833392D01*
X59698000Y-77701608D01*
X62297000Y-77701608D01*
X62297000Y-91833391D01*
X62331108Y-91960687D01*
X62364054Y-92017750D01*
X62397000Y-92074814D01*
X62490186Y-92168000D01*
X62604314Y-92233892D01*
X62731608Y-92268000D01*
X62731610Y-92268000D01*
X64863390Y-92268000D01*
X64863392Y-92268000D01*
X64990686Y-92233892D01*
X65104814Y-92168000D01*
X65198000Y-92074814D01*
X65263892Y-91960686D01*
X65298000Y-91833392D01*
X65298000Y-77701608D01*
X68509500Y-77701608D01*
X68509500Y-91833391D01*
X68543608Y-91960687D01*
X68576554Y-92017750D01*
X68609500Y-92074814D01*
X68702686Y-92168000D01*
X68816814Y-92233892D01*
X68944108Y-92268000D01*
X68944110Y-92268000D01*
X83075890Y-92268000D01*
X83075892Y-92268000D01*
X83203186Y-92233892D01*
X83317314Y-92168000D01*
X83410500Y-92074814D01*
X83476392Y-91960686D01*
X83510500Y-91833392D01*
X83510500Y-77701608D01*
X87559500Y-77701608D01*
X87559500Y-91833391D01*
X87593608Y-91960687D01*
X87626554Y-92017750D01*
X87659500Y-92074814D01*
X87752686Y-92168000D01*
X87866814Y-92233892D01*
X87994108Y-92268000D01*
X87994110Y-92268000D01*
X102125890Y-92268000D01*
X102125892Y-92268000D01*
X102253186Y-92233892D01*
X102367314Y-92168000D01*
X102460500Y-92074814D01*
X102526392Y-91960686D01*
X102560500Y-91833392D01*
X102560500Y-77701608D01*
X106609500Y-77701608D01*
X106609500Y-91833391D01*
X106643608Y-91960687D01*
X106676554Y-92017750D01*
X106709500Y-92074814D01*
X106802686Y-92168000D01*
X106916814Y-92233892D01*
X107044108Y-92268000D01*
X107044110Y-92268000D01*
X121175890Y-92268000D01*
X121175892Y-92268000D01*
X121303186Y-92233892D01*
X121417314Y-92168000D01*
X121510500Y-92074814D01*
X121576392Y-91960686D01*
X121610500Y-91833392D01*
X121610500Y-77701608D01*
X125659500Y-77701608D01*
X125659500Y-91833391D01*
X125693608Y-91960687D01*
X125726554Y-92017750D01*
X125759500Y-92074814D01*
X125852686Y-92168000D01*
X125966814Y-92233892D01*
X126094108Y-92268000D01*
X126094110Y-92268000D01*
X140225890Y-92268000D01*
X140225892Y-92268000D01*
X140353186Y-92233892D01*
X140467314Y-92168000D01*
X140560500Y-92074814D01*
X140626392Y-91960686D01*
X140660500Y-91833392D01*
X140660500Y-77701608D01*
X144709500Y-77701608D01*
X144709500Y-91833391D01*
X144743608Y-91960687D01*
X144776554Y-92017750D01*
X144809500Y-92074814D01*
X144902686Y-92168000D01*
X145016814Y-92233892D01*
X145144108Y-92268000D01*
X145144110Y-92268000D01*
X159275890Y-92268000D01*
X159275892Y-92268000D01*
X159403186Y-92233892D01*
X159517314Y-92168000D01*
X159610500Y-92074814D01*
X159676392Y-91960686D01*
X159710500Y-91833392D01*
X159710500Y-77701608D01*
X163759500Y-77701608D01*
X163759500Y-91833391D01*
X163793608Y-91960687D01*
X163826554Y-92017750D01*
X163859500Y-92074814D01*
X163952686Y-92168000D01*
X164066814Y-92233892D01*
X164194108Y-92268000D01*
X164194110Y-92268000D01*
X178325890Y-92268000D01*
X178325892Y-92268000D01*
X178453186Y-92233892D01*
X178567314Y-92168000D01*
X178660500Y-92074814D01*
X178726392Y-91960686D01*
X178760500Y-91833392D01*
X178760500Y-77701608D01*
X182809500Y-77701608D01*
X182809500Y-91833391D01*
X182843608Y-91960687D01*
X182876554Y-92017750D01*
X182909500Y-92074814D01*
X183002686Y-92168000D01*
X183116814Y-92233892D01*
X183244108Y-92268000D01*
X183244110Y-92268000D01*
X197375890Y-92268000D01*
X197375892Y-92268000D01*
X197503186Y-92233892D01*
X197617314Y-92168000D01*
X197710500Y-92074814D01*
X197776392Y-91960686D01*
X197810500Y-91833392D01*
X197810500Y-77701608D01*
X201022000Y-77701608D01*
X201022000Y-91833391D01*
X201056108Y-91960687D01*
X201089054Y-92017750D01*
X201122000Y-92074814D01*
X201215186Y-92168000D01*
X201329314Y-92233892D01*
X201456608Y-92268000D01*
X201456610Y-92268000D01*
X203588390Y-92268000D01*
X203588392Y-92268000D01*
X203715686Y-92233892D01*
X203829814Y-92168000D01*
X203923000Y-92074814D01*
X203988892Y-91960686D01*
X204023000Y-91833392D01*
X204023000Y-77701608D01*
X206622000Y-77701608D01*
X206622000Y-91833391D01*
X206656108Y-91960687D01*
X206689054Y-92017750D01*
X206722000Y-92074814D01*
X206815186Y-92168000D01*
X206929314Y-92233892D01*
X207056608Y-92268000D01*
X207056610Y-92268000D01*
X221188390Y-92268000D01*
X221188392Y-92268000D01*
X221315686Y-92233892D01*
X221429814Y-92168000D01*
X221523000Y-92074814D01*
X221588892Y-91960686D01*
X221623000Y-91833392D01*
X221623000Y-77701608D01*
X224222000Y-77701608D01*
X224222000Y-91833391D01*
X224256108Y-91960687D01*
X224289054Y-92017750D01*
X224322000Y-92074814D01*
X224415186Y-92168000D01*
X224529314Y-92233892D01*
X224656608Y-92268000D01*
X224656610Y-92268000D01*
X226788390Y-92268000D01*
X226788392Y-92268000D01*
X226915686Y-92233892D01*
X227029814Y-92168000D01*
X227123000Y-92074814D01*
X227188892Y-91960686D01*
X227223000Y-91833392D01*
X227223000Y-77701608D01*
X227188892Y-77574314D01*
X227123000Y-77460186D01*
X227029814Y-77367000D01*
X226972750Y-77334054D01*
X226915687Y-77301108D01*
X226852039Y-77284054D01*
X226788392Y-77267000D01*
X224788392Y-77267000D01*
X224656608Y-77267000D01*
X224529312Y-77301108D01*
X224415186Y-77367000D01*
X224415183Y-77367002D01*
X224322002Y-77460183D01*
X224322000Y-77460186D01*
X224256108Y-77574312D01*
X224222000Y-77701608D01*
X221623000Y-77701608D01*
X221588892Y-77574314D01*
X221523000Y-77460186D01*
X221429814Y-77367000D01*
X221372750Y-77334054D01*
X221315687Y-77301108D01*
X221252039Y-77284054D01*
X221188392Y-77267000D01*
X207188392Y-77267000D01*
X207056608Y-77267000D01*
X206929312Y-77301108D01*
X206815186Y-77367000D01*
X206815183Y-77367002D01*
X206722002Y-77460183D01*
X206722000Y-77460186D01*
X206656108Y-77574312D01*
X206622000Y-77701608D01*
X204023000Y-77701608D01*
X203988892Y-77574314D01*
X203923000Y-77460186D01*
X203829814Y-77367000D01*
X203772750Y-77334054D01*
X203715687Y-77301108D01*
X203652039Y-77284054D01*
X203588392Y-77267000D01*
X201588392Y-77267000D01*
X201456608Y-77267000D01*
X201329312Y-77301108D01*
X201215186Y-77367000D01*
X201215183Y-77367002D01*
X201122002Y-77460183D01*
X201122000Y-77460186D01*
X201056108Y-77574312D01*
X201022000Y-77701608D01*
X197810500Y-77701608D01*
X197776392Y-77574314D01*
X197710500Y-77460186D01*
X197617314Y-77367000D01*
X197560250Y-77334054D01*
X197503187Y-77301108D01*
X197439539Y-77284054D01*
X197375892Y-77267000D01*
X183375892Y-77267000D01*
X183244108Y-77267000D01*
X183116812Y-77301108D01*
X183002686Y-77367000D01*
X183002683Y-77367002D01*
X182909502Y-77460183D01*
X182909500Y-77460186D01*
X182843608Y-77574312D01*
X182809500Y-77701608D01*
X178760500Y-77701608D01*
X178726392Y-77574314D01*
X178660500Y-77460186D01*
X178567314Y-77367000D01*
X178510250Y-77334054D01*
X178453187Y-77301108D01*
X178389539Y-77284054D01*
X178325892Y-77267000D01*
X164325892Y-77267000D01*
X164194108Y-77267000D01*
X164066812Y-77301108D01*
X163952686Y-77367000D01*
X163952683Y-77367002D01*
X163859502Y-77460183D01*
X163859500Y-77460186D01*
X163793608Y-77574312D01*
X163759500Y-77701608D01*
X159710500Y-77701608D01*
X159676392Y-77574314D01*
X159610500Y-77460186D01*
X159517314Y-77367000D01*
X159460250Y-77334054D01*
X159403187Y-77301108D01*
X159339539Y-77284054D01*
X159275892Y-77267000D01*
X145275892Y-77267000D01*
X145144108Y-77267000D01*
X145016812Y-77301108D01*
X144902686Y-77367000D01*
X144902683Y-77367002D01*
X144809502Y-77460183D01*
X144809500Y-77460186D01*
X144743608Y-77574312D01*
X144709500Y-77701608D01*
X140660500Y-77701608D01*
X140626392Y-77574314D01*
X140560500Y-77460186D01*
X140467314Y-77367000D01*
X140410250Y-77334054D01*
X140353187Y-77301108D01*
X140289539Y-77284054D01*
X140225892Y-77267000D01*
X126225892Y-77267000D01*
X126094108Y-77267000D01*
X125966812Y-77301108D01*
X125852686Y-77367000D01*
X125852683Y-77367002D01*
X125759502Y-77460183D01*
X125759500Y-77460186D01*
X125693608Y-77574312D01*
X125659500Y-77701608D01*
X121610500Y-77701608D01*
X121576392Y-77574314D01*
X121510500Y-77460186D01*
X121417314Y-77367000D01*
X121360250Y-77334054D01*
X121303187Y-77301108D01*
X121239539Y-77284054D01*
X121175892Y-77267000D01*
X107175892Y-77267000D01*
X107044108Y-77267000D01*
X106916812Y-77301108D01*
X106802686Y-77367000D01*
X106802683Y-77367002D01*
X106709502Y-77460183D01*
X106709500Y-77460186D01*
X106643608Y-77574312D01*
X106609500Y-77701608D01*
X102560500Y-77701608D01*
X102526392Y-77574314D01*
X102460500Y-77460186D01*
X102367314Y-77367000D01*
X102310250Y-77334054D01*
X102253187Y-77301108D01*
X102189539Y-77284054D01*
X102125892Y-77267000D01*
X88125892Y-77267000D01*
X87994108Y-77267000D01*
X87866812Y-77301108D01*
X87752686Y-77367000D01*
X87752683Y-77367002D01*
X87659502Y-77460183D01*
X87659500Y-77460186D01*
X87593608Y-77574312D01*
X87559500Y-77701608D01*
X83510500Y-77701608D01*
X83476392Y-77574314D01*
X83410500Y-77460186D01*
X83317314Y-77367000D01*
X83260250Y-77334054D01*
X83203187Y-77301108D01*
X83139539Y-77284054D01*
X83075892Y-77267000D01*
X69075892Y-77267000D01*
X68944108Y-77267000D01*
X68816812Y-77301108D01*
X68702686Y-77367000D01*
X68702683Y-77367002D01*
X68609502Y-77460183D01*
X68609500Y-77460186D01*
X68543608Y-77574312D01*
X68509500Y-77701608D01*
X65298000Y-77701608D01*
X65263892Y-77574314D01*
X65198000Y-77460186D01*
X65104814Y-77367000D01*
X65047750Y-77334054D01*
X64990687Y-77301108D01*
X64927039Y-77284054D01*
X64863392Y-77267000D01*
X62863392Y-77267000D01*
X62731608Y-77267000D01*
X62604312Y-77301108D01*
X62490186Y-77367000D01*
X62490183Y-77367002D01*
X62397002Y-77460183D01*
X62397000Y-77460186D01*
X62331108Y-77574312D01*
X62297000Y-77701608D01*
X59698000Y-77701608D01*
X59663892Y-77574314D01*
X59598000Y-77460186D01*
X59504814Y-77367000D01*
X59447750Y-77334054D01*
X59390687Y-77301108D01*
X59327039Y-77284054D01*
X59263392Y-77267000D01*
X45263392Y-77267000D01*
X45131608Y-77267000D01*
X45004312Y-77301108D01*
X44890186Y-77367000D01*
X44890183Y-77367002D01*
X44797002Y-77460183D01*
X44797000Y-77460186D01*
X44731108Y-77574312D01*
X44697000Y-77701608D01*
X42098000Y-77701608D01*
X42063892Y-77574314D01*
X41998000Y-77460186D01*
X41904814Y-77367000D01*
X41847750Y-77334054D01*
X41790687Y-77301108D01*
X41727039Y-77284054D01*
X41663392Y-77267000D01*
X39663392Y-77267000D01*
X39531608Y-77267000D01*
X39404312Y-77301108D01*
X39290186Y-77367000D01*
X39290183Y-77367002D01*
X39197002Y-77460183D01*
X39197000Y-77460186D01*
X39131108Y-77574312D01*
X39097000Y-77701608D01*
X37648536Y-77701608D01*
X37667287Y-58651608D01*
X39934500Y-58651608D01*
X39934500Y-72783391D01*
X39968608Y-72910687D01*
X40001554Y-72967750D01*
X40034500Y-73024814D01*
X40127686Y-73118000D01*
X40241814Y-73183892D01*
X40369108Y-73218000D01*
X40369110Y-73218000D01*
X54500890Y-73218000D01*
X54500892Y-73218000D01*
X54628186Y-73183892D01*
X54742314Y-73118000D01*
X54835500Y-73024814D01*
X54901392Y-72910686D01*
X54935500Y-72783392D01*
X54935500Y-58651608D01*
X58984500Y-58651608D01*
X58984500Y-72783391D01*
X59018608Y-72910687D01*
X59051554Y-72967750D01*
X59084500Y-73024814D01*
X59177686Y-73118000D01*
X59291814Y-73183892D01*
X59419108Y-73218000D01*
X59419110Y-73218000D01*
X73550890Y-73218000D01*
X73550892Y-73218000D01*
X73678186Y-73183892D01*
X73792314Y-73118000D01*
X73885500Y-73024814D01*
X73951392Y-72910686D01*
X73985500Y-72783392D01*
X73985500Y-58651608D01*
X78034500Y-58651608D01*
X78034500Y-72783391D01*
X78068608Y-72910687D01*
X78101554Y-72967750D01*
X78134500Y-73024814D01*
X78227686Y-73118000D01*
X78341814Y-73183892D01*
X78469108Y-73218000D01*
X78469110Y-73218000D01*
X92600890Y-73218000D01*
X92600892Y-73218000D01*
X92728186Y-73183892D01*
X92842314Y-73118000D01*
X92935500Y-73024814D01*
X93001392Y-72910686D01*
X93035500Y-72783392D01*
X93035500Y-58651608D01*
X97084500Y-58651608D01*
X97084500Y-72783391D01*
X97118608Y-72910687D01*
X97151554Y-72967750D01*
X97184500Y-73024814D01*
X97277686Y-73118000D01*
X97391814Y-73183892D01*
X97519108Y-73218000D01*
X97519110Y-73218000D01*
X111650890Y-73218000D01*
X111650892Y-73218000D01*
X111778186Y-73183892D01*
X111892314Y-73118000D01*
X111985500Y-73024814D01*
X112051392Y-72910686D01*
X112085500Y-72783392D01*
X112085500Y-58651608D01*
X116134500Y-58651608D01*
X116134500Y-72783391D01*
X116168608Y-72910687D01*
X116201554Y-72967750D01*
X116234500Y-73024814D01*
X116327686Y-73118000D01*
X116441814Y-73183892D01*
X116569108Y-73218000D01*
X116569110Y-73218000D01*
X130700890Y-73218000D01*
X130700892Y-73218000D01*
X130828186Y-73183892D01*
X130942314Y-73118000D01*
X131035500Y-73024814D01*
X131101392Y-72910686D01*
X131135500Y-72783392D01*
X131135500Y-58651608D01*
X135184500Y-58651608D01*
X135184500Y-72783391D01*
X135218608Y-72910687D01*
X135251554Y-72967750D01*
X135284500Y-73024814D01*
X135377686Y-73118000D01*
X135491814Y-73183892D01*
X135619108Y-73218000D01*
X135619110Y-73218000D01*
X149750890Y-73218000D01*
X149750892Y-73218000D01*
X149878186Y-73183892D01*
X149992314Y-73118000D01*
X150085500Y-73024814D01*
X150151392Y-72910686D01*
X150185500Y-72783392D01*
X150185500Y-58651608D01*
X154234500Y-58651608D01*
X154234500Y-72783391D01*
X154268608Y-72910687D01*
X154301554Y-72967750D01*
X154334500Y-73024814D01*
X154427686Y-73118000D01*
X154541814Y-73183892D01*
X154669108Y-73218000D01*
X154669110Y-73218000D01*
X168800890Y-73218000D01*
X168800892Y-73218000D01*
X168928186Y-73183892D01*
X169042314Y-73118000D01*
X169135500Y-73024814D01*
X169201392Y-72910686D01*
X169235500Y-72783392D01*
X169235500Y-58651608D01*
X173284500Y-58651608D01*
X173284500Y-72783391D01*
X173318608Y-72910687D01*
X173351554Y-72967750D01*
X173384500Y-73024814D01*
X173477686Y-73118000D01*
X173591814Y-73183892D01*
X173719108Y-73218000D01*
X173719110Y-73218000D01*
X187850890Y-73218000D01*
X187850892Y-73218000D01*
X187978186Y-73183892D01*
X188092314Y-73118000D01*
X188185500Y-73024814D01*
X188251392Y-72910686D01*
X188285500Y-72783392D01*
X188285500Y-58651608D01*
X192334500Y-58651608D01*
X192334500Y-72783391D01*
X192368608Y-72910687D01*
X192401554Y-72967750D01*
X192434500Y-73024814D01*
X192527686Y-73118000D01*
X192641814Y-73183892D01*
X192769108Y-73218000D01*
X192769110Y-73218000D01*
X206900890Y-73218000D01*
X206900892Y-73218000D01*
X207028186Y-73183892D01*
X207142314Y-73118000D01*
X207235500Y-73024814D01*
X207301392Y-72910686D01*
X207335500Y-72783392D01*
X207335500Y-58651608D01*
X211384500Y-58651608D01*
X211384500Y-72783391D01*
X211418608Y-72910687D01*
X211451554Y-72967750D01*
X211484500Y-73024814D01*
X211577686Y-73118000D01*
X211691814Y-73183892D01*
X211819108Y-73218000D01*
X211819110Y-73218000D01*
X225950890Y-73218000D01*
X225950892Y-73218000D01*
X226078186Y-73183892D01*
X226192314Y-73118000D01*
X226285500Y-73024814D01*
X226351392Y-72910686D01*
X226385500Y-72783392D01*
X226385500Y-58651608D01*
X226351392Y-58524314D01*
X226285500Y-58410186D01*
X226192314Y-58317000D01*
X226135250Y-58284054D01*
X226078187Y-58251108D01*
X226014539Y-58234054D01*
X225950892Y-58217000D01*
X211950892Y-58217000D01*
X211819108Y-58217000D01*
X211691812Y-58251108D01*
X211577686Y-58317000D01*
X211577683Y-58317002D01*
X211484502Y-58410183D01*
X211484500Y-58410186D01*
X211418608Y-58524312D01*
X211384500Y-58651608D01*
X207335500Y-58651608D01*
X207301392Y-58524314D01*
X207235500Y-58410186D01*
X207142314Y-58317000D01*
X207085250Y-58284054D01*
X207028187Y-58251108D01*
X206964539Y-58234054D01*
X206900892Y-58217000D01*
X192900892Y-58217000D01*
X192769108Y-58217000D01*
X192641812Y-58251108D01*
X192527686Y-58317000D01*
X192527683Y-58317002D01*
X192434502Y-58410183D01*
X192434500Y-58410186D01*
X192368608Y-58524312D01*
X192334500Y-58651608D01*
X188285500Y-58651608D01*
X188251392Y-58524314D01*
X188185500Y-58410186D01*
X188092314Y-58317000D01*
X188035250Y-58284054D01*
X187978187Y-58251108D01*
X187914539Y-58234054D01*
X187850892Y-58217000D01*
X173850892Y-58217000D01*
X173719108Y-58217000D01*
X173591812Y-58251108D01*
X173477686Y-58317000D01*
X173477683Y-58317002D01*
X173384502Y-58410183D01*
X173384500Y-58410186D01*
X173318608Y-58524312D01*
X173284500Y-58651608D01*
X169235500Y-58651608D01*
X169201392Y-58524314D01*
X169135500Y-58410186D01*
X169042314Y-58317000D01*
X168985250Y-58284054D01*
X168928187Y-58251108D01*
X168864539Y-58234054D01*
X168800892Y-58217000D01*
X154800892Y-58217000D01*
X154669108Y-58217000D01*
X154541812Y-58251108D01*
X154427686Y-58317000D01*
X154427683Y-58317002D01*
X154334502Y-58410183D01*
X154334500Y-58410186D01*
X154268608Y-58524312D01*
X154234500Y-58651608D01*
X150185500Y-58651608D01*
X150151392Y-58524314D01*
X150085500Y-58410186D01*
X149992314Y-58317000D01*
X149935250Y-58284054D01*
X149878187Y-58251108D01*
X149814539Y-58234054D01*
X149750892Y-58217000D01*
X135750892Y-58217000D01*
X135619108Y-58217000D01*
X135491812Y-58251108D01*
X135377686Y-58317000D01*
X135377683Y-58317002D01*
X135284502Y-58410183D01*
X135284500Y-58410186D01*
X135218608Y-58524312D01*
X135184500Y-58651608D01*
X131135500Y-58651608D01*
X131101392Y-58524314D01*
X131035500Y-58410186D01*
X130942314Y-58317000D01*
X130885250Y-58284054D01*
X130828187Y-58251108D01*
X130764539Y-58234054D01*
X130700892Y-58217000D01*
X116700892Y-58217000D01*
X116569108Y-58217000D01*
X116441812Y-58251108D01*
X116327686Y-58317000D01*
X116327683Y-58317002D01*
X116234502Y-58410183D01*
X116234500Y-58410186D01*
X116168608Y-58524312D01*
X116134500Y-58651608D01*
X112085500Y-58651608D01*
X112051392Y-58524314D01*
X111985500Y-58410186D01*
X111892314Y-58317000D01*
X111835250Y-58284054D01*
X111778187Y-58251108D01*
X111714539Y-58234054D01*
X111650892Y-58217000D01*
X97650892Y-58217000D01*
X97519108Y-58217000D01*
X97391812Y-58251108D01*
X97277686Y-58317000D01*
X97277683Y-58317002D01*
X97184502Y-58410183D01*
X97184500Y-58410186D01*
X97118608Y-58524312D01*
X97084500Y-58651608D01*
X93035500Y-58651608D01*
X93001392Y-58524314D01*
X92935500Y-58410186D01*
X92842314Y-58317000D01*
X92785250Y-58284054D01*
X92728187Y-58251108D01*
X92664539Y-58234054D01*
X92600892Y-58217000D01*
X78600892Y-58217000D01*
X78469108Y-58217000D01*
X78341812Y-58251108D01*
X78227686Y-58317000D01*
X78227683Y-58317002D01*
X78134502Y-58410183D01*
X78134500Y-58410186D01*
X78068608Y-58524312D01*
X78034500Y-58651608D01*
X73985500Y-58651608D01*
X73951392Y-58524314D01*
X73885500Y-58410186D01*
X73792314Y-58317000D01*
X73735250Y-58284054D01*
X73678187Y-58251108D01*
X73614539Y-58234054D01*
X73550892Y-58217000D01*
X59550892Y-58217000D01*
X59419108Y-58217000D01*
X59291812Y-58251108D01*
X59177686Y-58317000D01*
X59177683Y-58317002D01*
X59084502Y-58410183D01*
X59084500Y-58410186D01*
X59018608Y-58524312D01*
X58984500Y-58651608D01*
X54935500Y-58651608D01*
X54901392Y-58524314D01*
X54835500Y-58410186D01*
X54742314Y-58317000D01*
X54685250Y-58284054D01*
X54628187Y-58251108D01*
X54564539Y-58234054D01*
X54500892Y-58217000D01*
X40500892Y-58217000D01*
X40369108Y-58217000D01*
X40241812Y-58251108D01*
X40127686Y-58317000D01*
X40127683Y-58317002D01*
X40034502Y-58410183D01*
X40034500Y-58410186D01*
X39968608Y-58524312D01*
X39934500Y-58651608D01*
X37667287Y-58651608D01*
X37684898Y-40758910D01*
X37704649Y-40691892D01*
X37757498Y-40646189D01*
X37792300Y-40636150D01*
X38009214Y-40606851D01*
X38104492Y-40593982D01*
X38476059Y-40506037D01*
X38837219Y-40382102D01*
X39184495Y-40223372D01*
X39514545Y-40031374D01*
X39737946Y-39870184D01*
X39803829Y-39846923D01*
X39871830Y-39862972D01*
X39920360Y-39913238D01*
X39934500Y-39970743D01*
X39934500Y-53733391D01*
X39968608Y-53860687D01*
X40001554Y-53917750D01*
X40034500Y-53974814D01*
X40127686Y-54068000D01*
X40241814Y-54133892D01*
X40369108Y-54168000D01*
X40369110Y-54168000D01*
X54500890Y-54168000D01*
X54500892Y-54168000D01*
X54628186Y-54133892D01*
X54742314Y-54068000D01*
X54835500Y-53974814D01*
X54901392Y-53860686D01*
X54935500Y-53733392D01*
X54935500Y-39601608D01*
X58984500Y-39601608D01*
X58984500Y-53733391D01*
X59018608Y-53860687D01*
X59051554Y-53917750D01*
X59084500Y-53974814D01*
X59177686Y-54068000D01*
X59291814Y-54133892D01*
X59419108Y-54168000D01*
X59419110Y-54168000D01*
X73550890Y-54168000D01*
X73550892Y-54168000D01*
X73678186Y-54133892D01*
X73792314Y-54068000D01*
X73885500Y-53974814D01*
X73951392Y-53860686D01*
X73985500Y-53733392D01*
X73985500Y-39601608D01*
X78034500Y-39601608D01*
X78034500Y-53733391D01*
X78068608Y-53860687D01*
X78101554Y-53917750D01*
X78134500Y-53974814D01*
X78227686Y-54068000D01*
X78341814Y-54133892D01*
X78469108Y-54168000D01*
X78469110Y-54168000D01*
X92600890Y-54168000D01*
X92600892Y-54168000D01*
X92728186Y-54133892D01*
X92842314Y-54068000D01*
X92935500Y-53974814D01*
X93001392Y-53860686D01*
X93035500Y-53733392D01*
X93035500Y-39601608D01*
X97084500Y-39601608D01*
X97084500Y-53733391D01*
X97118608Y-53860687D01*
X97151554Y-53917750D01*
X97184500Y-53974814D01*
X97277686Y-54068000D01*
X97391814Y-54133892D01*
X97519108Y-54168000D01*
X97519110Y-54168000D01*
X111650890Y-54168000D01*
X111650892Y-54168000D01*
X111778186Y-54133892D01*
X111892314Y-54068000D01*
X111985500Y-53974814D01*
X112051392Y-53860686D01*
X112085500Y-53733392D01*
X112085500Y-39601608D01*
X116134500Y-39601608D01*
X116134500Y-53733391D01*
X116168608Y-53860687D01*
X116201554Y-53917750D01*
X116234500Y-53974814D01*
X116327686Y-54068000D01*
X116441814Y-54133892D01*
X116569108Y-54168000D01*
X116569110Y-54168000D01*
X130700890Y-54168000D01*
X130700892Y-54168000D01*
X130828186Y-54133892D01*
X130942314Y-54068000D01*
X131035500Y-53974814D01*
X131101392Y-53860686D01*
X131135500Y-53733392D01*
X131135500Y-39601608D01*
X131101392Y-39474314D01*
X131035500Y-39360186D01*
X130942314Y-39267000D01*
X130885250Y-39234054D01*
X130828187Y-39201108D01*
X130764539Y-39184054D01*
X130700892Y-39167000D01*
X116700892Y-39167000D01*
X116569108Y-39167000D01*
X116441812Y-39201108D01*
X116327686Y-39267000D01*
X116327683Y-39267002D01*
X116234502Y-39360183D01*
X116234500Y-39360186D01*
X116168608Y-39474312D01*
X116134500Y-39601608D01*
X112085500Y-39601608D01*
X112051392Y-39474314D01*
X111985500Y-39360186D01*
X111892314Y-39267000D01*
X111835250Y-39234054D01*
X111778187Y-39201108D01*
X111714539Y-39184054D01*
X111650892Y-39167000D01*
X97650892Y-39167000D01*
X97519108Y-39167000D01*
X97391812Y-39201108D01*
X97277686Y-39267000D01*
X97277683Y-39267002D01*
X97184502Y-39360183D01*
X97184500Y-39360186D01*
X97118608Y-39474312D01*
X97084500Y-39601608D01*
X93035500Y-39601608D01*
X93001392Y-39474314D01*
X92935500Y-39360186D01*
X92842314Y-39267000D01*
X92785250Y-39234054D01*
X92728187Y-39201108D01*
X92664539Y-39184054D01*
X92600892Y-39167000D01*
X78600892Y-39167000D01*
X78469108Y-39167000D01*
X78341812Y-39201108D01*
X78227686Y-39267000D01*
X78227683Y-39267002D01*
X78134502Y-39360183D01*
X78134500Y-39360186D01*
X78068608Y-39474312D01*
X78034500Y-39601608D01*
X73985500Y-39601608D01*
X73951392Y-39474314D01*
X73885500Y-39360186D01*
X73792314Y-39267000D01*
X73735250Y-39234054D01*
X73678187Y-39201108D01*
X73614539Y-39184054D01*
X73550892Y-39167000D01*
X59550892Y-39167000D01*
X59419108Y-39167000D01*
X59291812Y-39201108D01*
X59177686Y-39267000D01*
X59177683Y-39267002D01*
X59084502Y-39360183D01*
X59084500Y-39360186D01*
X59018608Y-39474312D01*
X58984500Y-39601608D01*
X54935500Y-39601608D01*
X54901392Y-39474314D01*
X54835500Y-39360186D01*
X54742314Y-39267000D01*
X54685250Y-39234054D01*
X54628187Y-39201108D01*
X54564539Y-39184054D01*
X54500892Y-39167000D01*
X54500891Y-39167000D01*
X40703771Y-39167000D01*
X40636732Y-39147315D01*
X40590977Y-39094511D01*
X40581033Y-39025353D01*
X40600764Y-38974862D01*
X40600452Y-38974670D01*
X40601508Y-38972959D01*
X40601590Y-38972750D01*
X40602039Y-38972095D01*
X40602051Y-38972080D01*
X40802655Y-38647189D01*
X40970456Y-38304204D01*
X41103838Y-37946426D01*
X41201517Y-37577298D01*
X41262553Y-37200376D01*
X41279340Y-36931617D01*
X41303166Y-36865937D01*
X41358719Y-36823563D01*
X41403005Y-36815349D01*
X148195238Y-36738459D01*
X148262290Y-36758095D01*
X148308083Y-36810866D01*
X148318874Y-36851878D01*
X148343584Y-37140412D01*
X148414146Y-37518602D01*
X148414147Y-37518604D01*
X148521756Y-37887976D01*
X148665351Y-38244894D01*
X148843529Y-38585871D01*
X149054540Y-38907553D01*
X149054548Y-38907565D01*
X149054552Y-38907571D01*
X149054555Y-38907574D01*
X149101010Y-38965071D01*
X149127831Y-39029588D01*
X149115513Y-39098363D01*
X149067967Y-39149561D01*
X149004558Y-39167000D01*
X135619108Y-39167000D01*
X135491812Y-39201108D01*
X135377686Y-39267000D01*
X135377683Y-39267002D01*
X135284502Y-39360183D01*
X135284500Y-39360186D01*
X135218608Y-39474312D01*
X135184500Y-39601608D01*
X135184500Y-53733391D01*
X135218608Y-53860687D01*
X135251554Y-53917750D01*
X135284500Y-53974814D01*
X135377686Y-54068000D01*
X135491814Y-54133892D01*
X135619108Y-54168000D01*
X135619110Y-54168000D01*
X149750890Y-54168000D01*
X149750892Y-54168000D01*
X149878186Y-54133892D01*
X149992314Y-54068000D01*
X150085500Y-53974814D01*
X150151392Y-53860686D01*
X150185500Y-53733392D01*
X150185500Y-40152078D01*
X150205185Y-40085039D01*
X150257989Y-40039284D01*
X150327147Y-40029340D01*
X150368415Y-40042968D01*
X150519780Y-40124703D01*
X150874718Y-40273138D01*
X151242591Y-40385756D01*
X151619796Y-40461453D01*
X152002637Y-40499488D01*
X152002642Y-40499488D01*
X152387358Y-40499488D01*
X152387363Y-40499488D01*
X152770204Y-40461453D01*
X153147409Y-40385756D01*
X153515282Y-40273138D01*
X153870220Y-40124703D01*
X154051585Y-40026768D01*
X154119924Y-40012237D01*
X154185273Y-40036959D01*
X154226883Y-40093088D01*
X154234500Y-40135878D01*
X154234500Y-53733391D01*
X154268608Y-53860687D01*
X154301554Y-53917750D01*
X154334500Y-53974814D01*
X154427686Y-54068000D01*
X154541814Y-54133892D01*
X154669108Y-54168000D01*
X154669110Y-54168000D01*
X168800890Y-54168000D01*
X168800892Y-54168000D01*
X168928186Y-54133892D01*
X169042314Y-54068000D01*
X169135500Y-53974814D01*
X169201392Y-53860686D01*
X169235500Y-53733392D01*
X169235500Y-39601608D01*
X173284500Y-39601608D01*
X173284500Y-53733391D01*
X173318608Y-53860687D01*
X173351554Y-53917750D01*
X173384500Y-53974814D01*
X173477686Y-54068000D01*
X173591814Y-54133892D01*
X173719108Y-54168000D01*
X173719110Y-54168000D01*
X187850890Y-54168000D01*
X187850892Y-54168000D01*
X187978186Y-54133892D01*
X188092314Y-54068000D01*
X188185500Y-53974814D01*
X188251392Y-53860686D01*
X188285500Y-53733392D01*
X188285500Y-39601608D01*
X192334500Y-39601608D01*
X192334500Y-53733391D01*
X192368608Y-53860687D01*
X192401554Y-53917750D01*
X192434500Y-53974814D01*
X192527686Y-54068000D01*
X192641814Y-54133892D01*
X192769108Y-54168000D01*
X192769110Y-54168000D01*
X206900890Y-54168000D01*
X206900892Y-54168000D01*
X207028186Y-54133892D01*
X207142314Y-54068000D01*
X207235500Y-53974814D01*
X207301392Y-53860686D01*
X207335500Y-53733392D01*
X207335500Y-39601608D01*
X211384500Y-39601608D01*
X211384500Y-53733391D01*
X211418608Y-53860687D01*
X211451554Y-53917750D01*
X211484500Y-53974814D01*
X211577686Y-54068000D01*
X211691814Y-54133892D01*
X211819108Y-54168000D01*
X211819110Y-54168000D01*
X225950890Y-54168000D01*
X225950892Y-54168000D01*
X226078186Y-54133892D01*
X226192314Y-54068000D01*
X226285500Y-53974814D01*
X226351392Y-53860686D01*
X226385500Y-53733392D01*
X226385500Y-39601608D01*
X226351392Y-39474314D01*
X226285500Y-39360186D01*
X226192314Y-39267000D01*
X226135250Y-39234054D01*
X226078187Y-39201108D01*
X226014539Y-39184054D01*
X225950892Y-39167000D01*
X211950892Y-39167000D01*
X211819108Y-39167000D01*
X211691812Y-39201108D01*
X211577686Y-39267000D01*
X211577683Y-39267002D01*
X211484502Y-39360183D01*
X211484500Y-39360186D01*
X211418608Y-39474312D01*
X211384500Y-39601608D01*
X207335500Y-39601608D01*
X207301392Y-39474314D01*
X207235500Y-39360186D01*
X207142314Y-39267000D01*
X207085250Y-39234054D01*
X207028187Y-39201108D01*
X206964539Y-39184054D01*
X206900892Y-39167000D01*
X192900892Y-39167000D01*
X192769108Y-39167000D01*
X192641812Y-39201108D01*
X192527686Y-39267000D01*
X192527683Y-39267002D01*
X192434502Y-39360183D01*
X192434500Y-39360186D01*
X192368608Y-39474312D01*
X192334500Y-39601608D01*
X188285500Y-39601608D01*
X188251392Y-39474314D01*
X188185500Y-39360186D01*
X188092314Y-39267000D01*
X188035250Y-39234054D01*
X187978187Y-39201108D01*
X187914539Y-39184054D01*
X187850892Y-39167000D01*
X173850892Y-39167000D01*
X173719108Y-39167000D01*
X173591812Y-39201108D01*
X173477686Y-39267000D01*
X173477683Y-39267002D01*
X173384502Y-39360183D01*
X173384500Y-39360186D01*
X173318608Y-39474312D01*
X173284500Y-39601608D01*
X169235500Y-39601608D01*
X169201392Y-39474314D01*
X169135500Y-39360186D01*
X169042314Y-39267000D01*
X168985250Y-39234054D01*
X168928187Y-39201108D01*
X168864539Y-39184054D01*
X168800892Y-39167000D01*
X168800891Y-39167000D01*
X155385442Y-39167000D01*
X155318403Y-39147315D01*
X155272648Y-39094511D01*
X155262704Y-39025353D01*
X155288990Y-38965071D01*
X155315503Y-38932255D01*
X155335452Y-38907565D01*
X155546469Y-38585873D01*
X155724648Y-38244895D01*
X155868245Y-37887973D01*
X155975853Y-37518603D01*
X156024545Y-37257628D01*
X156046415Y-37140412D01*
X156046416Y-37140403D01*
X156071211Y-36850872D01*
X156096544Y-36785759D01*
X156153060Y-36744677D01*
X156194649Y-36737455D01*
X225415637Y-36678551D01*
X225482692Y-36698179D01*
G37*
%TD.AperFunction*%
M02*
