%TF.GenerationSoftware,KiCad,Pcbnew,8.0.5*%
%TF.CreationDate,2024-09-26T23:09:54+02:00*%
%TF.ProjectId,3u plate,33752070-6c61-4746-952e-6b696361645f,rev?*%
%TF.SameCoordinates,Original*%
%TF.FileFunction,Profile,NP*%
%FSLAX46Y46*%
G04 Gerber Fmt 4.6, Leading zero omitted, Abs format (unit mm)*
G04 Created by KiCad (PCBNEW 8.0.5) date 2024-09-26 23:09:54*
%MOMM*%
%LPD*%
G01*
G04 APERTURE LIST*
%TA.AperFunction,Profile*%
%ADD10C,0.200000*%
%TD*%
%TA.AperFunction,Profile*%
%ADD11C,0.100000*%
%TD*%
G04 APERTURE END LIST*
D10*
X54435000Y-39667500D02*
X40435000Y-39667500D01*
X192835000Y-110817500D02*
X206835000Y-110817500D01*
X73485000Y-53667500D02*
X73485000Y-39667500D01*
X211885000Y-110817500D02*
X225885000Y-110817500D01*
X130635000Y-39667500D02*
X116635000Y-39667500D01*
X192835000Y-96817500D02*
X192835000Y-110817500D01*
X168735000Y-53667500D02*
X168735000Y-39667500D01*
X135685000Y-53667500D02*
X149685000Y-53667500D01*
X89035000Y-95817500D02*
X82035000Y-95817500D01*
X39597500Y-91767500D02*
X41597500Y-91767500D01*
X187785000Y-53667500D02*
X187785000Y-39667500D01*
X221122500Y-77767500D02*
X207122500Y-77767500D01*
X178260000Y-91767500D02*
X178260000Y-77767500D01*
X187785000Y-58717500D02*
X173785000Y-58717500D01*
X203522500Y-91767500D02*
X203522500Y-77767500D01*
X59197500Y-77767500D02*
X45197500Y-77767500D01*
X225885000Y-72717500D02*
X225885000Y-58717500D01*
X92535000Y-53667500D02*
X92535000Y-39667500D01*
X116635000Y-53667500D02*
X130635000Y-53667500D01*
X177285000Y-95817500D02*
X177285000Y-110817500D01*
X206835000Y-53667500D02*
X206835000Y-39667500D01*
X69010000Y-77767500D02*
X69010000Y-91767500D01*
D11*
X40751190Y-36315320D02*
G75*
G02*
X37185000Y-40147497I-3356190J-452180D01*
G01*
D10*
X168735000Y-96817500D02*
X154735000Y-96817500D01*
X225885000Y-39667500D02*
X211885000Y-39667500D01*
X225885000Y-96817500D02*
X211885000Y-96817500D01*
X69010000Y-91767500D02*
X83010000Y-91767500D01*
X139185000Y-95817500D02*
X139185000Y-110817500D01*
X197310000Y-91767500D02*
X197310000Y-77767500D01*
X40435000Y-96817500D02*
X40435000Y-110817500D01*
X207122500Y-91767500D02*
X221122500Y-91767500D01*
X78535000Y-58717500D02*
X78535000Y-72717500D01*
X145210000Y-77767500D02*
X145210000Y-91767500D01*
X211885000Y-72717500D02*
X225885000Y-72717500D01*
X192835000Y-53667500D02*
X206835000Y-53667500D01*
X178260000Y-77767500D02*
X164260000Y-77767500D01*
D11*
X155555000Y-36237500D02*
G75*
G02*
X148835000Y-36237500I-3360000J-380000D01*
G01*
D10*
X97585000Y-58717500D02*
X97585000Y-72717500D01*
X211885000Y-53667500D02*
X225885000Y-53667500D01*
X173785000Y-53667500D02*
X187785000Y-53667500D01*
X59197500Y-91767500D02*
X59197500Y-77767500D01*
X59485000Y-96817500D02*
X59485000Y-110817500D01*
X62797500Y-77767500D02*
X62797500Y-91767500D01*
X111585000Y-58717500D02*
X97585000Y-58717500D01*
X111585000Y-53667500D02*
X111585000Y-39667500D01*
X168735000Y-110817500D02*
X168735000Y-96817500D01*
X116635000Y-39667500D02*
X116635000Y-53667500D01*
X224722500Y-77767500D02*
X224722500Y-91767500D01*
X206835000Y-96817500D02*
X192835000Y-96817500D01*
X97585000Y-39667500D02*
X97585000Y-53667500D01*
X59485000Y-53667500D02*
X73485000Y-53667500D01*
X116635000Y-72717500D02*
X130635000Y-72717500D01*
X135685000Y-58717500D02*
X135685000Y-72717500D01*
X146185000Y-110817500D02*
X146185000Y-95817500D01*
X139185000Y-110817500D02*
X146185000Y-110817500D01*
X97585000Y-96817500D02*
X97585000Y-110817500D01*
X41597500Y-91767500D02*
X41597500Y-77767500D01*
X82035000Y-95817500D02*
X82035000Y-110817500D01*
X146185000Y-95817500D02*
X139185000Y-95817500D01*
X201522500Y-91767500D02*
X203522500Y-91767500D01*
X206835000Y-72717500D02*
X206835000Y-58717500D01*
D11*
X225792960Y-113751860D02*
G75*
G02*
X228945000Y-110977501I3242040J-505640D01*
G01*
D10*
X59485000Y-58717500D02*
X59485000Y-72717500D01*
X164260000Y-77767500D02*
X164260000Y-91767500D01*
X92535000Y-39667500D02*
X78535000Y-39667500D01*
X73485000Y-39667500D02*
X59485000Y-39667500D01*
X120135000Y-110817500D02*
X127135000Y-110817500D01*
X82035000Y-110817500D02*
X89035000Y-110817500D01*
X221122500Y-91767500D02*
X221122500Y-77767500D01*
X41597500Y-77767500D02*
X39597500Y-77767500D01*
X140160000Y-77767500D02*
X126160000Y-77767500D01*
X62797500Y-91767500D02*
X64797500Y-91767500D01*
X135685000Y-39667500D02*
X135685000Y-53667500D01*
X130635000Y-72717500D02*
X130635000Y-58717500D01*
X206835000Y-110817500D02*
X206835000Y-96817500D01*
X120135000Y-95817500D02*
X120135000Y-110817500D01*
X45197500Y-77767500D02*
X45197500Y-91767500D01*
X78535000Y-72717500D02*
X92535000Y-72717500D01*
X140160000Y-91767500D02*
X140160000Y-77767500D01*
D11*
X228945000Y-110977500D02*
X228950050Y-39924190D01*
D10*
X130635000Y-58717500D02*
X116635000Y-58717500D01*
X88060000Y-91767500D02*
X102060000Y-91767500D01*
X54435000Y-110817500D02*
X54435000Y-96817500D01*
X135685000Y-72717500D02*
X149685000Y-72717500D01*
X168735000Y-72717500D02*
X168735000Y-58717500D01*
X154735000Y-96817500D02*
X154735000Y-110817500D01*
D11*
X37185000Y-40147500D02*
X37115100Y-111164400D01*
D10*
X39597500Y-77767500D02*
X39597500Y-91767500D01*
X154735000Y-110817500D02*
X168735000Y-110817500D01*
X159210000Y-91767500D02*
X159210000Y-77767500D01*
X173785000Y-58717500D02*
X173785000Y-72717500D01*
X164260000Y-91767500D02*
X178260000Y-91767500D01*
X154735000Y-39667500D02*
X154735000Y-53667500D01*
X102060000Y-77767500D02*
X88060000Y-77767500D01*
X173785000Y-72717500D02*
X187785000Y-72717500D01*
X54435000Y-53667500D02*
X54435000Y-39667500D01*
D11*
X142884020Y-113811810D02*
G75*
G02*
X149205001Y-113807500I3160980J-715690D01*
G01*
D10*
X127135000Y-95817500D02*
X120135000Y-95817500D01*
X159210000Y-77767500D02*
X145210000Y-77767500D01*
X83010000Y-77767500D02*
X69010000Y-77767500D01*
X226722500Y-91767500D02*
X226722500Y-77767500D01*
X111585000Y-96817500D02*
X97585000Y-96817500D01*
X206835000Y-39667500D02*
X192835000Y-39667500D01*
X107110000Y-91767500D02*
X121110000Y-91767500D01*
X206835000Y-58717500D02*
X192835000Y-58717500D01*
X121110000Y-91767500D02*
X121110000Y-77767500D01*
X149685000Y-72717500D02*
X149685000Y-58717500D01*
X187785000Y-39667500D02*
X173785000Y-39667500D01*
X192835000Y-58717500D02*
X192835000Y-72717500D01*
X211885000Y-39667500D02*
X211885000Y-53667500D01*
D11*
X37115100Y-111164400D02*
G75*
G02*
X40505000Y-113887500I279900J-3123100D01*
G01*
D10*
X111585000Y-72717500D02*
X111585000Y-58717500D01*
X111585000Y-39667500D02*
X97585000Y-39667500D01*
X40435000Y-58717500D02*
X40435000Y-72717500D01*
X64797500Y-77767500D02*
X62797500Y-77767500D01*
D11*
X228950050Y-39924190D02*
G75*
G02*
X226064938Y-36177492I424150J3310790D01*
G01*
D10*
X88060000Y-77767500D02*
X88060000Y-91767500D01*
X173785000Y-39667500D02*
X173785000Y-53667500D01*
X64797500Y-91767500D02*
X64797500Y-77767500D01*
X225885000Y-53667500D02*
X225885000Y-39667500D01*
X97585000Y-72717500D02*
X111585000Y-72717500D01*
X89035000Y-110817500D02*
X89035000Y-95817500D01*
X192835000Y-39667500D02*
X192835000Y-53667500D01*
X226722500Y-77767500D02*
X224722500Y-77767500D01*
X40435000Y-39667500D02*
X40435000Y-53667500D01*
X201522500Y-77767500D02*
X201522500Y-91767500D01*
X73485000Y-72717500D02*
X73485000Y-58717500D01*
X83010000Y-91767500D02*
X83010000Y-77767500D01*
X149685000Y-53667500D02*
X149685000Y-39667500D01*
X78535000Y-53667500D02*
X92535000Y-53667500D01*
X59485000Y-72717500D02*
X73485000Y-72717500D01*
D11*
X155555000Y-36237500D02*
X226064994Y-36177499D01*
D10*
X54435000Y-58717500D02*
X40435000Y-58717500D01*
X54435000Y-72717500D02*
X54435000Y-58717500D01*
X97585000Y-53667500D02*
X111585000Y-53667500D01*
X126160000Y-77767500D02*
X126160000Y-91767500D01*
X183310000Y-91767500D02*
X197310000Y-91767500D01*
X154735000Y-58717500D02*
X154735000Y-72717500D01*
X121110000Y-77767500D02*
X107110000Y-77767500D01*
X203522500Y-77767500D02*
X201522500Y-77767500D01*
X184285000Y-110817500D02*
X184285000Y-95817500D01*
X40435000Y-72717500D02*
X54435000Y-72717500D01*
X154735000Y-72717500D02*
X168735000Y-72717500D01*
X211885000Y-58717500D02*
X211885000Y-72717500D01*
X207122500Y-77767500D02*
X207122500Y-91767500D01*
X127135000Y-110817500D02*
X127135000Y-95817500D01*
X92535000Y-58717500D02*
X78535000Y-58717500D01*
X225885000Y-110817500D02*
X225885000Y-96817500D01*
X168735000Y-58717500D02*
X154735000Y-58717500D01*
X59485000Y-39667500D02*
X59485000Y-53667500D01*
X73485000Y-110817500D02*
X73485000Y-96817500D01*
D11*
X148835000Y-36237500D02*
X40751190Y-36315320D01*
D10*
X184285000Y-95817500D02*
X177285000Y-95817500D01*
X97585000Y-110817500D02*
X111585000Y-110817500D01*
X59485000Y-110817500D02*
X73485000Y-110817500D01*
X130635000Y-53667500D02*
X130635000Y-39667500D01*
X40435000Y-53667500D02*
X54435000Y-53667500D01*
X73485000Y-58717500D02*
X59485000Y-58717500D01*
D11*
X149205001Y-113807500D02*
X225792960Y-113751860D01*
D10*
X145210000Y-91767500D02*
X159210000Y-91767500D01*
X107110000Y-77767500D02*
X107110000Y-91767500D01*
X187785000Y-72717500D02*
X187785000Y-58717500D01*
X149685000Y-39667500D02*
X135685000Y-39667500D01*
X73485000Y-96817500D02*
X59485000Y-96817500D01*
D11*
X40505000Y-113887500D02*
X142884020Y-113811810D01*
D10*
X154735000Y-53667500D02*
X168735000Y-53667500D01*
X192835000Y-72717500D02*
X206835000Y-72717500D01*
X177285000Y-110817500D02*
X184285000Y-110817500D01*
X168735000Y-39667500D02*
X154735000Y-39667500D01*
X183310000Y-77767500D02*
X183310000Y-91767500D01*
X54435000Y-96817500D02*
X40435000Y-96817500D01*
X45197500Y-91767500D02*
X59197500Y-91767500D01*
X224722500Y-91767500D02*
X226722500Y-91767500D01*
X78535000Y-39667500D02*
X78535000Y-53667500D01*
X197310000Y-77767500D02*
X183310000Y-77767500D01*
X149685000Y-58717500D02*
X135685000Y-58717500D01*
X225885000Y-58717500D02*
X211885000Y-58717500D01*
X116635000Y-58717500D02*
X116635000Y-72717500D01*
X92535000Y-72717500D02*
X92535000Y-58717500D01*
X102060000Y-91767500D02*
X102060000Y-77767500D01*
X40435000Y-110817500D02*
X54435000Y-110817500D01*
X126160000Y-91767500D02*
X140160000Y-91767500D01*
X111585000Y-110817500D02*
X111585000Y-96817500D01*
X211885000Y-96817500D02*
X211885000Y-110817500D01*
M02*
