%TF.GenerationSoftware,KiCad,Pcbnew,8.0.5*%
%TF.CreationDate,2024-09-21T14:39:32+02:00*%
%TF.ProjectId,m0ii0 alpha,6d306969-3020-4616-9c70-68612e6b6963,rev?*%
%TF.SameCoordinates,Original*%
%TF.FileFunction,Legend,Bot*%
%TF.FilePolarity,Positive*%
%FSLAX46Y46*%
G04 Gerber Fmt 4.6, Leading zero omitted, Abs format (unit mm)*
G04 Created by KiCad (PCBNEW 8.0.5) date 2024-09-21 14:39:32*
%MOMM*%
%LPD*%
G01*
G04 APERTURE LIST*
%ADD10C,0.150000*%
%ADD11C,0.120000*%
G04 APERTURE END LIST*
D10*
X58774819Y-58414583D02*
X58298628Y-58081250D01*
X58774819Y-57843155D02*
X57774819Y-57843155D01*
X57774819Y-57843155D02*
X57774819Y-58224107D01*
X57774819Y-58224107D02*
X57822438Y-58319345D01*
X57822438Y-58319345D02*
X57870057Y-58366964D01*
X57870057Y-58366964D02*
X57965295Y-58414583D01*
X57965295Y-58414583D02*
X58108152Y-58414583D01*
X58108152Y-58414583D02*
X58203390Y-58366964D01*
X58203390Y-58366964D02*
X58251009Y-58319345D01*
X58251009Y-58319345D02*
X58298628Y-58224107D01*
X58298628Y-58224107D02*
X58298628Y-57843155D01*
X58108152Y-59271726D02*
X58774819Y-59271726D01*
X57727200Y-59033631D02*
X58441485Y-58795536D01*
X58441485Y-58795536D02*
X58441485Y-59414583D01*
X44376005Y-43993330D02*
X44423624Y-44040950D01*
X44423624Y-44040950D02*
X44566481Y-44088569D01*
X44566481Y-44088569D02*
X44661719Y-44088569D01*
X44661719Y-44088569D02*
X44804576Y-44040950D01*
X44804576Y-44040950D02*
X44899814Y-43945711D01*
X44899814Y-43945711D02*
X44947433Y-43850473D01*
X44947433Y-43850473D02*
X44995052Y-43659997D01*
X44995052Y-43659997D02*
X44995052Y-43517140D01*
X44995052Y-43517140D02*
X44947433Y-43326664D01*
X44947433Y-43326664D02*
X44899814Y-43231426D01*
X44899814Y-43231426D02*
X44804576Y-43136188D01*
X44804576Y-43136188D02*
X44661719Y-43088569D01*
X44661719Y-43088569D02*
X44566481Y-43088569D01*
X44566481Y-43088569D02*
X44423624Y-43136188D01*
X44423624Y-43136188D02*
X44376005Y-43183807D01*
X43423624Y-44088569D02*
X43995052Y-44088569D01*
X43709338Y-44088569D02*
X43709338Y-43088569D01*
X43709338Y-43088569D02*
X43804576Y-43231426D01*
X43804576Y-43231426D02*
X43899814Y-43326664D01*
X43899814Y-43326664D02*
X43995052Y-43374283D01*
X43090290Y-43088569D02*
X42423624Y-43088569D01*
X42423624Y-43088569D02*
X42852195Y-44088569D01*
X188891069Y-71937714D02*
X187891069Y-71937714D01*
X187891069Y-71937714D02*
X187891069Y-72175809D01*
X187891069Y-72175809D02*
X187938688Y-72318666D01*
X187938688Y-72318666D02*
X188033926Y-72413904D01*
X188033926Y-72413904D02*
X188129164Y-72461523D01*
X188129164Y-72461523D02*
X188319640Y-72509142D01*
X188319640Y-72509142D02*
X188462497Y-72509142D01*
X188462497Y-72509142D02*
X188652973Y-72461523D01*
X188652973Y-72461523D02*
X188748211Y-72413904D01*
X188748211Y-72413904D02*
X188843450Y-72318666D01*
X188843450Y-72318666D02*
X188891069Y-72175809D01*
X188891069Y-72175809D02*
X188891069Y-71937714D01*
X187986307Y-72890095D02*
X187938688Y-72937714D01*
X187938688Y-72937714D02*
X187891069Y-73032952D01*
X187891069Y-73032952D02*
X187891069Y-73271047D01*
X187891069Y-73271047D02*
X187938688Y-73366285D01*
X187938688Y-73366285D02*
X187986307Y-73413904D01*
X187986307Y-73413904D02*
X188081545Y-73461523D01*
X188081545Y-73461523D02*
X188176783Y-73461523D01*
X188176783Y-73461523D02*
X188319640Y-73413904D01*
X188319640Y-73413904D02*
X188891069Y-72842476D01*
X188891069Y-72842476D02*
X188891069Y-73461523D01*
X188319640Y-74032952D02*
X188272021Y-73937714D01*
X188272021Y-73937714D02*
X188224402Y-73890095D01*
X188224402Y-73890095D02*
X188129164Y-73842476D01*
X188129164Y-73842476D02*
X188081545Y-73842476D01*
X188081545Y-73842476D02*
X187986307Y-73890095D01*
X187986307Y-73890095D02*
X187938688Y-73937714D01*
X187938688Y-73937714D02*
X187891069Y-74032952D01*
X187891069Y-74032952D02*
X187891069Y-74223428D01*
X187891069Y-74223428D02*
X187938688Y-74318666D01*
X187938688Y-74318666D02*
X187986307Y-74366285D01*
X187986307Y-74366285D02*
X188081545Y-74413904D01*
X188081545Y-74413904D02*
X188129164Y-74413904D01*
X188129164Y-74413904D02*
X188224402Y-74366285D01*
X188224402Y-74366285D02*
X188272021Y-74318666D01*
X188272021Y-74318666D02*
X188319640Y-74223428D01*
X188319640Y-74223428D02*
X188319640Y-74032952D01*
X188319640Y-74032952D02*
X188367259Y-73937714D01*
X188367259Y-73937714D02*
X188414878Y-73890095D01*
X188414878Y-73890095D02*
X188510116Y-73842476D01*
X188510116Y-73842476D02*
X188700592Y-73842476D01*
X188700592Y-73842476D02*
X188795830Y-73890095D01*
X188795830Y-73890095D02*
X188843450Y-73937714D01*
X188843450Y-73937714D02*
X188891069Y-74032952D01*
X188891069Y-74032952D02*
X188891069Y-74223428D01*
X188891069Y-74223428D02*
X188843450Y-74318666D01*
X188843450Y-74318666D02*
X188795830Y-74366285D01*
X188795830Y-74366285D02*
X188700592Y-74413904D01*
X188700592Y-74413904D02*
X188510116Y-74413904D01*
X188510116Y-74413904D02*
X188414878Y-74366285D01*
X188414878Y-74366285D02*
X188367259Y-74318666D01*
X188367259Y-74318666D02*
X188319640Y-74223428D01*
X217466069Y-52887714D02*
X216466069Y-52887714D01*
X216466069Y-52887714D02*
X216466069Y-53125809D01*
X216466069Y-53125809D02*
X216513688Y-53268666D01*
X216513688Y-53268666D02*
X216608926Y-53363904D01*
X216608926Y-53363904D02*
X216704164Y-53411523D01*
X216704164Y-53411523D02*
X216894640Y-53459142D01*
X216894640Y-53459142D02*
X217037497Y-53459142D01*
X217037497Y-53459142D02*
X217227973Y-53411523D01*
X217227973Y-53411523D02*
X217323211Y-53363904D01*
X217323211Y-53363904D02*
X217418450Y-53268666D01*
X217418450Y-53268666D02*
X217466069Y-53125809D01*
X217466069Y-53125809D02*
X217466069Y-52887714D01*
X216561307Y-53840095D02*
X216513688Y-53887714D01*
X216513688Y-53887714D02*
X216466069Y-53982952D01*
X216466069Y-53982952D02*
X216466069Y-54221047D01*
X216466069Y-54221047D02*
X216513688Y-54316285D01*
X216513688Y-54316285D02*
X216561307Y-54363904D01*
X216561307Y-54363904D02*
X216656545Y-54411523D01*
X216656545Y-54411523D02*
X216751783Y-54411523D01*
X216751783Y-54411523D02*
X216894640Y-54363904D01*
X216894640Y-54363904D02*
X217466069Y-53792476D01*
X217466069Y-53792476D02*
X217466069Y-54411523D01*
X216466069Y-55030571D02*
X216466069Y-55125809D01*
X216466069Y-55125809D02*
X216513688Y-55221047D01*
X216513688Y-55221047D02*
X216561307Y-55268666D01*
X216561307Y-55268666D02*
X216656545Y-55316285D01*
X216656545Y-55316285D02*
X216847021Y-55363904D01*
X216847021Y-55363904D02*
X217085116Y-55363904D01*
X217085116Y-55363904D02*
X217275592Y-55316285D01*
X217275592Y-55316285D02*
X217370830Y-55268666D01*
X217370830Y-55268666D02*
X217418450Y-55221047D01*
X217418450Y-55221047D02*
X217466069Y-55125809D01*
X217466069Y-55125809D02*
X217466069Y-55030571D01*
X217466069Y-55030571D02*
X217418450Y-54935333D01*
X217418450Y-54935333D02*
X217370830Y-54887714D01*
X217370830Y-54887714D02*
X217275592Y-54840095D01*
X217275592Y-54840095D02*
X217085116Y-54792476D01*
X217085116Y-54792476D02*
X216847021Y-54792476D01*
X216847021Y-54792476D02*
X216656545Y-54840095D01*
X216656545Y-54840095D02*
X216561307Y-54887714D01*
X216561307Y-54887714D02*
X216513688Y-54935333D01*
X216513688Y-54935333D02*
X216466069Y-55030571D01*
X46016069Y-71937714D02*
X45016069Y-71937714D01*
X45016069Y-71937714D02*
X45016069Y-72175809D01*
X45016069Y-72175809D02*
X45063688Y-72318666D01*
X45063688Y-72318666D02*
X45158926Y-72413904D01*
X45158926Y-72413904D02*
X45254164Y-72461523D01*
X45254164Y-72461523D02*
X45444640Y-72509142D01*
X45444640Y-72509142D02*
X45587497Y-72509142D01*
X45587497Y-72509142D02*
X45777973Y-72461523D01*
X45777973Y-72461523D02*
X45873211Y-72413904D01*
X45873211Y-72413904D02*
X45968450Y-72318666D01*
X45968450Y-72318666D02*
X46016069Y-72175809D01*
X46016069Y-72175809D02*
X46016069Y-71937714D01*
X45111307Y-72890095D02*
X45063688Y-72937714D01*
X45063688Y-72937714D02*
X45016069Y-73032952D01*
X45016069Y-73032952D02*
X45016069Y-73271047D01*
X45016069Y-73271047D02*
X45063688Y-73366285D01*
X45063688Y-73366285D02*
X45111307Y-73413904D01*
X45111307Y-73413904D02*
X45206545Y-73461523D01*
X45206545Y-73461523D02*
X45301783Y-73461523D01*
X45301783Y-73461523D02*
X45444640Y-73413904D01*
X45444640Y-73413904D02*
X46016069Y-72842476D01*
X46016069Y-72842476D02*
X46016069Y-73461523D01*
X46016069Y-74413904D02*
X46016069Y-73842476D01*
X46016069Y-74128190D02*
X45016069Y-74128190D01*
X45016069Y-74128190D02*
X45158926Y-74032952D01*
X45158926Y-74032952D02*
X45254164Y-73937714D01*
X45254164Y-73937714D02*
X45301783Y-73842476D01*
X65066069Y-34313905D02*
X64066069Y-34313905D01*
X64066069Y-34313905D02*
X64066069Y-34552000D01*
X64066069Y-34552000D02*
X64113688Y-34694857D01*
X64113688Y-34694857D02*
X64208926Y-34790095D01*
X64208926Y-34790095D02*
X64304164Y-34837714D01*
X64304164Y-34837714D02*
X64494640Y-34885333D01*
X64494640Y-34885333D02*
X64637497Y-34885333D01*
X64637497Y-34885333D02*
X64827973Y-34837714D01*
X64827973Y-34837714D02*
X64923211Y-34790095D01*
X64923211Y-34790095D02*
X65018450Y-34694857D01*
X65018450Y-34694857D02*
X65066069Y-34552000D01*
X65066069Y-34552000D02*
X65066069Y-34313905D01*
X64161307Y-35266286D02*
X64113688Y-35313905D01*
X64113688Y-35313905D02*
X64066069Y-35409143D01*
X64066069Y-35409143D02*
X64066069Y-35647238D01*
X64066069Y-35647238D02*
X64113688Y-35742476D01*
X64113688Y-35742476D02*
X64161307Y-35790095D01*
X64161307Y-35790095D02*
X64256545Y-35837714D01*
X64256545Y-35837714D02*
X64351783Y-35837714D01*
X64351783Y-35837714D02*
X64494640Y-35790095D01*
X64494640Y-35790095D02*
X65066069Y-35218667D01*
X65066069Y-35218667D02*
X65066069Y-35837714D01*
X84116069Y-34313905D02*
X83116069Y-34313905D01*
X83116069Y-34313905D02*
X83116069Y-34552000D01*
X83116069Y-34552000D02*
X83163688Y-34694857D01*
X83163688Y-34694857D02*
X83258926Y-34790095D01*
X83258926Y-34790095D02*
X83354164Y-34837714D01*
X83354164Y-34837714D02*
X83544640Y-34885333D01*
X83544640Y-34885333D02*
X83687497Y-34885333D01*
X83687497Y-34885333D02*
X83877973Y-34837714D01*
X83877973Y-34837714D02*
X83973211Y-34790095D01*
X83973211Y-34790095D02*
X84068450Y-34694857D01*
X84068450Y-34694857D02*
X84116069Y-34552000D01*
X84116069Y-34552000D02*
X84116069Y-34313905D01*
X83116069Y-35218667D02*
X83116069Y-35837714D01*
X83116069Y-35837714D02*
X83497021Y-35504381D01*
X83497021Y-35504381D02*
X83497021Y-35647238D01*
X83497021Y-35647238D02*
X83544640Y-35742476D01*
X83544640Y-35742476D02*
X83592259Y-35790095D01*
X83592259Y-35790095D02*
X83687497Y-35837714D01*
X83687497Y-35837714D02*
X83925592Y-35837714D01*
X83925592Y-35837714D02*
X84020830Y-35790095D01*
X84020830Y-35790095D02*
X84068450Y-35742476D01*
X84068450Y-35742476D02*
X84116069Y-35647238D01*
X84116069Y-35647238D02*
X84116069Y-35361524D01*
X84116069Y-35361524D02*
X84068450Y-35266286D01*
X84068450Y-35266286D02*
X84020830Y-35218667D01*
X103166069Y-34313905D02*
X102166069Y-34313905D01*
X102166069Y-34313905D02*
X102166069Y-34552000D01*
X102166069Y-34552000D02*
X102213688Y-34694857D01*
X102213688Y-34694857D02*
X102308926Y-34790095D01*
X102308926Y-34790095D02*
X102404164Y-34837714D01*
X102404164Y-34837714D02*
X102594640Y-34885333D01*
X102594640Y-34885333D02*
X102737497Y-34885333D01*
X102737497Y-34885333D02*
X102927973Y-34837714D01*
X102927973Y-34837714D02*
X103023211Y-34790095D01*
X103023211Y-34790095D02*
X103118450Y-34694857D01*
X103118450Y-34694857D02*
X103166069Y-34552000D01*
X103166069Y-34552000D02*
X103166069Y-34313905D01*
X102499402Y-35742476D02*
X103166069Y-35742476D01*
X102118450Y-35504381D02*
X102832735Y-35266286D01*
X102832735Y-35266286D02*
X102832735Y-35885333D01*
X41567259Y-34591666D02*
X41567259Y-34258333D01*
X42091069Y-34258333D02*
X41091069Y-34258333D01*
X41091069Y-34258333D02*
X41091069Y-34734523D01*
X42091069Y-35639285D02*
X42091069Y-35067857D01*
X42091069Y-35353571D02*
X41091069Y-35353571D01*
X41091069Y-35353571D02*
X41233926Y-35258333D01*
X41233926Y-35258333D02*
X41329164Y-35163095D01*
X41329164Y-35163095D02*
X41376783Y-35067857D01*
X62452082Y-57688450D02*
X62309225Y-57736069D01*
X62309225Y-57736069D02*
X62071130Y-57736069D01*
X62071130Y-57736069D02*
X61975892Y-57688450D01*
X61975892Y-57688450D02*
X61928273Y-57640830D01*
X61928273Y-57640830D02*
X61880654Y-57545592D01*
X61880654Y-57545592D02*
X61880654Y-57450354D01*
X61880654Y-57450354D02*
X61928273Y-57355116D01*
X61928273Y-57355116D02*
X61975892Y-57307497D01*
X61975892Y-57307497D02*
X62071130Y-57259878D01*
X62071130Y-57259878D02*
X62261606Y-57212259D01*
X62261606Y-57212259D02*
X62356844Y-57164640D01*
X62356844Y-57164640D02*
X62404463Y-57117021D01*
X62404463Y-57117021D02*
X62452082Y-57021783D01*
X62452082Y-57021783D02*
X62452082Y-56926545D01*
X62452082Y-56926545D02*
X62404463Y-56831307D01*
X62404463Y-56831307D02*
X62356844Y-56783688D01*
X62356844Y-56783688D02*
X62261606Y-56736069D01*
X62261606Y-56736069D02*
X62023511Y-56736069D01*
X62023511Y-56736069D02*
X61880654Y-56783688D01*
X61547320Y-56736069D02*
X61309225Y-57736069D01*
X61309225Y-57736069D02*
X61118749Y-57021783D01*
X61118749Y-57021783D02*
X60928273Y-57736069D01*
X60928273Y-57736069D02*
X60690178Y-56736069D01*
X59785416Y-57736069D02*
X60356844Y-57736069D01*
X60071130Y-57736069D02*
X60071130Y-56736069D01*
X60071130Y-56736069D02*
X60166368Y-56878926D01*
X60166368Y-56878926D02*
X60261606Y-56974164D01*
X60261606Y-56974164D02*
X60356844Y-57021783D01*
X112691069Y-71937714D02*
X111691069Y-71937714D01*
X111691069Y-71937714D02*
X111691069Y-72175809D01*
X111691069Y-72175809D02*
X111738688Y-72318666D01*
X111738688Y-72318666D02*
X111833926Y-72413904D01*
X111833926Y-72413904D02*
X111929164Y-72461523D01*
X111929164Y-72461523D02*
X112119640Y-72509142D01*
X112119640Y-72509142D02*
X112262497Y-72509142D01*
X112262497Y-72509142D02*
X112452973Y-72461523D01*
X112452973Y-72461523D02*
X112548211Y-72413904D01*
X112548211Y-72413904D02*
X112643450Y-72318666D01*
X112643450Y-72318666D02*
X112691069Y-72175809D01*
X112691069Y-72175809D02*
X112691069Y-71937714D01*
X111786307Y-72890095D02*
X111738688Y-72937714D01*
X111738688Y-72937714D02*
X111691069Y-73032952D01*
X111691069Y-73032952D02*
X111691069Y-73271047D01*
X111691069Y-73271047D02*
X111738688Y-73366285D01*
X111738688Y-73366285D02*
X111786307Y-73413904D01*
X111786307Y-73413904D02*
X111881545Y-73461523D01*
X111881545Y-73461523D02*
X111976783Y-73461523D01*
X111976783Y-73461523D02*
X112119640Y-73413904D01*
X112119640Y-73413904D02*
X112691069Y-72842476D01*
X112691069Y-72842476D02*
X112691069Y-73461523D01*
X112024402Y-74318666D02*
X112691069Y-74318666D01*
X111643450Y-74080571D02*
X112357735Y-73842476D01*
X112357735Y-73842476D02*
X112357735Y-74461523D01*
X54725239Y-59387824D02*
X54725239Y-58387824D01*
X53677621Y-59292585D02*
X53725240Y-59340205D01*
X53725240Y-59340205D02*
X53868097Y-59387824D01*
X53868097Y-59387824D02*
X53963335Y-59387824D01*
X53963335Y-59387824D02*
X54106192Y-59340205D01*
X54106192Y-59340205D02*
X54201430Y-59244966D01*
X54201430Y-59244966D02*
X54249049Y-59149728D01*
X54249049Y-59149728D02*
X54296668Y-58959252D01*
X54296668Y-58959252D02*
X54296668Y-58816395D01*
X54296668Y-58816395D02*
X54249049Y-58625919D01*
X54249049Y-58625919D02*
X54201430Y-58530681D01*
X54201430Y-58530681D02*
X54106192Y-58435443D01*
X54106192Y-58435443D02*
X53963335Y-58387824D01*
X53963335Y-58387824D02*
X53868097Y-58387824D01*
X53868097Y-58387824D02*
X53725240Y-58435443D01*
X53725240Y-58435443D02*
X53677621Y-58483062D01*
X52725240Y-59387824D02*
X53296668Y-59387824D01*
X53010954Y-59387824D02*
X53010954Y-58387824D01*
X53010954Y-58387824D02*
X53106192Y-58530681D01*
X53106192Y-58530681D02*
X53201430Y-58625919D01*
X53201430Y-58625919D02*
X53296668Y-58673538D01*
X179366069Y-52887714D02*
X178366069Y-52887714D01*
X178366069Y-52887714D02*
X178366069Y-53125809D01*
X178366069Y-53125809D02*
X178413688Y-53268666D01*
X178413688Y-53268666D02*
X178508926Y-53363904D01*
X178508926Y-53363904D02*
X178604164Y-53411523D01*
X178604164Y-53411523D02*
X178794640Y-53459142D01*
X178794640Y-53459142D02*
X178937497Y-53459142D01*
X178937497Y-53459142D02*
X179127973Y-53411523D01*
X179127973Y-53411523D02*
X179223211Y-53363904D01*
X179223211Y-53363904D02*
X179318450Y-53268666D01*
X179318450Y-53268666D02*
X179366069Y-53125809D01*
X179366069Y-53125809D02*
X179366069Y-52887714D01*
X179366069Y-54411523D02*
X179366069Y-53840095D01*
X179366069Y-54125809D02*
X178366069Y-54125809D01*
X178366069Y-54125809D02*
X178508926Y-54030571D01*
X178508926Y-54030571D02*
X178604164Y-53935333D01*
X178604164Y-53935333D02*
X178651783Y-53840095D01*
X178794640Y-54982952D02*
X178747021Y-54887714D01*
X178747021Y-54887714D02*
X178699402Y-54840095D01*
X178699402Y-54840095D02*
X178604164Y-54792476D01*
X178604164Y-54792476D02*
X178556545Y-54792476D01*
X178556545Y-54792476D02*
X178461307Y-54840095D01*
X178461307Y-54840095D02*
X178413688Y-54887714D01*
X178413688Y-54887714D02*
X178366069Y-54982952D01*
X178366069Y-54982952D02*
X178366069Y-55173428D01*
X178366069Y-55173428D02*
X178413688Y-55268666D01*
X178413688Y-55268666D02*
X178461307Y-55316285D01*
X178461307Y-55316285D02*
X178556545Y-55363904D01*
X178556545Y-55363904D02*
X178604164Y-55363904D01*
X178604164Y-55363904D02*
X178699402Y-55316285D01*
X178699402Y-55316285D02*
X178747021Y-55268666D01*
X178747021Y-55268666D02*
X178794640Y-55173428D01*
X178794640Y-55173428D02*
X178794640Y-54982952D01*
X178794640Y-54982952D02*
X178842259Y-54887714D01*
X178842259Y-54887714D02*
X178889878Y-54840095D01*
X178889878Y-54840095D02*
X178985116Y-54792476D01*
X178985116Y-54792476D02*
X179175592Y-54792476D01*
X179175592Y-54792476D02*
X179270830Y-54840095D01*
X179270830Y-54840095D02*
X179318450Y-54887714D01*
X179318450Y-54887714D02*
X179366069Y-54982952D01*
X179366069Y-54982952D02*
X179366069Y-55173428D01*
X179366069Y-55173428D02*
X179318450Y-55268666D01*
X179318450Y-55268666D02*
X179270830Y-55316285D01*
X179270830Y-55316285D02*
X179175592Y-55363904D01*
X179175592Y-55363904D02*
X178985116Y-55363904D01*
X178985116Y-55363904D02*
X178889878Y-55316285D01*
X178889878Y-55316285D02*
X178842259Y-55268666D01*
X178842259Y-55268666D02*
X178794640Y-55173428D01*
X47112079Y-59239710D02*
X47159699Y-59192091D01*
X47159699Y-59192091D02*
X47207318Y-59049234D01*
X47207318Y-59049234D02*
X47207318Y-58953996D01*
X47207318Y-58953996D02*
X47159699Y-58811139D01*
X47159699Y-58811139D02*
X47064460Y-58715901D01*
X47064460Y-58715901D02*
X46969222Y-58668282D01*
X46969222Y-58668282D02*
X46778746Y-58620663D01*
X46778746Y-58620663D02*
X46635889Y-58620663D01*
X46635889Y-58620663D02*
X46445413Y-58668282D01*
X46445413Y-58668282D02*
X46350175Y-58715901D01*
X46350175Y-58715901D02*
X46254937Y-58811139D01*
X46254937Y-58811139D02*
X46207318Y-58953996D01*
X46207318Y-58953996D02*
X46207318Y-59049234D01*
X46207318Y-59049234D02*
X46254937Y-59192091D01*
X46254937Y-59192091D02*
X46302556Y-59239710D01*
X46540651Y-60096853D02*
X47207318Y-60096853D01*
X46159699Y-59858758D02*
X46873984Y-59620663D01*
X46873984Y-59620663D02*
X46873984Y-60239710D01*
X45113485Y-53792058D02*
X44637294Y-53458725D01*
X45113485Y-53220630D02*
X44113485Y-53220630D01*
X44113485Y-53220630D02*
X44113485Y-53601582D01*
X44113485Y-53601582D02*
X44161104Y-53696820D01*
X44161104Y-53696820D02*
X44208723Y-53744439D01*
X44208723Y-53744439D02*
X44303961Y-53792058D01*
X44303961Y-53792058D02*
X44446818Y-53792058D01*
X44446818Y-53792058D02*
X44542056Y-53744439D01*
X44542056Y-53744439D02*
X44589675Y-53696820D01*
X44589675Y-53696820D02*
X44637294Y-53601582D01*
X44637294Y-53601582D02*
X44637294Y-53220630D01*
X44208723Y-54173011D02*
X44161104Y-54220630D01*
X44161104Y-54220630D02*
X44113485Y-54315868D01*
X44113485Y-54315868D02*
X44113485Y-54553963D01*
X44113485Y-54553963D02*
X44161104Y-54649201D01*
X44161104Y-54649201D02*
X44208723Y-54696820D01*
X44208723Y-54696820D02*
X44303961Y-54744439D01*
X44303961Y-54744439D02*
X44399199Y-54744439D01*
X44399199Y-54744439D02*
X44542056Y-54696820D01*
X44542056Y-54696820D02*
X45113485Y-54125392D01*
X45113485Y-54125392D02*
X45113485Y-54744439D01*
X198416069Y-34313905D02*
X197416069Y-34313905D01*
X197416069Y-34313905D02*
X197416069Y-34552000D01*
X197416069Y-34552000D02*
X197463688Y-34694857D01*
X197463688Y-34694857D02*
X197558926Y-34790095D01*
X197558926Y-34790095D02*
X197654164Y-34837714D01*
X197654164Y-34837714D02*
X197844640Y-34885333D01*
X197844640Y-34885333D02*
X197987497Y-34885333D01*
X197987497Y-34885333D02*
X198177973Y-34837714D01*
X198177973Y-34837714D02*
X198273211Y-34790095D01*
X198273211Y-34790095D02*
X198368450Y-34694857D01*
X198368450Y-34694857D02*
X198416069Y-34552000D01*
X198416069Y-34552000D02*
X198416069Y-34313905D01*
X198416069Y-35361524D02*
X198416069Y-35552000D01*
X198416069Y-35552000D02*
X198368450Y-35647238D01*
X198368450Y-35647238D02*
X198320830Y-35694857D01*
X198320830Y-35694857D02*
X198177973Y-35790095D01*
X198177973Y-35790095D02*
X197987497Y-35837714D01*
X197987497Y-35837714D02*
X197606545Y-35837714D01*
X197606545Y-35837714D02*
X197511307Y-35790095D01*
X197511307Y-35790095D02*
X197463688Y-35742476D01*
X197463688Y-35742476D02*
X197416069Y-35647238D01*
X197416069Y-35647238D02*
X197416069Y-35456762D01*
X197416069Y-35456762D02*
X197463688Y-35361524D01*
X197463688Y-35361524D02*
X197511307Y-35313905D01*
X197511307Y-35313905D02*
X197606545Y-35266286D01*
X197606545Y-35266286D02*
X197844640Y-35266286D01*
X197844640Y-35266286D02*
X197939878Y-35313905D01*
X197939878Y-35313905D02*
X197987497Y-35361524D01*
X197987497Y-35361524D02*
X198035116Y-35456762D01*
X198035116Y-35456762D02*
X198035116Y-35647238D01*
X198035116Y-35647238D02*
X197987497Y-35742476D01*
X197987497Y-35742476D02*
X197939878Y-35790095D01*
X197939878Y-35790095D02*
X197844640Y-35837714D01*
X122216069Y-34313905D02*
X121216069Y-34313905D01*
X121216069Y-34313905D02*
X121216069Y-34552000D01*
X121216069Y-34552000D02*
X121263688Y-34694857D01*
X121263688Y-34694857D02*
X121358926Y-34790095D01*
X121358926Y-34790095D02*
X121454164Y-34837714D01*
X121454164Y-34837714D02*
X121644640Y-34885333D01*
X121644640Y-34885333D02*
X121787497Y-34885333D01*
X121787497Y-34885333D02*
X121977973Y-34837714D01*
X121977973Y-34837714D02*
X122073211Y-34790095D01*
X122073211Y-34790095D02*
X122168450Y-34694857D01*
X122168450Y-34694857D02*
X122216069Y-34552000D01*
X122216069Y-34552000D02*
X122216069Y-34313905D01*
X121216069Y-35790095D02*
X121216069Y-35313905D01*
X121216069Y-35313905D02*
X121692259Y-35266286D01*
X121692259Y-35266286D02*
X121644640Y-35313905D01*
X121644640Y-35313905D02*
X121597021Y-35409143D01*
X121597021Y-35409143D02*
X121597021Y-35647238D01*
X121597021Y-35647238D02*
X121644640Y-35742476D01*
X121644640Y-35742476D02*
X121692259Y-35790095D01*
X121692259Y-35790095D02*
X121787497Y-35837714D01*
X121787497Y-35837714D02*
X122025592Y-35837714D01*
X122025592Y-35837714D02*
X122120830Y-35790095D01*
X122120830Y-35790095D02*
X122168450Y-35742476D01*
X122168450Y-35742476D02*
X122216069Y-35647238D01*
X122216069Y-35647238D02*
X122216069Y-35409143D01*
X122216069Y-35409143D02*
X122168450Y-35313905D01*
X122168450Y-35313905D02*
X122120830Y-35266286D01*
X49205830Y-71108392D02*
X49253450Y-71060773D01*
X49253450Y-71060773D02*
X49301069Y-70917916D01*
X49301069Y-70917916D02*
X49301069Y-70822678D01*
X49301069Y-70822678D02*
X49253450Y-70679821D01*
X49253450Y-70679821D02*
X49158211Y-70584583D01*
X49158211Y-70584583D02*
X49062973Y-70536964D01*
X49062973Y-70536964D02*
X48872497Y-70489345D01*
X48872497Y-70489345D02*
X48729640Y-70489345D01*
X48729640Y-70489345D02*
X48539164Y-70536964D01*
X48539164Y-70536964D02*
X48443926Y-70584583D01*
X48443926Y-70584583D02*
X48348688Y-70679821D01*
X48348688Y-70679821D02*
X48301069Y-70822678D01*
X48301069Y-70822678D02*
X48301069Y-70917916D01*
X48301069Y-70917916D02*
X48348688Y-71060773D01*
X48348688Y-71060773D02*
X48396307Y-71108392D01*
X49301069Y-72060773D02*
X49301069Y-71489345D01*
X49301069Y-71775059D02*
X48301069Y-71775059D01*
X48301069Y-71775059D02*
X48443926Y-71679821D01*
X48443926Y-71679821D02*
X48539164Y-71584583D01*
X48539164Y-71584583D02*
X48586783Y-71489345D01*
X48634402Y-72917916D02*
X49301069Y-72917916D01*
X48253450Y-72679821D02*
X48967735Y-72441726D01*
X48967735Y-72441726D02*
X48967735Y-73060773D01*
X131741069Y-71937714D02*
X130741069Y-71937714D01*
X130741069Y-71937714D02*
X130741069Y-72175809D01*
X130741069Y-72175809D02*
X130788688Y-72318666D01*
X130788688Y-72318666D02*
X130883926Y-72413904D01*
X130883926Y-72413904D02*
X130979164Y-72461523D01*
X130979164Y-72461523D02*
X131169640Y-72509142D01*
X131169640Y-72509142D02*
X131312497Y-72509142D01*
X131312497Y-72509142D02*
X131502973Y-72461523D01*
X131502973Y-72461523D02*
X131598211Y-72413904D01*
X131598211Y-72413904D02*
X131693450Y-72318666D01*
X131693450Y-72318666D02*
X131741069Y-72175809D01*
X131741069Y-72175809D02*
X131741069Y-71937714D01*
X130836307Y-72890095D02*
X130788688Y-72937714D01*
X130788688Y-72937714D02*
X130741069Y-73032952D01*
X130741069Y-73032952D02*
X130741069Y-73271047D01*
X130741069Y-73271047D02*
X130788688Y-73366285D01*
X130788688Y-73366285D02*
X130836307Y-73413904D01*
X130836307Y-73413904D02*
X130931545Y-73461523D01*
X130931545Y-73461523D02*
X131026783Y-73461523D01*
X131026783Y-73461523D02*
X131169640Y-73413904D01*
X131169640Y-73413904D02*
X131741069Y-72842476D01*
X131741069Y-72842476D02*
X131741069Y-73461523D01*
X130741069Y-74366285D02*
X130741069Y-73890095D01*
X130741069Y-73890095D02*
X131217259Y-73842476D01*
X131217259Y-73842476D02*
X131169640Y-73890095D01*
X131169640Y-73890095D02*
X131122021Y-73985333D01*
X131122021Y-73985333D02*
X131122021Y-74223428D01*
X131122021Y-74223428D02*
X131169640Y-74318666D01*
X131169640Y-74318666D02*
X131217259Y-74366285D01*
X131217259Y-74366285D02*
X131312497Y-74413904D01*
X131312497Y-74413904D02*
X131550592Y-74413904D01*
X131550592Y-74413904D02*
X131645830Y-74366285D01*
X131645830Y-74366285D02*
X131693450Y-74318666D01*
X131693450Y-74318666D02*
X131741069Y-74223428D01*
X131741069Y-74223428D02*
X131741069Y-73985333D01*
X131741069Y-73985333D02*
X131693450Y-73890095D01*
X131693450Y-73890095D02*
X131645830Y-73842476D01*
X55268450Y-76747917D02*
X55316069Y-76890774D01*
X55316069Y-76890774D02*
X55316069Y-77128869D01*
X55316069Y-77128869D02*
X55268450Y-77224107D01*
X55268450Y-77224107D02*
X55220830Y-77271726D01*
X55220830Y-77271726D02*
X55125592Y-77319345D01*
X55125592Y-77319345D02*
X55030354Y-77319345D01*
X55030354Y-77319345D02*
X54935116Y-77271726D01*
X54935116Y-77271726D02*
X54887497Y-77224107D01*
X54887497Y-77224107D02*
X54839878Y-77128869D01*
X54839878Y-77128869D02*
X54792259Y-76938393D01*
X54792259Y-76938393D02*
X54744640Y-76843155D01*
X54744640Y-76843155D02*
X54697021Y-76795536D01*
X54697021Y-76795536D02*
X54601783Y-76747917D01*
X54601783Y-76747917D02*
X54506545Y-76747917D01*
X54506545Y-76747917D02*
X54411307Y-76795536D01*
X54411307Y-76795536D02*
X54363688Y-76843155D01*
X54363688Y-76843155D02*
X54316069Y-76938393D01*
X54316069Y-76938393D02*
X54316069Y-77176488D01*
X54316069Y-77176488D02*
X54363688Y-77319345D01*
X54316069Y-77652679D02*
X55316069Y-77890774D01*
X55316069Y-77890774D02*
X54601783Y-78081250D01*
X54601783Y-78081250D02*
X55316069Y-78271726D01*
X55316069Y-78271726D02*
X54316069Y-78509822D01*
X55316069Y-78890774D02*
X54316069Y-78890774D01*
X54316069Y-78890774D02*
X54316069Y-79128869D01*
X54316069Y-79128869D02*
X54363688Y-79271726D01*
X54363688Y-79271726D02*
X54458926Y-79366964D01*
X54458926Y-79366964D02*
X54554164Y-79414583D01*
X54554164Y-79414583D02*
X54744640Y-79462202D01*
X54744640Y-79462202D02*
X54887497Y-79462202D01*
X54887497Y-79462202D02*
X55077973Y-79414583D01*
X55077973Y-79414583D02*
X55173211Y-79366964D01*
X55173211Y-79366964D02*
X55268450Y-79271726D01*
X55268450Y-79271726D02*
X55316069Y-79128869D01*
X55316069Y-79128869D02*
X55316069Y-78890774D01*
X55316069Y-80414583D02*
X55316069Y-79843155D01*
X55316069Y-80128869D02*
X54316069Y-80128869D01*
X54316069Y-80128869D02*
X54458926Y-80033631D01*
X54458926Y-80033631D02*
X54554164Y-79938393D01*
X54554164Y-79938393D02*
X54601783Y-79843155D01*
X39933332Y-62188450D02*
X39790475Y-62236069D01*
X39790475Y-62236069D02*
X39552380Y-62236069D01*
X39552380Y-62236069D02*
X39457142Y-62188450D01*
X39457142Y-62188450D02*
X39409523Y-62140830D01*
X39409523Y-62140830D02*
X39361904Y-62045592D01*
X39361904Y-62045592D02*
X39361904Y-61950354D01*
X39361904Y-61950354D02*
X39409523Y-61855116D01*
X39409523Y-61855116D02*
X39457142Y-61807497D01*
X39457142Y-61807497D02*
X39552380Y-61759878D01*
X39552380Y-61759878D02*
X39742856Y-61712259D01*
X39742856Y-61712259D02*
X39838094Y-61664640D01*
X39838094Y-61664640D02*
X39885713Y-61617021D01*
X39885713Y-61617021D02*
X39933332Y-61521783D01*
X39933332Y-61521783D02*
X39933332Y-61426545D01*
X39933332Y-61426545D02*
X39885713Y-61331307D01*
X39885713Y-61331307D02*
X39838094Y-61283688D01*
X39838094Y-61283688D02*
X39742856Y-61236069D01*
X39742856Y-61236069D02*
X39504761Y-61236069D01*
X39504761Y-61236069D02*
X39361904Y-61283688D01*
X39028570Y-61236069D02*
X38790475Y-62236069D01*
X38790475Y-62236069D02*
X38599999Y-61521783D01*
X38599999Y-61521783D02*
X38409523Y-62236069D01*
X38409523Y-62236069D02*
X38171428Y-61236069D01*
X37219047Y-62236069D02*
X37552380Y-61759878D01*
X37790475Y-62236069D02*
X37790475Y-61236069D01*
X37790475Y-61236069D02*
X37409523Y-61236069D01*
X37409523Y-61236069D02*
X37314285Y-61283688D01*
X37314285Y-61283688D02*
X37266666Y-61331307D01*
X37266666Y-61331307D02*
X37219047Y-61426545D01*
X37219047Y-61426545D02*
X37219047Y-61569402D01*
X37219047Y-61569402D02*
X37266666Y-61664640D01*
X37266666Y-61664640D02*
X37314285Y-61712259D01*
X37314285Y-61712259D02*
X37409523Y-61759878D01*
X37409523Y-61759878D02*
X37790475Y-61759878D01*
X36266666Y-62236069D02*
X36838094Y-62236069D01*
X36552380Y-62236069D02*
X36552380Y-61236069D01*
X36552380Y-61236069D02*
X36647618Y-61378926D01*
X36647618Y-61378926D02*
X36742856Y-61474164D01*
X36742856Y-61474164D02*
X36838094Y-61521783D01*
X53178072Y-75330340D02*
X53178072Y-75806531D01*
X53511405Y-74806531D02*
X53178072Y-75330340D01*
X53178072Y-75330340D02*
X52844739Y-74806531D01*
X51987596Y-75806531D02*
X52559024Y-75806531D01*
X52273310Y-75806531D02*
X52273310Y-74806531D01*
X52273310Y-74806531D02*
X52368548Y-74949388D01*
X52368548Y-74949388D02*
X52463786Y-75044626D01*
X52463786Y-75044626D02*
X52559024Y-75092245D01*
X51532405Y-73535146D02*
X51580025Y-73487527D01*
X51580025Y-73487527D02*
X51627644Y-73344670D01*
X51627644Y-73344670D02*
X51627644Y-73249432D01*
X51627644Y-73249432D02*
X51580025Y-73106575D01*
X51580025Y-73106575D02*
X51484786Y-73011337D01*
X51484786Y-73011337D02*
X51389548Y-72963718D01*
X51389548Y-72963718D02*
X51199072Y-72916099D01*
X51199072Y-72916099D02*
X51056215Y-72916099D01*
X51056215Y-72916099D02*
X50865739Y-72963718D01*
X50865739Y-72963718D02*
X50770501Y-73011337D01*
X50770501Y-73011337D02*
X50675263Y-73106575D01*
X50675263Y-73106575D02*
X50627644Y-73249432D01*
X50627644Y-73249432D02*
X50627644Y-73344670D01*
X50627644Y-73344670D02*
X50675263Y-73487527D01*
X50675263Y-73487527D02*
X50722882Y-73535146D01*
X50627644Y-73868480D02*
X50627644Y-74487527D01*
X50627644Y-74487527D02*
X51008596Y-74154194D01*
X51008596Y-74154194D02*
X51008596Y-74297051D01*
X51008596Y-74297051D02*
X51056215Y-74392289D01*
X51056215Y-74392289D02*
X51103834Y-74439908D01*
X51103834Y-74439908D02*
X51199072Y-74487527D01*
X51199072Y-74487527D02*
X51437167Y-74487527D01*
X51437167Y-74487527D02*
X51532405Y-74439908D01*
X51532405Y-74439908D02*
X51580025Y-74392289D01*
X51580025Y-74392289D02*
X51627644Y-74297051D01*
X51627644Y-74297051D02*
X51627644Y-74011337D01*
X51627644Y-74011337D02*
X51580025Y-73916099D01*
X51580025Y-73916099D02*
X51532405Y-73868480D01*
X103166069Y-52887714D02*
X102166069Y-52887714D01*
X102166069Y-52887714D02*
X102166069Y-53125809D01*
X102166069Y-53125809D02*
X102213688Y-53268666D01*
X102213688Y-53268666D02*
X102308926Y-53363904D01*
X102308926Y-53363904D02*
X102404164Y-53411523D01*
X102404164Y-53411523D02*
X102594640Y-53459142D01*
X102594640Y-53459142D02*
X102737497Y-53459142D01*
X102737497Y-53459142D02*
X102927973Y-53411523D01*
X102927973Y-53411523D02*
X103023211Y-53363904D01*
X103023211Y-53363904D02*
X103118450Y-53268666D01*
X103118450Y-53268666D02*
X103166069Y-53125809D01*
X103166069Y-53125809D02*
X103166069Y-52887714D01*
X103166069Y-54411523D02*
X103166069Y-53840095D01*
X103166069Y-54125809D02*
X102166069Y-54125809D01*
X102166069Y-54125809D02*
X102308926Y-54030571D01*
X102308926Y-54030571D02*
X102404164Y-53935333D01*
X102404164Y-53935333D02*
X102451783Y-53840095D01*
X102499402Y-55268666D02*
X103166069Y-55268666D01*
X102118450Y-55030571D02*
X102832735Y-54792476D01*
X102832735Y-54792476D02*
X102832735Y-55411523D01*
X212703569Y-71937714D02*
X211703569Y-71937714D01*
X211703569Y-71937714D02*
X211703569Y-72175809D01*
X211703569Y-72175809D02*
X211751188Y-72318666D01*
X211751188Y-72318666D02*
X211846426Y-72413904D01*
X211846426Y-72413904D02*
X211941664Y-72461523D01*
X211941664Y-72461523D02*
X212132140Y-72509142D01*
X212132140Y-72509142D02*
X212274997Y-72509142D01*
X212274997Y-72509142D02*
X212465473Y-72461523D01*
X212465473Y-72461523D02*
X212560711Y-72413904D01*
X212560711Y-72413904D02*
X212655950Y-72318666D01*
X212655950Y-72318666D02*
X212703569Y-72175809D01*
X212703569Y-72175809D02*
X212703569Y-71937714D01*
X211798807Y-72890095D02*
X211751188Y-72937714D01*
X211751188Y-72937714D02*
X211703569Y-73032952D01*
X211703569Y-73032952D02*
X211703569Y-73271047D01*
X211703569Y-73271047D02*
X211751188Y-73366285D01*
X211751188Y-73366285D02*
X211798807Y-73413904D01*
X211798807Y-73413904D02*
X211894045Y-73461523D01*
X211894045Y-73461523D02*
X211989283Y-73461523D01*
X211989283Y-73461523D02*
X212132140Y-73413904D01*
X212132140Y-73413904D02*
X212703569Y-72842476D01*
X212703569Y-72842476D02*
X212703569Y-73461523D01*
X212703569Y-73937714D02*
X212703569Y-74128190D01*
X212703569Y-74128190D02*
X212655950Y-74223428D01*
X212655950Y-74223428D02*
X212608330Y-74271047D01*
X212608330Y-74271047D02*
X212465473Y-74366285D01*
X212465473Y-74366285D02*
X212274997Y-74413904D01*
X212274997Y-74413904D02*
X211894045Y-74413904D01*
X211894045Y-74413904D02*
X211798807Y-74366285D01*
X211798807Y-74366285D02*
X211751188Y-74318666D01*
X211751188Y-74318666D02*
X211703569Y-74223428D01*
X211703569Y-74223428D02*
X211703569Y-74032952D01*
X211703569Y-74032952D02*
X211751188Y-73937714D01*
X211751188Y-73937714D02*
X211798807Y-73890095D01*
X211798807Y-73890095D02*
X211894045Y-73842476D01*
X211894045Y-73842476D02*
X212132140Y-73842476D01*
X212132140Y-73842476D02*
X212227378Y-73890095D01*
X212227378Y-73890095D02*
X212274997Y-73937714D01*
X212274997Y-73937714D02*
X212322616Y-74032952D01*
X212322616Y-74032952D02*
X212322616Y-74223428D01*
X212322616Y-74223428D02*
X212274997Y-74318666D01*
X212274997Y-74318666D02*
X212227378Y-74366285D01*
X212227378Y-74366285D02*
X212132140Y-74413904D01*
X41253569Y-34313905D02*
X40253569Y-34313905D01*
X40253569Y-34313905D02*
X40253569Y-34552000D01*
X40253569Y-34552000D02*
X40301188Y-34694857D01*
X40301188Y-34694857D02*
X40396426Y-34790095D01*
X40396426Y-34790095D02*
X40491664Y-34837714D01*
X40491664Y-34837714D02*
X40682140Y-34885333D01*
X40682140Y-34885333D02*
X40824997Y-34885333D01*
X40824997Y-34885333D02*
X41015473Y-34837714D01*
X41015473Y-34837714D02*
X41110711Y-34790095D01*
X41110711Y-34790095D02*
X41205950Y-34694857D01*
X41205950Y-34694857D02*
X41253569Y-34552000D01*
X41253569Y-34552000D02*
X41253569Y-34313905D01*
X41253569Y-35837714D02*
X41253569Y-35266286D01*
X41253569Y-35552000D02*
X40253569Y-35552000D01*
X40253569Y-35552000D02*
X40396426Y-35456762D01*
X40396426Y-35456762D02*
X40491664Y-35361524D01*
X40491664Y-35361524D02*
X40539283Y-35266286D01*
X131741069Y-90987714D02*
X130741069Y-90987714D01*
X130741069Y-90987714D02*
X130741069Y-91225809D01*
X130741069Y-91225809D02*
X130788688Y-91368666D01*
X130788688Y-91368666D02*
X130883926Y-91463904D01*
X130883926Y-91463904D02*
X130979164Y-91511523D01*
X130979164Y-91511523D02*
X131169640Y-91559142D01*
X131169640Y-91559142D02*
X131312497Y-91559142D01*
X131312497Y-91559142D02*
X131502973Y-91511523D01*
X131502973Y-91511523D02*
X131598211Y-91463904D01*
X131598211Y-91463904D02*
X131693450Y-91368666D01*
X131693450Y-91368666D02*
X131741069Y-91225809D01*
X131741069Y-91225809D02*
X131741069Y-90987714D01*
X130741069Y-91892476D02*
X130741069Y-92511523D01*
X130741069Y-92511523D02*
X131122021Y-92178190D01*
X131122021Y-92178190D02*
X131122021Y-92321047D01*
X131122021Y-92321047D02*
X131169640Y-92416285D01*
X131169640Y-92416285D02*
X131217259Y-92463904D01*
X131217259Y-92463904D02*
X131312497Y-92511523D01*
X131312497Y-92511523D02*
X131550592Y-92511523D01*
X131550592Y-92511523D02*
X131645830Y-92463904D01*
X131645830Y-92463904D02*
X131693450Y-92416285D01*
X131693450Y-92416285D02*
X131741069Y-92321047D01*
X131741069Y-92321047D02*
X131741069Y-92035333D01*
X131741069Y-92035333D02*
X131693450Y-91940095D01*
X131693450Y-91940095D02*
X131645830Y-91892476D01*
X131074402Y-93368666D02*
X131741069Y-93368666D01*
X130693450Y-93130571D02*
X131407735Y-92892476D01*
X131407735Y-92892476D02*
X131407735Y-93511523D01*
X179366069Y-34313905D02*
X178366069Y-34313905D01*
X178366069Y-34313905D02*
X178366069Y-34552000D01*
X178366069Y-34552000D02*
X178413688Y-34694857D01*
X178413688Y-34694857D02*
X178508926Y-34790095D01*
X178508926Y-34790095D02*
X178604164Y-34837714D01*
X178604164Y-34837714D02*
X178794640Y-34885333D01*
X178794640Y-34885333D02*
X178937497Y-34885333D01*
X178937497Y-34885333D02*
X179127973Y-34837714D01*
X179127973Y-34837714D02*
X179223211Y-34790095D01*
X179223211Y-34790095D02*
X179318450Y-34694857D01*
X179318450Y-34694857D02*
X179366069Y-34552000D01*
X179366069Y-34552000D02*
X179366069Y-34313905D01*
X178794640Y-35456762D02*
X178747021Y-35361524D01*
X178747021Y-35361524D02*
X178699402Y-35313905D01*
X178699402Y-35313905D02*
X178604164Y-35266286D01*
X178604164Y-35266286D02*
X178556545Y-35266286D01*
X178556545Y-35266286D02*
X178461307Y-35313905D01*
X178461307Y-35313905D02*
X178413688Y-35361524D01*
X178413688Y-35361524D02*
X178366069Y-35456762D01*
X178366069Y-35456762D02*
X178366069Y-35647238D01*
X178366069Y-35647238D02*
X178413688Y-35742476D01*
X178413688Y-35742476D02*
X178461307Y-35790095D01*
X178461307Y-35790095D02*
X178556545Y-35837714D01*
X178556545Y-35837714D02*
X178604164Y-35837714D01*
X178604164Y-35837714D02*
X178699402Y-35790095D01*
X178699402Y-35790095D02*
X178747021Y-35742476D01*
X178747021Y-35742476D02*
X178794640Y-35647238D01*
X178794640Y-35647238D02*
X178794640Y-35456762D01*
X178794640Y-35456762D02*
X178842259Y-35361524D01*
X178842259Y-35361524D02*
X178889878Y-35313905D01*
X178889878Y-35313905D02*
X178985116Y-35266286D01*
X178985116Y-35266286D02*
X179175592Y-35266286D01*
X179175592Y-35266286D02*
X179270830Y-35313905D01*
X179270830Y-35313905D02*
X179318450Y-35361524D01*
X179318450Y-35361524D02*
X179366069Y-35456762D01*
X179366069Y-35456762D02*
X179366069Y-35647238D01*
X179366069Y-35647238D02*
X179318450Y-35742476D01*
X179318450Y-35742476D02*
X179270830Y-35790095D01*
X179270830Y-35790095D02*
X179175592Y-35837714D01*
X179175592Y-35837714D02*
X178985116Y-35837714D01*
X178985116Y-35837714D02*
X178889878Y-35790095D01*
X178889878Y-35790095D02*
X178842259Y-35742476D01*
X178842259Y-35742476D02*
X178794640Y-35647238D01*
X45744217Y-40513095D02*
X46553740Y-40513095D01*
X46553740Y-40513095D02*
X46648978Y-40560714D01*
X46648978Y-40560714D02*
X46696598Y-40608333D01*
X46696598Y-40608333D02*
X46744217Y-40703571D01*
X46744217Y-40703571D02*
X46744217Y-40894047D01*
X46744217Y-40894047D02*
X46696598Y-40989285D01*
X46696598Y-40989285D02*
X46648978Y-41036904D01*
X46648978Y-41036904D02*
X46553740Y-41084523D01*
X46553740Y-41084523D02*
X45744217Y-41084523D01*
X45744217Y-41465476D02*
X45744217Y-42084523D01*
X45744217Y-42084523D02*
X46125169Y-41751190D01*
X46125169Y-41751190D02*
X46125169Y-41894047D01*
X46125169Y-41894047D02*
X46172788Y-41989285D01*
X46172788Y-41989285D02*
X46220407Y-42036904D01*
X46220407Y-42036904D02*
X46315645Y-42084523D01*
X46315645Y-42084523D02*
X46553740Y-42084523D01*
X46553740Y-42084523D02*
X46648978Y-42036904D01*
X46648978Y-42036904D02*
X46696598Y-41989285D01*
X46696598Y-41989285D02*
X46744217Y-41894047D01*
X46744217Y-41894047D02*
X46744217Y-41608333D01*
X46744217Y-41608333D02*
X46696598Y-41513095D01*
X46696598Y-41513095D02*
X46648978Y-41465476D01*
X65066069Y-52887714D02*
X64066069Y-52887714D01*
X64066069Y-52887714D02*
X64066069Y-53125809D01*
X64066069Y-53125809D02*
X64113688Y-53268666D01*
X64113688Y-53268666D02*
X64208926Y-53363904D01*
X64208926Y-53363904D02*
X64304164Y-53411523D01*
X64304164Y-53411523D02*
X64494640Y-53459142D01*
X64494640Y-53459142D02*
X64637497Y-53459142D01*
X64637497Y-53459142D02*
X64827973Y-53411523D01*
X64827973Y-53411523D02*
X64923211Y-53363904D01*
X64923211Y-53363904D02*
X65018450Y-53268666D01*
X65018450Y-53268666D02*
X65066069Y-53125809D01*
X65066069Y-53125809D02*
X65066069Y-52887714D01*
X65066069Y-54411523D02*
X65066069Y-53840095D01*
X65066069Y-54125809D02*
X64066069Y-54125809D01*
X64066069Y-54125809D02*
X64208926Y-54030571D01*
X64208926Y-54030571D02*
X64304164Y-53935333D01*
X64304164Y-53935333D02*
X64351783Y-53840095D01*
X64161307Y-54792476D02*
X64113688Y-54840095D01*
X64113688Y-54840095D02*
X64066069Y-54935333D01*
X64066069Y-54935333D02*
X64066069Y-55173428D01*
X64066069Y-55173428D02*
X64113688Y-55268666D01*
X64113688Y-55268666D02*
X64161307Y-55316285D01*
X64161307Y-55316285D02*
X64256545Y-55363904D01*
X64256545Y-55363904D02*
X64351783Y-55363904D01*
X64351783Y-55363904D02*
X64494640Y-55316285D01*
X64494640Y-55316285D02*
X65066069Y-54744857D01*
X65066069Y-54744857D02*
X65066069Y-55363904D01*
X51415597Y-57050900D02*
X51463217Y-57003281D01*
X51463217Y-57003281D02*
X51510836Y-56860424D01*
X51510836Y-56860424D02*
X51510836Y-56765186D01*
X51510836Y-56765186D02*
X51463217Y-56622329D01*
X51463217Y-56622329D02*
X51367978Y-56527091D01*
X51367978Y-56527091D02*
X51272740Y-56479472D01*
X51272740Y-56479472D02*
X51082264Y-56431853D01*
X51082264Y-56431853D02*
X50939407Y-56431853D01*
X50939407Y-56431853D02*
X50748931Y-56479472D01*
X50748931Y-56479472D02*
X50653693Y-56527091D01*
X50653693Y-56527091D02*
X50558455Y-56622329D01*
X50558455Y-56622329D02*
X50510836Y-56765186D01*
X50510836Y-56765186D02*
X50510836Y-56860424D01*
X50510836Y-56860424D02*
X50558455Y-57003281D01*
X50558455Y-57003281D02*
X50606074Y-57050900D01*
X50510836Y-57955662D02*
X50510836Y-57479472D01*
X50510836Y-57479472D02*
X50987026Y-57431853D01*
X50987026Y-57431853D02*
X50939407Y-57479472D01*
X50939407Y-57479472D02*
X50891788Y-57574710D01*
X50891788Y-57574710D02*
X50891788Y-57812805D01*
X50891788Y-57812805D02*
X50939407Y-57908043D01*
X50939407Y-57908043D02*
X50987026Y-57955662D01*
X50987026Y-57955662D02*
X51082264Y-58003281D01*
X51082264Y-58003281D02*
X51320359Y-58003281D01*
X51320359Y-58003281D02*
X51415597Y-57955662D01*
X51415597Y-57955662D02*
X51463217Y-57908043D01*
X51463217Y-57908043D02*
X51510836Y-57812805D01*
X51510836Y-57812805D02*
X51510836Y-57574710D01*
X51510836Y-57574710D02*
X51463217Y-57479472D01*
X51463217Y-57479472D02*
X51415597Y-57431853D01*
X53827916Y-69843330D02*
X53875535Y-69890950D01*
X53875535Y-69890950D02*
X54018392Y-69938569D01*
X54018392Y-69938569D02*
X54113630Y-69938569D01*
X54113630Y-69938569D02*
X54256487Y-69890950D01*
X54256487Y-69890950D02*
X54351725Y-69795711D01*
X54351725Y-69795711D02*
X54399344Y-69700473D01*
X54399344Y-69700473D02*
X54446963Y-69509997D01*
X54446963Y-69509997D02*
X54446963Y-69367140D01*
X54446963Y-69367140D02*
X54399344Y-69176664D01*
X54399344Y-69176664D02*
X54351725Y-69081426D01*
X54351725Y-69081426D02*
X54256487Y-68986188D01*
X54256487Y-68986188D02*
X54113630Y-68938569D01*
X54113630Y-68938569D02*
X54018392Y-68938569D01*
X54018392Y-68938569D02*
X53875535Y-68986188D01*
X53875535Y-68986188D02*
X53827916Y-69033807D01*
X53446963Y-69033807D02*
X53399344Y-68986188D01*
X53399344Y-68986188D02*
X53304106Y-68938569D01*
X53304106Y-68938569D02*
X53066011Y-68938569D01*
X53066011Y-68938569D02*
X52970773Y-68986188D01*
X52970773Y-68986188D02*
X52923154Y-69033807D01*
X52923154Y-69033807D02*
X52875535Y-69129045D01*
X52875535Y-69129045D02*
X52875535Y-69224283D01*
X52875535Y-69224283D02*
X52923154Y-69367140D01*
X52923154Y-69367140D02*
X53494582Y-69938569D01*
X53494582Y-69938569D02*
X52875535Y-69938569D01*
X141266069Y-52887714D02*
X140266069Y-52887714D01*
X140266069Y-52887714D02*
X140266069Y-53125809D01*
X140266069Y-53125809D02*
X140313688Y-53268666D01*
X140313688Y-53268666D02*
X140408926Y-53363904D01*
X140408926Y-53363904D02*
X140504164Y-53411523D01*
X140504164Y-53411523D02*
X140694640Y-53459142D01*
X140694640Y-53459142D02*
X140837497Y-53459142D01*
X140837497Y-53459142D02*
X141027973Y-53411523D01*
X141027973Y-53411523D02*
X141123211Y-53363904D01*
X141123211Y-53363904D02*
X141218450Y-53268666D01*
X141218450Y-53268666D02*
X141266069Y-53125809D01*
X141266069Y-53125809D02*
X141266069Y-52887714D01*
X141266069Y-54411523D02*
X141266069Y-53840095D01*
X141266069Y-54125809D02*
X140266069Y-54125809D01*
X140266069Y-54125809D02*
X140408926Y-54030571D01*
X140408926Y-54030571D02*
X140504164Y-53935333D01*
X140504164Y-53935333D02*
X140551783Y-53840095D01*
X140266069Y-55268666D02*
X140266069Y-55078190D01*
X140266069Y-55078190D02*
X140313688Y-54982952D01*
X140313688Y-54982952D02*
X140361307Y-54935333D01*
X140361307Y-54935333D02*
X140504164Y-54840095D01*
X140504164Y-54840095D02*
X140694640Y-54792476D01*
X140694640Y-54792476D02*
X141075592Y-54792476D01*
X141075592Y-54792476D02*
X141170830Y-54840095D01*
X141170830Y-54840095D02*
X141218450Y-54887714D01*
X141218450Y-54887714D02*
X141266069Y-54982952D01*
X141266069Y-54982952D02*
X141266069Y-55173428D01*
X141266069Y-55173428D02*
X141218450Y-55268666D01*
X141218450Y-55268666D02*
X141170830Y-55316285D01*
X141170830Y-55316285D02*
X141075592Y-55363904D01*
X141075592Y-55363904D02*
X140837497Y-55363904D01*
X140837497Y-55363904D02*
X140742259Y-55316285D01*
X140742259Y-55316285D02*
X140694640Y-55268666D01*
X140694640Y-55268666D02*
X140647021Y-55173428D01*
X140647021Y-55173428D02*
X140647021Y-54982952D01*
X140647021Y-54982952D02*
X140694640Y-54887714D01*
X140694640Y-54887714D02*
X140742259Y-54840095D01*
X140742259Y-54840095D02*
X140837497Y-54792476D01*
X46082292Y-59224454D02*
X46129912Y-59176835D01*
X46129912Y-59176835D02*
X46177531Y-59033978D01*
X46177531Y-59033978D02*
X46177531Y-58938740D01*
X46177531Y-58938740D02*
X46129912Y-58795883D01*
X46129912Y-58795883D02*
X46034673Y-58700645D01*
X46034673Y-58700645D02*
X45939435Y-58653026D01*
X45939435Y-58653026D02*
X45748959Y-58605407D01*
X45748959Y-58605407D02*
X45606102Y-58605407D01*
X45606102Y-58605407D02*
X45415626Y-58653026D01*
X45415626Y-58653026D02*
X45320388Y-58700645D01*
X45320388Y-58700645D02*
X45225150Y-58795883D01*
X45225150Y-58795883D02*
X45177531Y-58938740D01*
X45177531Y-58938740D02*
X45177531Y-59033978D01*
X45177531Y-59033978D02*
X45225150Y-59176835D01*
X45225150Y-59176835D02*
X45272769Y-59224454D01*
X45606102Y-59795883D02*
X45558483Y-59700645D01*
X45558483Y-59700645D02*
X45510864Y-59653026D01*
X45510864Y-59653026D02*
X45415626Y-59605407D01*
X45415626Y-59605407D02*
X45368007Y-59605407D01*
X45368007Y-59605407D02*
X45272769Y-59653026D01*
X45272769Y-59653026D02*
X45225150Y-59700645D01*
X45225150Y-59700645D02*
X45177531Y-59795883D01*
X45177531Y-59795883D02*
X45177531Y-59986359D01*
X45177531Y-59986359D02*
X45225150Y-60081597D01*
X45225150Y-60081597D02*
X45272769Y-60129216D01*
X45272769Y-60129216D02*
X45368007Y-60176835D01*
X45368007Y-60176835D02*
X45415626Y-60176835D01*
X45415626Y-60176835D02*
X45510864Y-60129216D01*
X45510864Y-60129216D02*
X45558483Y-60081597D01*
X45558483Y-60081597D02*
X45606102Y-59986359D01*
X45606102Y-59986359D02*
X45606102Y-59795883D01*
X45606102Y-59795883D02*
X45653721Y-59700645D01*
X45653721Y-59700645D02*
X45701340Y-59653026D01*
X45701340Y-59653026D02*
X45796578Y-59605407D01*
X45796578Y-59605407D02*
X45987054Y-59605407D01*
X45987054Y-59605407D02*
X46082292Y-59653026D01*
X46082292Y-59653026D02*
X46129912Y-59700645D01*
X46129912Y-59700645D02*
X46177531Y-59795883D01*
X46177531Y-59795883D02*
X46177531Y-59986359D01*
X46177531Y-59986359D02*
X46129912Y-60081597D01*
X46129912Y-60081597D02*
X46082292Y-60129216D01*
X46082292Y-60129216D02*
X45987054Y-60176835D01*
X45987054Y-60176835D02*
X45796578Y-60176835D01*
X45796578Y-60176835D02*
X45701340Y-60129216D01*
X45701340Y-60129216D02*
X45653721Y-60081597D01*
X45653721Y-60081597D02*
X45606102Y-59986359D01*
X93641069Y-71937714D02*
X92641069Y-71937714D01*
X92641069Y-71937714D02*
X92641069Y-72175809D01*
X92641069Y-72175809D02*
X92688688Y-72318666D01*
X92688688Y-72318666D02*
X92783926Y-72413904D01*
X92783926Y-72413904D02*
X92879164Y-72461523D01*
X92879164Y-72461523D02*
X93069640Y-72509142D01*
X93069640Y-72509142D02*
X93212497Y-72509142D01*
X93212497Y-72509142D02*
X93402973Y-72461523D01*
X93402973Y-72461523D02*
X93498211Y-72413904D01*
X93498211Y-72413904D02*
X93593450Y-72318666D01*
X93593450Y-72318666D02*
X93641069Y-72175809D01*
X93641069Y-72175809D02*
X93641069Y-71937714D01*
X92736307Y-72890095D02*
X92688688Y-72937714D01*
X92688688Y-72937714D02*
X92641069Y-73032952D01*
X92641069Y-73032952D02*
X92641069Y-73271047D01*
X92641069Y-73271047D02*
X92688688Y-73366285D01*
X92688688Y-73366285D02*
X92736307Y-73413904D01*
X92736307Y-73413904D02*
X92831545Y-73461523D01*
X92831545Y-73461523D02*
X92926783Y-73461523D01*
X92926783Y-73461523D02*
X93069640Y-73413904D01*
X93069640Y-73413904D02*
X93641069Y-72842476D01*
X93641069Y-72842476D02*
X93641069Y-73461523D01*
X92641069Y-73794857D02*
X92641069Y-74413904D01*
X92641069Y-74413904D02*
X93022021Y-74080571D01*
X93022021Y-74080571D02*
X93022021Y-74223428D01*
X93022021Y-74223428D02*
X93069640Y-74318666D01*
X93069640Y-74318666D02*
X93117259Y-74366285D01*
X93117259Y-74366285D02*
X93212497Y-74413904D01*
X93212497Y-74413904D02*
X93450592Y-74413904D01*
X93450592Y-74413904D02*
X93545830Y-74366285D01*
X93545830Y-74366285D02*
X93593450Y-74318666D01*
X93593450Y-74318666D02*
X93641069Y-74223428D01*
X93641069Y-74223428D02*
X93641069Y-73937714D01*
X93641069Y-73937714D02*
X93593450Y-73842476D01*
X93593450Y-73842476D02*
X93545830Y-73794857D01*
X179366069Y-90987714D02*
X178366069Y-90987714D01*
X178366069Y-90987714D02*
X178366069Y-91225809D01*
X178366069Y-91225809D02*
X178413688Y-91368666D01*
X178413688Y-91368666D02*
X178508926Y-91463904D01*
X178508926Y-91463904D02*
X178604164Y-91511523D01*
X178604164Y-91511523D02*
X178794640Y-91559142D01*
X178794640Y-91559142D02*
X178937497Y-91559142D01*
X178937497Y-91559142D02*
X179127973Y-91511523D01*
X179127973Y-91511523D02*
X179223211Y-91463904D01*
X179223211Y-91463904D02*
X179318450Y-91368666D01*
X179318450Y-91368666D02*
X179366069Y-91225809D01*
X179366069Y-91225809D02*
X179366069Y-90987714D01*
X178366069Y-91892476D02*
X178366069Y-92511523D01*
X178366069Y-92511523D02*
X178747021Y-92178190D01*
X178747021Y-92178190D02*
X178747021Y-92321047D01*
X178747021Y-92321047D02*
X178794640Y-92416285D01*
X178794640Y-92416285D02*
X178842259Y-92463904D01*
X178842259Y-92463904D02*
X178937497Y-92511523D01*
X178937497Y-92511523D02*
X179175592Y-92511523D01*
X179175592Y-92511523D02*
X179270830Y-92463904D01*
X179270830Y-92463904D02*
X179318450Y-92416285D01*
X179318450Y-92416285D02*
X179366069Y-92321047D01*
X179366069Y-92321047D02*
X179366069Y-92035333D01*
X179366069Y-92035333D02*
X179318450Y-91940095D01*
X179318450Y-91940095D02*
X179270830Y-91892476D01*
X178366069Y-93368666D02*
X178366069Y-93178190D01*
X178366069Y-93178190D02*
X178413688Y-93082952D01*
X178413688Y-93082952D02*
X178461307Y-93035333D01*
X178461307Y-93035333D02*
X178604164Y-92940095D01*
X178604164Y-92940095D02*
X178794640Y-92892476D01*
X178794640Y-92892476D02*
X179175592Y-92892476D01*
X179175592Y-92892476D02*
X179270830Y-92940095D01*
X179270830Y-92940095D02*
X179318450Y-92987714D01*
X179318450Y-92987714D02*
X179366069Y-93082952D01*
X179366069Y-93082952D02*
X179366069Y-93273428D01*
X179366069Y-93273428D02*
X179318450Y-93368666D01*
X179318450Y-93368666D02*
X179270830Y-93416285D01*
X179270830Y-93416285D02*
X179175592Y-93463904D01*
X179175592Y-93463904D02*
X178937497Y-93463904D01*
X178937497Y-93463904D02*
X178842259Y-93416285D01*
X178842259Y-93416285D02*
X178794640Y-93368666D01*
X178794640Y-93368666D02*
X178747021Y-93273428D01*
X178747021Y-93273428D02*
X178747021Y-93082952D01*
X178747021Y-93082952D02*
X178794640Y-92987714D01*
X178794640Y-92987714D02*
X178842259Y-92940095D01*
X178842259Y-92940095D02*
X178937497Y-92892476D01*
X41852105Y-28379829D02*
X41852105Y-29094114D01*
X41852105Y-29094114D02*
X41899724Y-29236971D01*
X41899724Y-29236971D02*
X41994962Y-29332210D01*
X41994962Y-29332210D02*
X42137819Y-29379829D01*
X42137819Y-29379829D02*
X42233057Y-29379829D01*
X40852105Y-29379829D02*
X41423533Y-29379829D01*
X41137819Y-29379829D02*
X41137819Y-28379829D01*
X41137819Y-28379829D02*
X41233057Y-28522686D01*
X41233057Y-28522686D02*
X41328295Y-28617924D01*
X41328295Y-28617924D02*
X41423533Y-28665543D01*
X41162435Y-59349973D02*
X40686244Y-59016640D01*
X41162435Y-58778545D02*
X40162435Y-58778545D01*
X40162435Y-58778545D02*
X40162435Y-59159497D01*
X40162435Y-59159497D02*
X40210054Y-59254735D01*
X40210054Y-59254735D02*
X40257673Y-59302354D01*
X40257673Y-59302354D02*
X40352911Y-59349973D01*
X40352911Y-59349973D02*
X40495768Y-59349973D01*
X40495768Y-59349973D02*
X40591006Y-59302354D01*
X40591006Y-59302354D02*
X40638625Y-59254735D01*
X40638625Y-59254735D02*
X40686244Y-59159497D01*
X40686244Y-59159497D02*
X40686244Y-58778545D01*
X40162435Y-59683307D02*
X40162435Y-60349973D01*
X40162435Y-60349973D02*
X41162435Y-59921402D01*
X115072319Y-90987714D02*
X114072319Y-90987714D01*
X114072319Y-90987714D02*
X114072319Y-91225809D01*
X114072319Y-91225809D02*
X114119938Y-91368666D01*
X114119938Y-91368666D02*
X114215176Y-91463904D01*
X114215176Y-91463904D02*
X114310414Y-91511523D01*
X114310414Y-91511523D02*
X114500890Y-91559142D01*
X114500890Y-91559142D02*
X114643747Y-91559142D01*
X114643747Y-91559142D02*
X114834223Y-91511523D01*
X114834223Y-91511523D02*
X114929461Y-91463904D01*
X114929461Y-91463904D02*
X115024700Y-91368666D01*
X115024700Y-91368666D02*
X115072319Y-91225809D01*
X115072319Y-91225809D02*
X115072319Y-90987714D01*
X114072319Y-91892476D02*
X114072319Y-92511523D01*
X114072319Y-92511523D02*
X114453271Y-92178190D01*
X114453271Y-92178190D02*
X114453271Y-92321047D01*
X114453271Y-92321047D02*
X114500890Y-92416285D01*
X114500890Y-92416285D02*
X114548509Y-92463904D01*
X114548509Y-92463904D02*
X114643747Y-92511523D01*
X114643747Y-92511523D02*
X114881842Y-92511523D01*
X114881842Y-92511523D02*
X114977080Y-92463904D01*
X114977080Y-92463904D02*
X115024700Y-92416285D01*
X115024700Y-92416285D02*
X115072319Y-92321047D01*
X115072319Y-92321047D02*
X115072319Y-92035333D01*
X115072319Y-92035333D02*
X115024700Y-91940095D01*
X115024700Y-91940095D02*
X114977080Y-91892476D01*
X114072319Y-92844857D02*
X114072319Y-93463904D01*
X114072319Y-93463904D02*
X114453271Y-93130571D01*
X114453271Y-93130571D02*
X114453271Y-93273428D01*
X114453271Y-93273428D02*
X114500890Y-93368666D01*
X114500890Y-93368666D02*
X114548509Y-93416285D01*
X114548509Y-93416285D02*
X114643747Y-93463904D01*
X114643747Y-93463904D02*
X114881842Y-93463904D01*
X114881842Y-93463904D02*
X114977080Y-93416285D01*
X114977080Y-93416285D02*
X115024700Y-93368666D01*
X115024700Y-93368666D02*
X115072319Y-93273428D01*
X115072319Y-93273428D02*
X115072319Y-92987714D01*
X115072319Y-92987714D02*
X115024700Y-92892476D01*
X115024700Y-92892476D02*
X114977080Y-92844857D01*
X43899814Y-45319580D02*
X43947433Y-45367200D01*
X43947433Y-45367200D02*
X44090290Y-45414819D01*
X44090290Y-45414819D02*
X44185528Y-45414819D01*
X44185528Y-45414819D02*
X44328385Y-45367200D01*
X44328385Y-45367200D02*
X44423623Y-45271961D01*
X44423623Y-45271961D02*
X44471242Y-45176723D01*
X44471242Y-45176723D02*
X44518861Y-44986247D01*
X44518861Y-44986247D02*
X44518861Y-44843390D01*
X44518861Y-44843390D02*
X44471242Y-44652914D01*
X44471242Y-44652914D02*
X44423623Y-44557676D01*
X44423623Y-44557676D02*
X44328385Y-44462438D01*
X44328385Y-44462438D02*
X44185528Y-44414819D01*
X44185528Y-44414819D02*
X44090290Y-44414819D01*
X44090290Y-44414819D02*
X43947433Y-44462438D01*
X43947433Y-44462438D02*
X43899814Y-44510057D01*
X43566480Y-44414819D02*
X42899814Y-44414819D01*
X42899814Y-44414819D02*
X43328385Y-45414819D01*
X44342209Y-31193510D02*
X44914628Y-31092495D01*
X44746270Y-31597571D02*
X45453376Y-30890464D01*
X45453376Y-30890464D02*
X45184002Y-30621090D01*
X45184002Y-30621090D02*
X45082987Y-30587418D01*
X45082987Y-30587418D02*
X45015644Y-30587418D01*
X45015644Y-30587418D02*
X44914628Y-30621090D01*
X44914628Y-30621090D02*
X44813613Y-30722105D01*
X44813613Y-30722105D02*
X44779941Y-30823121D01*
X44779941Y-30823121D02*
X44779941Y-30890464D01*
X44779941Y-30890464D02*
X44813613Y-30991479D01*
X44813613Y-30991479D02*
X45082987Y-31260853D01*
X44443224Y-29880312D02*
X44577911Y-30014999D01*
X44577911Y-30014999D02*
X44611583Y-30116014D01*
X44611583Y-30116014D02*
X44611583Y-30183357D01*
X44611583Y-30183357D02*
X44577911Y-30351716D01*
X44577911Y-30351716D02*
X44476896Y-30520075D01*
X44476896Y-30520075D02*
X44207522Y-30789449D01*
X44207522Y-30789449D02*
X44106506Y-30823121D01*
X44106506Y-30823121D02*
X44039163Y-30823121D01*
X44039163Y-30823121D02*
X43938148Y-30789449D01*
X43938148Y-30789449D02*
X43803461Y-30654762D01*
X43803461Y-30654762D02*
X43769789Y-30553747D01*
X43769789Y-30553747D02*
X43769789Y-30486403D01*
X43769789Y-30486403D02*
X43803461Y-30385388D01*
X43803461Y-30385388D02*
X43971819Y-30217029D01*
X43971819Y-30217029D02*
X44072835Y-30183357D01*
X44072835Y-30183357D02*
X44140178Y-30183357D01*
X44140178Y-30183357D02*
X44241193Y-30217029D01*
X44241193Y-30217029D02*
X44375880Y-30351716D01*
X44375880Y-30351716D02*
X44409552Y-30452731D01*
X44409552Y-30452731D02*
X44409552Y-30520075D01*
X44409552Y-30520075D02*
X44375880Y-30621090D01*
X46016069Y-90987714D02*
X45016069Y-90987714D01*
X45016069Y-90987714D02*
X45016069Y-91225809D01*
X45016069Y-91225809D02*
X45063688Y-91368666D01*
X45063688Y-91368666D02*
X45158926Y-91463904D01*
X45158926Y-91463904D02*
X45254164Y-91511523D01*
X45254164Y-91511523D02*
X45444640Y-91559142D01*
X45444640Y-91559142D02*
X45587497Y-91559142D01*
X45587497Y-91559142D02*
X45777973Y-91511523D01*
X45777973Y-91511523D02*
X45873211Y-91463904D01*
X45873211Y-91463904D02*
X45968450Y-91368666D01*
X45968450Y-91368666D02*
X46016069Y-91225809D01*
X46016069Y-91225809D02*
X46016069Y-90987714D01*
X45016069Y-91892476D02*
X45016069Y-92511523D01*
X45016069Y-92511523D02*
X45397021Y-92178190D01*
X45397021Y-92178190D02*
X45397021Y-92321047D01*
X45397021Y-92321047D02*
X45444640Y-92416285D01*
X45444640Y-92416285D02*
X45492259Y-92463904D01*
X45492259Y-92463904D02*
X45587497Y-92511523D01*
X45587497Y-92511523D02*
X45825592Y-92511523D01*
X45825592Y-92511523D02*
X45920830Y-92463904D01*
X45920830Y-92463904D02*
X45968450Y-92416285D01*
X45968450Y-92416285D02*
X46016069Y-92321047D01*
X46016069Y-92321047D02*
X46016069Y-92035333D01*
X46016069Y-92035333D02*
X45968450Y-91940095D01*
X45968450Y-91940095D02*
X45920830Y-91892476D01*
X45016069Y-93130571D02*
X45016069Y-93225809D01*
X45016069Y-93225809D02*
X45063688Y-93321047D01*
X45063688Y-93321047D02*
X45111307Y-93368666D01*
X45111307Y-93368666D02*
X45206545Y-93416285D01*
X45206545Y-93416285D02*
X45397021Y-93463904D01*
X45397021Y-93463904D02*
X45635116Y-93463904D01*
X45635116Y-93463904D02*
X45825592Y-93416285D01*
X45825592Y-93416285D02*
X45920830Y-93368666D01*
X45920830Y-93368666D02*
X45968450Y-93321047D01*
X45968450Y-93321047D02*
X46016069Y-93225809D01*
X46016069Y-93225809D02*
X46016069Y-93130571D01*
X46016069Y-93130571D02*
X45968450Y-93035333D01*
X45968450Y-93035333D02*
X45920830Y-92987714D01*
X45920830Y-92987714D02*
X45825592Y-92940095D01*
X45825592Y-92940095D02*
X45635116Y-92892476D01*
X45635116Y-92892476D02*
X45397021Y-92892476D01*
X45397021Y-92892476D02*
X45206545Y-92940095D01*
X45206545Y-92940095D02*
X45111307Y-92987714D01*
X45111307Y-92987714D02*
X45063688Y-93035333D01*
X45063688Y-93035333D02*
X45016069Y-93130571D01*
X41253569Y-52887714D02*
X40253569Y-52887714D01*
X40253569Y-52887714D02*
X40253569Y-53125809D01*
X40253569Y-53125809D02*
X40301188Y-53268666D01*
X40301188Y-53268666D02*
X40396426Y-53363904D01*
X40396426Y-53363904D02*
X40491664Y-53411523D01*
X40491664Y-53411523D02*
X40682140Y-53459142D01*
X40682140Y-53459142D02*
X40824997Y-53459142D01*
X40824997Y-53459142D02*
X41015473Y-53411523D01*
X41015473Y-53411523D02*
X41110711Y-53363904D01*
X41110711Y-53363904D02*
X41205950Y-53268666D01*
X41205950Y-53268666D02*
X41253569Y-53125809D01*
X41253569Y-53125809D02*
X41253569Y-52887714D01*
X41253569Y-54411523D02*
X41253569Y-53840095D01*
X41253569Y-54125809D02*
X40253569Y-54125809D01*
X40253569Y-54125809D02*
X40396426Y-54030571D01*
X40396426Y-54030571D02*
X40491664Y-53935333D01*
X40491664Y-53935333D02*
X40539283Y-53840095D01*
X41253569Y-55363904D02*
X41253569Y-54792476D01*
X41253569Y-55078190D02*
X40253569Y-55078190D01*
X40253569Y-55078190D02*
X40396426Y-54982952D01*
X40396426Y-54982952D02*
X40491664Y-54887714D01*
X40491664Y-54887714D02*
X40539283Y-54792476D01*
X44336005Y-37429580D02*
X44383624Y-37477200D01*
X44383624Y-37477200D02*
X44526481Y-37524819D01*
X44526481Y-37524819D02*
X44621719Y-37524819D01*
X44621719Y-37524819D02*
X44764576Y-37477200D01*
X44764576Y-37477200D02*
X44859814Y-37381961D01*
X44859814Y-37381961D02*
X44907433Y-37286723D01*
X44907433Y-37286723D02*
X44955052Y-37096247D01*
X44955052Y-37096247D02*
X44955052Y-36953390D01*
X44955052Y-36953390D02*
X44907433Y-36762914D01*
X44907433Y-36762914D02*
X44859814Y-36667676D01*
X44859814Y-36667676D02*
X44764576Y-36572438D01*
X44764576Y-36572438D02*
X44621719Y-36524819D01*
X44621719Y-36524819D02*
X44526481Y-36524819D01*
X44526481Y-36524819D02*
X44383624Y-36572438D01*
X44383624Y-36572438D02*
X44336005Y-36620057D01*
X43383624Y-37524819D02*
X43955052Y-37524819D01*
X43669338Y-37524819D02*
X43669338Y-36524819D01*
X43669338Y-36524819D02*
X43764576Y-36667676D01*
X43764576Y-36667676D02*
X43859814Y-36762914D01*
X43859814Y-36762914D02*
X43955052Y-36810533D01*
X42526481Y-36524819D02*
X42716957Y-36524819D01*
X42716957Y-36524819D02*
X42812195Y-36572438D01*
X42812195Y-36572438D02*
X42859814Y-36620057D01*
X42859814Y-36620057D02*
X42955052Y-36762914D01*
X42955052Y-36762914D02*
X43002671Y-36953390D01*
X43002671Y-36953390D02*
X43002671Y-37334342D01*
X43002671Y-37334342D02*
X42955052Y-37429580D01*
X42955052Y-37429580D02*
X42907433Y-37477200D01*
X42907433Y-37477200D02*
X42812195Y-37524819D01*
X42812195Y-37524819D02*
X42621719Y-37524819D01*
X42621719Y-37524819D02*
X42526481Y-37477200D01*
X42526481Y-37477200D02*
X42478862Y-37429580D01*
X42478862Y-37429580D02*
X42431243Y-37334342D01*
X42431243Y-37334342D02*
X42431243Y-37096247D01*
X42431243Y-37096247D02*
X42478862Y-37001009D01*
X42478862Y-37001009D02*
X42526481Y-36953390D01*
X42526481Y-36953390D02*
X42621719Y-36905771D01*
X42621719Y-36905771D02*
X42812195Y-36905771D01*
X42812195Y-36905771D02*
X42907433Y-36953390D01*
X42907433Y-36953390D02*
X42955052Y-37001009D01*
X42955052Y-37001009D02*
X43002671Y-37096247D01*
X169841069Y-71937714D02*
X168841069Y-71937714D01*
X168841069Y-71937714D02*
X168841069Y-72175809D01*
X168841069Y-72175809D02*
X168888688Y-72318666D01*
X168888688Y-72318666D02*
X168983926Y-72413904D01*
X168983926Y-72413904D02*
X169079164Y-72461523D01*
X169079164Y-72461523D02*
X169269640Y-72509142D01*
X169269640Y-72509142D02*
X169412497Y-72509142D01*
X169412497Y-72509142D02*
X169602973Y-72461523D01*
X169602973Y-72461523D02*
X169698211Y-72413904D01*
X169698211Y-72413904D02*
X169793450Y-72318666D01*
X169793450Y-72318666D02*
X169841069Y-72175809D01*
X169841069Y-72175809D02*
X169841069Y-71937714D01*
X168936307Y-72890095D02*
X168888688Y-72937714D01*
X168888688Y-72937714D02*
X168841069Y-73032952D01*
X168841069Y-73032952D02*
X168841069Y-73271047D01*
X168841069Y-73271047D02*
X168888688Y-73366285D01*
X168888688Y-73366285D02*
X168936307Y-73413904D01*
X168936307Y-73413904D02*
X169031545Y-73461523D01*
X169031545Y-73461523D02*
X169126783Y-73461523D01*
X169126783Y-73461523D02*
X169269640Y-73413904D01*
X169269640Y-73413904D02*
X169841069Y-72842476D01*
X169841069Y-72842476D02*
X169841069Y-73461523D01*
X168841069Y-73794857D02*
X168841069Y-74461523D01*
X168841069Y-74461523D02*
X169841069Y-74032952D01*
X86497319Y-90987714D02*
X85497319Y-90987714D01*
X85497319Y-90987714D02*
X85497319Y-91225809D01*
X85497319Y-91225809D02*
X85544938Y-91368666D01*
X85544938Y-91368666D02*
X85640176Y-91463904D01*
X85640176Y-91463904D02*
X85735414Y-91511523D01*
X85735414Y-91511523D02*
X85925890Y-91559142D01*
X85925890Y-91559142D02*
X86068747Y-91559142D01*
X86068747Y-91559142D02*
X86259223Y-91511523D01*
X86259223Y-91511523D02*
X86354461Y-91463904D01*
X86354461Y-91463904D02*
X86449700Y-91368666D01*
X86449700Y-91368666D02*
X86497319Y-91225809D01*
X86497319Y-91225809D02*
X86497319Y-90987714D01*
X85497319Y-91892476D02*
X85497319Y-92511523D01*
X85497319Y-92511523D02*
X85878271Y-92178190D01*
X85878271Y-92178190D02*
X85878271Y-92321047D01*
X85878271Y-92321047D02*
X85925890Y-92416285D01*
X85925890Y-92416285D02*
X85973509Y-92463904D01*
X85973509Y-92463904D02*
X86068747Y-92511523D01*
X86068747Y-92511523D02*
X86306842Y-92511523D01*
X86306842Y-92511523D02*
X86402080Y-92463904D01*
X86402080Y-92463904D02*
X86449700Y-92416285D01*
X86449700Y-92416285D02*
X86497319Y-92321047D01*
X86497319Y-92321047D02*
X86497319Y-92035333D01*
X86497319Y-92035333D02*
X86449700Y-91940095D01*
X86449700Y-91940095D02*
X86402080Y-91892476D01*
X85592557Y-92892476D02*
X85544938Y-92940095D01*
X85544938Y-92940095D02*
X85497319Y-93035333D01*
X85497319Y-93035333D02*
X85497319Y-93273428D01*
X85497319Y-93273428D02*
X85544938Y-93368666D01*
X85544938Y-93368666D02*
X85592557Y-93416285D01*
X85592557Y-93416285D02*
X85687795Y-93463904D01*
X85687795Y-93463904D02*
X85783033Y-93463904D01*
X85783033Y-93463904D02*
X85925890Y-93416285D01*
X85925890Y-93416285D02*
X86497319Y-92844857D01*
X86497319Y-92844857D02*
X86497319Y-93463904D01*
X54293330Y-66355892D02*
X54340950Y-66308273D01*
X54340950Y-66308273D02*
X54388569Y-66165416D01*
X54388569Y-66165416D02*
X54388569Y-66070178D01*
X54388569Y-66070178D02*
X54340950Y-65927321D01*
X54340950Y-65927321D02*
X54245711Y-65832083D01*
X54245711Y-65832083D02*
X54150473Y-65784464D01*
X54150473Y-65784464D02*
X53959997Y-65736845D01*
X53959997Y-65736845D02*
X53817140Y-65736845D01*
X53817140Y-65736845D02*
X53626664Y-65784464D01*
X53626664Y-65784464D02*
X53531426Y-65832083D01*
X53531426Y-65832083D02*
X53436188Y-65927321D01*
X53436188Y-65927321D02*
X53388569Y-66070178D01*
X53388569Y-66070178D02*
X53388569Y-66165416D01*
X53388569Y-66165416D02*
X53436188Y-66308273D01*
X53436188Y-66308273D02*
X53483807Y-66355892D01*
X54388569Y-67308273D02*
X54388569Y-66736845D01*
X54388569Y-67022559D02*
X53388569Y-67022559D01*
X53388569Y-67022559D02*
X53531426Y-66927321D01*
X53531426Y-66927321D02*
X53626664Y-66832083D01*
X53626664Y-66832083D02*
X53674283Y-66736845D01*
X53388569Y-67641607D02*
X53388569Y-68260654D01*
X53388569Y-68260654D02*
X53769521Y-67927321D01*
X53769521Y-67927321D02*
X53769521Y-68070178D01*
X53769521Y-68070178D02*
X53817140Y-68165416D01*
X53817140Y-68165416D02*
X53864759Y-68213035D01*
X53864759Y-68213035D02*
X53959997Y-68260654D01*
X53959997Y-68260654D02*
X54198092Y-68260654D01*
X54198092Y-68260654D02*
X54293330Y-68213035D01*
X54293330Y-68213035D02*
X54340950Y-68165416D01*
X54340950Y-68165416D02*
X54388569Y-68070178D01*
X54388569Y-68070178D02*
X54388569Y-67784464D01*
X54388569Y-67784464D02*
X54340950Y-67689226D01*
X54340950Y-67689226D02*
X54293330Y-67641607D01*
X48164267Y-34163095D02*
X48973790Y-34163095D01*
X48973790Y-34163095D02*
X49069028Y-34210714D01*
X49069028Y-34210714D02*
X49116648Y-34258333D01*
X49116648Y-34258333D02*
X49164267Y-34353571D01*
X49164267Y-34353571D02*
X49164267Y-34544047D01*
X49164267Y-34544047D02*
X49116648Y-34639285D01*
X49116648Y-34639285D02*
X49069028Y-34686904D01*
X49069028Y-34686904D02*
X48973790Y-34734523D01*
X48973790Y-34734523D02*
X48164267Y-34734523D01*
X48259505Y-35163095D02*
X48211886Y-35210714D01*
X48211886Y-35210714D02*
X48164267Y-35305952D01*
X48164267Y-35305952D02*
X48164267Y-35544047D01*
X48164267Y-35544047D02*
X48211886Y-35639285D01*
X48211886Y-35639285D02*
X48259505Y-35686904D01*
X48259505Y-35686904D02*
X48354743Y-35734523D01*
X48354743Y-35734523D02*
X48449981Y-35734523D01*
X48449981Y-35734523D02*
X48592838Y-35686904D01*
X48592838Y-35686904D02*
X49164267Y-35115476D01*
X49164267Y-35115476D02*
X49164267Y-35734523D01*
X217466069Y-90987714D02*
X216466069Y-90987714D01*
X216466069Y-90987714D02*
X216466069Y-91225809D01*
X216466069Y-91225809D02*
X216513688Y-91368666D01*
X216513688Y-91368666D02*
X216608926Y-91463904D01*
X216608926Y-91463904D02*
X216704164Y-91511523D01*
X216704164Y-91511523D02*
X216894640Y-91559142D01*
X216894640Y-91559142D02*
X217037497Y-91559142D01*
X217037497Y-91559142D02*
X217227973Y-91511523D01*
X217227973Y-91511523D02*
X217323211Y-91463904D01*
X217323211Y-91463904D02*
X217418450Y-91368666D01*
X217418450Y-91368666D02*
X217466069Y-91225809D01*
X217466069Y-91225809D02*
X217466069Y-90987714D01*
X216466069Y-91892476D02*
X216466069Y-92511523D01*
X216466069Y-92511523D02*
X216847021Y-92178190D01*
X216847021Y-92178190D02*
X216847021Y-92321047D01*
X216847021Y-92321047D02*
X216894640Y-92416285D01*
X216894640Y-92416285D02*
X216942259Y-92463904D01*
X216942259Y-92463904D02*
X217037497Y-92511523D01*
X217037497Y-92511523D02*
X217275592Y-92511523D01*
X217275592Y-92511523D02*
X217370830Y-92463904D01*
X217370830Y-92463904D02*
X217418450Y-92416285D01*
X217418450Y-92416285D02*
X217466069Y-92321047D01*
X217466069Y-92321047D02*
X217466069Y-92035333D01*
X217466069Y-92035333D02*
X217418450Y-91940095D01*
X217418450Y-91940095D02*
X217370830Y-91892476D01*
X216894640Y-93082952D02*
X216847021Y-92987714D01*
X216847021Y-92987714D02*
X216799402Y-92940095D01*
X216799402Y-92940095D02*
X216704164Y-92892476D01*
X216704164Y-92892476D02*
X216656545Y-92892476D01*
X216656545Y-92892476D02*
X216561307Y-92940095D01*
X216561307Y-92940095D02*
X216513688Y-92987714D01*
X216513688Y-92987714D02*
X216466069Y-93082952D01*
X216466069Y-93082952D02*
X216466069Y-93273428D01*
X216466069Y-93273428D02*
X216513688Y-93368666D01*
X216513688Y-93368666D02*
X216561307Y-93416285D01*
X216561307Y-93416285D02*
X216656545Y-93463904D01*
X216656545Y-93463904D02*
X216704164Y-93463904D01*
X216704164Y-93463904D02*
X216799402Y-93416285D01*
X216799402Y-93416285D02*
X216847021Y-93368666D01*
X216847021Y-93368666D02*
X216894640Y-93273428D01*
X216894640Y-93273428D02*
X216894640Y-93082952D01*
X216894640Y-93082952D02*
X216942259Y-92987714D01*
X216942259Y-92987714D02*
X216989878Y-92940095D01*
X216989878Y-92940095D02*
X217085116Y-92892476D01*
X217085116Y-92892476D02*
X217275592Y-92892476D01*
X217275592Y-92892476D02*
X217370830Y-92940095D01*
X217370830Y-92940095D02*
X217418450Y-92987714D01*
X217418450Y-92987714D02*
X217466069Y-93082952D01*
X217466069Y-93082952D02*
X217466069Y-93273428D01*
X217466069Y-93273428D02*
X217418450Y-93368666D01*
X217418450Y-93368666D02*
X217370830Y-93416285D01*
X217370830Y-93416285D02*
X217275592Y-93463904D01*
X217275592Y-93463904D02*
X217085116Y-93463904D01*
X217085116Y-93463904D02*
X216989878Y-93416285D01*
X216989878Y-93416285D02*
X216942259Y-93368666D01*
X216942259Y-93368666D02*
X216894640Y-93273428D01*
X160316069Y-52887714D02*
X159316069Y-52887714D01*
X159316069Y-52887714D02*
X159316069Y-53125809D01*
X159316069Y-53125809D02*
X159363688Y-53268666D01*
X159363688Y-53268666D02*
X159458926Y-53363904D01*
X159458926Y-53363904D02*
X159554164Y-53411523D01*
X159554164Y-53411523D02*
X159744640Y-53459142D01*
X159744640Y-53459142D02*
X159887497Y-53459142D01*
X159887497Y-53459142D02*
X160077973Y-53411523D01*
X160077973Y-53411523D02*
X160173211Y-53363904D01*
X160173211Y-53363904D02*
X160268450Y-53268666D01*
X160268450Y-53268666D02*
X160316069Y-53125809D01*
X160316069Y-53125809D02*
X160316069Y-52887714D01*
X160316069Y-54411523D02*
X160316069Y-53840095D01*
X160316069Y-54125809D02*
X159316069Y-54125809D01*
X159316069Y-54125809D02*
X159458926Y-54030571D01*
X159458926Y-54030571D02*
X159554164Y-53935333D01*
X159554164Y-53935333D02*
X159601783Y-53840095D01*
X159316069Y-54744857D02*
X159316069Y-55411523D01*
X159316069Y-55411523D02*
X160316069Y-54982952D01*
X56216607Y-63275830D02*
X56264226Y-63323450D01*
X56264226Y-63323450D02*
X56407083Y-63371069D01*
X56407083Y-63371069D02*
X56502321Y-63371069D01*
X56502321Y-63371069D02*
X56645178Y-63323450D01*
X56645178Y-63323450D02*
X56740416Y-63228211D01*
X56740416Y-63228211D02*
X56788035Y-63132973D01*
X56788035Y-63132973D02*
X56835654Y-62942497D01*
X56835654Y-62942497D02*
X56835654Y-62799640D01*
X56835654Y-62799640D02*
X56788035Y-62609164D01*
X56788035Y-62609164D02*
X56740416Y-62513926D01*
X56740416Y-62513926D02*
X56645178Y-62418688D01*
X56645178Y-62418688D02*
X56502321Y-62371069D01*
X56502321Y-62371069D02*
X56407083Y-62371069D01*
X56407083Y-62371069D02*
X56264226Y-62418688D01*
X56264226Y-62418688D02*
X56216607Y-62466307D01*
X55264226Y-63371069D02*
X55835654Y-63371069D01*
X55549940Y-63371069D02*
X55549940Y-62371069D01*
X55549940Y-62371069D02*
X55645178Y-62513926D01*
X55645178Y-62513926D02*
X55740416Y-62609164D01*
X55740416Y-62609164D02*
X55835654Y-62656783D01*
X54883273Y-62466307D02*
X54835654Y-62418688D01*
X54835654Y-62418688D02*
X54740416Y-62371069D01*
X54740416Y-62371069D02*
X54502321Y-62371069D01*
X54502321Y-62371069D02*
X54407083Y-62418688D01*
X54407083Y-62418688D02*
X54359464Y-62466307D01*
X54359464Y-62466307D02*
X54311845Y-62561545D01*
X54311845Y-62561545D02*
X54311845Y-62656783D01*
X54311845Y-62656783D02*
X54359464Y-62799640D01*
X54359464Y-62799640D02*
X54930892Y-63371069D01*
X54930892Y-63371069D02*
X54311845Y-63371069D01*
X150791069Y-71937714D02*
X149791069Y-71937714D01*
X149791069Y-71937714D02*
X149791069Y-72175809D01*
X149791069Y-72175809D02*
X149838688Y-72318666D01*
X149838688Y-72318666D02*
X149933926Y-72413904D01*
X149933926Y-72413904D02*
X150029164Y-72461523D01*
X150029164Y-72461523D02*
X150219640Y-72509142D01*
X150219640Y-72509142D02*
X150362497Y-72509142D01*
X150362497Y-72509142D02*
X150552973Y-72461523D01*
X150552973Y-72461523D02*
X150648211Y-72413904D01*
X150648211Y-72413904D02*
X150743450Y-72318666D01*
X150743450Y-72318666D02*
X150791069Y-72175809D01*
X150791069Y-72175809D02*
X150791069Y-71937714D01*
X149886307Y-72890095D02*
X149838688Y-72937714D01*
X149838688Y-72937714D02*
X149791069Y-73032952D01*
X149791069Y-73032952D02*
X149791069Y-73271047D01*
X149791069Y-73271047D02*
X149838688Y-73366285D01*
X149838688Y-73366285D02*
X149886307Y-73413904D01*
X149886307Y-73413904D02*
X149981545Y-73461523D01*
X149981545Y-73461523D02*
X150076783Y-73461523D01*
X150076783Y-73461523D02*
X150219640Y-73413904D01*
X150219640Y-73413904D02*
X150791069Y-72842476D01*
X150791069Y-72842476D02*
X150791069Y-73461523D01*
X149791069Y-74318666D02*
X149791069Y-74128190D01*
X149791069Y-74128190D02*
X149838688Y-74032952D01*
X149838688Y-74032952D02*
X149886307Y-73985333D01*
X149886307Y-73985333D02*
X150029164Y-73890095D01*
X150029164Y-73890095D02*
X150219640Y-73842476D01*
X150219640Y-73842476D02*
X150600592Y-73842476D01*
X150600592Y-73842476D02*
X150695830Y-73890095D01*
X150695830Y-73890095D02*
X150743450Y-73937714D01*
X150743450Y-73937714D02*
X150791069Y-74032952D01*
X150791069Y-74032952D02*
X150791069Y-74223428D01*
X150791069Y-74223428D02*
X150743450Y-74318666D01*
X150743450Y-74318666D02*
X150695830Y-74366285D01*
X150695830Y-74366285D02*
X150600592Y-74413904D01*
X150600592Y-74413904D02*
X150362497Y-74413904D01*
X150362497Y-74413904D02*
X150267259Y-74366285D01*
X150267259Y-74366285D02*
X150219640Y-74318666D01*
X150219640Y-74318666D02*
X150172021Y-74223428D01*
X150172021Y-74223428D02*
X150172021Y-74032952D01*
X150172021Y-74032952D02*
X150219640Y-73937714D01*
X150219640Y-73937714D02*
X150267259Y-73890095D01*
X150267259Y-73890095D02*
X150362497Y-73842476D01*
X45085682Y-66385695D02*
X45133302Y-66338076D01*
X45133302Y-66338076D02*
X45180921Y-66195219D01*
X45180921Y-66195219D02*
X45180921Y-66099981D01*
X45180921Y-66099981D02*
X45133302Y-65957124D01*
X45133302Y-65957124D02*
X45038063Y-65861886D01*
X45038063Y-65861886D02*
X44942825Y-65814267D01*
X44942825Y-65814267D02*
X44752349Y-65766648D01*
X44752349Y-65766648D02*
X44609492Y-65766648D01*
X44609492Y-65766648D02*
X44419016Y-65814267D01*
X44419016Y-65814267D02*
X44323778Y-65861886D01*
X44323778Y-65861886D02*
X44228540Y-65957124D01*
X44228540Y-65957124D02*
X44180921Y-66099981D01*
X44180921Y-66099981D02*
X44180921Y-66195219D01*
X44180921Y-66195219D02*
X44228540Y-66338076D01*
X44228540Y-66338076D02*
X44276159Y-66385695D01*
X45180921Y-67338076D02*
X45180921Y-66766648D01*
X45180921Y-67052362D02*
X44180921Y-67052362D01*
X44180921Y-67052362D02*
X44323778Y-66957124D01*
X44323778Y-66957124D02*
X44419016Y-66861886D01*
X44419016Y-66861886D02*
X44466635Y-66766648D01*
X44180921Y-68242838D02*
X44180921Y-67766648D01*
X44180921Y-67766648D02*
X44657111Y-67719029D01*
X44657111Y-67719029D02*
X44609492Y-67766648D01*
X44609492Y-67766648D02*
X44561873Y-67861886D01*
X44561873Y-67861886D02*
X44561873Y-68099981D01*
X44561873Y-68099981D02*
X44609492Y-68195219D01*
X44609492Y-68195219D02*
X44657111Y-68242838D01*
X44657111Y-68242838D02*
X44752349Y-68290457D01*
X44752349Y-68290457D02*
X44990444Y-68290457D01*
X44990444Y-68290457D02*
X45085682Y-68242838D01*
X45085682Y-68242838D02*
X45133302Y-68195219D01*
X45133302Y-68195219D02*
X45180921Y-68099981D01*
X45180921Y-68099981D02*
X45180921Y-67861886D01*
X45180921Y-67861886D02*
X45133302Y-67766648D01*
X45133302Y-67766648D02*
X45085682Y-67719029D01*
X160316069Y-34313905D02*
X159316069Y-34313905D01*
X159316069Y-34313905D02*
X159316069Y-34552000D01*
X159316069Y-34552000D02*
X159363688Y-34694857D01*
X159363688Y-34694857D02*
X159458926Y-34790095D01*
X159458926Y-34790095D02*
X159554164Y-34837714D01*
X159554164Y-34837714D02*
X159744640Y-34885333D01*
X159744640Y-34885333D02*
X159887497Y-34885333D01*
X159887497Y-34885333D02*
X160077973Y-34837714D01*
X160077973Y-34837714D02*
X160173211Y-34790095D01*
X160173211Y-34790095D02*
X160268450Y-34694857D01*
X160268450Y-34694857D02*
X160316069Y-34552000D01*
X160316069Y-34552000D02*
X160316069Y-34313905D01*
X159316069Y-35218667D02*
X159316069Y-35885333D01*
X159316069Y-35885333D02*
X160316069Y-35456762D01*
X46236753Y-53781201D02*
X45760562Y-53447868D01*
X46236753Y-53209773D02*
X45236753Y-53209773D01*
X45236753Y-53209773D02*
X45236753Y-53590725D01*
X45236753Y-53590725D02*
X45284372Y-53685963D01*
X45284372Y-53685963D02*
X45331991Y-53733582D01*
X45331991Y-53733582D02*
X45427229Y-53781201D01*
X45427229Y-53781201D02*
X45570086Y-53781201D01*
X45570086Y-53781201D02*
X45665324Y-53733582D01*
X45665324Y-53733582D02*
X45712943Y-53685963D01*
X45712943Y-53685963D02*
X45760562Y-53590725D01*
X45760562Y-53590725D02*
X45760562Y-53209773D01*
X46236753Y-54733582D02*
X46236753Y-54162154D01*
X46236753Y-54447868D02*
X45236753Y-54447868D01*
X45236753Y-54447868D02*
X45379610Y-54352630D01*
X45379610Y-54352630D02*
X45474848Y-54257392D01*
X45474848Y-54257392D02*
X45522467Y-54162154D01*
X51738637Y-69903911D02*
X52071970Y-69427720D01*
X52310065Y-69903911D02*
X52310065Y-68903911D01*
X52310065Y-68903911D02*
X51929113Y-68903911D01*
X51929113Y-68903911D02*
X51833875Y-68951530D01*
X51833875Y-68951530D02*
X51786256Y-68999149D01*
X51786256Y-68999149D02*
X51738637Y-69094387D01*
X51738637Y-69094387D02*
X51738637Y-69237244D01*
X51738637Y-69237244D02*
X51786256Y-69332482D01*
X51786256Y-69332482D02*
X51833875Y-69380101D01*
X51833875Y-69380101D02*
X51929113Y-69427720D01*
X51929113Y-69427720D02*
X52310065Y-69427720D01*
X51167208Y-69332482D02*
X51262446Y-69284863D01*
X51262446Y-69284863D02*
X51310065Y-69237244D01*
X51310065Y-69237244D02*
X51357684Y-69142006D01*
X51357684Y-69142006D02*
X51357684Y-69094387D01*
X51357684Y-69094387D02*
X51310065Y-68999149D01*
X51310065Y-68999149D02*
X51262446Y-68951530D01*
X51262446Y-68951530D02*
X51167208Y-68903911D01*
X51167208Y-68903911D02*
X50976732Y-68903911D01*
X50976732Y-68903911D02*
X50881494Y-68951530D01*
X50881494Y-68951530D02*
X50833875Y-68999149D01*
X50833875Y-68999149D02*
X50786256Y-69094387D01*
X50786256Y-69094387D02*
X50786256Y-69142006D01*
X50786256Y-69142006D02*
X50833875Y-69237244D01*
X50833875Y-69237244D02*
X50881494Y-69284863D01*
X50881494Y-69284863D02*
X50976732Y-69332482D01*
X50976732Y-69332482D02*
X51167208Y-69332482D01*
X51167208Y-69332482D02*
X51262446Y-69380101D01*
X51262446Y-69380101D02*
X51310065Y-69427720D01*
X51310065Y-69427720D02*
X51357684Y-69522958D01*
X51357684Y-69522958D02*
X51357684Y-69713434D01*
X51357684Y-69713434D02*
X51310065Y-69808672D01*
X51310065Y-69808672D02*
X51262446Y-69856292D01*
X51262446Y-69856292D02*
X51167208Y-69903911D01*
X51167208Y-69903911D02*
X50976732Y-69903911D01*
X50976732Y-69903911D02*
X50881494Y-69856292D01*
X50881494Y-69856292D02*
X50833875Y-69808672D01*
X50833875Y-69808672D02*
X50786256Y-69713434D01*
X50786256Y-69713434D02*
X50786256Y-69522958D01*
X50786256Y-69522958D02*
X50833875Y-69427720D01*
X50833875Y-69427720D02*
X50881494Y-69380101D01*
X50881494Y-69380101D02*
X50976732Y-69332482D01*
X141266069Y-34313905D02*
X140266069Y-34313905D01*
X140266069Y-34313905D02*
X140266069Y-34552000D01*
X140266069Y-34552000D02*
X140313688Y-34694857D01*
X140313688Y-34694857D02*
X140408926Y-34790095D01*
X140408926Y-34790095D02*
X140504164Y-34837714D01*
X140504164Y-34837714D02*
X140694640Y-34885333D01*
X140694640Y-34885333D02*
X140837497Y-34885333D01*
X140837497Y-34885333D02*
X141027973Y-34837714D01*
X141027973Y-34837714D02*
X141123211Y-34790095D01*
X141123211Y-34790095D02*
X141218450Y-34694857D01*
X141218450Y-34694857D02*
X141266069Y-34552000D01*
X141266069Y-34552000D02*
X141266069Y-34313905D01*
X140266069Y-35742476D02*
X140266069Y-35552000D01*
X140266069Y-35552000D02*
X140313688Y-35456762D01*
X140313688Y-35456762D02*
X140361307Y-35409143D01*
X140361307Y-35409143D02*
X140504164Y-35313905D01*
X140504164Y-35313905D02*
X140694640Y-35266286D01*
X140694640Y-35266286D02*
X141075592Y-35266286D01*
X141075592Y-35266286D02*
X141170830Y-35313905D01*
X141170830Y-35313905D02*
X141218450Y-35361524D01*
X141218450Y-35361524D02*
X141266069Y-35456762D01*
X141266069Y-35456762D02*
X141266069Y-35647238D01*
X141266069Y-35647238D02*
X141218450Y-35742476D01*
X141218450Y-35742476D02*
X141170830Y-35790095D01*
X141170830Y-35790095D02*
X141075592Y-35837714D01*
X141075592Y-35837714D02*
X140837497Y-35837714D01*
X140837497Y-35837714D02*
X140742259Y-35790095D01*
X140742259Y-35790095D02*
X140694640Y-35742476D01*
X140694640Y-35742476D02*
X140647021Y-35647238D01*
X140647021Y-35647238D02*
X140647021Y-35456762D01*
X140647021Y-35456762D02*
X140694640Y-35361524D01*
X140694640Y-35361524D02*
X140742259Y-35313905D01*
X140742259Y-35313905D02*
X140837497Y-35266286D01*
X217466069Y-33837714D02*
X216466069Y-33837714D01*
X216466069Y-33837714D02*
X216466069Y-34075809D01*
X216466069Y-34075809D02*
X216513688Y-34218666D01*
X216513688Y-34218666D02*
X216608926Y-34313904D01*
X216608926Y-34313904D02*
X216704164Y-34361523D01*
X216704164Y-34361523D02*
X216894640Y-34409142D01*
X216894640Y-34409142D02*
X217037497Y-34409142D01*
X217037497Y-34409142D02*
X217227973Y-34361523D01*
X217227973Y-34361523D02*
X217323211Y-34313904D01*
X217323211Y-34313904D02*
X217418450Y-34218666D01*
X217418450Y-34218666D02*
X217466069Y-34075809D01*
X217466069Y-34075809D02*
X217466069Y-33837714D01*
X217466069Y-35361523D02*
X217466069Y-34790095D01*
X217466069Y-35075809D02*
X216466069Y-35075809D01*
X216466069Y-35075809D02*
X216608926Y-34980571D01*
X216608926Y-34980571D02*
X216704164Y-34885333D01*
X216704164Y-34885333D02*
X216751783Y-34790095D01*
X216466069Y-35980571D02*
X216466069Y-36075809D01*
X216466069Y-36075809D02*
X216513688Y-36171047D01*
X216513688Y-36171047D02*
X216561307Y-36218666D01*
X216561307Y-36218666D02*
X216656545Y-36266285D01*
X216656545Y-36266285D02*
X216847021Y-36313904D01*
X216847021Y-36313904D02*
X217085116Y-36313904D01*
X217085116Y-36313904D02*
X217275592Y-36266285D01*
X217275592Y-36266285D02*
X217370830Y-36218666D01*
X217370830Y-36218666D02*
X217418450Y-36171047D01*
X217418450Y-36171047D02*
X217466069Y-36075809D01*
X217466069Y-36075809D02*
X217466069Y-35980571D01*
X217466069Y-35980571D02*
X217418450Y-35885333D01*
X217418450Y-35885333D02*
X217370830Y-35837714D01*
X217370830Y-35837714D02*
X217275592Y-35790095D01*
X217275592Y-35790095D02*
X217085116Y-35742476D01*
X217085116Y-35742476D02*
X216847021Y-35742476D01*
X216847021Y-35742476D02*
X216656545Y-35790095D01*
X216656545Y-35790095D02*
X216561307Y-35837714D01*
X216561307Y-35837714D02*
X216513688Y-35885333D01*
X216513688Y-35885333D02*
X216466069Y-35980571D01*
X84116069Y-52887714D02*
X83116069Y-52887714D01*
X83116069Y-52887714D02*
X83116069Y-53125809D01*
X83116069Y-53125809D02*
X83163688Y-53268666D01*
X83163688Y-53268666D02*
X83258926Y-53363904D01*
X83258926Y-53363904D02*
X83354164Y-53411523D01*
X83354164Y-53411523D02*
X83544640Y-53459142D01*
X83544640Y-53459142D02*
X83687497Y-53459142D01*
X83687497Y-53459142D02*
X83877973Y-53411523D01*
X83877973Y-53411523D02*
X83973211Y-53363904D01*
X83973211Y-53363904D02*
X84068450Y-53268666D01*
X84068450Y-53268666D02*
X84116069Y-53125809D01*
X84116069Y-53125809D02*
X84116069Y-52887714D01*
X84116069Y-54411523D02*
X84116069Y-53840095D01*
X84116069Y-54125809D02*
X83116069Y-54125809D01*
X83116069Y-54125809D02*
X83258926Y-54030571D01*
X83258926Y-54030571D02*
X83354164Y-53935333D01*
X83354164Y-53935333D02*
X83401783Y-53840095D01*
X83116069Y-54744857D02*
X83116069Y-55363904D01*
X83116069Y-55363904D02*
X83497021Y-55030571D01*
X83497021Y-55030571D02*
X83497021Y-55173428D01*
X83497021Y-55173428D02*
X83544640Y-55268666D01*
X83544640Y-55268666D02*
X83592259Y-55316285D01*
X83592259Y-55316285D02*
X83687497Y-55363904D01*
X83687497Y-55363904D02*
X83925592Y-55363904D01*
X83925592Y-55363904D02*
X84020830Y-55316285D01*
X84020830Y-55316285D02*
X84068450Y-55268666D01*
X84068450Y-55268666D02*
X84116069Y-55173428D01*
X84116069Y-55173428D02*
X84116069Y-54887714D01*
X84116069Y-54887714D02*
X84068450Y-54792476D01*
X84068450Y-54792476D02*
X84020830Y-54744857D01*
X122216069Y-52887714D02*
X121216069Y-52887714D01*
X121216069Y-52887714D02*
X121216069Y-53125809D01*
X121216069Y-53125809D02*
X121263688Y-53268666D01*
X121263688Y-53268666D02*
X121358926Y-53363904D01*
X121358926Y-53363904D02*
X121454164Y-53411523D01*
X121454164Y-53411523D02*
X121644640Y-53459142D01*
X121644640Y-53459142D02*
X121787497Y-53459142D01*
X121787497Y-53459142D02*
X121977973Y-53411523D01*
X121977973Y-53411523D02*
X122073211Y-53363904D01*
X122073211Y-53363904D02*
X122168450Y-53268666D01*
X122168450Y-53268666D02*
X122216069Y-53125809D01*
X122216069Y-53125809D02*
X122216069Y-52887714D01*
X122216069Y-54411523D02*
X122216069Y-53840095D01*
X122216069Y-54125809D02*
X121216069Y-54125809D01*
X121216069Y-54125809D02*
X121358926Y-54030571D01*
X121358926Y-54030571D02*
X121454164Y-53935333D01*
X121454164Y-53935333D02*
X121501783Y-53840095D01*
X121216069Y-55316285D02*
X121216069Y-54840095D01*
X121216069Y-54840095D02*
X121692259Y-54792476D01*
X121692259Y-54792476D02*
X121644640Y-54840095D01*
X121644640Y-54840095D02*
X121597021Y-54935333D01*
X121597021Y-54935333D02*
X121597021Y-55173428D01*
X121597021Y-55173428D02*
X121644640Y-55268666D01*
X121644640Y-55268666D02*
X121692259Y-55316285D01*
X121692259Y-55316285D02*
X121787497Y-55363904D01*
X121787497Y-55363904D02*
X122025592Y-55363904D01*
X122025592Y-55363904D02*
X122120830Y-55316285D01*
X122120830Y-55316285D02*
X122168450Y-55268666D01*
X122168450Y-55268666D02*
X122216069Y-55173428D01*
X122216069Y-55173428D02*
X122216069Y-54935333D01*
X122216069Y-54935333D02*
X122168450Y-54840095D01*
X122168450Y-54840095D02*
X122120830Y-54792476D01*
X41550094Y-32146740D02*
X42122513Y-32045725D01*
X41954155Y-32550801D02*
X42661261Y-31843694D01*
X42661261Y-31843694D02*
X42391887Y-31574320D01*
X42391887Y-31574320D02*
X42290872Y-31540648D01*
X42290872Y-31540648D02*
X42223529Y-31540648D01*
X42223529Y-31540648D02*
X42122513Y-31574320D01*
X42122513Y-31574320D02*
X42021498Y-31675335D01*
X42021498Y-31675335D02*
X41987826Y-31776351D01*
X41987826Y-31776351D02*
X41987826Y-31843694D01*
X41987826Y-31843694D02*
X42021498Y-31944709D01*
X42021498Y-31944709D02*
X42290872Y-32214083D01*
X41617437Y-30799870D02*
X41954155Y-31136587D01*
X41954155Y-31136587D02*
X41651109Y-31506977D01*
X41651109Y-31506977D02*
X41651109Y-31439633D01*
X41651109Y-31439633D02*
X41617437Y-31338618D01*
X41617437Y-31338618D02*
X41449078Y-31170259D01*
X41449078Y-31170259D02*
X41348063Y-31136587D01*
X41348063Y-31136587D02*
X41280720Y-31136587D01*
X41280720Y-31136587D02*
X41179704Y-31170259D01*
X41179704Y-31170259D02*
X41011346Y-31338618D01*
X41011346Y-31338618D02*
X40977674Y-31439633D01*
X40977674Y-31439633D02*
X40977674Y-31506977D01*
X40977674Y-31506977D02*
X41011346Y-31607992D01*
X41011346Y-31607992D02*
X41179704Y-31776351D01*
X41179704Y-31776351D02*
X41280720Y-31810022D01*
X41280720Y-31810022D02*
X41348063Y-31810022D01*
X50321847Y-56574709D02*
X50369467Y-56527090D01*
X50369467Y-56527090D02*
X50417086Y-56384233D01*
X50417086Y-56384233D02*
X50417086Y-56288995D01*
X50417086Y-56288995D02*
X50369467Y-56146138D01*
X50369467Y-56146138D02*
X50274228Y-56050900D01*
X50274228Y-56050900D02*
X50178990Y-56003281D01*
X50178990Y-56003281D02*
X49988514Y-55955662D01*
X49988514Y-55955662D02*
X49845657Y-55955662D01*
X49845657Y-55955662D02*
X49655181Y-56003281D01*
X49655181Y-56003281D02*
X49559943Y-56050900D01*
X49559943Y-56050900D02*
X49464705Y-56146138D01*
X49464705Y-56146138D02*
X49417086Y-56288995D01*
X49417086Y-56288995D02*
X49417086Y-56384233D01*
X49417086Y-56384233D02*
X49464705Y-56527090D01*
X49464705Y-56527090D02*
X49512324Y-56574709D01*
X50417086Y-57527090D02*
X50417086Y-56955662D01*
X50417086Y-57241376D02*
X49417086Y-57241376D01*
X49417086Y-57241376D02*
X49559943Y-57146138D01*
X49559943Y-57146138D02*
X49655181Y-57050900D01*
X49655181Y-57050900D02*
X49702800Y-56955662D01*
X50417086Y-58479471D02*
X50417086Y-57908043D01*
X50417086Y-58193757D02*
X49417086Y-58193757D01*
X49417086Y-58193757D02*
X49559943Y-58098519D01*
X49559943Y-58098519D02*
X49655181Y-58003281D01*
X49655181Y-58003281D02*
X49702800Y-57908043D01*
X198416069Y-90987714D02*
X197416069Y-90987714D01*
X197416069Y-90987714D02*
X197416069Y-91225809D01*
X197416069Y-91225809D02*
X197463688Y-91368666D01*
X197463688Y-91368666D02*
X197558926Y-91463904D01*
X197558926Y-91463904D02*
X197654164Y-91511523D01*
X197654164Y-91511523D02*
X197844640Y-91559142D01*
X197844640Y-91559142D02*
X197987497Y-91559142D01*
X197987497Y-91559142D02*
X198177973Y-91511523D01*
X198177973Y-91511523D02*
X198273211Y-91463904D01*
X198273211Y-91463904D02*
X198368450Y-91368666D01*
X198368450Y-91368666D02*
X198416069Y-91225809D01*
X198416069Y-91225809D02*
X198416069Y-90987714D01*
X197416069Y-91892476D02*
X197416069Y-92511523D01*
X197416069Y-92511523D02*
X197797021Y-92178190D01*
X197797021Y-92178190D02*
X197797021Y-92321047D01*
X197797021Y-92321047D02*
X197844640Y-92416285D01*
X197844640Y-92416285D02*
X197892259Y-92463904D01*
X197892259Y-92463904D02*
X197987497Y-92511523D01*
X197987497Y-92511523D02*
X198225592Y-92511523D01*
X198225592Y-92511523D02*
X198320830Y-92463904D01*
X198320830Y-92463904D02*
X198368450Y-92416285D01*
X198368450Y-92416285D02*
X198416069Y-92321047D01*
X198416069Y-92321047D02*
X198416069Y-92035333D01*
X198416069Y-92035333D02*
X198368450Y-91940095D01*
X198368450Y-91940095D02*
X198320830Y-91892476D01*
X197416069Y-92844857D02*
X197416069Y-93511523D01*
X197416069Y-93511523D02*
X198416069Y-93082952D01*
X48228968Y-71589581D02*
X48276588Y-71541962D01*
X48276588Y-71541962D02*
X48324207Y-71399105D01*
X48324207Y-71399105D02*
X48324207Y-71303867D01*
X48324207Y-71303867D02*
X48276588Y-71161010D01*
X48276588Y-71161010D02*
X48181349Y-71065772D01*
X48181349Y-71065772D02*
X48086111Y-71018153D01*
X48086111Y-71018153D02*
X47895635Y-70970534D01*
X47895635Y-70970534D02*
X47752778Y-70970534D01*
X47752778Y-70970534D02*
X47562302Y-71018153D01*
X47562302Y-71018153D02*
X47467064Y-71065772D01*
X47467064Y-71065772D02*
X47371826Y-71161010D01*
X47371826Y-71161010D02*
X47324207Y-71303867D01*
X47324207Y-71303867D02*
X47324207Y-71399105D01*
X47324207Y-71399105D02*
X47371826Y-71541962D01*
X47371826Y-71541962D02*
X47419445Y-71589581D01*
X47324207Y-72446724D02*
X47324207Y-72256248D01*
X47324207Y-72256248D02*
X47371826Y-72161010D01*
X47371826Y-72161010D02*
X47419445Y-72113391D01*
X47419445Y-72113391D02*
X47562302Y-72018153D01*
X47562302Y-72018153D02*
X47752778Y-71970534D01*
X47752778Y-71970534D02*
X48133730Y-71970534D01*
X48133730Y-71970534D02*
X48228968Y-72018153D01*
X48228968Y-72018153D02*
X48276588Y-72065772D01*
X48276588Y-72065772D02*
X48324207Y-72161010D01*
X48324207Y-72161010D02*
X48324207Y-72351486D01*
X48324207Y-72351486D02*
X48276588Y-72446724D01*
X48276588Y-72446724D02*
X48228968Y-72494343D01*
X48228968Y-72494343D02*
X48133730Y-72541962D01*
X48133730Y-72541962D02*
X47895635Y-72541962D01*
X47895635Y-72541962D02*
X47800397Y-72494343D01*
X47800397Y-72494343D02*
X47752778Y-72446724D01*
X47752778Y-72446724D02*
X47705159Y-72351486D01*
X47705159Y-72351486D02*
X47705159Y-72161010D01*
X47705159Y-72161010D02*
X47752778Y-72065772D01*
X47752778Y-72065772D02*
X47800397Y-72018153D01*
X47800397Y-72018153D02*
X47895635Y-71970534D01*
X65066069Y-90987714D02*
X64066069Y-90987714D01*
X64066069Y-90987714D02*
X64066069Y-91225809D01*
X64066069Y-91225809D02*
X64113688Y-91368666D01*
X64113688Y-91368666D02*
X64208926Y-91463904D01*
X64208926Y-91463904D02*
X64304164Y-91511523D01*
X64304164Y-91511523D02*
X64494640Y-91559142D01*
X64494640Y-91559142D02*
X64637497Y-91559142D01*
X64637497Y-91559142D02*
X64827973Y-91511523D01*
X64827973Y-91511523D02*
X64923211Y-91463904D01*
X64923211Y-91463904D02*
X65018450Y-91368666D01*
X65018450Y-91368666D02*
X65066069Y-91225809D01*
X65066069Y-91225809D02*
X65066069Y-90987714D01*
X64066069Y-91892476D02*
X64066069Y-92511523D01*
X64066069Y-92511523D02*
X64447021Y-92178190D01*
X64447021Y-92178190D02*
X64447021Y-92321047D01*
X64447021Y-92321047D02*
X64494640Y-92416285D01*
X64494640Y-92416285D02*
X64542259Y-92463904D01*
X64542259Y-92463904D02*
X64637497Y-92511523D01*
X64637497Y-92511523D02*
X64875592Y-92511523D01*
X64875592Y-92511523D02*
X64970830Y-92463904D01*
X64970830Y-92463904D02*
X65018450Y-92416285D01*
X65018450Y-92416285D02*
X65066069Y-92321047D01*
X65066069Y-92321047D02*
X65066069Y-92035333D01*
X65066069Y-92035333D02*
X65018450Y-91940095D01*
X65018450Y-91940095D02*
X64970830Y-91892476D01*
X65066069Y-93463904D02*
X65066069Y-92892476D01*
X65066069Y-93178190D02*
X64066069Y-93178190D01*
X64066069Y-93178190D02*
X64208926Y-93082952D01*
X64208926Y-93082952D02*
X64304164Y-92987714D01*
X64304164Y-92987714D02*
X64351783Y-92892476D01*
X51249404Y-59722319D02*
X51249404Y-60531842D01*
X51249404Y-60531842D02*
X51201785Y-60627080D01*
X51201785Y-60627080D02*
X51154166Y-60674700D01*
X51154166Y-60674700D02*
X51058928Y-60722319D01*
X51058928Y-60722319D02*
X50868452Y-60722319D01*
X50868452Y-60722319D02*
X50773214Y-60674700D01*
X50773214Y-60674700D02*
X50725595Y-60627080D01*
X50725595Y-60627080D02*
X50677976Y-60531842D01*
X50677976Y-60531842D02*
X50677976Y-59722319D01*
X49677976Y-60722319D02*
X50249404Y-60722319D01*
X49963690Y-60722319D02*
X49963690Y-59722319D01*
X49963690Y-59722319D02*
X50058928Y-59865176D01*
X50058928Y-59865176D02*
X50154166Y-59960414D01*
X50154166Y-59960414D02*
X50249404Y-60008033D01*
X198416069Y-52887714D02*
X197416069Y-52887714D01*
X197416069Y-52887714D02*
X197416069Y-53125809D01*
X197416069Y-53125809D02*
X197463688Y-53268666D01*
X197463688Y-53268666D02*
X197558926Y-53363904D01*
X197558926Y-53363904D02*
X197654164Y-53411523D01*
X197654164Y-53411523D02*
X197844640Y-53459142D01*
X197844640Y-53459142D02*
X197987497Y-53459142D01*
X197987497Y-53459142D02*
X198177973Y-53411523D01*
X198177973Y-53411523D02*
X198273211Y-53363904D01*
X198273211Y-53363904D02*
X198368450Y-53268666D01*
X198368450Y-53268666D02*
X198416069Y-53125809D01*
X198416069Y-53125809D02*
X198416069Y-52887714D01*
X198416069Y-54411523D02*
X198416069Y-53840095D01*
X198416069Y-54125809D02*
X197416069Y-54125809D01*
X197416069Y-54125809D02*
X197558926Y-54030571D01*
X197558926Y-54030571D02*
X197654164Y-53935333D01*
X197654164Y-53935333D02*
X197701783Y-53840095D01*
X198416069Y-54887714D02*
X198416069Y-55078190D01*
X198416069Y-55078190D02*
X198368450Y-55173428D01*
X198368450Y-55173428D02*
X198320830Y-55221047D01*
X198320830Y-55221047D02*
X198177973Y-55316285D01*
X198177973Y-55316285D02*
X197987497Y-55363904D01*
X197987497Y-55363904D02*
X197606545Y-55363904D01*
X197606545Y-55363904D02*
X197511307Y-55316285D01*
X197511307Y-55316285D02*
X197463688Y-55268666D01*
X197463688Y-55268666D02*
X197416069Y-55173428D01*
X197416069Y-55173428D02*
X197416069Y-54982952D01*
X197416069Y-54982952D02*
X197463688Y-54887714D01*
X197463688Y-54887714D02*
X197511307Y-54840095D01*
X197511307Y-54840095D02*
X197606545Y-54792476D01*
X197606545Y-54792476D02*
X197844640Y-54792476D01*
X197844640Y-54792476D02*
X197939878Y-54840095D01*
X197939878Y-54840095D02*
X197987497Y-54887714D01*
X197987497Y-54887714D02*
X198035116Y-54982952D01*
X198035116Y-54982952D02*
X198035116Y-55173428D01*
X198035116Y-55173428D02*
X197987497Y-55268666D01*
X197987497Y-55268666D02*
X197939878Y-55316285D01*
X197939878Y-55316285D02*
X197844640Y-55363904D01*
X44710357Y-61312080D02*
X44757976Y-61359700D01*
X44757976Y-61359700D02*
X44900833Y-61407319D01*
X44900833Y-61407319D02*
X44996071Y-61407319D01*
X44996071Y-61407319D02*
X45138928Y-61359700D01*
X45138928Y-61359700D02*
X45234166Y-61264461D01*
X45234166Y-61264461D02*
X45281785Y-61169223D01*
X45281785Y-61169223D02*
X45329404Y-60978747D01*
X45329404Y-60978747D02*
X45329404Y-60835890D01*
X45329404Y-60835890D02*
X45281785Y-60645414D01*
X45281785Y-60645414D02*
X45234166Y-60550176D01*
X45234166Y-60550176D02*
X45138928Y-60454938D01*
X45138928Y-60454938D02*
X44996071Y-60407319D01*
X44996071Y-60407319D02*
X44900833Y-60407319D01*
X44900833Y-60407319D02*
X44757976Y-60454938D01*
X44757976Y-60454938D02*
X44710357Y-60502557D01*
X43757976Y-61407319D02*
X44329404Y-61407319D01*
X44043690Y-61407319D02*
X44043690Y-60407319D01*
X44043690Y-60407319D02*
X44138928Y-60550176D01*
X44138928Y-60550176D02*
X44234166Y-60645414D01*
X44234166Y-60645414D02*
X44329404Y-60693033D01*
X43138928Y-60407319D02*
X43043690Y-60407319D01*
X43043690Y-60407319D02*
X42948452Y-60454938D01*
X42948452Y-60454938D02*
X42900833Y-60502557D01*
X42900833Y-60502557D02*
X42853214Y-60597795D01*
X42853214Y-60597795D02*
X42805595Y-60788271D01*
X42805595Y-60788271D02*
X42805595Y-61026366D01*
X42805595Y-61026366D02*
X42853214Y-61216842D01*
X42853214Y-61216842D02*
X42900833Y-61312080D01*
X42900833Y-61312080D02*
X42948452Y-61359700D01*
X42948452Y-61359700D02*
X43043690Y-61407319D01*
X43043690Y-61407319D02*
X43138928Y-61407319D01*
X43138928Y-61407319D02*
X43234166Y-61359700D01*
X43234166Y-61359700D02*
X43281785Y-61312080D01*
X43281785Y-61312080D02*
X43329404Y-61216842D01*
X43329404Y-61216842D02*
X43377023Y-61026366D01*
X43377023Y-61026366D02*
X43377023Y-60788271D01*
X43377023Y-60788271D02*
X43329404Y-60597795D01*
X43329404Y-60597795D02*
X43281785Y-60502557D01*
X43281785Y-60502557D02*
X43234166Y-60454938D01*
X43234166Y-60454938D02*
X43138928Y-60407319D01*
X44234166Y-60318330D02*
X44281785Y-60365950D01*
X44281785Y-60365950D02*
X44424642Y-60413569D01*
X44424642Y-60413569D02*
X44519880Y-60413569D01*
X44519880Y-60413569D02*
X44662737Y-60365950D01*
X44662737Y-60365950D02*
X44757975Y-60270711D01*
X44757975Y-60270711D02*
X44805594Y-60175473D01*
X44805594Y-60175473D02*
X44853213Y-59984997D01*
X44853213Y-59984997D02*
X44853213Y-59842140D01*
X44853213Y-59842140D02*
X44805594Y-59651664D01*
X44805594Y-59651664D02*
X44757975Y-59556426D01*
X44757975Y-59556426D02*
X44662737Y-59461188D01*
X44662737Y-59461188D02*
X44519880Y-59413569D01*
X44519880Y-59413569D02*
X44424642Y-59413569D01*
X44424642Y-59413569D02*
X44281785Y-59461188D01*
X44281785Y-59461188D02*
X44234166Y-59508807D01*
X43757975Y-60413569D02*
X43567499Y-60413569D01*
X43567499Y-60413569D02*
X43472261Y-60365950D01*
X43472261Y-60365950D02*
X43424642Y-60318330D01*
X43424642Y-60318330D02*
X43329404Y-60175473D01*
X43329404Y-60175473D02*
X43281785Y-59984997D01*
X43281785Y-59984997D02*
X43281785Y-59604045D01*
X43281785Y-59604045D02*
X43329404Y-59508807D01*
X43329404Y-59508807D02*
X43377023Y-59461188D01*
X43377023Y-59461188D02*
X43472261Y-59413569D01*
X43472261Y-59413569D02*
X43662737Y-59413569D01*
X43662737Y-59413569D02*
X43757975Y-59461188D01*
X43757975Y-59461188D02*
X43805594Y-59508807D01*
X43805594Y-59508807D02*
X43853213Y-59604045D01*
X43853213Y-59604045D02*
X43853213Y-59842140D01*
X43853213Y-59842140D02*
X43805594Y-59937378D01*
X43805594Y-59937378D02*
X43757975Y-59984997D01*
X43757975Y-59984997D02*
X43662737Y-60032616D01*
X43662737Y-60032616D02*
X43472261Y-60032616D01*
X43472261Y-60032616D02*
X43377023Y-59984997D01*
X43377023Y-59984997D02*
X43329404Y-59937378D01*
X43329404Y-59937378D02*
X43281785Y-59842140D01*
X52403097Y-57050900D02*
X52450717Y-57003281D01*
X52450717Y-57003281D02*
X52498336Y-56860424D01*
X52498336Y-56860424D02*
X52498336Y-56765186D01*
X52498336Y-56765186D02*
X52450717Y-56622329D01*
X52450717Y-56622329D02*
X52355478Y-56527091D01*
X52355478Y-56527091D02*
X52260240Y-56479472D01*
X52260240Y-56479472D02*
X52069764Y-56431853D01*
X52069764Y-56431853D02*
X51926907Y-56431853D01*
X51926907Y-56431853D02*
X51736431Y-56479472D01*
X51736431Y-56479472D02*
X51641193Y-56527091D01*
X51641193Y-56527091D02*
X51545955Y-56622329D01*
X51545955Y-56622329D02*
X51498336Y-56765186D01*
X51498336Y-56765186D02*
X51498336Y-56860424D01*
X51498336Y-56860424D02*
X51545955Y-57003281D01*
X51545955Y-57003281D02*
X51593574Y-57050900D01*
X52498336Y-58003281D02*
X52498336Y-57431853D01*
X52498336Y-57717567D02*
X51498336Y-57717567D01*
X51498336Y-57717567D02*
X51641193Y-57622329D01*
X51641193Y-57622329D02*
X51736431Y-57527091D01*
X51736431Y-57527091D02*
X51784050Y-57431853D01*
X74591069Y-71937714D02*
X73591069Y-71937714D01*
X73591069Y-71937714D02*
X73591069Y-72175809D01*
X73591069Y-72175809D02*
X73638688Y-72318666D01*
X73638688Y-72318666D02*
X73733926Y-72413904D01*
X73733926Y-72413904D02*
X73829164Y-72461523D01*
X73829164Y-72461523D02*
X74019640Y-72509142D01*
X74019640Y-72509142D02*
X74162497Y-72509142D01*
X74162497Y-72509142D02*
X74352973Y-72461523D01*
X74352973Y-72461523D02*
X74448211Y-72413904D01*
X74448211Y-72413904D02*
X74543450Y-72318666D01*
X74543450Y-72318666D02*
X74591069Y-72175809D01*
X74591069Y-72175809D02*
X74591069Y-71937714D01*
X73686307Y-72890095D02*
X73638688Y-72937714D01*
X73638688Y-72937714D02*
X73591069Y-73032952D01*
X73591069Y-73032952D02*
X73591069Y-73271047D01*
X73591069Y-73271047D02*
X73638688Y-73366285D01*
X73638688Y-73366285D02*
X73686307Y-73413904D01*
X73686307Y-73413904D02*
X73781545Y-73461523D01*
X73781545Y-73461523D02*
X73876783Y-73461523D01*
X73876783Y-73461523D02*
X74019640Y-73413904D01*
X74019640Y-73413904D02*
X74591069Y-72842476D01*
X74591069Y-72842476D02*
X74591069Y-73461523D01*
X73686307Y-73842476D02*
X73638688Y-73890095D01*
X73638688Y-73890095D02*
X73591069Y-73985333D01*
X73591069Y-73985333D02*
X73591069Y-74223428D01*
X73591069Y-74223428D02*
X73638688Y-74318666D01*
X73638688Y-74318666D02*
X73686307Y-74366285D01*
X73686307Y-74366285D02*
X73781545Y-74413904D01*
X73781545Y-74413904D02*
X73876783Y-74413904D01*
X73876783Y-74413904D02*
X74019640Y-74366285D01*
X74019640Y-74366285D02*
X74591069Y-73794857D01*
X74591069Y-73794857D02*
X74591069Y-74413904D01*
X160316069Y-90987714D02*
X159316069Y-90987714D01*
X159316069Y-90987714D02*
X159316069Y-91225809D01*
X159316069Y-91225809D02*
X159363688Y-91368666D01*
X159363688Y-91368666D02*
X159458926Y-91463904D01*
X159458926Y-91463904D02*
X159554164Y-91511523D01*
X159554164Y-91511523D02*
X159744640Y-91559142D01*
X159744640Y-91559142D02*
X159887497Y-91559142D01*
X159887497Y-91559142D02*
X160077973Y-91511523D01*
X160077973Y-91511523D02*
X160173211Y-91463904D01*
X160173211Y-91463904D02*
X160268450Y-91368666D01*
X160268450Y-91368666D02*
X160316069Y-91225809D01*
X160316069Y-91225809D02*
X160316069Y-90987714D01*
X159316069Y-91892476D02*
X159316069Y-92511523D01*
X159316069Y-92511523D02*
X159697021Y-92178190D01*
X159697021Y-92178190D02*
X159697021Y-92321047D01*
X159697021Y-92321047D02*
X159744640Y-92416285D01*
X159744640Y-92416285D02*
X159792259Y-92463904D01*
X159792259Y-92463904D02*
X159887497Y-92511523D01*
X159887497Y-92511523D02*
X160125592Y-92511523D01*
X160125592Y-92511523D02*
X160220830Y-92463904D01*
X160220830Y-92463904D02*
X160268450Y-92416285D01*
X160268450Y-92416285D02*
X160316069Y-92321047D01*
X160316069Y-92321047D02*
X160316069Y-92035333D01*
X160316069Y-92035333D02*
X160268450Y-91940095D01*
X160268450Y-91940095D02*
X160220830Y-91892476D01*
X159316069Y-93416285D02*
X159316069Y-92940095D01*
X159316069Y-92940095D02*
X159792259Y-92892476D01*
X159792259Y-92892476D02*
X159744640Y-92940095D01*
X159744640Y-92940095D02*
X159697021Y-93035333D01*
X159697021Y-93035333D02*
X159697021Y-93273428D01*
X159697021Y-93273428D02*
X159744640Y-93368666D01*
X159744640Y-93368666D02*
X159792259Y-93416285D01*
X159792259Y-93416285D02*
X159887497Y-93463904D01*
X159887497Y-93463904D02*
X160125592Y-93463904D01*
X160125592Y-93463904D02*
X160220830Y-93416285D01*
X160220830Y-93416285D02*
X160268450Y-93368666D01*
X160268450Y-93368666D02*
X160316069Y-93273428D01*
X160316069Y-93273428D02*
X160316069Y-93035333D01*
X160316069Y-93035333D02*
X160268450Y-92940095D01*
X160268450Y-92940095D02*
X160220830Y-92892476D01*
D11*
%TO.C,R4*%
X56770000Y-58427609D02*
X56770000Y-58734891D01*
X57530000Y-58427609D02*
X57530000Y-58734891D01*
%TO.C,C17*%
X43625312Y-44433750D02*
X43840984Y-44433750D01*
X43625312Y-45153750D02*
X43840984Y-45153750D01*
%TO.C,D28*%
X185531250Y-71375000D02*
X185531250Y-75235000D01*
X185531250Y-75235000D02*
X187531250Y-75235000D01*
X187531250Y-71375000D02*
X187531250Y-75235000D01*
%TO.C,D20*%
X214106250Y-52325000D02*
X214106250Y-56185000D01*
X214106250Y-56185000D02*
X216106250Y-56185000D01*
X216106250Y-52325000D02*
X216106250Y-56185000D01*
%TO.C,D21*%
X42656250Y-71375000D02*
X42656250Y-75235000D01*
X42656250Y-75235000D02*
X44656250Y-75235000D01*
X44656250Y-71375000D02*
X44656250Y-75235000D01*
%TO.C,D2*%
X61706250Y-33275000D02*
X61706250Y-37135000D01*
X61706250Y-37135000D02*
X63706250Y-37135000D01*
X63706250Y-33275000D02*
X63706250Y-37135000D01*
%TO.C,D3*%
X80756250Y-33275000D02*
X80756250Y-37135000D01*
X80756250Y-37135000D02*
X82756250Y-37135000D01*
X82756250Y-33275000D02*
X82756250Y-37135000D01*
%TO.C,D4*%
X99806250Y-33275000D02*
X99806250Y-37135000D01*
X99806250Y-37135000D02*
X101806250Y-37135000D01*
X101806250Y-33275000D02*
X101806250Y-37135000D01*
%TO.C,F1*%
X42546250Y-35527064D02*
X42546250Y-34322936D01*
X44366250Y-35527064D02*
X44366250Y-34322936D01*
%TO.C,SW1*%
X59048750Y-57961250D02*
X63188750Y-57961250D01*
X59048750Y-58261250D02*
X59048750Y-57961250D01*
X59048750Y-61101250D02*
X59048750Y-60801250D01*
X63188750Y-57961250D02*
X63188750Y-58261250D01*
X63188750Y-60801250D02*
X63188750Y-61101250D01*
X63188750Y-61101250D02*
X59048750Y-61101250D01*
%TO.C,D24*%
X109331250Y-71375000D02*
X109331250Y-75235000D01*
X109331250Y-75235000D02*
X111331250Y-75235000D01*
X111331250Y-71375000D02*
X111331250Y-75235000D01*
%TO.C,D18*%
X176006250Y-52325000D02*
X176006250Y-56185000D01*
X176006250Y-56185000D02*
X178006250Y-56185000D01*
X178006250Y-52325000D02*
X178006250Y-56185000D01*
%TO.C,C4*%
X45232499Y-59298541D02*
X45232499Y-59514213D01*
X45952499Y-59298541D02*
X45952499Y-59514213D01*
%TO.C,R2*%
X45448666Y-54112366D02*
X45448666Y-53805084D01*
X46208666Y-54112366D02*
X46208666Y-53805084D01*
%TO.C,D9*%
X195056250Y-33275000D02*
X195056250Y-37135000D01*
X195056250Y-37135000D02*
X197056250Y-37135000D01*
X197056250Y-33275000D02*
X197056250Y-37135000D01*
%TO.C,D5*%
X118856250Y-33275000D02*
X118856250Y-37135000D01*
X118856250Y-37135000D02*
X120856250Y-37135000D01*
X120856250Y-33275000D02*
X120856250Y-37135000D01*
%TO.C,C14*%
X49646250Y-71859086D02*
X49646250Y-71643414D01*
X50366250Y-71859086D02*
X50366250Y-71643414D01*
%TO.C,D25*%
X128381250Y-71375000D02*
X128381250Y-75235000D01*
X128381250Y-75235000D02*
X130381250Y-75235000D01*
X130381250Y-71375000D02*
X130381250Y-75235000D01*
%TO.C,SWD1*%
X46121250Y-77251250D02*
X46121250Y-79911250D01*
X46121250Y-77251250D02*
X51261250Y-77251250D01*
X46121250Y-79911250D02*
X51261250Y-79911250D01*
X51261250Y-77251250D02*
X51261250Y-79911250D01*
X53861250Y-78581250D02*
X53861250Y-79911250D01*
X53861250Y-79911250D02*
X52531250Y-79911250D01*
%TO.C,SWR1*%
X36030000Y-57961250D02*
X40170000Y-57961250D01*
X36030000Y-58261250D02*
X36030000Y-57961250D01*
X36030000Y-61101250D02*
X36030000Y-60801250D01*
X40170000Y-57961250D02*
X40170000Y-58261250D01*
X40170000Y-60801250D02*
X40170000Y-61101250D01*
X40170000Y-61101250D02*
X36030000Y-61101250D01*
%TO.C,Y1*%
X50701882Y-71251712D02*
X50701882Y-74551712D01*
X54701882Y-71251712D02*
X50701882Y-71251712D01*
%TO.C,C3*%
X49652825Y-73593977D02*
X49652825Y-73809649D01*
X50372825Y-73593977D02*
X50372825Y-73809649D01*
%TO.C,D14*%
X99806250Y-52325000D02*
X99806250Y-56185000D01*
X99806250Y-56185000D02*
X101806250Y-56185000D01*
X101806250Y-52325000D02*
X101806250Y-56185000D01*
%TO.C,D29*%
X209343750Y-71375000D02*
X209343750Y-75235000D01*
X209343750Y-75235000D02*
X211343750Y-75235000D01*
X211343750Y-71375000D02*
X211343750Y-75235000D01*
%TO.C,D1*%
X37893750Y-33275000D02*
X37893750Y-37135000D01*
X37893750Y-37135000D02*
X39893750Y-37135000D01*
X39893750Y-33275000D02*
X39893750Y-37135000D01*
%TO.C,D34*%
X128381250Y-90425000D02*
X128381250Y-94285000D01*
X128381250Y-94285000D02*
X130381250Y-94285000D01*
X130381250Y-90425000D02*
X130381250Y-94285000D01*
%TO.C,D8*%
X176006250Y-33275000D02*
X176006250Y-37135000D01*
X176006250Y-37135000D02*
X178006250Y-37135000D01*
X178006250Y-33275000D02*
X178006250Y-37135000D01*
%TO.C,U3*%
X42329398Y-40625000D02*
X42329398Y-41275000D01*
X42329398Y-41925000D02*
X42329398Y-41275000D01*
X45449398Y-40625000D02*
X45449398Y-41275000D01*
X45449398Y-41925000D02*
X45449398Y-41275000D01*
X45729398Y-42677500D02*
X45399398Y-42437500D01*
X45729398Y-42197500D01*
X45729398Y-42677500D01*
G36*
X45729398Y-42677500D02*
G01*
X45399398Y-42437500D01*
X45729398Y-42197500D01*
X45729398Y-42677500D01*
G37*
%TO.C,D12*%
X61706250Y-52325000D02*
X61706250Y-56185000D01*
X61706250Y-56185000D02*
X63706250Y-56185000D01*
X63706250Y-52325000D02*
X63706250Y-56185000D01*
%TO.C,C5*%
X49536017Y-57109731D02*
X49536017Y-57325403D01*
X50256017Y-57109731D02*
X50256017Y-57325403D01*
%TO.C,C2*%
X53553414Y-70283750D02*
X53769086Y-70283750D01*
X53553414Y-71003750D02*
X53769086Y-71003750D01*
%TO.C,D16*%
X137906250Y-52325000D02*
X137906250Y-56185000D01*
X137906250Y-56185000D02*
X139906250Y-56185000D01*
X139906250Y-52325000D02*
X139906250Y-56185000D01*
%TO.C,C8*%
X44202712Y-59283285D02*
X44202712Y-59498957D01*
X44922712Y-59283285D02*
X44922712Y-59498957D01*
%TO.C,D23*%
X90281250Y-71375000D02*
X90281250Y-75235000D01*
X90281250Y-75235000D02*
X92281250Y-75235000D01*
X92281250Y-71375000D02*
X92281250Y-75235000D01*
%TO.C,D36*%
X176006250Y-90425000D02*
X176006250Y-94285000D01*
X176006250Y-94285000D02*
X178006250Y-94285000D01*
X178006250Y-90425000D02*
X178006250Y-94285000D01*
%TO.C,J1*%
X36818772Y-19380010D02*
X36818772Y-21280010D01*
X36818772Y-23180010D02*
X36818772Y-25180010D01*
X46218772Y-19380010D02*
X36818772Y-19380010D01*
X46218772Y-19380010D02*
X46218772Y-21280010D01*
X46218772Y-23180010D02*
X46218772Y-25180010D01*
%TO.C,R7*%
X41497616Y-59670281D02*
X41497616Y-59362999D01*
X42257616Y-59670281D02*
X42257616Y-59362999D01*
%TO.C,D33*%
X111712500Y-90425000D02*
X111712500Y-94285000D01*
X111712500Y-94285000D02*
X113712500Y-94285000D01*
X113712500Y-90425000D02*
X113712500Y-94285000D01*
%TO.C,C7*%
X43840984Y-43440000D02*
X43625312Y-43440000D01*
X43840984Y-44160000D02*
X43625312Y-44160000D01*
%TO.C,R6*%
X45213219Y-30304080D02*
X44995938Y-30086799D01*
X45750620Y-29766679D02*
X45533339Y-29549398D01*
%TO.C,D30*%
X42656250Y-90425000D02*
X42656250Y-94285000D01*
X42656250Y-94285000D02*
X44656250Y-94285000D01*
X44656250Y-90425000D02*
X44656250Y-94285000D01*
%TO.C,D11*%
X37893750Y-52325000D02*
X37893750Y-56185000D01*
X37893750Y-56185000D02*
X39893750Y-56185000D01*
X39893750Y-52325000D02*
X39893750Y-56185000D01*
%TO.C,C16*%
X43585312Y-37870000D02*
X43800984Y-37870000D01*
X43585312Y-38590000D02*
X43800984Y-38590000D01*
%TO.C,D27*%
X166481250Y-71375000D02*
X166481250Y-75235000D01*
X166481250Y-75235000D02*
X168481250Y-75235000D01*
X168481250Y-71375000D02*
X168481250Y-75235000D01*
%TO.C,D32*%
X83137500Y-90425000D02*
X83137500Y-94285000D01*
X83137500Y-94285000D02*
X85137500Y-94285000D01*
X85137500Y-90425000D02*
X85137500Y-94285000D01*
%TO.C,C13*%
X54733750Y-67106586D02*
X54733750Y-66890914D01*
X55453750Y-67106586D02*
X55453750Y-66890914D01*
%TO.C,U2*%
X44749448Y-34125000D02*
X44749448Y-34925000D01*
X44749448Y-35725000D02*
X44749448Y-34925000D01*
X47869448Y-34125000D02*
X47869448Y-34925000D01*
X47869448Y-35725000D02*
X47869448Y-34925000D01*
X48149448Y-36465000D02*
X47819448Y-36225000D01*
X48149448Y-35985000D01*
X48149448Y-36465000D01*
G36*
X48149448Y-36465000D02*
G01*
X47819448Y-36225000D01*
X48149448Y-35985000D01*
X48149448Y-36465000D01*
G37*
%TO.C,D38*%
X214106250Y-90425000D02*
X214106250Y-94285000D01*
X214106250Y-94285000D02*
X216106250Y-94285000D01*
X216106250Y-90425000D02*
X216106250Y-94285000D01*
%TO.C,D17*%
X156956250Y-52325000D02*
X156956250Y-56185000D01*
X156956250Y-56185000D02*
X158956250Y-56185000D01*
X158956250Y-52325000D02*
X158956250Y-56185000D01*
%TO.C,C12*%
X55681586Y-61396250D02*
X55465914Y-61396250D01*
X55681586Y-62116250D02*
X55465914Y-62116250D01*
%TO.C,D26*%
X147431250Y-71375000D02*
X147431250Y-75235000D01*
X147431250Y-75235000D02*
X149431250Y-75235000D01*
X149431250Y-71375000D02*
X149431250Y-75235000D01*
%TO.C,C15*%
X45526102Y-67136389D02*
X45526102Y-66920717D01*
X46246102Y-67136389D02*
X46246102Y-66920717D01*
%TO.C,D7*%
X156956250Y-33275000D02*
X156956250Y-37135000D01*
X156956250Y-37135000D02*
X158956250Y-37135000D01*
X158956250Y-33275000D02*
X158956250Y-37135000D01*
%TO.C,R1*%
X46571934Y-54101509D02*
X46571934Y-53794227D01*
X47331934Y-54101509D02*
X47331934Y-53794227D01*
%TO.C,R8*%
X51418330Y-70239092D02*
X51725612Y-70239092D01*
X51418330Y-70999092D02*
X51725612Y-70999092D01*
%TO.C,D6*%
X137906250Y-33275000D02*
X137906250Y-37135000D01*
X137906250Y-37135000D02*
X139906250Y-37135000D01*
X139906250Y-33275000D02*
X139906250Y-37135000D01*
%TO.C,D10*%
X214106250Y-33275000D02*
X214106250Y-37135000D01*
X214106250Y-37135000D02*
X216106250Y-37135000D01*
X216106250Y-33275000D02*
X216106250Y-37135000D01*
%TO.C,D13*%
X80756250Y-52325000D02*
X80756250Y-56185000D01*
X80756250Y-56185000D02*
X82756250Y-56185000D01*
X82756250Y-52325000D02*
X82756250Y-56185000D01*
%TO.C,D15*%
X118856250Y-52325000D02*
X118856250Y-56185000D01*
X118856250Y-56185000D02*
X120856250Y-56185000D01*
X120856250Y-52325000D02*
X120856250Y-56185000D01*
%TO.C,R5*%
X42421104Y-31257310D02*
X42203823Y-31040029D01*
X42958505Y-30719909D02*
X42741224Y-30502628D01*
%TO.C,C11*%
X48442267Y-57109731D02*
X48442267Y-57325403D01*
X49162267Y-57109731D02*
X49162267Y-57325403D01*
%TO.C,D37*%
X195056250Y-90425000D02*
X195056250Y-94285000D01*
X195056250Y-94285000D02*
X197056250Y-94285000D01*
X197056250Y-90425000D02*
X197056250Y-94285000D01*
%TO.C,C6*%
X48669388Y-71864084D02*
X48669388Y-71648412D01*
X49389388Y-71864084D02*
X49389388Y-71648412D01*
%TO.C,D31*%
X61706250Y-90425000D02*
X61706250Y-94285000D01*
X61706250Y-94285000D02*
X63706250Y-94285000D01*
X63706250Y-90425000D02*
X63706250Y-94285000D01*
%TO.C,U1*%
X46877500Y-61477500D02*
X47527500Y-61477500D01*
X46877500Y-62127500D02*
X46877500Y-61477500D01*
X46877500Y-68047500D02*
X46877500Y-68697500D01*
X46877500Y-68697500D02*
X47527500Y-68697500D01*
X54097500Y-61477500D02*
X53447500Y-61477500D01*
X54097500Y-68047500D02*
X54097500Y-68697500D01*
X54097500Y-68697500D02*
X53447500Y-68697500D01*
%TO.C,D19*%
X195056250Y-52325000D02*
X195056250Y-56185000D01*
X195056250Y-56185000D02*
X197056250Y-56185000D01*
X197056250Y-52325000D02*
X197056250Y-56185000D01*
%TO.C,C10*%
X43959664Y-61752500D02*
X44175336Y-61752500D01*
X43959664Y-62472500D02*
X44175336Y-62472500D01*
%TO.C,C9*%
X43959664Y-60758750D02*
X44175336Y-60758750D01*
X43959664Y-61478750D02*
X44175336Y-61478750D01*
%TO.C,C1*%
X50523517Y-57109731D02*
X50523517Y-57325403D01*
X51243517Y-57109731D02*
X51243517Y-57325403D01*
%TO.C,D22*%
X71231250Y-71375000D02*
X71231250Y-75235000D01*
X71231250Y-75235000D02*
X73231250Y-75235000D01*
X73231250Y-71375000D02*
X73231250Y-75235000D01*
%TO.C,D35*%
X156956250Y-90425000D02*
X156956250Y-94285000D01*
X156956250Y-94285000D02*
X158956250Y-94285000D01*
X158956250Y-90425000D02*
X158956250Y-94285000D01*
%TD*%
M02*
