M48
; DRILL file {KiCad 8.0.5} date 2024-09-21T14:39:35+0200
; FORMAT={-:-/ absolute / inch / decimal}
; #@! TF.CreationDate,2024-09-21T14:39:35+02:00
; #@! TF.GenerationSoftware,Kicad,Pcbnew,8.0.5
; #@! TF.FileFunction,NonPlated,1,2,NPTH
FMAT,2
INCH
; #@! TA.AperFunction,NonPlated,NPTH,ComponentDrill
T1C0.0256
; #@! TA.AperFunction,NonPlated,NPTH,ComponentDrill
T2C0.0689
; #@! TA.AperFunction,NonPlated,NPTH,ComponentDrill
T3C0.1570
%
G90
G05
T1
X1.5208Y-1.0189
X1.7484Y-1.0189
T2
X1.2063Y-1.375
X1.2063Y-2.125
X1.2063Y-3.625
X1.3938Y-2.875
X1.6062Y-1.375
X1.6062Y-2.125
X1.6062Y-3.625
X1.7937Y-2.875
X1.9563Y-1.375
X1.9563Y-2.125
X1.9563Y-3.625
X2.3312Y-2.875
X2.3562Y-1.375
X2.3562Y-2.125
X2.3562Y-3.625
X2.7062Y-1.375
X2.7062Y-2.125
X2.7062Y-3.625
X2.7312Y-2.875
X2.8Y-3.625
X3.0812Y-2.875
X3.1062Y-1.375
X3.1062Y-2.125
X3.1062Y-3.625
X3.2Y-3.625
X3.4562Y-1.375
X3.4562Y-2.125
X3.4562Y-3.625
X3.4812Y-2.875
X3.8312Y-2.875
X3.8312Y-3.625
X3.8562Y-1.375
X3.8562Y-2.125
X3.8562Y-3.625
X3.925Y-3.625
X4.2062Y-1.375
X4.2062Y-2.125
X4.2313Y-2.875
X4.2313Y-3.625
X4.325Y-3.625
X4.5812Y-2.875
X4.5812Y-3.625
X4.6063Y-1.375
X4.6063Y-2.125
X4.9562Y-1.375
X4.9562Y-2.125
X4.9813Y-2.875
X4.9813Y-3.625
X5.2375Y-3.625
X5.3312Y-2.875
X5.3312Y-3.625
X5.3563Y-1.375
X5.3563Y-2.125
X5.6375Y-3.625
X5.7062Y-1.375
X5.7062Y-2.125
X5.7062Y-3.625
X5.7313Y-2.875
X5.7313Y-3.625
X6.0812Y-2.875
X6.1063Y-1.375
X6.1063Y-2.125
X6.1063Y-3.625
X6.3625Y-3.625
X6.4562Y-1.375
X6.4562Y-2.125
X6.4562Y-3.625
X6.4813Y-2.875
X6.7625Y-3.625
X6.8312Y-2.875
X6.8563Y-1.375
X6.8563Y-2.125
X6.8563Y-3.625
X7.2062Y-1.375
X7.2062Y-2.125
X7.2062Y-3.625
X7.2313Y-2.875
X7.6063Y-1.375
X7.6063Y-2.125
X7.6063Y-3.625
X7.7687Y-2.875
X7.9562Y-1.375
X7.9562Y-2.125
X7.9562Y-3.625
X8.1687Y-2.875
X8.3562Y-1.375
X8.3562Y-2.125
X8.3562Y-3.625
T3
X1.4062Y-1.375
X1.4062Y-2.125
X1.4062Y-3.625
X1.5938Y-2.875
X2.1562Y-1.375
X2.1562Y-2.125
X2.1562Y-3.625
X2.5312Y-2.875
X2.9062Y-1.375
X2.9062Y-2.125
X2.9062Y-3.3
X2.9062Y-3.3
X2.9062Y-3.625
X3.0Y-3.625
X3.2812Y-2.875
X3.5625Y-3.3
X3.6562Y-1.375
X3.6562Y-2.125
X3.6562Y-3.625
X4.0312Y-2.875
X4.0312Y-3.625
X4.125Y-3.625
X4.4062Y-1.375
X4.4062Y-2.125
X4.4062Y-3.3
X4.5Y-3.3
X4.7812Y-2.875
X4.7812Y-3.625
X5.0625Y-3.3
X5.1562Y-1.375
X5.1562Y-2.125
X5.1562Y-3.3
X5.4375Y-3.625
X5.5312Y-2.875
X5.5312Y-3.625
X5.9062Y-1.375
X5.9062Y-2.125
X5.9062Y-3.625
X6.0Y-3.3
X6.2812Y-2.875
X6.5625Y-3.625
X6.6562Y-1.375
X6.6562Y-2.125
X6.6562Y-3.3
X6.6562Y-3.3
X6.6562Y-3.625
X7.0312Y-2.875
X7.4062Y-1.375
X7.4062Y-2.125
X7.4062Y-3.625
X7.9688Y-2.875
X8.1562Y-1.375
X8.1562Y-2.125
X8.1562Y-3.625
M30
