%TF.GenerationSoftware,KiCad,Pcbnew,8.0.5*%
%TF.CreationDate,2024-09-26T22:45:49+02:00*%
%TF.ProjectId,m0ii0 alpha,6d306969-3020-4616-9c70-68612e6b6963,rev?*%
%TF.SameCoordinates,Original*%
%TF.FileFunction,Other,Comment*%
%FSLAX46Y46*%
G04 Gerber Fmt 4.6, Leading zero omitted, Abs format (unit mm)*
G04 Created by KiCad (PCBNEW 8.0.5) date 2024-09-26 22:45:49*
%MOMM*%
%LPD*%
G01*
G04 APERTURE LIST*
%ADD10C,0.150000*%
G04 APERTURE END LIST*
D10*
X147233035Y-84401819D02*
X147233035Y-83401819D01*
X147233035Y-83401819D02*
X147566368Y-84116104D01*
X147566368Y-84116104D02*
X147899701Y-83401819D01*
X147899701Y-83401819D02*
X147899701Y-84401819D01*
X148280654Y-83401819D02*
X148947320Y-84401819D01*
X148947320Y-83401819D02*
X148280654Y-84401819D01*
X149090178Y-84497057D02*
X149852082Y-84497057D01*
X150042559Y-84354200D02*
X150137797Y-84401819D01*
X150137797Y-84401819D02*
X150328273Y-84401819D01*
X150328273Y-84401819D02*
X150423511Y-84354200D01*
X150423511Y-84354200D02*
X150471130Y-84258961D01*
X150471130Y-84258961D02*
X150471130Y-84211342D01*
X150471130Y-84211342D02*
X150423511Y-84116104D01*
X150423511Y-84116104D02*
X150328273Y-84068485D01*
X150328273Y-84068485D02*
X150185416Y-84068485D01*
X150185416Y-84068485D02*
X150090178Y-84020866D01*
X150090178Y-84020866D02*
X150042559Y-83925628D01*
X150042559Y-83925628D02*
X150042559Y-83878009D01*
X150042559Y-83878009D02*
X150090178Y-83782771D01*
X150090178Y-83782771D02*
X150185416Y-83735152D01*
X150185416Y-83735152D02*
X150328273Y-83735152D01*
X150328273Y-83735152D02*
X150423511Y-83782771D01*
X150756845Y-83735152D02*
X151137797Y-83735152D01*
X150899702Y-83401819D02*
X150899702Y-84258961D01*
X150899702Y-84258961D02*
X150947321Y-84354200D01*
X150947321Y-84354200D02*
X151042559Y-84401819D01*
X151042559Y-84401819D02*
X151137797Y-84401819D01*
X151899702Y-84401819D02*
X151899702Y-83878009D01*
X151899702Y-83878009D02*
X151852083Y-83782771D01*
X151852083Y-83782771D02*
X151756845Y-83735152D01*
X151756845Y-83735152D02*
X151566369Y-83735152D01*
X151566369Y-83735152D02*
X151471131Y-83782771D01*
X151899702Y-84354200D02*
X151804464Y-84401819D01*
X151804464Y-84401819D02*
X151566369Y-84401819D01*
X151566369Y-84401819D02*
X151471131Y-84354200D01*
X151471131Y-84354200D02*
X151423512Y-84258961D01*
X151423512Y-84258961D02*
X151423512Y-84163723D01*
X151423512Y-84163723D02*
X151471131Y-84068485D01*
X151471131Y-84068485D02*
X151566369Y-84020866D01*
X151566369Y-84020866D02*
X151804464Y-84020866D01*
X151804464Y-84020866D02*
X151899702Y-83973247D01*
X152375893Y-84401819D02*
X152375893Y-83401819D01*
X152375893Y-83782771D02*
X152471131Y-83735152D01*
X152471131Y-83735152D02*
X152661607Y-83735152D01*
X152661607Y-83735152D02*
X152756845Y-83782771D01*
X152756845Y-83782771D02*
X152804464Y-83830390D01*
X152804464Y-83830390D02*
X152852083Y-83925628D01*
X152852083Y-83925628D02*
X152852083Y-84211342D01*
X152852083Y-84211342D02*
X152804464Y-84306580D01*
X152804464Y-84306580D02*
X152756845Y-84354200D01*
X152756845Y-84354200D02*
X152661607Y-84401819D01*
X152661607Y-84401819D02*
X152471131Y-84401819D01*
X152471131Y-84401819D02*
X152375893Y-84354200D01*
X118658035Y-84401819D02*
X118658035Y-83401819D01*
X118658035Y-83401819D02*
X118991368Y-84116104D01*
X118991368Y-84116104D02*
X119324701Y-83401819D01*
X119324701Y-83401819D02*
X119324701Y-84401819D01*
X119705654Y-83401819D02*
X120372320Y-84401819D01*
X120372320Y-83401819D02*
X119705654Y-84401819D01*
X120515178Y-84497057D02*
X121277082Y-84497057D01*
X121467559Y-84354200D02*
X121562797Y-84401819D01*
X121562797Y-84401819D02*
X121753273Y-84401819D01*
X121753273Y-84401819D02*
X121848511Y-84354200D01*
X121848511Y-84354200D02*
X121896130Y-84258961D01*
X121896130Y-84258961D02*
X121896130Y-84211342D01*
X121896130Y-84211342D02*
X121848511Y-84116104D01*
X121848511Y-84116104D02*
X121753273Y-84068485D01*
X121753273Y-84068485D02*
X121610416Y-84068485D01*
X121610416Y-84068485D02*
X121515178Y-84020866D01*
X121515178Y-84020866D02*
X121467559Y-83925628D01*
X121467559Y-83925628D02*
X121467559Y-83878009D01*
X121467559Y-83878009D02*
X121515178Y-83782771D01*
X121515178Y-83782771D02*
X121610416Y-83735152D01*
X121610416Y-83735152D02*
X121753273Y-83735152D01*
X121753273Y-83735152D02*
X121848511Y-83782771D01*
X122181845Y-83735152D02*
X122562797Y-83735152D01*
X122324702Y-83401819D02*
X122324702Y-84258961D01*
X122324702Y-84258961D02*
X122372321Y-84354200D01*
X122372321Y-84354200D02*
X122467559Y-84401819D01*
X122467559Y-84401819D02*
X122562797Y-84401819D01*
X123324702Y-84401819D02*
X123324702Y-83878009D01*
X123324702Y-83878009D02*
X123277083Y-83782771D01*
X123277083Y-83782771D02*
X123181845Y-83735152D01*
X123181845Y-83735152D02*
X122991369Y-83735152D01*
X122991369Y-83735152D02*
X122896131Y-83782771D01*
X123324702Y-84354200D02*
X123229464Y-84401819D01*
X123229464Y-84401819D02*
X122991369Y-84401819D01*
X122991369Y-84401819D02*
X122896131Y-84354200D01*
X122896131Y-84354200D02*
X122848512Y-84258961D01*
X122848512Y-84258961D02*
X122848512Y-84163723D01*
X122848512Y-84163723D02*
X122896131Y-84068485D01*
X122896131Y-84068485D02*
X122991369Y-84020866D01*
X122991369Y-84020866D02*
X123229464Y-84020866D01*
X123229464Y-84020866D02*
X123324702Y-83973247D01*
X123800893Y-84401819D02*
X123800893Y-83401819D01*
X123800893Y-83782771D02*
X123896131Y-83735152D01*
X123896131Y-83735152D02*
X124086607Y-83735152D01*
X124086607Y-83735152D02*
X124181845Y-83782771D01*
X124181845Y-83782771D02*
X124229464Y-83830390D01*
X124229464Y-83830390D02*
X124277083Y-83925628D01*
X124277083Y-83925628D02*
X124277083Y-84211342D01*
X124277083Y-84211342D02*
X124229464Y-84306580D01*
X124229464Y-84306580D02*
X124181845Y-84354200D01*
X124181845Y-84354200D02*
X124086607Y-84401819D01*
X124086607Y-84401819D02*
X123896131Y-84401819D01*
X123896131Y-84401819D02*
X123800893Y-84354200D01*
X99608035Y-84401819D02*
X99608035Y-83401819D01*
X99608035Y-83401819D02*
X99941368Y-84116104D01*
X99941368Y-84116104D02*
X100274701Y-83401819D01*
X100274701Y-83401819D02*
X100274701Y-84401819D01*
X100655654Y-83401819D02*
X101322320Y-84401819D01*
X101322320Y-83401819D02*
X100655654Y-84401819D01*
X101465178Y-84497057D02*
X102227082Y-84497057D01*
X102417559Y-84354200D02*
X102512797Y-84401819D01*
X102512797Y-84401819D02*
X102703273Y-84401819D01*
X102703273Y-84401819D02*
X102798511Y-84354200D01*
X102798511Y-84354200D02*
X102846130Y-84258961D01*
X102846130Y-84258961D02*
X102846130Y-84211342D01*
X102846130Y-84211342D02*
X102798511Y-84116104D01*
X102798511Y-84116104D02*
X102703273Y-84068485D01*
X102703273Y-84068485D02*
X102560416Y-84068485D01*
X102560416Y-84068485D02*
X102465178Y-84020866D01*
X102465178Y-84020866D02*
X102417559Y-83925628D01*
X102417559Y-83925628D02*
X102417559Y-83878009D01*
X102417559Y-83878009D02*
X102465178Y-83782771D01*
X102465178Y-83782771D02*
X102560416Y-83735152D01*
X102560416Y-83735152D02*
X102703273Y-83735152D01*
X102703273Y-83735152D02*
X102798511Y-83782771D01*
X103131845Y-83735152D02*
X103512797Y-83735152D01*
X103274702Y-83401819D02*
X103274702Y-84258961D01*
X103274702Y-84258961D02*
X103322321Y-84354200D01*
X103322321Y-84354200D02*
X103417559Y-84401819D01*
X103417559Y-84401819D02*
X103512797Y-84401819D01*
X104274702Y-84401819D02*
X104274702Y-83878009D01*
X104274702Y-83878009D02*
X104227083Y-83782771D01*
X104227083Y-83782771D02*
X104131845Y-83735152D01*
X104131845Y-83735152D02*
X103941369Y-83735152D01*
X103941369Y-83735152D02*
X103846131Y-83782771D01*
X104274702Y-84354200D02*
X104179464Y-84401819D01*
X104179464Y-84401819D02*
X103941369Y-84401819D01*
X103941369Y-84401819D02*
X103846131Y-84354200D01*
X103846131Y-84354200D02*
X103798512Y-84258961D01*
X103798512Y-84258961D02*
X103798512Y-84163723D01*
X103798512Y-84163723D02*
X103846131Y-84068485D01*
X103846131Y-84068485D02*
X103941369Y-84020866D01*
X103941369Y-84020866D02*
X104179464Y-84020866D01*
X104179464Y-84020866D02*
X104274702Y-83973247D01*
X104750893Y-84401819D02*
X104750893Y-83401819D01*
X104750893Y-83782771D02*
X104846131Y-83735152D01*
X104846131Y-83735152D02*
X105036607Y-83735152D01*
X105036607Y-83735152D02*
X105131845Y-83782771D01*
X105131845Y-83782771D02*
X105179464Y-83830390D01*
X105179464Y-83830390D02*
X105227083Y-83925628D01*
X105227083Y-83925628D02*
X105227083Y-84211342D01*
X105227083Y-84211342D02*
X105179464Y-84306580D01*
X105179464Y-84306580D02*
X105131845Y-84354200D01*
X105131845Y-84354200D02*
X105036607Y-84401819D01*
X105036607Y-84401819D02*
X104846131Y-84401819D01*
X104846131Y-84401819D02*
X104750893Y-84354200D01*
X137708035Y-84401819D02*
X137708035Y-83401819D01*
X137708035Y-83401819D02*
X138041368Y-84116104D01*
X138041368Y-84116104D02*
X138374701Y-83401819D01*
X138374701Y-83401819D02*
X138374701Y-84401819D01*
X138755654Y-83401819D02*
X139422320Y-84401819D01*
X139422320Y-83401819D02*
X138755654Y-84401819D01*
X139565178Y-84497057D02*
X140327082Y-84497057D01*
X140517559Y-84354200D02*
X140612797Y-84401819D01*
X140612797Y-84401819D02*
X140803273Y-84401819D01*
X140803273Y-84401819D02*
X140898511Y-84354200D01*
X140898511Y-84354200D02*
X140946130Y-84258961D01*
X140946130Y-84258961D02*
X140946130Y-84211342D01*
X140946130Y-84211342D02*
X140898511Y-84116104D01*
X140898511Y-84116104D02*
X140803273Y-84068485D01*
X140803273Y-84068485D02*
X140660416Y-84068485D01*
X140660416Y-84068485D02*
X140565178Y-84020866D01*
X140565178Y-84020866D02*
X140517559Y-83925628D01*
X140517559Y-83925628D02*
X140517559Y-83878009D01*
X140517559Y-83878009D02*
X140565178Y-83782771D01*
X140565178Y-83782771D02*
X140660416Y-83735152D01*
X140660416Y-83735152D02*
X140803273Y-83735152D01*
X140803273Y-83735152D02*
X140898511Y-83782771D01*
X141231845Y-83735152D02*
X141612797Y-83735152D01*
X141374702Y-83401819D02*
X141374702Y-84258961D01*
X141374702Y-84258961D02*
X141422321Y-84354200D01*
X141422321Y-84354200D02*
X141517559Y-84401819D01*
X141517559Y-84401819D02*
X141612797Y-84401819D01*
X142374702Y-84401819D02*
X142374702Y-83878009D01*
X142374702Y-83878009D02*
X142327083Y-83782771D01*
X142327083Y-83782771D02*
X142231845Y-83735152D01*
X142231845Y-83735152D02*
X142041369Y-83735152D01*
X142041369Y-83735152D02*
X141946131Y-83782771D01*
X142374702Y-84354200D02*
X142279464Y-84401819D01*
X142279464Y-84401819D02*
X142041369Y-84401819D01*
X142041369Y-84401819D02*
X141946131Y-84354200D01*
X141946131Y-84354200D02*
X141898512Y-84258961D01*
X141898512Y-84258961D02*
X141898512Y-84163723D01*
X141898512Y-84163723D02*
X141946131Y-84068485D01*
X141946131Y-84068485D02*
X142041369Y-84020866D01*
X142041369Y-84020866D02*
X142279464Y-84020866D01*
X142279464Y-84020866D02*
X142374702Y-83973247D01*
X142850893Y-84401819D02*
X142850893Y-83401819D01*
X142850893Y-83782771D02*
X142946131Y-83735152D01*
X142946131Y-83735152D02*
X143136607Y-83735152D01*
X143136607Y-83735152D02*
X143231845Y-83782771D01*
X143231845Y-83782771D02*
X143279464Y-83830390D01*
X143279464Y-83830390D02*
X143327083Y-83925628D01*
X143327083Y-83925628D02*
X143327083Y-84211342D01*
X143327083Y-84211342D02*
X143279464Y-84306580D01*
X143279464Y-84306580D02*
X143231845Y-84354200D01*
X143231845Y-84354200D02*
X143136607Y-84401819D01*
X143136607Y-84401819D02*
X142946131Y-84401819D01*
X142946131Y-84401819D02*
X142850893Y-84354200D01*
X90083035Y-84401819D02*
X90083035Y-83401819D01*
X90083035Y-83401819D02*
X90416368Y-84116104D01*
X90416368Y-84116104D02*
X90749701Y-83401819D01*
X90749701Y-83401819D02*
X90749701Y-84401819D01*
X91130654Y-83401819D02*
X91797320Y-84401819D01*
X91797320Y-83401819D02*
X91130654Y-84401819D01*
X91940178Y-84497057D02*
X92702082Y-84497057D01*
X92892559Y-84354200D02*
X92987797Y-84401819D01*
X92987797Y-84401819D02*
X93178273Y-84401819D01*
X93178273Y-84401819D02*
X93273511Y-84354200D01*
X93273511Y-84354200D02*
X93321130Y-84258961D01*
X93321130Y-84258961D02*
X93321130Y-84211342D01*
X93321130Y-84211342D02*
X93273511Y-84116104D01*
X93273511Y-84116104D02*
X93178273Y-84068485D01*
X93178273Y-84068485D02*
X93035416Y-84068485D01*
X93035416Y-84068485D02*
X92940178Y-84020866D01*
X92940178Y-84020866D02*
X92892559Y-83925628D01*
X92892559Y-83925628D02*
X92892559Y-83878009D01*
X92892559Y-83878009D02*
X92940178Y-83782771D01*
X92940178Y-83782771D02*
X93035416Y-83735152D01*
X93035416Y-83735152D02*
X93178273Y-83735152D01*
X93178273Y-83735152D02*
X93273511Y-83782771D01*
X93606845Y-83735152D02*
X93987797Y-83735152D01*
X93749702Y-83401819D02*
X93749702Y-84258961D01*
X93749702Y-84258961D02*
X93797321Y-84354200D01*
X93797321Y-84354200D02*
X93892559Y-84401819D01*
X93892559Y-84401819D02*
X93987797Y-84401819D01*
X94749702Y-84401819D02*
X94749702Y-83878009D01*
X94749702Y-83878009D02*
X94702083Y-83782771D01*
X94702083Y-83782771D02*
X94606845Y-83735152D01*
X94606845Y-83735152D02*
X94416369Y-83735152D01*
X94416369Y-83735152D02*
X94321131Y-83782771D01*
X94749702Y-84354200D02*
X94654464Y-84401819D01*
X94654464Y-84401819D02*
X94416369Y-84401819D01*
X94416369Y-84401819D02*
X94321131Y-84354200D01*
X94321131Y-84354200D02*
X94273512Y-84258961D01*
X94273512Y-84258961D02*
X94273512Y-84163723D01*
X94273512Y-84163723D02*
X94321131Y-84068485D01*
X94321131Y-84068485D02*
X94416369Y-84020866D01*
X94416369Y-84020866D02*
X94654464Y-84020866D01*
X94654464Y-84020866D02*
X94749702Y-83973247D01*
X95225893Y-84401819D02*
X95225893Y-83401819D01*
X95225893Y-83782771D02*
X95321131Y-83735152D01*
X95321131Y-83735152D02*
X95511607Y-83735152D01*
X95511607Y-83735152D02*
X95606845Y-83782771D01*
X95606845Y-83782771D02*
X95654464Y-83830390D01*
X95654464Y-83830390D02*
X95702083Y-83925628D01*
X95702083Y-83925628D02*
X95702083Y-84211342D01*
X95702083Y-84211342D02*
X95654464Y-84306580D01*
X95654464Y-84306580D02*
X95606845Y-84354200D01*
X95606845Y-84354200D02*
X95511607Y-84401819D01*
X95511607Y-84401819D02*
X95321131Y-84401819D01*
X95321131Y-84401819D02*
X95225893Y-84354200D01*
M02*
