%TF.GenerationSoftware,KiCad,Pcbnew,8.0.5*%
%TF.CreationDate,2024-09-26T22:45:49+02:00*%
%TF.ProjectId,m0ii0 alpha,6d306969-3020-4616-9c70-68612e6b6963,rev?*%
%TF.SameCoordinates,Original*%
%TF.FileFunction,Legend,Top*%
%TF.FilePolarity,Positive*%
%FSLAX46Y46*%
G04 Gerber Fmt 4.6, Leading zero omitted, Abs format (unit mm)*
G04 Created by KiCad (PCBNEW 8.0.5) date 2024-09-26 22:45:49*
%MOMM*%
%LPD*%
G01*
G04 APERTURE LIST*
%ADD10C,0.100000*%
%ADD11C,0.000000*%
%ADD12C,1.750000*%
%ADD13C,3.987800*%
%ADD14R,1.700000X1.700000*%
%ADD15O,1.700000X1.700000*%
%ADD16C,0.650000*%
%ADD17O,1.000000X1.600000*%
%ADD18O,1.000000X2.100000*%
G04 APERTURE END LIST*
D10*
G36*
X49219295Y-59201781D02*
G01*
X49821229Y-59155876D01*
X49943231Y-59137301D01*
X50516728Y-58969964D01*
X50579239Y-58937998D01*
X50740440Y-58937998D01*
X50740440Y-60010713D01*
X51113645Y-59531434D01*
X51473168Y-59248675D01*
X52029215Y-59041909D01*
X52343650Y-59014202D01*
X52932832Y-59088391D01*
X53275680Y-59248675D01*
X53618199Y-59735957D01*
X53677216Y-60010713D01*
X54059520Y-59531434D01*
X54442184Y-59248675D01*
X54996997Y-59047175D01*
X55341975Y-59014202D01*
X55946167Y-59104522D01*
X56421894Y-59457048D01*
X56441068Y-59486079D01*
X56676620Y-60063550D01*
X56742657Y-60653396D01*
X56742952Y-60699478D01*
X56742952Y-65819785D01*
X56874843Y-66192011D01*
X57270516Y-66291662D01*
X57402407Y-66291662D01*
X57402407Y-66704921D01*
X55013712Y-66704921D01*
X55013712Y-66291662D01*
X55133880Y-66291662D01*
X55497313Y-66192011D01*
X55617481Y-65819785D01*
X55617481Y-60755165D01*
X55583993Y-60169297D01*
X55465073Y-59776240D01*
X55013712Y-59538836D01*
X54449738Y-59712959D01*
X54254606Y-59875891D01*
X53914010Y-60372237D01*
X53741696Y-60822576D01*
X53741696Y-65819785D01*
X53861863Y-66192011D01*
X54225297Y-66291662D01*
X54345464Y-66291662D01*
X54345464Y-66704921D01*
X52012456Y-66704921D01*
X52012456Y-66291662D01*
X52132624Y-66291662D01*
X52496057Y-66192011D01*
X52616225Y-65819785D01*
X52616225Y-60755165D01*
X52577276Y-60166704D01*
X52493126Y-59843651D01*
X52012456Y-59538836D01*
X51448481Y-59712959D01*
X51253350Y-59875891D01*
X50912754Y-60396002D01*
X50740440Y-60889987D01*
X50740440Y-65819785D01*
X50860607Y-66192011D01*
X51224040Y-66291662D01*
X51344208Y-66291662D01*
X51344208Y-66704921D01*
X48955513Y-66704921D01*
X48955513Y-66291662D01*
X49087404Y-66291662D01*
X49483077Y-66192011D01*
X49614969Y-65825647D01*
X49614969Y-60016575D01*
X49547558Y-59714691D01*
X49283775Y-59615040D01*
X49019993Y-59615040D01*
X49019993Y-59201781D01*
X49219295Y-59201781D01*
G37*
G36*
X62025077Y-55148263D02*
G01*
X62585271Y-55367893D01*
X63098341Y-55733943D01*
X63500609Y-56164237D01*
X63809386Y-56604991D01*
X64133103Y-57219761D01*
X64351705Y-57796456D01*
X64523796Y-58431683D01*
X64649376Y-59125442D01*
X64716352Y-59722593D01*
X64753561Y-60357205D01*
X64761933Y-60857747D01*
X64747049Y-61520317D01*
X64702399Y-62146617D01*
X64627981Y-62736646D01*
X64493099Y-63423179D01*
X64311706Y-64053039D01*
X64083801Y-64626227D01*
X63809386Y-65142744D01*
X63435969Y-65673640D01*
X63027931Y-66094696D01*
X62508129Y-66447101D01*
X61941203Y-66650001D01*
X61417760Y-66704921D01*
X60808759Y-66631851D01*
X60243517Y-66412642D01*
X59722031Y-66047294D01*
X59309872Y-65617824D01*
X58990963Y-65177915D01*
X58657285Y-64559881D01*
X58431957Y-63977162D01*
X58254571Y-63332904D01*
X58125127Y-62627109D01*
X58056090Y-62018166D01*
X58017736Y-61369839D01*
X58009107Y-60857747D01*
X58009176Y-60854816D01*
X59322156Y-60854816D01*
X59331590Y-61478048D01*
X59359892Y-62065467D01*
X59421802Y-62749380D01*
X59513192Y-63377337D01*
X59661776Y-64057023D01*
X59852812Y-64656132D01*
X59925925Y-64837929D01*
X60203677Y-65389527D01*
X60600768Y-65899652D01*
X61147180Y-66218999D01*
X61417760Y-66253560D01*
X62023804Y-66086283D01*
X62490002Y-65643899D01*
X62804846Y-65090918D01*
X62909595Y-64837929D01*
X63092869Y-64265679D01*
X63238224Y-63612852D01*
X63330387Y-63007278D01*
X63396219Y-62345747D01*
X63435717Y-61628260D01*
X63448357Y-61013982D01*
X63448883Y-60854816D01*
X63440915Y-60263367D01*
X63408543Y-59566946D01*
X63351270Y-58918180D01*
X63269096Y-58317071D01*
X63137617Y-57658646D01*
X62970280Y-57068845D01*
X62938904Y-56977217D01*
X62692808Y-56411914D01*
X62305094Y-55889115D01*
X61780220Y-55577419D01*
X61417760Y-55526414D01*
X60840808Y-55697847D01*
X60374609Y-56151223D01*
X60041630Y-56717943D01*
X59925925Y-56977217D01*
X59720738Y-57555580D01*
X59558003Y-58202568D01*
X59454820Y-58794146D01*
X59381118Y-59433380D01*
X59336897Y-60120270D01*
X59322156Y-60854816D01*
X58009176Y-60854816D01*
X58023944Y-60224899D01*
X58068458Y-59623283D01*
X58165830Y-58915184D01*
X58309571Y-58255885D01*
X58499680Y-57645388D01*
X58736157Y-57083691D01*
X58958723Y-56669471D01*
X59335403Y-56127618D01*
X59751031Y-55697873D01*
X60285159Y-55338195D01*
X60872301Y-55131107D01*
X61417760Y-55075054D01*
X62025077Y-55148263D01*
G37*
G36*
X70529972Y-65758236D02*
G01*
X70694103Y-66159771D01*
X71122017Y-66291662D01*
X72508339Y-66291662D01*
X72508339Y-66704921D01*
X67426134Y-66704921D01*
X67426134Y-66291662D01*
X68809525Y-66291662D01*
X69272610Y-66156840D01*
X69404501Y-65755305D01*
X69404501Y-60189499D01*
X69272610Y-59752793D01*
X68809525Y-59585730D01*
X67426134Y-59612109D01*
X67426134Y-59201781D01*
X68085590Y-59192988D01*
X68706365Y-59172552D01*
X69240370Y-59105061D01*
X69840563Y-58956800D01*
X70368772Y-58750420D01*
X70529972Y-58750420D01*
X70529972Y-65758236D01*
G37*
G36*
X70542016Y-55435419D02*
G01*
X70614969Y-55488312D01*
X70904846Y-56016338D01*
X70905129Y-56036393D01*
X70650105Y-56584223D01*
X70614969Y-56616714D01*
X70078105Y-56868338D01*
X69967236Y-56874635D01*
X69408966Y-56691018D01*
X69316574Y-56616714D01*
X69031868Y-56096277D01*
X69029344Y-56036393D01*
X69298902Y-55502512D01*
X69316574Y-55488312D01*
X69878210Y-55266158D01*
X69967236Y-55262632D01*
X70542016Y-55435419D01*
G37*
G36*
X78924110Y-65758236D02*
G01*
X79088241Y-66159771D01*
X79516155Y-66291662D01*
X80902477Y-66291662D01*
X80902477Y-66704921D01*
X75820272Y-66704921D01*
X75820272Y-66291662D01*
X77203664Y-66291662D01*
X77666748Y-66156840D01*
X77798639Y-65755305D01*
X77798639Y-60189499D01*
X77666748Y-59752793D01*
X77203664Y-59585730D01*
X75820272Y-59612109D01*
X75820272Y-59201781D01*
X76479728Y-59192988D01*
X77100503Y-59172552D01*
X77634508Y-59105061D01*
X78234701Y-58956800D01*
X78762910Y-58750420D01*
X78924110Y-58750420D01*
X78924110Y-65758236D01*
G37*
G36*
X78936154Y-55435419D02*
G01*
X79009107Y-55488312D01*
X79298984Y-56016338D01*
X79299267Y-56036393D01*
X79044243Y-56584223D01*
X79009107Y-56616714D01*
X78472243Y-56868338D01*
X78361375Y-56874635D01*
X77803104Y-56691018D01*
X77710712Y-56616714D01*
X77426007Y-56096277D01*
X77423482Y-56036393D01*
X77693040Y-55502512D01*
X77710712Y-55488312D01*
X78272348Y-55266158D01*
X78361375Y-55262632D01*
X78936154Y-55435419D01*
G37*
G36*
X87207492Y-55148263D02*
G01*
X87767686Y-55367893D01*
X88280756Y-55733943D01*
X88683024Y-56164237D01*
X88991800Y-56604991D01*
X89315518Y-57219761D01*
X89534120Y-57796456D01*
X89706211Y-58431683D01*
X89831791Y-59125442D01*
X89898767Y-59722593D01*
X89935975Y-60357205D01*
X89944347Y-60857747D01*
X89929464Y-61520317D01*
X89884813Y-62146617D01*
X89810396Y-62736646D01*
X89675513Y-63423179D01*
X89494120Y-64053039D01*
X89266216Y-64626227D01*
X88991800Y-65142744D01*
X88618384Y-65673640D01*
X88210345Y-66094696D01*
X87690543Y-66447101D01*
X87123617Y-66650001D01*
X86600174Y-66704921D01*
X85991174Y-66631851D01*
X85425931Y-66412642D01*
X84904446Y-66047294D01*
X84492286Y-65617824D01*
X84173377Y-65177915D01*
X83839700Y-64559881D01*
X83614371Y-63977162D01*
X83436985Y-63332904D01*
X83307541Y-62627109D01*
X83238505Y-62018166D01*
X83200151Y-61369839D01*
X83191521Y-60857747D01*
X83191590Y-60854816D01*
X84504571Y-60854816D01*
X84514005Y-61478048D01*
X84542306Y-62065467D01*
X84604216Y-62749380D01*
X84695607Y-63377337D01*
X84844190Y-64057023D01*
X85035227Y-64656132D01*
X85108339Y-64837929D01*
X85386092Y-65389527D01*
X85783182Y-65899652D01*
X86329594Y-66218999D01*
X86600174Y-66253560D01*
X87206218Y-66086283D01*
X87672417Y-65643899D01*
X87987261Y-65090918D01*
X88092010Y-64837929D01*
X88275283Y-64265679D01*
X88420638Y-63612852D01*
X88512802Y-63007278D01*
X88578633Y-62345747D01*
X88618132Y-61628260D01*
X88630771Y-61013982D01*
X88631298Y-60854816D01*
X88623329Y-60263367D01*
X88590958Y-59566946D01*
X88533685Y-58918180D01*
X88451510Y-58317071D01*
X88320031Y-57658646D01*
X88152695Y-57068845D01*
X88121319Y-56977217D01*
X87875222Y-56411914D01*
X87487509Y-55889115D01*
X86962635Y-55577419D01*
X86600174Y-55526414D01*
X86023222Y-55697847D01*
X85557024Y-56151223D01*
X85224044Y-56717943D01*
X85108339Y-56977217D01*
X84903152Y-57555580D01*
X84740418Y-58202568D01*
X84637235Y-58794146D01*
X84563533Y-59433380D01*
X84519311Y-60120270D01*
X84504571Y-60854816D01*
X83191590Y-60854816D01*
X83206359Y-60224899D01*
X83250872Y-59623283D01*
X83348245Y-58915184D01*
X83491986Y-58255885D01*
X83682094Y-57645388D01*
X83918571Y-57083691D01*
X84141137Y-56669471D01*
X84517817Y-56127618D01*
X84933446Y-55697873D01*
X85467574Y-55338195D01*
X86054715Y-55131107D01*
X86600174Y-55075054D01*
X87207492Y-55148263D01*
G37*
G36*
X158363922Y-58252143D02*
G01*
X158963563Y-58363555D01*
X159554148Y-58608661D01*
X159730094Y-58727500D01*
X160133736Y-59169610D01*
X160351082Y-59735368D01*
X160392481Y-60181234D01*
X160392481Y-64642085D01*
X160450527Y-65232962D01*
X160480408Y-65286886D01*
X160802809Y-65386537D01*
X161213137Y-65069999D01*
X161321100Y-64483575D01*
X161330373Y-64184863D01*
X161705530Y-64184863D01*
X161664317Y-64780548D01*
X161475282Y-65369593D01*
X161356751Y-65533083D01*
X160839491Y-65858002D01*
X160451099Y-65911171D01*
X159859212Y-65808211D01*
X159686130Y-65711869D01*
X159335151Y-65239459D01*
X159267010Y-65049482D01*
X158768113Y-65364232D01*
X158230932Y-65639649D01*
X158094644Y-65697214D01*
X157501867Y-65857682D01*
X156890622Y-65910335D01*
X156796249Y-65911171D01*
X156195037Y-65866194D01*
X155621104Y-65710718D01*
X155104161Y-65411427D01*
X155023046Y-65342574D01*
X154637264Y-64892633D01*
X154412225Y-64308316D01*
X154389969Y-64038317D01*
X154409481Y-63877117D01*
X155515440Y-63877117D01*
X155601169Y-64458903D01*
X155858357Y-64990864D01*
X156305321Y-65371150D01*
X156908019Y-65497417D01*
X156954518Y-65497912D01*
X157552425Y-65431738D01*
X158079989Y-65263439D01*
X158621078Y-64988709D01*
X159111900Y-64666219D01*
X159267010Y-64551227D01*
X159267010Y-61377047D01*
X158634960Y-61470398D01*
X157960941Y-61606411D01*
X157379040Y-61768596D01*
X156816582Y-61990890D01*
X156327303Y-62288561D01*
X155899172Y-62719497D01*
X155611373Y-63262289D01*
X155515440Y-63877117D01*
X154409481Y-63877117D01*
X154467635Y-63396687D01*
X154700634Y-62823682D01*
X155088966Y-62319301D01*
X155371825Y-62068743D01*
X155893811Y-61752401D01*
X156488351Y-61514516D01*
X157087543Y-61339735D01*
X157781045Y-61186277D01*
X158403750Y-61078863D01*
X159086813Y-60985097D01*
X159267010Y-60963788D01*
X159267010Y-60163648D01*
X159195202Y-59556949D01*
X158979780Y-59067486D01*
X158468630Y-58729023D01*
X157859802Y-58637524D01*
X157675523Y-58633711D01*
X157059573Y-58670061D01*
X156483649Y-58809646D01*
X156139724Y-59005937D01*
X155801083Y-59508369D01*
X155823186Y-59782629D01*
X155890597Y-60037619D01*
X155796807Y-60357089D01*
X155327861Y-60547598D01*
X154920464Y-60383467D01*
X154765126Y-59882281D01*
X154979815Y-59301227D01*
X155422612Y-58887556D01*
X155623883Y-58753879D01*
X156201079Y-58472580D01*
X156786629Y-58308488D01*
X157434776Y-58228787D01*
X157742934Y-58220452D01*
X158363922Y-58252143D01*
G37*
G36*
X164466451Y-54618359D02*
G01*
X165087227Y-54581136D01*
X165621232Y-54486468D01*
X166186165Y-54322336D01*
X166749634Y-54093725D01*
X166910834Y-54093725D01*
X166910834Y-64970348D01*
X167074965Y-65366021D01*
X167502879Y-65497912D01*
X169021092Y-65497912D01*
X169021092Y-65911171D01*
X163675105Y-65911171D01*
X163675105Y-65497912D01*
X165190387Y-65497912D01*
X165653472Y-65366021D01*
X165785363Y-64970348D01*
X165785363Y-55559182D01*
X165653472Y-55163509D01*
X165190387Y-55031618D01*
X163739585Y-55031618D01*
X163739585Y-54618359D01*
X164466451Y-54618359D01*
G37*
G36*
X173054030Y-59729873D02*
G01*
X173429095Y-59246827D01*
X173867633Y-58849963D01*
X174032955Y-58739224D01*
X174595691Y-58490829D01*
X175205321Y-58408031D01*
X175810738Y-58463535D01*
X176425706Y-58658667D01*
X176970659Y-58994294D01*
X177295063Y-59296098D01*
X177655382Y-59804062D01*
X177886212Y-60353416D01*
X178038221Y-61000665D01*
X178105781Y-61633364D01*
X178118650Y-62095121D01*
X178087429Y-62755366D01*
X177993765Y-63355643D01*
X177805571Y-63980171D01*
X177532387Y-64523074D01*
X177230583Y-64923453D01*
X176768231Y-65355580D01*
X176266312Y-65664241D01*
X175654358Y-65863907D01*
X175143772Y-65911171D01*
X174538755Y-65862871D01*
X173971406Y-65691352D01*
X173447448Y-65375432D01*
X173054030Y-65034828D01*
X173054030Y-67341457D01*
X173250401Y-67804542D01*
X173713486Y-67936433D01*
X174176570Y-67936433D01*
X174176570Y-68349692D01*
X170940841Y-68349692D01*
X170940841Y-67936433D01*
X171336514Y-67936433D01*
X171796668Y-67804542D01*
X171928559Y-67344388D01*
X171928559Y-60456740D01*
X173054030Y-60456740D01*
X173054030Y-64170208D01*
X173352479Y-64688407D01*
X173765006Y-65124014D01*
X173821929Y-65166719D01*
X174356970Y-65425140D01*
X174900506Y-65497912D01*
X175512151Y-65381271D01*
X176011998Y-65069418D01*
X176377687Y-64668463D01*
X176675214Y-64131187D01*
X176857939Y-63534884D01*
X176954710Y-62921455D01*
X176990774Y-62327567D01*
X176993179Y-62115637D01*
X176971019Y-61457510D01*
X176891427Y-60798787D01*
X176732694Y-60176837D01*
X176530094Y-59729873D01*
X176159019Y-59275993D01*
X175629393Y-58995725D01*
X175146703Y-58932664D01*
X174558138Y-59036062D01*
X174038817Y-59299029D01*
X173577679Y-59699499D01*
X173219924Y-60174032D01*
X173054030Y-60456740D01*
X171928559Y-60456740D01*
X171928559Y-59562811D01*
X171796668Y-59134897D01*
X171336514Y-58970766D01*
X170940841Y-58970766D01*
X170940841Y-58557507D01*
X171532885Y-58557507D01*
X172128182Y-58505896D01*
X172215788Y-58490096D01*
X172770796Y-58291550D01*
X172892830Y-58220452D01*
X173054030Y-58220452D01*
X173054030Y-59729873D01*
G37*
G36*
X179384805Y-65911171D02*
G01*
X179384805Y-65497912D01*
X179718929Y-65497912D01*
X180187875Y-65366021D01*
X180322697Y-64970348D01*
X180322697Y-55559182D01*
X180196668Y-55163509D01*
X179759962Y-55031618D01*
X179384805Y-55031618D01*
X179384805Y-54618359D01*
X180167359Y-54618359D01*
X180735956Y-54486468D01*
X181233479Y-54156923D01*
X181304553Y-54093725D01*
X181448168Y-54093725D01*
X181448168Y-59495400D01*
X181868159Y-59028148D01*
X182333381Y-58653120D01*
X182588294Y-58507682D01*
X183157804Y-58301516D01*
X183767242Y-58221574D01*
X183851518Y-58220452D01*
X184437002Y-58288333D01*
X184996772Y-58543586D01*
X185270080Y-58794911D01*
X185570133Y-59313821D01*
X185714388Y-59884147D01*
X185761993Y-60504628D01*
X185762474Y-60579838D01*
X185762474Y-64958624D01*
X185929536Y-65363090D01*
X186366242Y-65497912D01*
X186700366Y-65497912D01*
X186700366Y-65911171D01*
X183713765Y-65911171D01*
X183713765Y-65497912D01*
X184044958Y-65497912D01*
X184505112Y-65363090D01*
X184637003Y-64952762D01*
X184637003Y-60656042D01*
X184612196Y-60065314D01*
X184501943Y-59470979D01*
X184323395Y-59120243D01*
X183825952Y-58789416D01*
X183496877Y-58745086D01*
X182894666Y-58879038D01*
X182500366Y-59088003D01*
X182033538Y-59476933D01*
X181641437Y-59955863D01*
X181448168Y-60245714D01*
X181448168Y-64952762D01*
X181612299Y-65363090D01*
X182043144Y-65497912D01*
X182371406Y-65497912D01*
X182371406Y-65911171D01*
X179384805Y-65911171D01*
G37*
G36*
X191940474Y-58252143D02*
G01*
X192540115Y-58363555D01*
X193130700Y-58608661D01*
X193306647Y-58727500D01*
X193710289Y-59169610D01*
X193927634Y-59735368D01*
X193969033Y-60181234D01*
X193969033Y-64642085D01*
X194027079Y-65232962D01*
X194056961Y-65286886D01*
X194379361Y-65386537D01*
X194789689Y-65069999D01*
X194897652Y-64483575D01*
X194906926Y-64184863D01*
X195282083Y-64184863D01*
X195240870Y-64780548D01*
X195051834Y-65369593D01*
X194933304Y-65533083D01*
X194416044Y-65858002D01*
X194027652Y-65911171D01*
X193435764Y-65808211D01*
X193262683Y-65711869D01*
X192911703Y-65239459D01*
X192843562Y-65049482D01*
X192344666Y-65364232D01*
X191807484Y-65639649D01*
X191671197Y-65697214D01*
X191078419Y-65857682D01*
X190467175Y-65910335D01*
X190372802Y-65911171D01*
X189771589Y-65866194D01*
X189197657Y-65710718D01*
X188680714Y-65411427D01*
X188599599Y-65342574D01*
X188213817Y-64892633D01*
X187988778Y-64308316D01*
X187966521Y-64038317D01*
X187986034Y-63877117D01*
X189091992Y-63877117D01*
X189177721Y-64458903D01*
X189434909Y-64990864D01*
X189881874Y-65371150D01*
X190484571Y-65497417D01*
X190531071Y-65497912D01*
X191128978Y-65431738D01*
X191656542Y-65263439D01*
X192197631Y-64988709D01*
X192688453Y-64666219D01*
X192843562Y-64551227D01*
X192843562Y-61377047D01*
X192211512Y-61470398D01*
X191537494Y-61606411D01*
X190955593Y-61768596D01*
X190393135Y-61990890D01*
X189903855Y-62288561D01*
X189475724Y-62719497D01*
X189187925Y-63262289D01*
X189091992Y-63877117D01*
X187986034Y-63877117D01*
X188044188Y-63396687D01*
X188277187Y-62823682D01*
X188665518Y-62319301D01*
X188948377Y-62068743D01*
X189470364Y-61752401D01*
X190064904Y-61514516D01*
X190664096Y-61339735D01*
X191357597Y-61186277D01*
X191980302Y-61078863D01*
X192663366Y-60985097D01*
X192843562Y-60963788D01*
X192843562Y-60163648D01*
X192771755Y-59556949D01*
X192556333Y-59067486D01*
X192045183Y-58729023D01*
X191436354Y-58637524D01*
X191252076Y-58633711D01*
X190636126Y-58670061D01*
X190060201Y-58809646D01*
X189716277Y-59005937D01*
X189377636Y-59508369D01*
X189399738Y-59782629D01*
X189467149Y-60037619D01*
X189373360Y-60357089D01*
X188904414Y-60547598D01*
X188497017Y-60383467D01*
X188341678Y-59882281D01*
X188556368Y-59301227D01*
X188999165Y-58887556D01*
X189200436Y-58753879D01*
X189777632Y-58472580D01*
X190363182Y-58308488D01*
X191011329Y-58228787D01*
X191319487Y-58220452D01*
X191940474Y-58252143D01*
G37*
D11*
%TO.C,G\u002A\u002A\u002A*%
G36*
X113985288Y-54817273D02*
G01*
X114255143Y-55025536D01*
X114520256Y-55468283D01*
X114543198Y-55946900D01*
X114324970Y-56438174D01*
X114186607Y-56614750D01*
X113984020Y-56870811D01*
X113870911Y-57114797D01*
X113821807Y-57434487D01*
X113811237Y-57908352D01*
X113819402Y-58375602D01*
X113862991Y-58677297D01*
X113970650Y-58898034D01*
X114171023Y-59122413D01*
X114247736Y-59197503D01*
X114684234Y-59620574D01*
X114998475Y-59325360D01*
X115261761Y-58958846D01*
X115279408Y-58593704D01*
X115109855Y-58306261D01*
X114972551Y-58017451D01*
X115077771Y-57746914D01*
X115302780Y-57577607D01*
X115528950Y-57514336D01*
X115742255Y-57630523D01*
X115819034Y-57703240D01*
X115992559Y-57909383D01*
X115990987Y-58081464D01*
X115884463Y-58264759D01*
X115737689Y-58562123D01*
X115688085Y-58781882D01*
X115605512Y-58999072D01*
X115397535Y-59290813D01*
X115288741Y-59411311D01*
X114889398Y-59823329D01*
X115226180Y-60174853D01*
X115357329Y-60319120D01*
X115449063Y-60462333D01*
X115508425Y-60649847D01*
X115542459Y-60927016D01*
X115558209Y-61339197D01*
X115562719Y-61931744D01*
X115562961Y-62343287D01*
X115564939Y-63055164D01*
X115574931Y-63560720D01*
X115599026Y-63903869D01*
X115643311Y-64128529D01*
X115713875Y-64278616D01*
X115816806Y-64398046D01*
X115852553Y-64432253D01*
X116078792Y-64621862D01*
X116225412Y-64704204D01*
X116227922Y-64704310D01*
X116301889Y-64597308D01*
X116322873Y-64333979D01*
X116298306Y-64000839D01*
X116235624Y-63684406D01*
X116142261Y-63471196D01*
X116119978Y-63448067D01*
X115969535Y-63201174D01*
X115996292Y-62929568D01*
X116153257Y-62702702D01*
X116393439Y-62590027D01*
X116657789Y-62653196D01*
X116868472Y-62900650D01*
X116901619Y-63203802D01*
X116757669Y-63448067D01*
X116634684Y-63637147D01*
X116568237Y-63893573D01*
X116572345Y-64116079D01*
X116653053Y-64203817D01*
X116783053Y-64122718D01*
X117029822Y-63912248D01*
X117278669Y-63677273D01*
X117585959Y-63353589D01*
X117747129Y-63095816D01*
X117807884Y-62809161D01*
X117815178Y-62564551D01*
X117779636Y-62139422D01*
X117668000Y-61928597D01*
X117627493Y-61906353D01*
X117479226Y-61735076D01*
X117449054Y-61454965D01*
X117537794Y-61178248D01*
X117621483Y-61080727D01*
X117912347Y-60961455D01*
X118181200Y-61033454D01*
X118366560Y-61240884D01*
X118406948Y-61527903D01*
X118330254Y-61724500D01*
X118226279Y-62005862D01*
X118150325Y-62420668D01*
X118128951Y-62674370D01*
X118104005Y-63012180D01*
X118040235Y-63267490D01*
X117900722Y-63507426D01*
X117648548Y-63799110D01*
X117331436Y-64124355D01*
X116985604Y-64486895D01*
X116720696Y-64790504D01*
X116577767Y-64987015D01*
X116563947Y-65024759D01*
X116647406Y-65167564D01*
X116868091Y-65430109D01*
X117181462Y-65760130D01*
X117242192Y-65820610D01*
X117676770Y-66213534D01*
X117979374Y-66402277D01*
X118120892Y-66413508D01*
X118357842Y-66214264D01*
X118386993Y-65887893D01*
X118245839Y-65520358D01*
X118107725Y-65219989D01*
X118104181Y-65028777D01*
X118187833Y-64895265D01*
X118445516Y-64734033D01*
X118738994Y-64738056D01*
X118971713Y-64888475D01*
X119045722Y-65062830D01*
X119026327Y-65348410D01*
X118951880Y-65494505D01*
X118845893Y-65717799D01*
X118816163Y-65941221D01*
X118731952Y-66254397D01*
X118541402Y-66544691D01*
X118266640Y-66837161D01*
X118979333Y-67557369D01*
X119692025Y-68277576D01*
X119692025Y-72905976D01*
X119692025Y-77534376D01*
X118510493Y-78710995D01*
X117328961Y-79887614D01*
X117634631Y-80250882D01*
X117889801Y-80712619D01*
X117940778Y-81202443D01*
X117787873Y-81651396D01*
X117627493Y-81846182D01*
X117391452Y-82167286D01*
X117315273Y-82585560D01*
X117314686Y-82638751D01*
X117294525Y-82910590D01*
X117209244Y-83145840D01*
X117021648Y-83407084D01*
X116694540Y-83756904D01*
X116583966Y-83868172D01*
X115853247Y-84598891D01*
X114735637Y-84598891D01*
X113618028Y-84598891D01*
X112588524Y-85633771D01*
X112108296Y-86140057D01*
X111766521Y-86550712D01*
X111584039Y-86839447D01*
X111559021Y-86932243D01*
X111464407Y-87264956D01*
X111216888Y-87423638D01*
X110870948Y-87374302D01*
X110858929Y-87368939D01*
X110607313Y-87153032D01*
X110557104Y-86876742D01*
X110696122Y-86610083D01*
X111012184Y-86423066D01*
X111024128Y-86419460D01*
X111305209Y-86271347D01*
X111693074Y-85979730D01*
X112129869Y-85589565D01*
X112272004Y-85449756D01*
X113116348Y-84598891D01*
X111929654Y-84598891D01*
X110742959Y-84598891D01*
X108618626Y-86725985D01*
X106494294Y-88853078D01*
X105552976Y-88853078D01*
X104611658Y-88853078D01*
X102705043Y-90762674D01*
X102009486Y-91471515D01*
X101461450Y-92056085D01*
X101071154Y-92504781D01*
X100848817Y-92806002D01*
X100798429Y-92927304D01*
X100728592Y-93212359D01*
X100648282Y-93332487D01*
X100393403Y-93463046D01*
X100104777Y-93459782D01*
X99896946Y-93329758D01*
X99873393Y-93284717D01*
X99800416Y-92879219D01*
X99930716Y-92606291D01*
X100252621Y-92485751D01*
X100346391Y-92481650D01*
X100475481Y-92396569D01*
X100752694Y-92158176D01*
X101150854Y-91791745D01*
X101642786Y-91322550D01*
X102201312Y-90775864D01*
X102494532Y-90483888D01*
X104489562Y-88486126D01*
X105446307Y-88481918D01*
X106403052Y-88477709D01*
X108324140Y-86569581D01*
X110245227Y-84661453D01*
X109320531Y-84624336D01*
X108395834Y-84587219D01*
X107241572Y-85719164D01*
X106087310Y-86851108D01*
X104674930Y-86851108D01*
X103262549Y-86851108D01*
X102013065Y-88102339D01*
X100763581Y-89353571D01*
X99307873Y-89353571D01*
X97852164Y-89353571D01*
X96869976Y-90341555D01*
X96483422Y-90748638D01*
X96183894Y-91099435D01*
X96004081Y-91353193D01*
X95970332Y-91463099D01*
X95963547Y-91651007D01*
X95797418Y-91850130D01*
X95550789Y-91994934D01*
X95302504Y-92019889D01*
X95300928Y-92019482D01*
X95044305Y-91853038D01*
X94946973Y-91585458D01*
X94996027Y-91297186D01*
X95178559Y-91068665D01*
X95467671Y-90980172D01*
X95694120Y-90885268D01*
X96056314Y-90611504D01*
X96533510Y-90175303D01*
X96731927Y-89979187D01*
X97727041Y-88978202D01*
X99234390Y-88978202D01*
X100741739Y-88978202D01*
X101708508Y-88005729D01*
X102099549Y-87604552D01*
X102414731Y-87266301D01*
X102617813Y-87030842D01*
X102675277Y-86942182D01*
X102555655Y-86917649D01*
X102218785Y-86895617D01*
X101697661Y-86877019D01*
X101025277Y-86862787D01*
X100234625Y-86853851D01*
X99450000Y-86851108D01*
X96224723Y-86851108D01*
X95383497Y-87698829D01*
X95019437Y-88080891D01*
X94734718Y-88408597D01*
X94568711Y-88635100D01*
X94542272Y-88699815D01*
X94455627Y-88899033D01*
X94256317Y-89136091D01*
X94035277Y-89314584D01*
X93925593Y-89353571D01*
X93723709Y-89256916D01*
X93521362Y-89039755D01*
X93417358Y-88811299D01*
X93416163Y-88790517D01*
X93516692Y-88534629D01*
X93749701Y-88328899D01*
X94012327Y-88258843D01*
X94047902Y-88265318D01*
X94274372Y-88201933D01*
X94635358Y-87929410D01*
X94995037Y-87586856D01*
X95723108Y-86851108D01*
X94097489Y-86851108D01*
X92471869Y-86851108D01*
X91475309Y-87853548D01*
X91031655Y-88309762D01*
X90743356Y-88637660D01*
X90581587Y-88878336D01*
X90517521Y-89072888D01*
X90516921Y-89219907D01*
X90467836Y-89723209D01*
X90241394Y-90126510D01*
X89890348Y-90405193D01*
X89467451Y-90534636D01*
X89025456Y-90490222D01*
X88617114Y-90247329D01*
X88524098Y-90149950D01*
X88271030Y-89695430D01*
X88252291Y-89452177D01*
X89133753Y-89452177D01*
X89254449Y-89641009D01*
X89446057Y-89696062D01*
X89462282Y-89691458D01*
X89603678Y-89543241D01*
X89640435Y-89436666D01*
X89585716Y-89233471D01*
X89403818Y-89132192D01*
X89207033Y-89179088D01*
X89156506Y-89237300D01*
X89133753Y-89452177D01*
X88252291Y-89452177D01*
X88235101Y-89229023D01*
X88391030Y-88800942D01*
X88713535Y-88461396D01*
X89177337Y-88260595D01*
X89492075Y-88227463D01*
X89689899Y-88182747D01*
X89945673Y-88032551D01*
X90291264Y-87752803D01*
X90758539Y-87319434D01*
X90982912Y-87101354D01*
X92131223Y-85975246D01*
X98942744Y-85975246D01*
X105754265Y-85975246D01*
X106154180Y-85562639D01*
X106393212Y-85298477D01*
X106536150Y-85106640D01*
X106554094Y-85062146D01*
X106432427Y-85047036D01*
X106081246Y-85032748D01*
X105521283Y-85019504D01*
X104773270Y-85007527D01*
X103857939Y-84997041D01*
X102796022Y-84988268D01*
X101608251Y-84981432D01*
X100315358Y-84976755D01*
X98938074Y-84974461D01*
X98385105Y-84974261D01*
X90216116Y-84974261D01*
X89604991Y-85594715D01*
X89210851Y-86049040D01*
X89005560Y-86414030D01*
X88979627Y-86540454D01*
X88864253Y-86884434D01*
X88593116Y-87078213D01*
X88451455Y-87099438D01*
X88224737Y-87003465D01*
X88010074Y-86782159D01*
X87910857Y-86543169D01*
X87910745Y-86536458D01*
X87998324Y-86356263D01*
X88197986Y-86165866D01*
X88415114Y-86040873D01*
X88535452Y-86037246D01*
X88656248Y-85979479D01*
X88900750Y-85779877D01*
X89220830Y-85478528D01*
X89292807Y-85406412D01*
X89966728Y-84724014D01*
X98450892Y-84724014D01*
X106935055Y-84724014D01*
X107478026Y-84223522D01*
X108020996Y-83723029D01*
X111766585Y-83723029D01*
X115512174Y-83723029D01*
X115975499Y-83248542D01*
X116298022Y-82866764D01*
X116413512Y-82552830D01*
X116326253Y-82240539D01*
X116063454Y-81889627D01*
X115753688Y-81396572D01*
X115698634Y-81017532D01*
X116593072Y-81017532D01*
X116648063Y-81236841D01*
X116804435Y-81345398D01*
X116814193Y-81345689D01*
X116968694Y-81245266D01*
X117022419Y-81149594D01*
X117027702Y-80918304D01*
X116903265Y-80768265D01*
X116723980Y-80771752D01*
X116672456Y-80811762D01*
X116593072Y-81017532D01*
X115698634Y-81017532D01*
X115683277Y-80911804D01*
X115852483Y-80459884D01*
X116045892Y-80235986D01*
X116301845Y-79953290D01*
X116468813Y-79690068D01*
X116482535Y-79654012D01*
X116598879Y-79474294D01*
X116858806Y-79164511D01*
X117224631Y-78767128D01*
X117658666Y-78324605D01*
X117688766Y-78294872D01*
X118816163Y-77183464D01*
X118816163Y-72910660D01*
X118816163Y-68637856D01*
X118090600Y-67919863D01*
X117365036Y-67201870D01*
X115279907Y-67173041D01*
X113194778Y-67144211D01*
X112591567Y-66549876D01*
X112237581Y-66221643D01*
X111967658Y-66041304D01*
X111702765Y-65966960D01*
X111470505Y-65955541D01*
X111052115Y-66006317D01*
X110720588Y-66198016D01*
X110577285Y-66330911D01*
X110145827Y-66613011D01*
X109675639Y-66685543D01*
X109228684Y-66562174D01*
X108866923Y-66256570D01*
X108688209Y-65914253D01*
X108649809Y-65555516D01*
X109499459Y-65555516D01*
X109515313Y-65651882D01*
X109676116Y-65811863D01*
X109886623Y-65789393D01*
X110015522Y-65634323D01*
X110010215Y-65390703D01*
X109954337Y-65301794D01*
X109768293Y-65249349D01*
X109586143Y-65358264D01*
X109499459Y-65555516D01*
X108649809Y-65555516D01*
X108631998Y-65389127D01*
X108801224Y-64920754D01*
X109171166Y-64559163D01*
X109418669Y-64435949D01*
X109793868Y-64393727D01*
X110209416Y-64487504D01*
X110556010Y-64682545D01*
X110688521Y-64839454D01*
X110809015Y-64977706D01*
X111025297Y-65051420D01*
X111402751Y-65078164D01*
X111582614Y-65079679D01*
X111987937Y-65088170D01*
X112270096Y-65138733D01*
X112514933Y-65269001D01*
X112808292Y-65516608D01*
X113009638Y-65705295D01*
X113671134Y-66330911D01*
X114992417Y-66330911D01*
X115533397Y-66322317D01*
X115967234Y-66299069D01*
X116242389Y-66264968D01*
X116313700Y-66233454D01*
X116230357Y-66107742D01*
X116007254Y-65853275D01*
X115684785Y-65514992D01*
X115510814Y-65340248D01*
X114707928Y-64544498D01*
X112884305Y-64634825D01*
X111060681Y-64725152D01*
X110171823Y-63935181D01*
X109735729Y-63570975D01*
X109320435Y-63264407D01*
X108991387Y-63062263D01*
X108888234Y-63017618D01*
X108579155Y-62828434D01*
X108458020Y-62571509D01*
X108510085Y-62317170D01*
X108720607Y-62135743D01*
X109074841Y-62097554D01*
X109080951Y-62098400D01*
X109318798Y-62216126D01*
X109408697Y-62480682D01*
X109525039Y-62762676D01*
X109828155Y-63136400D01*
X110282822Y-63575509D01*
X110684108Y-63932488D01*
X110969219Y-64153983D01*
X111207615Y-64272328D01*
X111468757Y-64319857D01*
X111822104Y-64328904D01*
X111901372Y-64328940D01*
X112307024Y-64311994D01*
X112590219Y-64267787D01*
X112685129Y-64212337D01*
X112582872Y-64047153D01*
X112334686Y-63849356D01*
X112028445Y-63675540D01*
X111752026Y-63582301D01*
X111700511Y-63578202D01*
X111422010Y-63473852D01*
X111265965Y-63219162D01*
X111277140Y-62901672D01*
X111312788Y-62819964D01*
X111535425Y-62607438D01*
X111816372Y-62590844D01*
X112082946Y-62752889D01*
X112252585Y-63043542D01*
X112428110Y-63365248D01*
X112722567Y-63715953D01*
X112878201Y-63859297D01*
X113215350Y-64110389D01*
X113487739Y-64215463D01*
X113800531Y-64212214D01*
X113846231Y-64206272D01*
X114319157Y-64141256D01*
X112970369Y-62804023D01*
X111621582Y-61466790D01*
X109710920Y-61435385D01*
X107800257Y-61403979D01*
X107266282Y-61928036D01*
X106964785Y-62210437D01*
X106725049Y-62367299D01*
X106451557Y-62435469D01*
X106048791Y-62451794D01*
X105907782Y-62452093D01*
X105381238Y-62475010D01*
X105058335Y-62549382D01*
X104922482Y-62645816D01*
X104675589Y-62796258D01*
X104403983Y-62769501D01*
X104177117Y-62612536D01*
X104064442Y-62372354D01*
X104127611Y-62108005D01*
X104375065Y-61897322D01*
X104678217Y-61864175D01*
X104922482Y-62008124D01*
X105160186Y-62140968D01*
X105604424Y-62198429D01*
X105792099Y-62201847D01*
X106172743Y-62192183D01*
X106439133Y-62136664D01*
X106674745Y-61995500D01*
X106963051Y-61728902D01*
X107121852Y-61567996D01*
X107742764Y-60934146D01*
X107447376Y-60692134D01*
X107174573Y-60539273D01*
X106788535Y-60464829D01*
X106380893Y-60450123D01*
X105609800Y-60450123D01*
X104614686Y-59449138D01*
X104159138Y-59001171D01*
X103828360Y-58707864D01*
X103578986Y-58538526D01*
X103367654Y-58462467D01*
X103200361Y-58448152D01*
X102787254Y-58345190D01*
X102408903Y-58081642D01*
X102138988Y-57725518D01*
X102049661Y-57386005D01*
X102054725Y-57361657D01*
X102932290Y-57361657D01*
X103008938Y-57488875D01*
X103229576Y-57569921D01*
X103430588Y-57461972D01*
X103466569Y-57396838D01*
X103470915Y-57174439D01*
X103261024Y-57077243D01*
X103154915Y-57071798D01*
X102964211Y-57163009D01*
X102932290Y-57361657D01*
X102054725Y-57361657D01*
X102153426Y-56887071D01*
X102425741Y-56458703D01*
X102539311Y-56356319D01*
X102908233Y-56212039D01*
X103366960Y-56217502D01*
X103812501Y-56362910D01*
X104011579Y-56496367D01*
X104242448Y-56745039D01*
X104335449Y-57027860D01*
X104342526Y-57340948D01*
X104345620Y-57608075D01*
X104397817Y-57826556D01*
X104532141Y-58052889D01*
X104781616Y-58343573D01*
X105154265Y-58729679D01*
X105640599Y-59194605D01*
X106003729Y-59470496D01*
X106264589Y-59572884D01*
X106292621Y-59574261D01*
X106600913Y-59574261D01*
X106264696Y-59223325D01*
X106072784Y-58987872D01*
X105971041Y-58734573D01*
X105932503Y-58372764D01*
X105928479Y-58092815D01*
X105893266Y-57542335D01*
X105796143Y-57135812D01*
X105742784Y-57029833D01*
X105624154Y-56791138D01*
X105672647Y-56590026D01*
X105749879Y-56471181D01*
X106003033Y-56234014D01*
X106255704Y-56247088D01*
X106482448Y-56471181D01*
X106607074Y-56704632D01*
X106563715Y-56907725D01*
X106489543Y-57029833D01*
X106373312Y-57347846D01*
X106310361Y-57821746D01*
X106303848Y-58043836D01*
X106318589Y-58478928D01*
X106387087Y-58764141D01*
X106545754Y-58999241D01*
X106716455Y-59174346D01*
X107004384Y-59416161D01*
X107248032Y-59558377D01*
X107316677Y-59574261D01*
X107502924Y-59658589D01*
X107782968Y-59875607D01*
X107993011Y-60074753D01*
X108481729Y-60575246D01*
X109613724Y-60571192D01*
X110745720Y-60567139D01*
X109390573Y-59288680D01*
X108035427Y-58010221D01*
X108457247Y-57604404D01*
X108879067Y-57198587D01*
X109530866Y-57858585D01*
X109847097Y-58194774D01*
X110078749Y-58471508D01*
X110181171Y-58634913D01*
X110182666Y-58645001D01*
X110265982Y-58792744D01*
X110482980Y-59051452D01*
X110745720Y-59324014D01*
X111308774Y-59876610D01*
X111308774Y-58856958D01*
X111294393Y-58374899D01*
X111256173Y-57994810D01*
X111201494Y-57781415D01*
X111183651Y-57759975D01*
X111074063Y-57566612D01*
X111076919Y-57276603D01*
X111183655Y-57012345D01*
X111240208Y-56951658D01*
X111514351Y-56844786D01*
X111769426Y-56925013D01*
X111952131Y-57131545D01*
X112009167Y-57403586D01*
X111887233Y-57680341D01*
X111883106Y-57684952D01*
X111782040Y-57863494D01*
X111719899Y-58159934D01*
X111689813Y-58622634D01*
X111684144Y-59085661D01*
X111684144Y-60266520D01*
X113093737Y-61672114D01*
X113578071Y-62149599D01*
X114002350Y-62557552D01*
X114334550Y-62865992D01*
X114542645Y-63044940D01*
X114595215Y-63077709D01*
X114636141Y-62962029D01*
X114667685Y-62652675D01*
X114685118Y-62206178D01*
X114687099Y-61979526D01*
X114687099Y-60881342D01*
X113811237Y-60012192D01*
X112935375Y-59143041D01*
X112935375Y-58027925D01*
X112929764Y-57485564D01*
X112903661Y-57130922D01*
X112843166Y-56901560D01*
X112734377Y-56735038D01*
X112622567Y-56622908D01*
X112366336Y-56229919D01*
X112306305Y-55820566D01*
X113185622Y-55820566D01*
X113274097Y-56029685D01*
X113435868Y-56070812D01*
X113644987Y-55982337D01*
X113686114Y-55820566D01*
X113597639Y-55611447D01*
X113435868Y-55570320D01*
X113226749Y-55658795D01*
X113185622Y-55820566D01*
X112306305Y-55820566D01*
X112296880Y-55756300D01*
X112414502Y-55288308D01*
X112616880Y-55001578D01*
X113034793Y-54743370D01*
X113518661Y-54682341D01*
X113985288Y-54817273D01*
G37*
G36*
X134281526Y-49669522D02*
G01*
X134701343Y-49953671D01*
X134950029Y-50356436D01*
X135028962Y-50783411D01*
X134933016Y-51156422D01*
X134639582Y-51557421D01*
X134609647Y-51590190D01*
X134389890Y-51916438D01*
X134392801Y-52155806D01*
X134609933Y-52284444D01*
X134860133Y-52297492D01*
X135314830Y-52187005D01*
X135611247Y-51939220D01*
X135707789Y-51617980D01*
X135800856Y-51358632D01*
X136025661Y-51233042D01*
X136300609Y-51244151D01*
X136544108Y-51394903D01*
X136651787Y-51583942D01*
X136640494Y-51892854D01*
X136436823Y-52117983D01*
X136145720Y-52191995D01*
X135850830Y-52270804D01*
X135707789Y-52379679D01*
X135472306Y-52509552D01*
X135094949Y-52566787D01*
X135051346Y-52567364D01*
X134747003Y-52591317D01*
X134505320Y-52694047D01*
X134246010Y-52921861D01*
X134034401Y-53153925D01*
X133778351Y-53454740D01*
X133624303Y-53693274D01*
X133545345Y-53950808D01*
X133514570Y-54308619D01*
X133506230Y-54749245D01*
X133507575Y-55233708D01*
X133521750Y-55620926D01*
X133545893Y-55843243D01*
X133553456Y-55865699D01*
X133657924Y-55847917D01*
X133855338Y-55681826D01*
X134096050Y-55424762D01*
X134330409Y-55134060D01*
X134508766Y-54867055D01*
X134581472Y-54681083D01*
X134581507Y-54678498D01*
X134492081Y-54430756D01*
X134393996Y-54319088D01*
X134220885Y-54065929D01*
X134296226Y-53807879D01*
X134475902Y-53643957D01*
X134769028Y-53524305D01*
X134976395Y-53578702D01*
X135142676Y-53775507D01*
X135206217Y-54059052D01*
X135151305Y-54310079D01*
X135082173Y-54381650D01*
X134979982Y-54556730D01*
X134957050Y-54722496D01*
X134870896Y-54940014D01*
X134636970Y-55275268D01*
X134292076Y-55677015D01*
X134206311Y-55767829D01*
X133866002Y-56141154D01*
X133606174Y-56462227D01*
X133467793Y-56678937D01*
X133455572Y-56722766D01*
X133371499Y-56900605D01*
X133155073Y-57174810D01*
X132955080Y-57384605D01*
X132662198Y-57693836D01*
X132514047Y-57948597D01*
X132463679Y-58255296D01*
X132460826Y-58504827D01*
X132467064Y-59136330D01*
X134181269Y-57352040D01*
X134713653Y-56804735D01*
X135192415Y-56325483D01*
X135589058Y-55941767D01*
X135875081Y-55681073D01*
X136021985Y-55570886D01*
X136030067Y-55569035D01*
X136210692Y-55659625D01*
X136441999Y-55868866D01*
X136636779Y-56106584D01*
X136708774Y-56270836D01*
X136629610Y-56405303D01*
X136425440Y-56645737D01*
X136146250Y-56942194D01*
X135842025Y-57244729D01*
X135562749Y-57503400D01*
X135358407Y-57668262D01*
X135281023Y-57697413D01*
X135185234Y-57762015D01*
X134944799Y-57971274D01*
X134592654Y-58293526D01*
X134161729Y-58697106D01*
X133684957Y-59150349D01*
X133195272Y-59621590D01*
X132725605Y-60079165D01*
X132308890Y-60491408D01*
X131978058Y-60826655D01*
X131766044Y-61053241D01*
X131703848Y-61136879D01*
X131819385Y-61165794D01*
X132127696Y-61187908D01*
X132571332Y-61199764D01*
X132767395Y-61200862D01*
X133830942Y-61200862D01*
X133830942Y-60788982D01*
X133876803Y-60497365D01*
X134042005Y-60208075D01*
X134367973Y-59850154D01*
X134393996Y-59824507D01*
X134710255Y-59470893D01*
X134910498Y-59159447D01*
X134957050Y-59000476D01*
X135062478Y-58670001D01*
X135338243Y-58485107D01*
X135607060Y-58469828D01*
X135845980Y-58598979D01*
X135941171Y-58842926D01*
X135904176Y-59120214D01*
X135746539Y-59349389D01*
X135479803Y-59448999D01*
X135468274Y-59449138D01*
X135221689Y-59547345D01*
X134913287Y-59797361D01*
X134602851Y-60132280D01*
X134350163Y-60485193D01*
X134215004Y-60789195D01*
X134206311Y-60861509D01*
X134278535Y-61128424D01*
X134483891Y-61197648D01*
X134805406Y-61071718D01*
X135226106Y-60753170D01*
X135232271Y-60747581D01*
X140241347Y-60747581D01*
X140296339Y-60966890D01*
X140452711Y-61075447D01*
X140462469Y-61075739D01*
X140616969Y-60975315D01*
X140670695Y-60879643D01*
X140675978Y-60648353D01*
X140551541Y-60498314D01*
X140372255Y-60501801D01*
X140320731Y-60541811D01*
X140241347Y-60747581D01*
X135232271Y-60747581D01*
X135284350Y-60700369D01*
X135603547Y-60430207D01*
X135868236Y-60248484D01*
X135991224Y-60199876D01*
X136157226Y-60116017D01*
X136432394Y-59896573D01*
X136744759Y-59601244D01*
X137060717Y-59267669D01*
X137237257Y-59016264D01*
X137314856Y-58755242D01*
X137333995Y-58392815D01*
X137334390Y-58264234D01*
X137359084Y-57778023D01*
X137446455Y-57458772D01*
X137586472Y-57257528D01*
X137838555Y-56989199D01*
X137586472Y-56698545D01*
X137402863Y-56401797D01*
X137334390Y-56139254D01*
X137275119Y-55858331D01*
X137198673Y-55734899D01*
X137107904Y-55513720D01*
X137104831Y-55303224D01*
X137242085Y-55064219D01*
X137505059Y-54960086D01*
X137798062Y-55009075D01*
X137965543Y-55139060D01*
X138065121Y-55317260D01*
X138026521Y-55521616D01*
X137923552Y-55718580D01*
X137745454Y-56100202D01*
X137739443Y-56365092D01*
X137902571Y-56575560D01*
X138049320Y-56646364D01*
X138221512Y-56583160D01*
X138483200Y-56359382D01*
X138528187Y-56316089D01*
X138801752Y-55964551D01*
X138952280Y-55594256D01*
X138967211Y-55269524D01*
X138833990Y-55054673D01*
X138779848Y-55027090D01*
X138549918Y-54828631D01*
X138362535Y-54484180D01*
X138262130Y-54097983D01*
X138262974Y-54076443D01*
X139123255Y-54076443D01*
X139141255Y-54181958D01*
X139336915Y-54311273D01*
X139562008Y-54259068D01*
X139671328Y-54118775D01*
X139662106Y-53899622D01*
X139502353Y-53784742D01*
X139286271Y-53826182D01*
X139227713Y-53873675D01*
X139123255Y-54076443D01*
X138262974Y-54076443D01*
X138272380Y-53836400D01*
X138493076Y-53353740D01*
X138835405Y-53045042D01*
X139247787Y-52903657D01*
X139678641Y-52922939D01*
X140076387Y-53096238D01*
X140389444Y-53416905D01*
X140566231Y-53878294D01*
X140587592Y-54134815D01*
X140486330Y-54473475D01*
X140217323Y-54833708D01*
X140212222Y-54838831D01*
X139946852Y-55172898D01*
X139845104Y-55536243D01*
X139836853Y-55739963D01*
X139821574Y-56006891D01*
X139752324Y-56231244D01*
X139593980Y-56470536D01*
X139311423Y-56782280D01*
X139023553Y-57071798D01*
X138640725Y-57456570D01*
X138402035Y-57728777D01*
X138273437Y-57951562D01*
X138220881Y-58188068D01*
X138210321Y-58501436D01*
X138210252Y-58580088D01*
X138192135Y-59014458D01*
X138114194Y-59301308D01*
X137941049Y-59542168D01*
X137838358Y-59647249D01*
X137605630Y-59895504D01*
X137473827Y-60074553D01*
X137462989Y-60106034D01*
X137576222Y-60150595D01*
X137879218Y-60183698D01*
X138311550Y-60199362D01*
X138411155Y-60199876D01*
X138923202Y-60189496D01*
X139262790Y-60146166D01*
X139507277Y-60051600D01*
X139734018Y-59887515D01*
X139734549Y-59887069D01*
X140201022Y-59620173D01*
X140661951Y-59602432D01*
X141105809Y-59833438D01*
X141222833Y-59940005D01*
X141523940Y-60388591D01*
X141598185Y-60864265D01*
X141453542Y-61313489D01*
X141097988Y-61682729D01*
X140950120Y-61770557D01*
X140451650Y-61903854D01*
X139978946Y-61799786D01*
X139581507Y-61470105D01*
X139558773Y-61440221D01*
X139289299Y-61075739D01*
X137711622Y-61075739D01*
X136133945Y-61075739D01*
X135645227Y-61576231D01*
X135156509Y-62076724D01*
X132895643Y-62076724D01*
X130634776Y-62076724D01*
X129576755Y-63140271D01*
X128518733Y-64203817D01*
X129926401Y-64203817D01*
X131334070Y-64203817D01*
X131910911Y-64735591D01*
X132284307Y-65049977D01*
X132586286Y-65214380D01*
X132903987Y-65272423D01*
X132989038Y-65275324D01*
X133369775Y-65325627D01*
X133666718Y-65501599D01*
X133861902Y-65699152D01*
X134099705Y-66008511D01*
X134182650Y-66279034D01*
X134161558Y-66567054D01*
X133975776Y-67044859D01*
X133628992Y-67389068D01*
X133182109Y-67568187D01*
X132696032Y-67550721D01*
X132447656Y-67453310D01*
X132181695Y-67209302D01*
X131970229Y-66844670D01*
X131866475Y-66468221D01*
X131866737Y-66463635D01*
X132741974Y-66463635D01*
X132759974Y-66569150D01*
X132955634Y-66698465D01*
X133180728Y-66646260D01*
X133290047Y-66505968D01*
X133280825Y-66286815D01*
X133121072Y-66171934D01*
X132904990Y-66213374D01*
X132846432Y-66260867D01*
X132741974Y-66463635D01*
X131866737Y-66463635D01*
X131876886Y-66286321D01*
X131858641Y-66045260D01*
X131666984Y-65747257D01*
X131486894Y-65550198D01*
X131027445Y-65079679D01*
X129268269Y-65079679D01*
X127509094Y-65079679D01*
X125656242Y-66935625D01*
X123803391Y-68791570D01*
X123890147Y-72910255D01*
X123976904Y-77028940D01*
X125212790Y-78293314D01*
X125658476Y-78761720D01*
X126032710Y-79178752D01*
X126303558Y-79506985D01*
X126439088Y-79708997D01*
X126448676Y-79741700D01*
X126533858Y-79947618D01*
X126740979Y-80199924D01*
X126761484Y-80219581D01*
X126990317Y-80523521D01*
X127071712Y-80916495D01*
X127074291Y-81032881D01*
X127020718Y-81463201D01*
X126830113Y-81777425D01*
X126761484Y-81846182D01*
X126491629Y-82224565D01*
X126469402Y-82622641D01*
X126695188Y-83043937D01*
X126917888Y-83280029D01*
X127387099Y-83716258D01*
X130163705Y-83719644D01*
X131111860Y-83726380D01*
X131891722Y-83743475D01*
X132482873Y-83770011D01*
X132864893Y-83805066D01*
X133017364Y-83847722D01*
X133017641Y-83848152D01*
X133161731Y-83878458D01*
X133550262Y-83904767D01*
X134177463Y-83926972D01*
X135037558Y-83944968D01*
X136124775Y-83958648D01*
X137433339Y-83967907D01*
X138957477Y-83972639D01*
X139836853Y-83973275D01*
X141471236Y-83975602D01*
X142893058Y-83982511D01*
X144096548Y-83993897D01*
X145075930Y-84009653D01*
X145825431Y-84029674D01*
X146339277Y-84053853D01*
X146611695Y-84082085D01*
X146656065Y-84098399D01*
X146833634Y-84205807D01*
X146960936Y-84223522D01*
X147259181Y-84328692D01*
X147421653Y-84598438D01*
X147416483Y-84917682D01*
X147320378Y-85140186D01*
X147129858Y-85209859D01*
X146933299Y-85200834D01*
X146649428Y-85139847D01*
X146526962Y-84975305D01*
X146491733Y-84755295D01*
X146452525Y-84348645D01*
X139989604Y-84348645D01*
X133526682Y-84348645D01*
X134206311Y-85036822D01*
X134885940Y-85725000D01*
X144690390Y-85725000D01*
X154494840Y-85725000D01*
X155215868Y-86412744D01*
X155559979Y-86724347D01*
X155834960Y-86942473D01*
X155993455Y-87030519D01*
X156010451Y-87026936D01*
X156196632Y-86990730D01*
X156438293Y-87094403D01*
X156631871Y-87284627D01*
X156670794Y-87366968D01*
X156650770Y-87641728D01*
X156487232Y-87917023D01*
X156252808Y-88087175D01*
X156165424Y-88102339D01*
X155950731Y-88003207D01*
X155734993Y-87774737D01*
X155609146Y-87520320D01*
X155602370Y-87462168D01*
X155518235Y-87286272D01*
X155298131Y-87003722D01*
X155003737Y-86690000D01*
X154405105Y-86100369D01*
X144845353Y-86100369D01*
X135285601Y-86100369D01*
X135645227Y-86475739D01*
X136004854Y-86851108D01*
X143506293Y-86851108D01*
X151007731Y-86851108D01*
X151809115Y-87664408D01*
X152210249Y-88059129D01*
X152499850Y-88302215D01*
X152732844Y-88428883D01*
X152964160Y-88474352D01*
X153077609Y-88477709D01*
X153622387Y-88576167D01*
X154022981Y-88845522D01*
X154248778Y-89246747D01*
X154269161Y-89740814D01*
X154220196Y-89934260D01*
X153958877Y-90391738D01*
X153572697Y-90663442D01*
X153117629Y-90736577D01*
X152649649Y-90598347D01*
X152339543Y-90364181D01*
X152069720Y-90010768D01*
X151976311Y-89616636D01*
X151976074Y-89607092D01*
X152842433Y-89607092D01*
X152937402Y-89774974D01*
X153136516Y-89838378D01*
X153338351Y-89753990D01*
X153412715Y-89602104D01*
X153306206Y-89441576D01*
X153131188Y-89376149D01*
X152903462Y-89428008D01*
X152842433Y-89607092D01*
X151976074Y-89607092D01*
X151973799Y-89515326D01*
X151949346Y-89234217D01*
X151849440Y-88988814D01*
X151634260Y-88710676D01*
X151312968Y-88379592D01*
X150652137Y-87726970D01*
X149221072Y-87726970D01*
X147790007Y-87726970D01*
X148505548Y-88450056D01*
X148865119Y-88825297D01*
X149079045Y-89096620D01*
X149184566Y-89330916D01*
X149218922Y-89595078D01*
X149221089Y-89735331D01*
X149230172Y-89983265D01*
X149277493Y-90189813D01*
X149393165Y-90400933D01*
X149607299Y-90662584D01*
X149950006Y-91020723D01*
X150278879Y-91349814D01*
X150732728Y-91781055D01*
X151135224Y-92125885D01*
X151444606Y-92350524D01*
X151604168Y-92421816D01*
X151902260Y-92536879D01*
X152059881Y-92776312D01*
X152078618Y-93063003D01*
X151960058Y-93319841D01*
X151705788Y-93469715D01*
X151582342Y-93482635D01*
X151301818Y-93389948D01*
X151088048Y-93171011D01*
X151021141Y-92914510D01*
X151030657Y-92871885D01*
X150983951Y-92690750D01*
X150761949Y-92381265D01*
X150356485Y-91933052D01*
X150033919Y-91605319D01*
X149583408Y-91152526D01*
X149282242Y-90828349D01*
X149100419Y-90586879D01*
X149007940Y-90382209D01*
X148974802Y-90168431D01*
X148970843Y-89978593D01*
X148959318Y-89701122D01*
X148902018Y-89477212D01*
X148764861Y-89250156D01*
X148513763Y-88963248D01*
X148123122Y-88568196D01*
X147275400Y-87726970D01*
X144777169Y-87726970D01*
X142278937Y-87726970D01*
X144966902Y-90417118D01*
X145833113Y-91276926D01*
X146538648Y-91961143D01*
X147092608Y-92478026D01*
X147504094Y-92835826D01*
X147782208Y-93042801D01*
X147933084Y-93107266D01*
X148225040Y-93211346D01*
X148389211Y-93465830D01*
X148378034Y-93784085D01*
X148345227Y-93858005D01*
X148116230Y-94056544D01*
X147798320Y-94098957D01*
X147508383Y-93971492D01*
X147494390Y-93958103D01*
X147368126Y-93713231D01*
X147344242Y-93550410D01*
X147252473Y-93375704D01*
X146979246Y-93035422D01*
X146527678Y-92532967D01*
X145900889Y-91871744D01*
X145101995Y-91055158D01*
X144559232Y-90509917D01*
X141774221Y-87726970D01*
X139241498Y-87726970D01*
X138476092Y-87731476D01*
X137803527Y-87744054D01*
X137261032Y-87763293D01*
X136885840Y-87787782D01*
X136715181Y-87816110D01*
X136708774Y-87822946D01*
X136792959Y-87940186D01*
X137024988Y-88199788D01*
X137374069Y-88568865D01*
X137809413Y-89014527D01*
X138055891Y-89261863D01*
X139403008Y-90604803D01*
X140280442Y-90604803D01*
X141157875Y-90604803D01*
X141957764Y-91411865D01*
X142388144Y-91814945D01*
X142761577Y-92106078D01*
X143030483Y-92249008D01*
X143066065Y-92256446D01*
X143372646Y-92387008D01*
X143554246Y-92566320D01*
X143662942Y-92786224D01*
X143601504Y-92960867D01*
X143483882Y-93088808D01*
X143173939Y-93269020D01*
X142880865Y-93229826D01*
X142672746Y-92988520D01*
X142635651Y-92873349D01*
X142515091Y-92634727D01*
X142260723Y-92286813D01*
X141920186Y-91892656D01*
X141796053Y-91762192D01*
X141032752Y-90980172D01*
X140148936Y-90980172D01*
X139265119Y-90980172D01*
X137671020Y-89353571D01*
X137149391Y-88833043D01*
X136674928Y-88381501D01*
X136279571Y-88027622D01*
X135995259Y-87800079D01*
X135859196Y-87726970D01*
X135703553Y-87641822D01*
X135406820Y-87405636D01*
X135001837Y-87047296D01*
X134521439Y-86595690D01*
X134081188Y-86162931D01*
X132520904Y-84598891D01*
X131334273Y-84598891D01*
X130147642Y-84598891D01*
X130863184Y-85321978D01*
X131236591Y-85718195D01*
X131455884Y-86011019D01*
X131557545Y-86259220D01*
X131578725Y-86474631D01*
X131677510Y-86856122D01*
X131932311Y-87263995D01*
X132280795Y-87631254D01*
X132660631Y-87890905D01*
X132976729Y-87977216D01*
X133305051Y-88066306D01*
X133490483Y-88283109D01*
X133521066Y-88551930D01*
X133384843Y-88797070D01*
X133127338Y-88930692D01*
X132777833Y-88916972D01*
X132530768Y-88720560D01*
X132454587Y-88450221D01*
X132364817Y-88240555D01*
X132128465Y-87939296D01*
X131828971Y-87640646D01*
X131482179Y-87308639D01*
X131291799Y-87055351D01*
X131214119Y-86809257D01*
X131203355Y-86616933D01*
X131180425Y-86366487D01*
X131087818Y-86136072D01*
X130889811Y-85869302D01*
X130550680Y-85509792D01*
X130417969Y-85377296D01*
X129632583Y-84598891D01*
X128325785Y-84598891D01*
X127018986Y-84598891D01*
X126295900Y-83883350D01*
X125919154Y-83492086D01*
X125697688Y-83203151D01*
X125594696Y-82958474D01*
X125572814Y-82742479D01*
X125470412Y-82290080D01*
X125197444Y-81889627D01*
X124886590Y-81395612D01*
X124832546Y-81017532D01*
X125727062Y-81017532D01*
X125782053Y-81236841D01*
X125938425Y-81345398D01*
X125948183Y-81345689D01*
X126102684Y-81245266D01*
X126156409Y-81149594D01*
X126161692Y-80918304D01*
X126037255Y-80768265D01*
X125857970Y-80771752D01*
X125806446Y-80811762D01*
X125727062Y-81017532D01*
X124832546Y-81017532D01*
X124817322Y-80911025D01*
X124989751Y-80457326D01*
X125188859Y-80227600D01*
X125555644Y-79884972D01*
X124333063Y-78666979D01*
X123110483Y-77448986D01*
X123026070Y-72926778D01*
X122941657Y-68404570D01*
X123881866Y-67458815D01*
X124299059Y-67015742D01*
X124613378Y-66635057D01*
X124792649Y-66357738D01*
X124822075Y-66261307D01*
X124736548Y-66054934D01*
X124509913Y-65741964D01*
X124187084Y-65383187D01*
X124133897Y-65329926D01*
X123445720Y-64650297D01*
X123445720Y-63816762D01*
X123423436Y-63288849D01*
X123350939Y-62964229D01*
X123251997Y-62822451D01*
X123105107Y-62562232D01*
X123148101Y-62259432D01*
X123351878Y-62027581D01*
X123627691Y-61965983D01*
X123865249Y-62085027D01*
X124017560Y-62315262D01*
X124037632Y-62587235D01*
X123889689Y-62822451D01*
X123756921Y-63059906D01*
X123699423Y-63503696D01*
X123695966Y-63692594D01*
X123708012Y-64095274D01*
X123772811Y-64371270D01*
X123933352Y-64616935D01*
X124232628Y-64928622D01*
X124259021Y-64954556D01*
X124822075Y-65507152D01*
X124822075Y-64167668D01*
X124822075Y-62828184D01*
X125260006Y-62343446D01*
X125545823Y-61976174D01*
X125674917Y-61643718D01*
X125697937Y-61357421D01*
X125650633Y-60943747D01*
X125472022Y-60695615D01*
X125107051Y-60544139D01*
X125033150Y-60525573D01*
X124780633Y-60421613D01*
X124712194Y-60227109D01*
X124720342Y-60114290D01*
X124847578Y-59771205D01*
X125078275Y-59606268D01*
X125341312Y-59618342D01*
X125565566Y-59806289D01*
X125676020Y-60129572D01*
X125718651Y-60363209D01*
X125807722Y-60378301D01*
X125954597Y-60256633D01*
X126110638Y-60059432D01*
X126127131Y-59935494D01*
X126127993Y-59753897D01*
X126197045Y-59576847D01*
X126423673Y-59373207D01*
X126725431Y-59335410D01*
X126994445Y-59464898D01*
X127069440Y-59565196D01*
X127141933Y-59900422D01*
X126986827Y-60158272D01*
X126716402Y-60280771D01*
X126323592Y-60427119D01*
X126126751Y-60666134D01*
X126073306Y-61057307D01*
X126073306Y-61508727D01*
X127261530Y-60325444D01*
X128449753Y-59142161D01*
X127699461Y-58385140D01*
X126949168Y-57628119D01*
X126949168Y-56802225D01*
X126926349Y-56275475D01*
X126852268Y-55952312D01*
X126755445Y-55815555D01*
X126605003Y-55568661D01*
X126631760Y-55297056D01*
X126788725Y-55070190D01*
X127028907Y-54957515D01*
X127293257Y-55020684D01*
X127503940Y-55268137D01*
X127537087Y-55571289D01*
X127393137Y-55815555D01*
X127260293Y-56053258D01*
X127202832Y-56497497D01*
X127199415Y-56685172D01*
X127209355Y-57067908D01*
X127265832Y-57335623D01*
X127408831Y-57573005D01*
X127678337Y-57864742D01*
X127825030Y-58010221D01*
X128450646Y-58626430D01*
X128450646Y-57739311D01*
X128432930Y-57211513D01*
X128373296Y-56880817D01*
X128262017Y-56696158D01*
X128249927Y-56685610D01*
X127975172Y-56312786D01*
X127890061Y-55862429D01*
X127892224Y-55852132D01*
X128734949Y-55852132D01*
X128825073Y-56007115D01*
X129048200Y-56154292D01*
X129233870Y-56074476D01*
X129304475Y-55903662D01*
X129246541Y-55699103D01*
X129053084Y-55595794D01*
X128833455Y-55643409D01*
X128797883Y-55673526D01*
X128734949Y-55852132D01*
X127892224Y-55852132D01*
X127985332Y-55408863D01*
X128251726Y-55026412D01*
X128476268Y-54868893D01*
X128946649Y-54741624D01*
X129415534Y-54804466D01*
X129821792Y-55025112D01*
X130104290Y-55371256D01*
X130202370Y-55781092D01*
X130127038Y-56180648D01*
X129937188Y-56561845D01*
X129687036Y-56828919D01*
X129578127Y-56883677D01*
X129463866Y-56940261D01*
X129390484Y-57054549D01*
X129349070Y-57274428D01*
X129330715Y-57647789D01*
X129326509Y-58222518D01*
X129326508Y-58236104D01*
X129326508Y-59508669D01*
X127507391Y-61330824D01*
X125688274Y-63152980D01*
X125724386Y-64393296D01*
X125760498Y-65633613D01*
X128342615Y-63135710D01*
X129005715Y-62490177D01*
X129606772Y-61897251D01*
X130122975Y-61380064D01*
X130531512Y-60961743D01*
X130809572Y-60665418D01*
X130934342Y-60514219D01*
X130938920Y-60503214D01*
X130865168Y-60333643D01*
X130666349Y-60099738D01*
X130640301Y-60074753D01*
X130423635Y-59793905D01*
X130327751Y-59516669D01*
X130327493Y-59505209D01*
X130246820Y-59212113D01*
X130139809Y-59073768D01*
X129969945Y-58796520D01*
X130007237Y-58488098D01*
X130133798Y-58328018D01*
X130411113Y-58217657D01*
X130680602Y-58282062D01*
X130877193Y-58468266D01*
X130935817Y-58723304D01*
X130857830Y-58917364D01*
X130690269Y-59177514D01*
X130621823Y-59303926D01*
X130651495Y-59486233D01*
X130816603Y-59730819D01*
X131049353Y-59967977D01*
X131281949Y-60127999D01*
X131440320Y-60145523D01*
X131508719Y-59977097D01*
X131555368Y-59587560D01*
X131577365Y-59005340D01*
X131578725Y-58789593D01*
X131578725Y-57519201D01*
X132106638Y-56981297D01*
X132634551Y-56443392D01*
X131449742Y-55253873D01*
X130264932Y-54064354D01*
X130240474Y-52805127D01*
X130215669Y-52225759D01*
X130169518Y-51754949D01*
X130108591Y-51449059D01*
X130073738Y-51374466D01*
X129970149Y-51081620D01*
X130076762Y-50784244D01*
X130233651Y-50642006D01*
X130509163Y-50579870D01*
X130746650Y-50698440D01*
X130899131Y-50928334D01*
X130919627Y-51200173D01*
X130771463Y-51436245D01*
X130672678Y-51582264D01*
X130612212Y-51851686D01*
X130583134Y-52290964D01*
X130577740Y-52734353D01*
X130577740Y-53871685D01*
X131104284Y-54408195D01*
X131399668Y-54693596D01*
X131630302Y-54888185D01*
X131729900Y-54944704D01*
X131811831Y-54840627D01*
X131830128Y-54591419D01*
X131793159Y-54291609D01*
X131709292Y-54035731D01*
X131641287Y-53943719D01*
X131479086Y-53676409D01*
X131481621Y-53359752D01*
X131641936Y-53106967D01*
X131694784Y-53072708D01*
X132020904Y-52998864D01*
X132269067Y-53116074D01*
X132398738Y-53367959D01*
X132369383Y-53698141D01*
X132277279Y-53882881D01*
X132132481Y-54250316D01*
X132077537Y-54708361D01*
X132110756Y-55161874D01*
X132230445Y-55515714D01*
X132308035Y-55613489D01*
X132514425Y-55772718D01*
X132620843Y-55820566D01*
X132655607Y-55704149D01*
X132683357Y-55389666D01*
X132700698Y-54929274D01*
X132704833Y-54530182D01*
X132707612Y-53948053D01*
X132724727Y-53558275D01*
X132769350Y-53302958D01*
X132854650Y-53124208D01*
X132993797Y-52964135D01*
X133080203Y-52880172D01*
X133331650Y-52548555D01*
X133451857Y-52200383D01*
X133429741Y-51904979D01*
X133263260Y-51734974D01*
X133039984Y-51542524D01*
X132842857Y-51199704D01*
X132721548Y-50805284D01*
X132715279Y-50737494D01*
X133609068Y-50737494D01*
X133688292Y-50927166D01*
X133714670Y-50946234D01*
X133938465Y-50973490D01*
X134106806Y-50837120D01*
X134122925Y-50618807D01*
X133960916Y-50458296D01*
X133876190Y-50440271D01*
X133684601Y-50534783D01*
X133609068Y-50737494D01*
X132715279Y-50737494D01*
X132704833Y-50624544D01*
X132811251Y-50272894D01*
X133077903Y-49926410D01*
X133425887Y-49663996D01*
X133764969Y-49564408D01*
X134281526Y-49669522D01*
G37*
G36*
X129908356Y-30904000D02*
G01*
X130026274Y-31110368D01*
X130016738Y-31472323D01*
X129816851Y-31720335D01*
X129526538Y-31796921D01*
X129292824Y-31890375D01*
X128939958Y-32152540D01*
X128504368Y-32556123D01*
X128478312Y-32582307D01*
X127699907Y-33367693D01*
X127699907Y-34146346D01*
X127715017Y-34550532D01*
X127754412Y-34832024D01*
X127803220Y-34925000D01*
X127991641Y-34824755D01*
X128211509Y-34582467D01*
X128394998Y-34285805D01*
X128470958Y-34061916D01*
X128604077Y-33739930D01*
X128848587Y-33573198D01*
X129134913Y-33605172D01*
X129170104Y-33625258D01*
X129392197Y-33877926D01*
X129417321Y-34168931D01*
X129268983Y-34418226D01*
X128970689Y-34545767D01*
X128898650Y-34549630D01*
X128658379Y-34635733D01*
X128344936Y-34856068D01*
X128163232Y-35024117D01*
X127699907Y-35498605D01*
X127699907Y-38304326D01*
X127699907Y-41110047D01*
X128388085Y-40430418D01*
X129076262Y-39750789D01*
X129076262Y-38502130D01*
X129080226Y-37926542D01*
X129100590Y-37541312D01*
X129150061Y-37286581D01*
X129241348Y-37102490D01*
X129387157Y-36929177D01*
X129416800Y-36898026D01*
X129712930Y-36432375D01*
X129775724Y-36144417D01*
X130649697Y-36144417D01*
X130724974Y-36345876D01*
X130907861Y-36426477D01*
X131101690Y-36324974D01*
X131162953Y-36226165D01*
X131147736Y-36009309D01*
X130982901Y-35886667D01*
X130767650Y-35925740D01*
X130745778Y-35942290D01*
X130649697Y-36144417D01*
X129775724Y-36144417D01*
X129785751Y-36098433D01*
X129884587Y-35635220D01*
X130142275Y-35313011D01*
X130535776Y-35096087D01*
X131019836Y-35001498D01*
X131443296Y-35108292D01*
X131776792Y-35369564D01*
X131990957Y-35738405D01*
X132056429Y-36167911D01*
X131943840Y-36611175D01*
X131697808Y-36952260D01*
X131413248Y-37197390D01*
X131153750Y-37286209D01*
X130829631Y-37268380D01*
X130425735Y-37264470D01*
X130160935Y-37402275D01*
X130011766Y-37712444D01*
X129954765Y-38225625D01*
X129952124Y-38414572D01*
X129952124Y-39194293D01*
X130414098Y-39155459D01*
X130733864Y-39098551D01*
X130897237Y-38951629D01*
X130979133Y-38716135D01*
X131116846Y-38355474D01*
X131319455Y-38206180D01*
X131641138Y-38229606D01*
X131656005Y-38233277D01*
X131872638Y-38329492D01*
X131939550Y-38523663D01*
X131930421Y-38714268D01*
X131863365Y-39005367D01*
X131693491Y-39130410D01*
X131556601Y-39155333D01*
X131247991Y-39248876D01*
X131072068Y-39374299D01*
X130853681Y-39493337D01*
X130507047Y-39552817D01*
X130437296Y-39554556D01*
X130118124Y-39575539D01*
X129979283Y-39663572D01*
X129952124Y-39822329D01*
X129859139Y-40038476D01*
X129589232Y-40400038D01*
X129155970Y-40890148D01*
X128763454Y-41299968D01*
X128326955Y-41754714D01*
X127962535Y-42154301D01*
X127702756Y-42461508D01*
X127580176Y-42639114D01*
X127574784Y-42658796D01*
X127681433Y-42757641D01*
X127939380Y-42802874D01*
X128255628Y-42795126D01*
X128537178Y-42735026D01*
X128673583Y-42651354D01*
X128790941Y-42409054D01*
X128845307Y-42182142D01*
X128929783Y-41951226D01*
X129147422Y-41872709D01*
X129250310Y-41869335D01*
X129597896Y-41953642D01*
X129782410Y-42158655D01*
X129800596Y-42412514D01*
X129649196Y-42643355D01*
X129324952Y-42779317D01*
X129291764Y-42783905D01*
X128986865Y-42880456D01*
X128819851Y-43002870D01*
X128589839Y-43124737D01*
X128203258Y-43181595D01*
X128122518Y-43183128D01*
X127779715Y-43198272D01*
X127619662Y-43266846D01*
X127575567Y-43423564D01*
X127574784Y-43467786D01*
X127473238Y-43723529D01*
X127171095Y-44118884D01*
X126672093Y-44649002D01*
X126636360Y-44684605D01*
X125697937Y-45616766D01*
X125697937Y-49243240D01*
X125697937Y-52869714D01*
X126260991Y-52317118D01*
X126824045Y-51764522D01*
X126828479Y-50695746D01*
X126857667Y-50004596D01*
X126936223Y-49512888D01*
X127011730Y-49314162D01*
X127148419Y-48945905D01*
X127189084Y-48549419D01*
X127131222Y-48222214D01*
X127043011Y-48095504D01*
X126806412Y-47973854D01*
X126550858Y-47892208D01*
X126249272Y-47730936D01*
X126119684Y-47483053D01*
X126151187Y-47222439D01*
X126332873Y-47022975D01*
X126653837Y-46958542D01*
X126688212Y-46961777D01*
X126946536Y-47059329D01*
X127048293Y-47316836D01*
X127050438Y-47334316D01*
X127143981Y-47642926D01*
X127269404Y-47818849D01*
X127402561Y-48047366D01*
X127449661Y-48328498D01*
X127479962Y-48585461D01*
X127550239Y-48688546D01*
X127693861Y-48603807D01*
X127925993Y-48397430D01*
X128176334Y-48141173D01*
X128374585Y-47906797D01*
X128450646Y-47769445D01*
X128364569Y-47633233D01*
X128153033Y-47420331D01*
X128109401Y-47382031D01*
X127865587Y-47100392D01*
X127774092Y-46753093D01*
X127769043Y-46607387D01*
X128610560Y-46607387D01*
X128635875Y-46682602D01*
X128818709Y-46786608D01*
X129044737Y-46738353D01*
X129170141Y-46592799D01*
X129125976Y-46430776D01*
X128944168Y-46341824D01*
X128735302Y-46367314D01*
X128678360Y-46408813D01*
X128610560Y-46607387D01*
X127769043Y-46607387D01*
X127768156Y-46581786D01*
X127867213Y-46041635D01*
X128152377Y-45662439D01*
X128605633Y-45462454D01*
X128899265Y-45435344D01*
X129288624Y-45472382D01*
X129565161Y-45623957D01*
X129765735Y-45835073D01*
X129989258Y-46158517D01*
X130052553Y-46460756D01*
X130031328Y-46679654D01*
X129879441Y-47096081D01*
X129643540Y-47400032D01*
X129423664Y-47655589D01*
X129326736Y-47895839D01*
X129326508Y-47904758D01*
X129242644Y-48090935D01*
X129018045Y-48397174D01*
X128693206Y-48770970D01*
X128513208Y-48959337D01*
X128114940Y-49378010D01*
X127869470Y-49682626D01*
X127742836Y-49925691D01*
X127701077Y-50159713D01*
X127699907Y-50216762D01*
X127716378Y-50524294D01*
X127756633Y-50703562D01*
X127762631Y-50711533D01*
X127866129Y-50647462D01*
X128114986Y-50431076D01*
X128480136Y-50089497D01*
X128932512Y-49649848D01*
X129389232Y-49193713D01*
X130953109Y-47613171D01*
X130953109Y-46586962D01*
X130948915Y-46078371D01*
X130920371Y-45744778D01*
X130843531Y-45510933D01*
X130694451Y-45301589D01*
X130467259Y-45060118D01*
X130153597Y-44780914D01*
X129867496Y-44599180D01*
X129731840Y-44559482D01*
X129445999Y-44469282D01*
X129267219Y-44249986D01*
X129209606Y-43978549D01*
X129287262Y-43731927D01*
X129514291Y-43587078D01*
X129552361Y-43580173D01*
X129913621Y-43630327D01*
X130146954Y-43863118D01*
X130202370Y-44115061D01*
X130272240Y-44347448D01*
X130439949Y-44597780D01*
X130642647Y-44796476D01*
X130817487Y-44873958D01*
X130868549Y-44852581D01*
X130898013Y-44704034D01*
X130923009Y-44350952D01*
X130941579Y-43839033D01*
X130951769Y-43213974D01*
X130953109Y-42877391D01*
X130953109Y-40986761D01*
X131828971Y-40117610D01*
X132203452Y-39726002D01*
X132498026Y-39379899D01*
X132673308Y-39127693D01*
X132704833Y-39041459D01*
X132799738Y-38765399D01*
X133028270Y-38621344D01*
X133306151Y-38618247D01*
X133549107Y-38765063D01*
X133647194Y-38941345D01*
X133636928Y-39254009D01*
X133435184Y-39481926D01*
X133155369Y-39554556D01*
X132923785Y-39648565D01*
X132567408Y-39914850D01*
X132117176Y-40329803D01*
X132044581Y-40402278D01*
X131203355Y-41249999D01*
X131203355Y-42052288D01*
X131203355Y-42854577D01*
X131578725Y-42494950D01*
X131816167Y-42220385D01*
X131945899Y-41978808D01*
X131954094Y-41927879D01*
X132041165Y-41689472D01*
X132193932Y-41503385D01*
X132425744Y-41359514D01*
X132664081Y-41410337D01*
X132701924Y-41429846D01*
X132910265Y-41650061D01*
X132945114Y-41928414D01*
X132819686Y-42172324D01*
X132579710Y-42286004D01*
X132320443Y-42393846D01*
X131980647Y-42628539D01*
X131735129Y-42843829D01*
X131203355Y-43360354D01*
X131203355Y-45336273D01*
X131206453Y-46007544D01*
X131215009Y-46581052D01*
X131227918Y-47014645D01*
X131244073Y-47266169D01*
X131255185Y-47312192D01*
X131359167Y-47228598D01*
X131595740Y-47004113D01*
X131923997Y-46678182D01*
X132131047Y-46467664D01*
X132519087Y-46061389D01*
X132761613Y-45771555D01*
X132892514Y-45540142D01*
X132945681Y-45309127D01*
X132955080Y-45056897D01*
X132965367Y-44793349D01*
X133017679Y-44577548D01*
X133144192Y-44358119D01*
X133377080Y-44083688D01*
X133748519Y-43702878D01*
X133893503Y-43558497D01*
X134406393Y-43018766D01*
X134717808Y-42617904D01*
X134831292Y-42351291D01*
X134831927Y-42335464D01*
X134845464Y-42268976D01*
X135729476Y-42268976D01*
X135755336Y-42375819D01*
X135918148Y-42531406D01*
X136142832Y-42538428D01*
X136263865Y-42443680D01*
X136286046Y-42223521D01*
X136172379Y-42010253D01*
X136014594Y-41931896D01*
X135795735Y-42031505D01*
X135729476Y-42268976D01*
X134845464Y-42268976D01*
X134931878Y-41844536D01*
X135195766Y-41466564D01*
X135569645Y-41217333D01*
X135999568Y-41112628D01*
X136431589Y-41168232D01*
X136811761Y-41399931D01*
X137027483Y-41693060D01*
X137185753Y-42106208D01*
X137164748Y-42471019D01*
X137027483Y-42796348D01*
X136719189Y-43148463D01*
X136281135Y-43361606D01*
X135813000Y-43390346D01*
X135752425Y-43377494D01*
X135567702Y-43357862D01*
X135379812Y-43419321D01*
X135139903Y-43592244D01*
X134799122Y-43907003D01*
X134623888Y-44079163D01*
X134235435Y-44476790D01*
X133997963Y-44764188D01*
X133875862Y-44997883D01*
X133833524Y-45234402D01*
X133830942Y-45337887D01*
X133871010Y-45682489D01*
X133985840Y-45810426D01*
X133993233Y-45810714D01*
X134197321Y-45715262D01*
X134472615Y-45473586D01*
X134759359Y-45152704D01*
X134997798Y-44819631D01*
X135128176Y-44541387D01*
X135129342Y-44536541D01*
X135289205Y-44234950D01*
X135536405Y-44105319D01*
X135796888Y-44136697D01*
X135996603Y-44318133D01*
X136061497Y-44638678D01*
X136058204Y-44673895D01*
X135958012Y-44934874D01*
X135695271Y-45035159D01*
X135693529Y-45035363D01*
X135395292Y-45149278D01*
X135073944Y-45382541D01*
X135013223Y-45442013D01*
X134659985Y-45810714D01*
X135468770Y-45810714D01*
X136277555Y-45810714D01*
X137122410Y-44959335D01*
X137476573Y-44587605D01*
X137740986Y-44281260D01*
X137880987Y-44082141D01*
X137890936Y-44031628D01*
X137884022Y-43876879D01*
X137958284Y-43686838D01*
X138168721Y-43479879D01*
X138437633Y-43457156D01*
X138679668Y-43530671D01*
X138787362Y-43729054D01*
X138812628Y-43904106D01*
X138812522Y-44191785D01*
X138694400Y-44327357D01*
X138484015Y-44385863D01*
X138186291Y-44527347D01*
X137771431Y-44843681D01*
X137272507Y-45309560D01*
X137259379Y-45322766D01*
X136402678Y-46186083D01*
X135025443Y-46186083D01*
X133648208Y-46186083D01*
X132550905Y-47278302D01*
X132131354Y-47703278D01*
X131785854Y-48067280D01*
X131548654Y-48333204D01*
X131454004Y-48463950D01*
X131453602Y-48466972D01*
X131567419Y-48514641D01*
X131864916Y-48545045D01*
X132280161Y-48558742D01*
X132747224Y-48556290D01*
X133200174Y-48538245D01*
X133573080Y-48505165D01*
X133800010Y-48457607D01*
X133821206Y-48446965D01*
X133979407Y-48256736D01*
X134124419Y-47945780D01*
X134134014Y-47917108D01*
X134323843Y-47599296D01*
X134579878Y-47466858D01*
X134834031Y-47507285D01*
X135018215Y-47708067D01*
X135064341Y-48056696D01*
X135060497Y-48087324D01*
X134940296Y-48327261D01*
X134684679Y-48414447D01*
X134376070Y-48507990D01*
X134200147Y-48633412D01*
X134070987Y-48714779D01*
X133818008Y-48769073D01*
X133403250Y-48800423D01*
X132788754Y-48812958D01*
X132542805Y-48813670D01*
X131035063Y-48813670D01*
X129242362Y-50591091D01*
X128697513Y-51137954D01*
X128219330Y-51630639D01*
X127834643Y-52040445D01*
X127570284Y-52338672D01*
X127453082Y-52496620D01*
X127449661Y-52508689D01*
X127545773Y-52710960D01*
X127772894Y-52946019D01*
X128039205Y-53132767D01*
X128224424Y-53192980D01*
X128464820Y-53103731D01*
X128575769Y-53005295D01*
X128837198Y-52842379D01*
X129123025Y-52863626D01*
X129351267Y-53031904D01*
X129439944Y-53310079D01*
X129430683Y-53392523D01*
X129275347Y-53684239D01*
X128989999Y-53783106D01*
X128619275Y-53675498D01*
X128578768Y-53652586D01*
X128331025Y-53526888D01*
X128204581Y-53503113D01*
X128200400Y-53513104D01*
X128117657Y-53519358D01*
X127919924Y-53414297D01*
X127682939Y-53248609D01*
X127482445Y-53072981D01*
X127412163Y-52985599D01*
X127276495Y-52848038D01*
X127092784Y-52857688D01*
X126827823Y-53029966D01*
X126448401Y-53380290D01*
X126350559Y-53478442D01*
X125697937Y-54139273D01*
X125697937Y-56201675D01*
X125697937Y-58264078D01*
X124071336Y-59887069D01*
X122444735Y-61510059D01*
X122444735Y-69964413D01*
X122444735Y-78418767D01*
X122882666Y-78843226D01*
X123173422Y-79191738D01*
X123314468Y-79506110D01*
X123320597Y-79568309D01*
X123414706Y-79860559D01*
X123654599Y-80179335D01*
X123695966Y-80219581D01*
X123971111Y-80554366D01*
X124068224Y-80924646D01*
X124071336Y-81030145D01*
X124003274Y-81437859D01*
X123763889Y-81794909D01*
X123695966Y-81865432D01*
X123460346Y-82148784D01*
X123329835Y-82398457D01*
X123320597Y-82454845D01*
X123405240Y-82645393D01*
X123627375Y-82940971D01*
X123939315Y-83278291D01*
X123946213Y-83285098D01*
X124273152Y-83616266D01*
X124460116Y-83861202D01*
X124546219Y-84108454D01*
X124570578Y-84446573D01*
X124571828Y-84701366D01*
X124571828Y-85501424D01*
X125468836Y-86426513D01*
X126365844Y-87351601D01*
X127566454Y-87351601D01*
X128767065Y-87351601D01*
X130390055Y-88978202D01*
X132013045Y-90604803D01*
X132892331Y-90604803D01*
X133771617Y-90604803D01*
X135575907Y-92412317D01*
X136124273Y-92954131D01*
X136615311Y-93425014D01*
X137021283Y-93799533D01*
X137314454Y-94052252D01*
X137467087Y-94157737D01*
X137479831Y-94158255D01*
X137655568Y-94162649D01*
X137839796Y-94236003D01*
X138043007Y-94453896D01*
X138061347Y-94698381D01*
X137933566Y-95033368D01*
X137699972Y-95198216D01*
X137434122Y-95191176D01*
X137209577Y-95010498D01*
X137106398Y-94721088D01*
X136999292Y-94515632D01*
X136720991Y-94158996D01*
X136285921Y-93667836D01*
X135708508Y-93058805D01*
X135356351Y-92700615D01*
X133646610Y-90980172D01*
X132767266Y-90980172D01*
X131887922Y-90980172D01*
X130264932Y-89353571D01*
X128641942Y-87726970D01*
X127706416Y-87726970D01*
X126770891Y-87726970D01*
X127360522Y-88325603D01*
X127950154Y-88924236D01*
X127950154Y-89837911D01*
X127950154Y-90751585D01*
X128720725Y-91554056D01*
X129491297Y-92356527D01*
X130497774Y-92356527D01*
X131006272Y-92362402D01*
X131338316Y-92393898D01*
X131567653Y-92471821D01*
X131768030Y-92616976D01*
X131917501Y-92757066D01*
X132269824Y-93039377D01*
X132641297Y-93251907D01*
X132736759Y-93288839D01*
X133023195Y-93422648D01*
X133132237Y-93624378D01*
X133142764Y-93781806D01*
X133057128Y-94127665D01*
X132849184Y-94312561D01*
X132592384Y-94331418D01*
X132360178Y-94179159D01*
X132226016Y-93850708D01*
X132225238Y-93845226D01*
X132114343Y-93569966D01*
X131887024Y-93242858D01*
X131794043Y-93138546D01*
X131546307Y-92906415D01*
X131311043Y-92784481D01*
X130991517Y-92738050D01*
X130660168Y-92731896D01*
X129915824Y-92731896D01*
X130559590Y-93412584D01*
X130891488Y-93775358D01*
X131084013Y-94040796D01*
X131174919Y-94288335D01*
X131201961Y-94597413D01*
X131203355Y-94767127D01*
X131282090Y-95364276D01*
X131518461Y-95767143D01*
X131912715Y-95976006D01*
X132317520Y-96005197D01*
X132827014Y-96073002D01*
X133218119Y-96308225D01*
X133477226Y-96658709D01*
X133590723Y-97072301D01*
X133545000Y-97496847D01*
X133326447Y-97880192D01*
X132921452Y-98170181D01*
X132886466Y-98185346D01*
X132600592Y-98304517D01*
X132430189Y-98340740D01*
X132254376Y-98293296D01*
X131995227Y-98180038D01*
X131587515Y-97905084D01*
X131374563Y-97500615D01*
X131336868Y-97158418D01*
X132233466Y-97158418D01*
X132288457Y-97377728D01*
X132444829Y-97486285D01*
X132454587Y-97486576D01*
X132609088Y-97386153D01*
X132662813Y-97290481D01*
X132668096Y-97059190D01*
X132543659Y-96909151D01*
X132364374Y-96912639D01*
X132312850Y-96952648D01*
X132233466Y-97158418D01*
X131336868Y-97158418D01*
X131328479Y-97082264D01*
X131277702Y-96765205D01*
X131095570Y-96460130D01*
X130827986Y-96172783D01*
X130533874Y-95861292D01*
X130384597Y-95602498D01*
X130332282Y-95289456D01*
X130327493Y-95054698D01*
X130327493Y-94425332D01*
X129047217Y-93140683D01*
X128586431Y-92684636D01*
X128185670Y-92299863D01*
X127878743Y-92017920D01*
X127699456Y-91870363D01*
X127670862Y-91856034D01*
X127605670Y-91965601D01*
X127575105Y-92232752D01*
X127574784Y-92266299D01*
X127543732Y-92500487D01*
X127427871Y-92740029D01*
X127193148Y-93035855D01*
X126805507Y-93438895D01*
X126761484Y-93482635D01*
X126375294Y-93873303D01*
X126135686Y-94151365D01*
X126007846Y-94376606D01*
X125956961Y-94608811D01*
X125948183Y-94879272D01*
X125972614Y-95243897D01*
X126034544Y-95494032D01*
X126073306Y-95547167D01*
X126163685Y-95716430D01*
X126198429Y-95990099D01*
X126145671Y-96277542D01*
X125946179Y-96416988D01*
X125883997Y-96434617D01*
X125543169Y-96428303D01*
X125300878Y-96264720D01*
X125197431Y-96010518D01*
X125273136Y-95732348D01*
X125385129Y-95609729D01*
X125519755Y-95349989D01*
X125572272Y-94874268D01*
X125572814Y-94809033D01*
X125579991Y-94507506D01*
X125623493Y-94276921D01*
X125736274Y-94060686D01*
X125951288Y-93802210D01*
X126301489Y-93444902D01*
X126456452Y-93291595D01*
X127340090Y-92419088D01*
X127264499Y-91793472D01*
X127216349Y-91338976D01*
X127164552Y-90764006D01*
X127123007Y-90229433D01*
X127082533Y-89744324D01*
X127017878Y-89418645D01*
X126888857Y-89162092D01*
X126655283Y-88884360D01*
X126413076Y-88634113D01*
X126081270Y-88313928D01*
X125804857Y-88080115D01*
X125638404Y-87978382D01*
X125628897Y-87977216D01*
X125486396Y-88062208D01*
X125218614Y-88290533D01*
X124870627Y-88622221D01*
X124654918Y-88840913D01*
X124266925Y-89250014D01*
X124022708Y-89540827D01*
X123889109Y-89772028D01*
X123832965Y-90002294D01*
X123821117Y-90290299D01*
X123821089Y-90316339D01*
X123803782Y-90676229D01*
X123722313Y-90939921D01*
X123532363Y-91199614D01*
X123264439Y-91474380D01*
X122945289Y-91834563D01*
X122730080Y-92169435D01*
X122670104Y-92345013D01*
X122593217Y-92581671D01*
X122384422Y-92686655D01*
X122230062Y-92708223D01*
X121939423Y-92704090D01*
X121798037Y-92579262D01*
X121746878Y-92425071D01*
X121753717Y-92058560D01*
X121951062Y-91808997D01*
X122246319Y-91730911D01*
X122490430Y-91639884D01*
X122816020Y-91399232D01*
X123024796Y-91199138D01*
X123326290Y-90852668D01*
X123484874Y-90558785D01*
X123550212Y-90210267D01*
X123560897Y-90041748D01*
X123589773Y-89710717D01*
X123666609Y-89457339D01*
X123831582Y-89210045D01*
X124124867Y-88897269D01*
X124299858Y-88725380D01*
X124764512Y-88274355D01*
X125065977Y-87956072D01*
X125212068Y-87720569D01*
X125210602Y-87517882D01*
X125069393Y-87298051D01*
X124796257Y-87011113D01*
X124599003Y-86813048D01*
X124231293Y-86434528D01*
X124004069Y-86163237D01*
X123881590Y-85928734D01*
X123828113Y-85660579D01*
X123807895Y-85288329D01*
X123806626Y-85251406D01*
X123767252Y-84800635D01*
X123692410Y-84429781D01*
X123616693Y-84250421D01*
X123501327Y-84126467D01*
X123457164Y-84202682D01*
X123449699Y-84389214D01*
X123376763Y-84671063D01*
X123147465Y-85024085D01*
X122769645Y-85452761D01*
X122438884Y-85833404D01*
X122185014Y-86187805D01*
X122055997Y-86447765D01*
X122050187Y-86475739D01*
X121965596Y-86706669D01*
X121747844Y-86785179D01*
X121645071Y-86788546D01*
X121299392Y-86702952D01*
X121114449Y-86495122D01*
X121095322Y-86238482D01*
X121247088Y-86006460D01*
X121574825Y-85872482D01*
X121581651Y-85871519D01*
X121824669Y-85765149D01*
X122160240Y-85528750D01*
X122476016Y-85250607D01*
X122805836Y-84908431D01*
X122985934Y-84646543D01*
X123059362Y-84385668D01*
X123070351Y-84156194D01*
X123014926Y-83724996D01*
X122818566Y-83408329D01*
X122757543Y-83347660D01*
X122499332Y-82968003D01*
X122444735Y-82613237D01*
X122338368Y-82136090D01*
X122119415Y-81833122D01*
X121853803Y-81420867D01*
X121799928Y-81070787D01*
X122637390Y-81070787D01*
X122653244Y-81167153D01*
X122814047Y-81327134D01*
X123024555Y-81304664D01*
X123153453Y-81149594D01*
X123148146Y-80905974D01*
X123092268Y-80817064D01*
X122906224Y-80764620D01*
X122724074Y-80873535D01*
X122637390Y-81070787D01*
X121799928Y-81070787D01*
X121794094Y-81032881D01*
X121889439Y-80557235D01*
X122119415Y-80232641D01*
X122331523Y-79986157D01*
X122440762Y-79810184D01*
X122444735Y-79789968D01*
X122367157Y-79645684D01*
X122168496Y-79388418D01*
X122006804Y-79202119D01*
X121568873Y-78717382D01*
X121568873Y-69930783D01*
X121568873Y-61144185D01*
X122464822Y-60242215D01*
X123360772Y-59340246D01*
X122965315Y-58889845D01*
X122730996Y-58590879D01*
X122589186Y-58348041D01*
X122569858Y-58275506D01*
X122464402Y-58035726D01*
X122213381Y-57817953D01*
X121914813Y-57701551D01*
X121855868Y-57697413D01*
X121567532Y-57607746D01*
X121385968Y-57389558D01*
X121325673Y-57119065D01*
X121401145Y-56872486D01*
X121626880Y-56726040D01*
X121669602Y-56718104D01*
X122033109Y-56768990D01*
X122264984Y-57007257D01*
X122319612Y-57267419D01*
X122368081Y-57526259D01*
X122444735Y-57634852D01*
X122531173Y-57583480D01*
X122569366Y-57332793D01*
X122569858Y-57291412D01*
X122507136Y-56940438D01*
X122287695Y-56607698D01*
X122131927Y-56446182D01*
X121866214Y-56158019D01*
X121736568Y-55893620D01*
X121695913Y-55537056D01*
X121693996Y-55367715D01*
X121670918Y-54940820D01*
X121574527Y-54650327D01*
X121364083Y-54384521D01*
X121318626Y-54338338D01*
X121011585Y-53885782D01*
X120961941Y-53585921D01*
X121848869Y-53585921D01*
X121861139Y-53622500D01*
X122009827Y-53802869D01*
X122211591Y-53743022D01*
X122305834Y-53647512D01*
X122373063Y-53465889D01*
X122253290Y-53314983D01*
X122028927Y-53239162D01*
X121867489Y-53350359D01*
X121848869Y-53585921D01*
X120961941Y-53585921D01*
X120932709Y-53409350D01*
X121074588Y-52960104D01*
X121429809Y-52589111D01*
X121586058Y-52495916D01*
X122082716Y-52364522D01*
X122569645Y-52479631D01*
X122913947Y-52723573D01*
X123147021Y-53096588D01*
X123208013Y-53557194D01*
X123098734Y-54013025D01*
X122882666Y-54319088D01*
X122607853Y-54729890D01*
X122552327Y-55204117D01*
X122712490Y-55691410D01*
X123007789Y-56070812D01*
X123244564Y-56318065D01*
X123375865Y-56537625D01*
X123432587Y-56817951D01*
X123445623Y-57247506D01*
X123445720Y-57324778D01*
X123459169Y-57800088D01*
X123513094Y-58103575D01*
X123627862Y-58312852D01*
X123734616Y-58425688D01*
X124023512Y-58697092D01*
X124422793Y-58285138D01*
X124750984Y-57831804D01*
X124835381Y-57388026D01*
X124674972Y-56936067D01*
X124321582Y-56508743D01*
X124041803Y-56192393D01*
X123858370Y-55902384D01*
X123817110Y-55763892D01*
X123739396Y-55459721D01*
X123629425Y-55264878D01*
X123461983Y-54909589D01*
X123513752Y-54608691D01*
X123695966Y-54444211D01*
X124015926Y-54378733D01*
X124196459Y-54444211D01*
X124405190Y-54643170D01*
X124414633Y-54931484D01*
X124231339Y-55333241D01*
X124108186Y-55565085D01*
X124103416Y-55729350D01*
X124239365Y-55917386D01*
X124419023Y-56100880D01*
X124822075Y-56503931D01*
X124822075Y-54685625D01*
X124822075Y-52867319D01*
X124259021Y-52330694D01*
X123961204Y-52014663D01*
X123757110Y-51736516D01*
X123695966Y-51582767D01*
X123611341Y-51405322D01*
X123384845Y-51108498D01*
X123057546Y-50743670D01*
X122882666Y-50565394D01*
X122069365Y-49759322D01*
X122069365Y-48973688D01*
X122053162Y-48567482D01*
X122010886Y-48283661D01*
X121957629Y-48188054D01*
X121811338Y-48085129D01*
X121756046Y-47845690D01*
X121813656Y-47573741D01*
X121823970Y-47553374D01*
X122046380Y-47359783D01*
X122347000Y-47324918D01*
X122613583Y-47449848D01*
X122685731Y-47545153D01*
X122733185Y-47819542D01*
X122631551Y-48014365D01*
X122522226Y-48288535D01*
X122457965Y-48715105D01*
X122448714Y-48943496D01*
X122456837Y-49318294D01*
X122512987Y-49582117D01*
X122656944Y-49818737D01*
X122928487Y-50111923D01*
X123070351Y-50252586D01*
X123395156Y-50565797D01*
X123582377Y-50718013D01*
X123668980Y-50727555D01*
X123691933Y-50612746D01*
X123691987Y-50560690D01*
X123619541Y-50221873D01*
X123517537Y-50027805D01*
X123399418Y-49714041D01*
X123478802Y-49433097D01*
X123705156Y-49250976D01*
X124027946Y-49233679D01*
X124106596Y-49258438D01*
X124339989Y-49457280D01*
X124372613Y-49760928D01*
X124261859Y-50015568D01*
X124138464Y-50351389D01*
X124075941Y-50849071D01*
X124071336Y-51039673D01*
X124090184Y-51493804D01*
X124163229Y-51785359D01*
X124315224Y-52000272D01*
X124360927Y-52045061D01*
X124587167Y-52234670D01*
X124733786Y-52317012D01*
X124736297Y-52317118D01*
X124768019Y-52199697D01*
X124794443Y-51878210D01*
X124813162Y-51398822D01*
X124821775Y-50807695D01*
X124822075Y-50669863D01*
X124822075Y-49022608D01*
X124071336Y-48240791D01*
X123688701Y-47824372D01*
X123459031Y-47518339D01*
X123347856Y-47267268D01*
X123320597Y-47033623D01*
X123232146Y-46668398D01*
X123009732Y-46311008D01*
X122717762Y-46040491D01*
X122426000Y-45935837D01*
X122199725Y-45849280D01*
X122016223Y-45695999D01*
X121887153Y-45408244D01*
X121962187Y-45136875D01*
X122203323Y-44961583D01*
X122379191Y-44934852D01*
X122654685Y-44985283D01*
X122811007Y-45177376D01*
X122887257Y-45459183D01*
X123016833Y-45773848D01*
X123130409Y-45924397D01*
X123218745Y-45988997D01*
X123274753Y-45944168D01*
X123305600Y-45752634D01*
X123318453Y-45377117D01*
X123320597Y-44935119D01*
X123320597Y-43755654D01*
X122788823Y-43214076D01*
X122257050Y-42672497D01*
X122214494Y-41440718D01*
X122171937Y-40208938D01*
X121682720Y-39731231D01*
X121380589Y-39400696D01*
X121233829Y-39118347D01*
X121193596Y-38787732D01*
X121193503Y-38765151D01*
X121139929Y-38363252D01*
X120949852Y-38088326D01*
X120890302Y-38038281D01*
X120595904Y-37659833D01*
X120480478Y-37177636D01*
X120483964Y-37157339D01*
X121340864Y-37157339D01*
X121359028Y-37227150D01*
X121528206Y-37399952D01*
X121757702Y-37401932D01*
X121889101Y-37290332D01*
X121883512Y-37100706D01*
X121802643Y-36982050D01*
X121587741Y-36886727D01*
X121402413Y-36962506D01*
X121340864Y-37157339D01*
X120483964Y-37157339D01*
X120565536Y-36682438D01*
X120567674Y-36677238D01*
X120823987Y-36336533D01*
X121220740Y-36086422D01*
X121657830Y-35978778D01*
X121877244Y-35998613D01*
X122207104Y-36171943D01*
X122523128Y-36477725D01*
X122750905Y-36829547D01*
X122819637Y-37092974D01*
X122759369Y-37366032D01*
X122611993Y-37691817D01*
X122426518Y-37984998D01*
X122251958Y-38160241D01*
X122196328Y-38178202D01*
X122104778Y-38286307D01*
X122069365Y-38528178D01*
X122162502Y-38864388D01*
X122456927Y-39252281D01*
X122569858Y-39366872D01*
X122862476Y-39675513D01*
X123011602Y-39931806D01*
X123064754Y-40245076D01*
X123070351Y-40518373D01*
X123087953Y-40887294D01*
X123133205Y-41127919D01*
X123173663Y-41181157D01*
X123323524Y-41098413D01*
X123542360Y-40898636D01*
X123549032Y-40891566D01*
X123671816Y-40736688D01*
X123751172Y-40549566D01*
X123796341Y-40275199D01*
X123816565Y-39858588D01*
X123821089Y-39272349D01*
X123809868Y-38700913D01*
X123779235Y-38242070D01*
X123733735Y-37946928D01*
X123695966Y-37865394D01*
X123584101Y-37671202D01*
X123589809Y-37387697D01*
X123700452Y-37139266D01*
X123776300Y-37074672D01*
X124094247Y-37005218D01*
X124377598Y-37112179D01*
X124507960Y-37298222D01*
X124528228Y-37574284D01*
X124450466Y-37820539D01*
X124309264Y-37927950D01*
X124308195Y-37927955D01*
X124263834Y-38044752D01*
X124227812Y-38361918D01*
X124204070Y-38829612D01*
X124196459Y-39340820D01*
X124196459Y-40753684D01*
X123633405Y-41306280D01*
X123338534Y-41620573D01*
X123134702Y-41885424D01*
X123070351Y-42025870D01*
X123150879Y-42197754D01*
X123361234Y-42482898D01*
X123633405Y-42794814D01*
X124196459Y-43396764D01*
X124196459Y-45270106D01*
X124197694Y-45991249D01*
X124205767Y-46505598D01*
X124227232Y-46856602D01*
X124268645Y-47087714D01*
X124336558Y-47242384D01*
X124437526Y-47364064D01*
X124524785Y-47446785D01*
X124853110Y-47750123D01*
X124806312Y-43871305D01*
X124759513Y-39992487D01*
X125260006Y-39992487D01*
X125760498Y-39992487D01*
X125716810Y-42150862D01*
X125706057Y-43046736D01*
X125714659Y-43707070D01*
X125742446Y-44127505D01*
X125789246Y-44303680D01*
X125801543Y-44309236D01*
X125950395Y-44220016D01*
X126183435Y-43993354D01*
X126314443Y-43842796D01*
X126563205Y-43487715D01*
X126675543Y-43139516D01*
X126698922Y-42738499D01*
X126725536Y-42307397D01*
X126828044Y-42021741D01*
X127011730Y-41806773D01*
X127131571Y-41685516D01*
X127216083Y-41555234D01*
X127271433Y-41372835D01*
X127303787Y-41095223D01*
X127319312Y-40679304D01*
X127324174Y-40081984D01*
X127324538Y-39620701D01*
X127324538Y-37728496D01*
X126825792Y-37241484D01*
X126511993Y-36964595D01*
X126239504Y-36774388D01*
X126119166Y-36723962D01*
X125818433Y-36588497D01*
X125648603Y-36340426D01*
X125627474Y-36058611D01*
X125772841Y-35821913D01*
X125899449Y-35750308D01*
X126200820Y-35749506D01*
X126458235Y-35924432D01*
X126573525Y-36206509D01*
X126573799Y-36221384D01*
X126653402Y-36470682D01*
X126843267Y-36753006D01*
X127069978Y-36976639D01*
X127238760Y-37052093D01*
X127268553Y-36934170D01*
X127293851Y-36609172D01*
X127312689Y-36120260D01*
X127323103Y-35510594D01*
X127324538Y-35167449D01*
X127324538Y-33282805D01*
X128200400Y-32387639D01*
X128572167Y-31988830D01*
X128865601Y-31638185D01*
X129042247Y-31383700D01*
X129076262Y-31294353D01*
X129168857Y-31008003D01*
X129392522Y-30837013D01*
X129666081Y-30797105D01*
X129908356Y-30904000D01*
G37*
G36*
X121822690Y-26648981D02*
G01*
X122070438Y-26804086D01*
X122098730Y-26842037D01*
X122186752Y-27150314D01*
X122060229Y-27417599D01*
X121754394Y-27587577D01*
X121616311Y-27613143D01*
X121317852Y-27729135D01*
X120921198Y-28030326D01*
X120475975Y-28459647D01*
X119692025Y-29267030D01*
X119692025Y-30031483D01*
X119703370Y-30431538D01*
X119732901Y-30708250D01*
X119768232Y-30795936D01*
X119955697Y-30698485D01*
X120179163Y-30466474D01*
X120365244Y-30190414D01*
X120440603Y-29966675D01*
X120531710Y-29674260D01*
X120749499Y-29488685D01*
X121018977Y-29424937D01*
X121265147Y-29498001D01*
X121413015Y-29722861D01*
X121422074Y-29770557D01*
X121371531Y-30133001D01*
X121135918Y-30365593D01*
X120879934Y-30420566D01*
X120607188Y-30520749D01*
X120267779Y-30793038D01*
X120144516Y-30921419D01*
X119912189Y-31192964D01*
X119777035Y-31421998D01*
X119712806Y-31691996D01*
X119693252Y-32086429D01*
X119692025Y-32360335D01*
X119703759Y-32808803D01*
X119734797Y-33140519D01*
X119778893Y-33294326D01*
X119787824Y-33298399D01*
X119903820Y-33214067D01*
X120163988Y-32980682D01*
X120537074Y-32627657D01*
X120991829Y-32184404D01*
X121351863Y-31826322D01*
X121897500Y-31275153D01*
X122288947Y-30865004D01*
X122551479Y-30562496D01*
X122710370Y-30334249D01*
X122790896Y-30146882D01*
X122818332Y-29967017D01*
X122820104Y-29887274D01*
X122881800Y-29491910D01*
X123097244Y-29115773D01*
X123233926Y-28950729D01*
X123510347Y-28560415D01*
X123626829Y-28273323D01*
X124592948Y-28273323D01*
X124603652Y-28489030D01*
X124752836Y-28526627D01*
X124780633Y-28521856D01*
X124972158Y-28376371D01*
X125009759Y-28229197D01*
X124938833Y-28025253D01*
X124785592Y-27993977D01*
X124639347Y-28125914D01*
X124592948Y-28273323D01*
X123626829Y-28273323D01*
X123661135Y-28188769D01*
X123672895Y-28107594D01*
X123811365Y-27661221D01*
X124117509Y-27331860D01*
X124527990Y-27140312D01*
X124979469Y-27107378D01*
X125408609Y-27253860D01*
X125648655Y-27458712D01*
X125903768Y-27927408D01*
X125927126Y-28431885D01*
X125718821Y-28913748D01*
X125646209Y-29005953D01*
X125412428Y-29227351D01*
X125145882Y-29330866D01*
X124740511Y-29357007D01*
X124727016Y-29357019D01*
X124201697Y-29407021D01*
X123877255Y-29573849D01*
X123721687Y-29882733D01*
X123695966Y-30169883D01*
X123668175Y-30454768D01*
X123557078Y-30705703D01*
X123321089Y-30994233D01*
X123070351Y-31246192D01*
X122758923Y-31561263D01*
X122534852Y-31812687D01*
X122444883Y-31947863D01*
X122444735Y-31950127D01*
X122556297Y-32009167D01*
X122837140Y-32043571D01*
X122981737Y-32047167D01*
X123317046Y-32022405D01*
X123581964Y-31917490D01*
X123867570Y-31686475D01*
X124045284Y-31510658D01*
X124328220Y-31189702D01*
X124519352Y-30910361D01*
X124571828Y-30767014D01*
X124679505Y-30503534D01*
X124934030Y-30318349D01*
X125232642Y-30271881D01*
X125349411Y-30309809D01*
X125549258Y-30526452D01*
X125557474Y-30804019D01*
X125393569Y-31069115D01*
X125101946Y-31240720D01*
X124784177Y-31403220D01*
X124402346Y-31680382D01*
X124158787Y-31897617D01*
X123866490Y-32173075D01*
X123634669Y-32330018D01*
X123373824Y-32401765D01*
X122994454Y-32421638D01*
X122748854Y-32422537D01*
X121873775Y-32422537D01*
X120845462Y-33465772D01*
X120387133Y-33941980D01*
X120084485Y-34290170D01*
X119908407Y-34551077D01*
X119829791Y-34765431D01*
X119817149Y-34904689D01*
X119856146Y-35194034D01*
X119993888Y-35297212D01*
X120042001Y-35300369D01*
X120280246Y-35205065D01*
X120581352Y-34965970D01*
X120878483Y-34653308D01*
X121104807Y-34337302D01*
X121193503Y-34090463D01*
X121292858Y-33776420D01*
X121540111Y-33601933D01*
X121806714Y-33607269D01*
X122055014Y-33784299D01*
X122146128Y-34049760D01*
X122089409Y-34319438D01*
X121894206Y-34509114D01*
X121702085Y-34549630D01*
X121486513Y-34634918D01*
X121209915Y-34847352D01*
X121130942Y-34925000D01*
X120771315Y-35300369D01*
X121580359Y-35300369D01*
X122389402Y-35300369D01*
X123167808Y-34514983D01*
X123552924Y-34096340D01*
X123822608Y-33741642D01*
X123943005Y-33496476D01*
X123946213Y-33466757D01*
X124042073Y-33147347D01*
X124275566Y-32972461D01*
X124565556Y-32965113D01*
X124830910Y-33148317D01*
X124870585Y-33204556D01*
X124927101Y-33491235D01*
X124787721Y-33753742D01*
X124498828Y-33905273D01*
X124495856Y-33905838D01*
X124307814Y-34008461D01*
X123995147Y-34248257D01*
X123608956Y-34584227D01*
X123365213Y-34812981D01*
X122471406Y-35675738D01*
X121182405Y-35675738D01*
X120596421Y-35679448D01*
X120202392Y-35698539D01*
X119942048Y-35744960D01*
X119757123Y-35830655D01*
X119589347Y-35967570D01*
X119542468Y-36011956D01*
X119388700Y-36169673D01*
X119288019Y-36326634D01*
X119229193Y-36537559D01*
X119200991Y-36857167D01*
X119192182Y-37340177D01*
X119191533Y-37721772D01*
X119191533Y-39095372D01*
X118440794Y-39877188D01*
X117690055Y-40659005D01*
X117690055Y-42796928D01*
X117695576Y-43496835D01*
X117710880Y-44100611D01*
X117734077Y-44567736D01*
X117763275Y-44857687D01*
X117789785Y-44934852D01*
X117926559Y-44852203D01*
X118169755Y-44640197D01*
X118352839Y-44460364D01*
X118633466Y-44142807D01*
X118770771Y-43866153D01*
X118814081Y-43511593D01*
X118816163Y-43344396D01*
X118766725Y-42830318D01*
X118637395Y-42398617D01*
X118602371Y-42330403D01*
X118469747Y-42052538D01*
X118480260Y-41869262D01*
X118560380Y-41750883D01*
X118819179Y-41587417D01*
X119112978Y-41589477D01*
X119346089Y-41738812D01*
X119421092Y-41915046D01*
X119401697Y-42200627D01*
X119327250Y-42346721D01*
X119244508Y-42547198D01*
X119196443Y-42891490D01*
X119191533Y-43046519D01*
X119191533Y-43610600D01*
X119754587Y-43058005D01*
X120317641Y-42505409D01*
X120317641Y-41280229D01*
X120306574Y-40760561D01*
X120276764Y-40350399D01*
X120233297Y-40103143D01*
X120200950Y-40055049D01*
X120066835Y-39949087D01*
X119989083Y-39705327D01*
X119998990Y-39434961D01*
X120013555Y-39389262D01*
X120210363Y-39170450D01*
X120505007Y-39094947D01*
X120761577Y-39184170D01*
X120900710Y-39413074D01*
X120938790Y-39708116D01*
X120867251Y-39946900D01*
X120818134Y-39992487D01*
X120764384Y-40144381D01*
X120722546Y-40492182D01*
X120697683Y-40981647D01*
X120693011Y-41333788D01*
X120693011Y-42597758D01*
X119191533Y-44116518D01*
X117690055Y-45635277D01*
X117690055Y-49330713D01*
X117692834Y-50268491D01*
X117700694Y-51124392D01*
X117712920Y-51866639D01*
X117728795Y-52463453D01*
X117747603Y-52883058D01*
X117768629Y-53093674D01*
X117775222Y-53111316D01*
X117909235Y-53088445D01*
X118138239Y-52926665D01*
X118213153Y-52858514D01*
X118373125Y-52693270D01*
X118475575Y-52528537D01*
X118533299Y-52306107D01*
X118559089Y-51967772D01*
X118565741Y-51455325D01*
X118565917Y-51253571D01*
X118568864Y-50677357D01*
X118586737Y-50292664D01*
X118633089Y-50040771D01*
X118721470Y-49862954D01*
X118865432Y-49700493D01*
X118941287Y-49626970D01*
X119219636Y-49319655D01*
X119297544Y-49087336D01*
X119183888Y-48867866D01*
X119066410Y-48751108D01*
X118875312Y-48482579D01*
X118816163Y-48256247D01*
X118756837Y-47975400D01*
X118680447Y-47852140D01*
X118589677Y-47630961D01*
X118586604Y-47420465D01*
X118723982Y-47182069D01*
X118987150Y-47077367D01*
X119279558Y-47125217D01*
X119444494Y-47252901D01*
X119539323Y-47426513D01*
X119504991Y-47634937D01*
X119390474Y-47870592D01*
X119264713Y-48249041D01*
X119292879Y-48557844D01*
X119438827Y-48753610D01*
X119666412Y-48792949D01*
X119939491Y-48632468D01*
X119985441Y-48584852D01*
X120092569Y-48402694D01*
X120157226Y-48110898D01*
X120187479Y-47657042D01*
X120192518Y-47239372D01*
X120188209Y-46702104D01*
X120164276Y-46350364D01*
X120104209Y-46119454D01*
X119991497Y-45944675D01*
X119817149Y-45768421D01*
X119515807Y-45337369D01*
X119440784Y-44934852D01*
X120317641Y-44934852D01*
X120406117Y-45143971D01*
X120567888Y-45185098D01*
X120777007Y-45096623D01*
X120818134Y-44934852D01*
X120729658Y-44725733D01*
X120567888Y-44684605D01*
X120358768Y-44773081D01*
X120317641Y-44934852D01*
X119440784Y-44934852D01*
X119425797Y-44854443D01*
X119549822Y-44385085D01*
X119748900Y-44115864D01*
X120165022Y-43861345D01*
X120653889Y-43798643D01*
X121127526Y-43927757D01*
X121386875Y-44115864D01*
X121642094Y-44528750D01*
X121702617Y-45005918D01*
X121568631Y-45463013D01*
X121383350Y-45703739D01*
X121245880Y-45849524D01*
X121156190Y-46010406D01*
X121104018Y-46240572D01*
X121079103Y-46594209D01*
X121071185Y-47125506D01*
X121070542Y-47355638D01*
X121068380Y-48712878D01*
X120255080Y-49555311D01*
X119874398Y-49955943D01*
X119636002Y-50240055D01*
X119506624Y-50469462D01*
X119452995Y-50705978D01*
X119441844Y-51011419D01*
X119441779Y-51066434D01*
X119441779Y-51735123D01*
X119754587Y-51441256D01*
X119969683Y-51178181D01*
X120066916Y-50938766D01*
X120067395Y-50926047D01*
X120174415Y-50653473D01*
X120428282Y-50463160D01*
X120728208Y-50416210D01*
X120844978Y-50454637D01*
X121044313Y-50671278D01*
X121052696Y-50949262D01*
X120889546Y-51214409D01*
X120601612Y-51384224D01*
X120214599Y-51574005D01*
X119848151Y-51858626D01*
X119568867Y-52174740D01*
X119443347Y-52458995D01*
X119441779Y-52487458D01*
X119357703Y-52681454D01*
X119130439Y-52999389D01*
X118797434Y-53392015D01*
X118565917Y-53639383D01*
X117690055Y-54542663D01*
X117690055Y-56666219D01*
X117692181Y-57450139D01*
X117701450Y-58024752D01*
X117722203Y-58430982D01*
X117758779Y-58709751D01*
X117815517Y-58901982D01*
X117896757Y-59048600D01*
X117950321Y-59120648D01*
X118155810Y-59324818D01*
X118313417Y-59385696D01*
X118325690Y-59380384D01*
X118390651Y-59221234D01*
X118427924Y-58897323D01*
X118437989Y-58492542D01*
X118421329Y-58090785D01*
X118378425Y-57775945D01*
X118315671Y-57634852D01*
X118218532Y-57462239D01*
X118190548Y-57254482D01*
X118271600Y-56992114D01*
X118504980Y-56872525D01*
X118845808Y-56878839D01*
X119088099Y-57042422D01*
X119191546Y-57296624D01*
X119115841Y-57574794D01*
X119003848Y-57697413D01*
X118872413Y-57939029D01*
X118819011Y-58334046D01*
X118818862Y-58369631D01*
X118821562Y-58886083D01*
X119462223Y-58219888D01*
X120102884Y-57553693D01*
X120019703Y-56471546D01*
X119968630Y-55967637D01*
X119904189Y-55557456D01*
X119837589Y-55306723D01*
X119814274Y-55267150D01*
X119698589Y-55002715D01*
X119735470Y-54691503D01*
X119907550Y-54463383D01*
X119922927Y-54454564D01*
X120195551Y-54408675D01*
X120423420Y-54519819D01*
X120658240Y-54775315D01*
X120645451Y-55032860D01*
X120505326Y-55194950D01*
X120413837Y-55334238D01*
X120355839Y-55597857D01*
X120325675Y-56028622D01*
X120317641Y-56614964D01*
X120317641Y-57879213D01*
X119412747Y-58790187D01*
X118507853Y-59701161D01*
X119220881Y-60414189D01*
X119933909Y-61127217D01*
X120250898Y-60829421D01*
X120440920Y-60578021D01*
X120552361Y-60295649D01*
X120567423Y-60060483D01*
X120468307Y-59950702D01*
X120451196Y-59949630D01*
X120311269Y-59846061D01*
X120244864Y-59609846D01*
X120271652Y-59352721D01*
X120327875Y-59249122D01*
X120580474Y-59098093D01*
X120872421Y-59111115D01*
X121103264Y-59266413D01*
X121172816Y-59432288D01*
X121153421Y-59717868D01*
X121078974Y-59863963D01*
X120969185Y-60091062D01*
X120943257Y-60283109D01*
X120863273Y-60549549D01*
X120662803Y-60877404D01*
X120572528Y-60988776D01*
X120201798Y-61411013D01*
X120635089Y-61830975D01*
X121068380Y-62250937D01*
X121068380Y-70644320D01*
X121068380Y-79037702D01*
X120689859Y-79452130D01*
X120311338Y-79866558D01*
X120689859Y-80297669D01*
X120920969Y-80613684D01*
X121054920Y-80899028D01*
X121068380Y-80980887D01*
X120991248Y-81349401D01*
X120799690Y-81715085D01*
X120553464Y-81977182D01*
X120444137Y-82033431D01*
X120240561Y-82203056D01*
X120192518Y-82468391D01*
X120094063Y-82833028D01*
X119821992Y-83264960D01*
X119767261Y-83332490D01*
X119545323Y-83615192D01*
X119419950Y-83854782D01*
X119366066Y-84138799D01*
X119358595Y-84554782D01*
X119362272Y-84746284D01*
X119361746Y-85248022D01*
X119321694Y-85578439D01*
X119225624Y-85815398D01*
X119099352Y-85987628D01*
X118936501Y-86231504D01*
X118849562Y-86525871D01*
X118817959Y-86955225D01*
X118816163Y-87150554D01*
X118825388Y-87606353D01*
X118876269Y-87906280D01*
X119003616Y-88144615D01*
X119242239Y-88415640D01*
X119308645Y-88484399D01*
X119647291Y-88781419D01*
X119982712Y-88993902D01*
X120150562Y-89055232D01*
X120517534Y-89202779D01*
X120681348Y-89447538D01*
X120623645Y-89744255D01*
X120496389Y-89907688D01*
X120200174Y-90081564D01*
X119927674Y-90024412D01*
X119716075Y-89755087D01*
X119627209Y-89466986D01*
X119512569Y-89228723D01*
X119270330Y-88898991D01*
X119006319Y-88605341D01*
X118440794Y-88031182D01*
X118440794Y-87087586D01*
X118449540Y-86588935D01*
X118487844Y-86268667D01*
X118573806Y-86055182D01*
X118725525Y-85876879D01*
X118753602Y-85850123D01*
X118947687Y-85618282D01*
X119041381Y-85336713D01*
X119066389Y-84908096D01*
X119066410Y-84889888D01*
X119049776Y-84519821D01*
X119006995Y-84277865D01*
X118968293Y-84223522D01*
X118838822Y-84306555D01*
X118587503Y-84525758D01*
X118265280Y-84836289D01*
X118217554Y-84884353D01*
X117564932Y-85545184D01*
X117564932Y-86482282D01*
X117564932Y-87419380D01*
X116438823Y-88540271D01*
X116012765Y-88974173D01*
X115660605Y-89351514D01*
X115416315Y-89634516D01*
X115313867Y-89785404D01*
X115312715Y-89792508D01*
X115396459Y-89933386D01*
X115620757Y-90200549D01*
X115945206Y-90547429D01*
X116126016Y-90729926D01*
X116516704Y-91127647D01*
X116758100Y-91413065D01*
X116885358Y-91642995D01*
X116933632Y-91874255D01*
X116939316Y-92044378D01*
X116960744Y-92334868D01*
X117051894Y-92577847D01*
X117253068Y-92843942D01*
X117596213Y-93195611D01*
X117963430Y-93519853D01*
X118307425Y-93764157D01*
X118556661Y-93878071D01*
X118565917Y-93879514D01*
X118796565Y-93961737D01*
X118875215Y-94177186D01*
X118878725Y-94282299D01*
X118793581Y-94628640D01*
X118586865Y-94813460D01*
X118331655Y-94832512D01*
X118101027Y-94681549D01*
X117968055Y-94356326D01*
X117965276Y-94335375D01*
X117856109Y-94087338D01*
X117601772Y-93739217D01*
X117247672Y-93353116D01*
X117245818Y-93351284D01*
X116890875Y-92985393D01*
X116685026Y-92716577D01*
X116589135Y-92477008D01*
X116564066Y-92198858D01*
X116563947Y-92169502D01*
X116546464Y-91904112D01*
X116470100Y-91676910D01*
X116298980Y-91429117D01*
X115997227Y-91101955D01*
X115778560Y-90882715D01*
X115418173Y-90535033D01*
X115122561Y-90267449D01*
X114937232Y-90120407D01*
X114902698Y-90104310D01*
X114874370Y-90222987D01*
X114849671Y-90553249D01*
X114830089Y-91056444D01*
X114817112Y-91693921D01*
X114812229Y-92427029D01*
X114812222Y-92454286D01*
X114812222Y-94804262D01*
X114065076Y-95543613D01*
X113686522Y-95934744D01*
X113469105Y-96210276D01*
X113382808Y-96416115D01*
X113391072Y-96574391D01*
X113383438Y-96999534D01*
X113197587Y-97427256D01*
X112882621Y-97755499D01*
X112798842Y-97805284D01*
X112342850Y-97965632D01*
X111930447Y-97919537D01*
X111697916Y-97812458D01*
X111359863Y-97518259D01*
X111125716Y-97117545D01*
X111062962Y-96823466D01*
X111067425Y-96804538D01*
X111957899Y-96804538D01*
X111976410Y-96915111D01*
X112145477Y-97084950D01*
X112375389Y-97084588D01*
X112504865Y-96974076D01*
X112508510Y-96784916D01*
X112367874Y-96610978D01*
X112172635Y-96529609D01*
X112043793Y-96576385D01*
X111957899Y-96804538D01*
X111067425Y-96804538D01*
X111167123Y-96381734D01*
X111453129Y-95991153D01*
X111855399Y-95740363D01*
X111867206Y-95736377D01*
X112191774Y-95662584D01*
X112422704Y-95668299D01*
X112444657Y-95678331D01*
X112596740Y-95638566D01*
X112869099Y-95448696D01*
X113213166Y-95143323D01*
X113260404Y-95097167D01*
X113936360Y-94429607D01*
X113936360Y-92989025D01*
X113936360Y-91548444D01*
X112816385Y-92663230D01*
X112293905Y-93206461D01*
X111915940Y-93649261D01*
X111701216Y-93968596D01*
X111658996Y-94086917D01*
X111532716Y-94420357D01*
X111305004Y-94579114D01*
X111049125Y-94567588D01*
X110838343Y-94390181D01*
X110745922Y-94051294D01*
X110745720Y-94032053D01*
X110790518Y-93759613D01*
X110967533Y-93645718D01*
X111058528Y-93629844D01*
X111292893Y-93516887D01*
X111671294Y-93228468D01*
X112175467Y-92779601D01*
X112653848Y-92318286D01*
X113154303Y-91820068D01*
X113503982Y-91458183D01*
X113729913Y-91192868D01*
X113859123Y-90984359D01*
X113918639Y-90792895D01*
X113935488Y-90578713D01*
X113936360Y-90431422D01*
X113940637Y-90194989D01*
X113970560Y-89999724D01*
X114051770Y-89808168D01*
X114209907Y-89582859D01*
X114470613Y-89286340D01*
X114859528Y-88881149D01*
X115312715Y-88420624D01*
X115869421Y-87846207D01*
X116263375Y-87412820D01*
X116516605Y-87092734D01*
X116651138Y-86858222D01*
X116689070Y-86688113D01*
X116665808Y-86441199D01*
X116616385Y-86350615D01*
X116504940Y-86434096D01*
X116255010Y-86661464D01*
X115903495Y-86998103D01*
X115487298Y-87409399D01*
X115482545Y-87414162D01*
X114421390Y-88477709D01*
X113638992Y-88477709D01*
X112856593Y-88477709D01*
X110183776Y-91152193D01*
X109320895Y-92024436D01*
X108617518Y-92754379D01*
X108079111Y-93336029D01*
X107711139Y-93763398D01*
X107519069Y-94030493D01*
X107490521Y-94104083D01*
X107368781Y-94407193D01*
X107114050Y-94567124D01*
X106810648Y-94564785D01*
X106542897Y-94381086D01*
X106504951Y-94327216D01*
X106444408Y-94039554D01*
X106604225Y-93781969D01*
X106954904Y-93598473D01*
X107002329Y-93585104D01*
X107222749Y-93456360D01*
X107608096Y-93143507D01*
X108156089Y-92648622D01*
X108864451Y-91973784D01*
X109730900Y-91121069D01*
X109993864Y-90858391D01*
X112620333Y-88227463D01*
X113420997Y-88227463D01*
X114221660Y-88227463D01*
X115455365Y-87015372D01*
X115991688Y-86475393D01*
X116359843Y-86070692D01*
X116581839Y-85773888D01*
X116679681Y-85557599D01*
X116689070Y-85480377D01*
X116738092Y-85295484D01*
X116899180Y-85039965D01*
X117193364Y-84687693D01*
X117641672Y-84212542D01*
X118002863Y-83848152D01*
X118465397Y-83377342D01*
X118856606Y-82960352D01*
X119145069Y-82632158D01*
X119299365Y-82427736D01*
X119316656Y-82385747D01*
X119250728Y-82194865D01*
X119085037Y-81896617D01*
X119003848Y-81771716D01*
X118809980Y-81434259D01*
X118700257Y-81142867D01*
X118691040Y-81071769D01*
X118699159Y-81033129D01*
X119586703Y-81033129D01*
X119671276Y-81238455D01*
X119867967Y-81326785D01*
X119909176Y-81322219D01*
X120117997Y-81177932D01*
X120169048Y-81062347D01*
X120111808Y-80851713D01*
X119918794Y-80744137D01*
X119699370Y-80792374D01*
X119667001Y-80820172D01*
X119586703Y-81033129D01*
X118699159Y-81033129D01*
X118760296Y-80742164D01*
X118929436Y-80390491D01*
X119140513Y-80122673D01*
X119249467Y-80050986D01*
X119413045Y-79878420D01*
X119441779Y-79746425D01*
X119527515Y-79517908D01*
X119740927Y-79233873D01*
X119817149Y-79156034D01*
X120192518Y-78796407D01*
X120192518Y-70719770D01*
X120192518Y-62643133D01*
X118550616Y-60997844D01*
X116908713Y-59352555D01*
X116928234Y-58180896D01*
X116947754Y-57009236D01*
X116130235Y-56199550D01*
X115742362Y-55807260D01*
X115501477Y-55527862D01*
X115372781Y-55302267D01*
X115321478Y-55071384D01*
X115312715Y-54811307D01*
X115295782Y-54445222D01*
X115221651Y-54181780D01*
X115055327Y-54004276D01*
X114761814Y-53896006D01*
X114306118Y-53840263D01*
X113653242Y-53820343D01*
X113233102Y-53818596D01*
X111611124Y-53818596D01*
X111094598Y-54350369D01*
X110804497Y-54693614D01*
X110599317Y-55019812D01*
X110536773Y-55194950D01*
X110454299Y-55425628D01*
X110238607Y-55504263D01*
X110133741Y-55507758D01*
X109787804Y-55422150D01*
X109602932Y-55214236D01*
X109584193Y-54957387D01*
X109736656Y-54724970D01*
X110065387Y-54590355D01*
X110070321Y-54589647D01*
X110345750Y-54487422D01*
X110639264Y-54292758D01*
X110863195Y-54073483D01*
X110933405Y-53921908D01*
X110815433Y-53886262D01*
X110490087Y-53855937D01*
X110000221Y-53833250D01*
X109388690Y-53820517D01*
X109021921Y-53818596D01*
X107110437Y-53818596D01*
X106247450Y-52948945D01*
X105753634Y-52484196D01*
X105353762Y-52175419D01*
X105075434Y-52043737D01*
X105062136Y-52041802D01*
X104789791Y-51929217D01*
X104698923Y-51715896D01*
X104733024Y-51357811D01*
X104910482Y-51145692D01*
X105162566Y-51092682D01*
X105420545Y-51211921D01*
X105615689Y-51516552D01*
X105623297Y-51539146D01*
X105771359Y-51814086D01*
X106051587Y-52192645D01*
X106412840Y-52608083D01*
X106558106Y-52759096D01*
X107360166Y-53568349D01*
X108083238Y-53568349D01*
X108470884Y-53552390D01*
X108733312Y-53511040D01*
X108806311Y-53466636D01*
X108725768Y-53314824D01*
X108533165Y-53104276D01*
X108302041Y-52901292D01*
X108105938Y-52772173D01*
X108026333Y-52763435D01*
X107855907Y-52789176D01*
X107647756Y-52660635D01*
X107480810Y-52444922D01*
X107429956Y-52256371D01*
X107521356Y-51950888D01*
X107742823Y-51789469D01*
X108015262Y-51778796D01*
X108259579Y-51925552D01*
X108385274Y-52175665D01*
X108513420Y-52446816D01*
X108762023Y-52796056D01*
X108973012Y-53036576D01*
X109484030Y-53568349D01*
X111960442Y-53568349D01*
X112716841Y-53563987D01*
X113379979Y-53551821D01*
X113912204Y-53533235D01*
X114275863Y-53509609D01*
X114433305Y-53482326D01*
X114436853Y-53477449D01*
X114353937Y-53356020D01*
X114130211Y-53100609D01*
X113803206Y-52752782D01*
X113534653Y-52478288D01*
X112632453Y-51570026D01*
X112283422Y-51904420D01*
X112053686Y-52192693D01*
X111937768Y-52471598D01*
X111934390Y-52512891D01*
X111829177Y-52845313D01*
X111553502Y-53030905D01*
X111284380Y-53046181D01*
X111035364Y-52919505D01*
X110940555Y-52683260D01*
X110985020Y-52412309D01*
X111153827Y-52181512D01*
X111432045Y-52065735D01*
X111480499Y-52062940D01*
X111742440Y-51964340D01*
X111971512Y-51750132D01*
X112196319Y-51441256D01*
X110904049Y-51441256D01*
X109611778Y-51441256D01*
X108868873Y-50690517D01*
X108465310Y-50301811D01*
X108167323Y-50070781D01*
X107921093Y-49962186D01*
X107722378Y-49939778D01*
X107251082Y-49824523D01*
X106866461Y-49515750D01*
X106630302Y-49068946D01*
X106600013Y-48931871D01*
X106597555Y-48859604D01*
X107464748Y-48859604D01*
X107490062Y-48934818D01*
X107672896Y-49038825D01*
X107898924Y-48990570D01*
X108024328Y-48845016D01*
X107980164Y-48682993D01*
X107798355Y-48594040D01*
X107589489Y-48619531D01*
X107532547Y-48661030D01*
X107464748Y-48859604D01*
X106597555Y-48859604D01*
X106588122Y-48582332D01*
X106712776Y-48286894D01*
X106865606Y-48087289D01*
X107136997Y-47820356D01*
X107425535Y-47707017D01*
X107742764Y-47687561D01*
X108133046Y-47722151D01*
X108406525Y-47864929D01*
X108619652Y-48086968D01*
X108841760Y-48406456D01*
X108905769Y-48704723D01*
X108882585Y-48943801D01*
X108859177Y-49210481D01*
X108914265Y-49426340D01*
X109083767Y-49665951D01*
X109383300Y-49983311D01*
X109824755Y-50373972D01*
X110172895Y-50551481D01*
X110282623Y-50565394D01*
X110497038Y-50541909D01*
X110493783Y-50454559D01*
X110457937Y-50415246D01*
X110334226Y-50173004D01*
X110307789Y-49992636D01*
X110226159Y-49700419D01*
X110120104Y-49564408D01*
X109957188Y-49302980D01*
X109978435Y-49017153D01*
X110146713Y-48788910D01*
X110424888Y-48700234D01*
X110507333Y-48709495D01*
X110798710Y-48865550D01*
X110898816Y-49151244D01*
X110792266Y-49518209D01*
X110774469Y-49549434D01*
X110615487Y-49829590D01*
X110579825Y-49996006D01*
X110669912Y-50154052D01*
X110791677Y-50296002D01*
X110950879Y-50438546D01*
X111164711Y-50520504D01*
X111500789Y-50557536D01*
X111955035Y-50565394D01*
X112884751Y-50565394D01*
X114536664Y-52233651D01*
X115113816Y-52818326D01*
X115537968Y-53257459D01*
X115832676Y-53582854D01*
X116021495Y-53826315D01*
X116127980Y-54019646D01*
X116175687Y-54194650D01*
X116188169Y-54383133D01*
X116188577Y-54464057D01*
X116232006Y-54900740D01*
X116385999Y-55201115D01*
X116478169Y-55298263D01*
X116700961Y-55487553D01*
X116840414Y-55570186D01*
X116842920Y-55570320D01*
X116868713Y-55452047D01*
X116892529Y-55124630D01*
X116912581Y-54629170D01*
X116927085Y-54006769D01*
X116933172Y-53491920D01*
X116948265Y-51413521D01*
X115697110Y-50150070D01*
X114445956Y-48886620D01*
X114151813Y-49162953D01*
X113880616Y-49358228D01*
X113642367Y-49439285D01*
X113381085Y-49505461D01*
X113124784Y-49637346D01*
X112763876Y-49783257D01*
X112488135Y-49725367D01*
X112342056Y-49484223D01*
X112333910Y-49272187D01*
X112409836Y-48974375D01*
X112595116Y-48848082D01*
X112664166Y-48834896D01*
X112977745Y-48884043D01*
X113203264Y-49017321D01*
X113489881Y-49152574D01*
X113772419Y-49038627D01*
X113988334Y-48776542D01*
X114026449Y-48630369D01*
X113945079Y-48442308D01*
X113717044Y-48165730D01*
X113500907Y-47940322D01*
X112882221Y-47312192D01*
X110663966Y-47312192D01*
X109843785Y-47305247D01*
X109178504Y-47285393D01*
X108695049Y-47254096D01*
X108420344Y-47212823D01*
X108368380Y-47187069D01*
X108216916Y-47132248D01*
X107875391Y-47089635D01*
X107403916Y-47065328D01*
X107135158Y-47061945D01*
X105979266Y-47061945D01*
X105490548Y-46561453D01*
X105163263Y-46275036D01*
X104864335Y-46095354D01*
X104729736Y-46060960D01*
X104398775Y-45955585D01*
X104213708Y-45679841D01*
X104198430Y-45410951D01*
X104327554Y-45171914D01*
X104571412Y-45076732D01*
X104848625Y-45113817D01*
X105077811Y-45271581D01*
X105177591Y-45538436D01*
X105177740Y-45550395D01*
X105262412Y-45752172D01*
X105479079Y-46039651D01*
X105652227Y-46223251D01*
X105920320Y-46469782D01*
X106147417Y-46608551D01*
X106422287Y-46670409D01*
X106833700Y-46686206D01*
X106985413Y-46686576D01*
X107434093Y-46683565D01*
X107672977Y-46663860D01*
X107742516Y-46611450D01*
X107683159Y-46510323D01*
X107617641Y-46436330D01*
X107339594Y-46244596D01*
X107100140Y-46186083D01*
X106853534Y-46082304D01*
X106714555Y-45834436D01*
X106717604Y-45537681D01*
X106805689Y-45371158D01*
X107074364Y-45198205D01*
X107359212Y-45225758D01*
X107585921Y-45421009D01*
X107680177Y-45751151D01*
X107680203Y-45757241D01*
X107775874Y-46007071D01*
X108034560Y-46339913D01*
X108240461Y-46545517D01*
X108592677Y-46845131D01*
X108875547Y-47001056D01*
X109185165Y-47057361D01*
X109366570Y-47061945D01*
X109703401Y-47043013D01*
X109905972Y-46995089D01*
X109932420Y-46966225D01*
X109848020Y-46850792D01*
X109614017Y-46590383D01*
X109259199Y-46215514D01*
X108812360Y-45756705D01*
X108397854Y-45339624D01*
X106863289Y-43808743D01*
X106234251Y-43808743D01*
X105864404Y-43792192D01*
X105597823Y-43712851D01*
X105339878Y-43526188D01*
X105065353Y-43258667D01*
X104716384Y-42949368D01*
X104374245Y-42720391D01*
X104173503Y-42638192D01*
X103864800Y-42488522D01*
X103724602Y-42246770D01*
X103743653Y-41986199D01*
X103912700Y-41780074D01*
X104222490Y-41701657D01*
X104291168Y-41706605D01*
X104557548Y-41812184D01*
X104655985Y-42057019D01*
X104788366Y-42384609D01*
X105065071Y-42750655D01*
X105419048Y-43090535D01*
X105783246Y-43339626D01*
X106084056Y-43433374D01*
X106324218Y-43411920D01*
X106363353Y-43313086D01*
X106308250Y-43191353D01*
X106234991Y-42932320D01*
X106188036Y-42531679D01*
X106178725Y-42257332D01*
X106162011Y-41835917D01*
X106096729Y-41590998D01*
X105960164Y-41450162D01*
X105917886Y-41425734D01*
X105694260Y-41218135D01*
X105495255Y-40896991D01*
X105478276Y-40858278D01*
X105394456Y-40432329D01*
X106204778Y-40432329D01*
X106245568Y-40562469D01*
X106422505Y-40662446D01*
X106638250Y-40601489D01*
X106776828Y-40415302D01*
X106780798Y-40397701D01*
X106733590Y-40218303D01*
X106570653Y-40180172D01*
X106304281Y-40253474D01*
X106204778Y-40432329D01*
X105394456Y-40432329D01*
X105382442Y-40371278D01*
X105485842Y-39940856D01*
X105741213Y-39596431D01*
X106101294Y-39367421D01*
X106518823Y-39283246D01*
X106946538Y-39373324D01*
X107337178Y-39667076D01*
X107356272Y-39689279D01*
X107625051Y-40160667D01*
X107644183Y-40633941D01*
X107413608Y-41100998D01*
X107367395Y-41158339D01*
X107150560Y-41499594D01*
X107062487Y-41905043D01*
X107054587Y-42139599D01*
X107054587Y-42749108D01*
X108526663Y-44217350D01*
X109021827Y-44705970D01*
X109457250Y-45125720D01*
X109801693Y-45447275D01*
X110023920Y-45641309D01*
X110090703Y-45685591D01*
X110127983Y-45568979D01*
X110158003Y-45253134D01*
X110177292Y-44789040D01*
X110182666Y-44335288D01*
X110182666Y-42984985D01*
X109650892Y-42468459D01*
X109307647Y-42178358D01*
X108981450Y-41973178D01*
X108806311Y-41910634D01*
X108592303Y-41843353D01*
X108506025Y-41665861D01*
X108493503Y-41431404D01*
X108519615Y-41130658D01*
X108636211Y-40996454D01*
X108829176Y-40954693D01*
X109141688Y-40998307D01*
X109308526Y-41184375D01*
X109391839Y-41416622D01*
X109377751Y-41527287D01*
X109408718Y-41649478D01*
X109562955Y-41861489D01*
X109774161Y-42089778D01*
X109976037Y-42260807D01*
X110080952Y-42307266D01*
X110135490Y-42193811D01*
X110172406Y-41899878D01*
X110182666Y-41584452D01*
X110182666Y-40861638D01*
X109334944Y-40020412D01*
X108844777Y-39566295D01*
X108462826Y-39280714D01*
X108209973Y-39179232D01*
X108206154Y-39179187D01*
X107931401Y-39075206D01*
X107755864Y-38827623D01*
X107726710Y-38532977D01*
X107807501Y-38363266D01*
X108066936Y-38202415D01*
X108359558Y-38213576D01*
X108589270Y-38375288D01*
X108659678Y-38553571D01*
X108755859Y-38763117D01*
X108973957Y-39073986D01*
X109263266Y-39428290D01*
X109573075Y-39768142D01*
X109852678Y-40035655D01*
X110051366Y-40172942D01*
X110084549Y-40180172D01*
X110129682Y-40064841D01*
X110163858Y-39757902D01*
X110181455Y-39317938D01*
X110182666Y-39157758D01*
X110167410Y-38579182D01*
X110116087Y-38198027D01*
X110020362Y-37963009D01*
X109980151Y-37911569D01*
X109839174Y-37623383D01*
X109862145Y-37327459D01*
X110024578Y-37110612D01*
X110222587Y-37052093D01*
X110561450Y-37142122D01*
X110764312Y-37364377D01*
X110798568Y-37647117D01*
X110631619Y-37918596D01*
X110620597Y-37927955D01*
X110561715Y-38010893D01*
X110516194Y-38168940D01*
X110482432Y-38430512D01*
X110458829Y-38824023D01*
X110443783Y-39377887D01*
X110435694Y-40120519D01*
X110432960Y-41080333D01*
X110432912Y-41259039D01*
X110436803Y-42120798D01*
X110447753Y-42893696D01*
X110464682Y-43544482D01*
X110486507Y-44039903D01*
X110512146Y-44346709D01*
X110536225Y-44434359D01*
X110729546Y-44333745D01*
X110947938Y-44092964D01*
X111122069Y-43803608D01*
X111183651Y-43579031D01*
X111288272Y-43307265D01*
X111536936Y-43133659D01*
X111831846Y-43105408D01*
X111999572Y-43185303D01*
X112160417Y-43444786D01*
X112149200Y-43737496D01*
X111987381Y-43967304D01*
X111809267Y-44037728D01*
X111550000Y-44145571D01*
X111210204Y-44380263D01*
X110964686Y-44595553D01*
X110652823Y-44925326D01*
X110492219Y-45191744D01*
X110436354Y-45484774D01*
X110432912Y-45624056D01*
X110467608Y-45985160D01*
X110553847Y-46247175D01*
X110583060Y-46286182D01*
X110797073Y-46366222D01*
X111235418Y-46417164D01*
X111873573Y-46436257D01*
X111921287Y-46436330D01*
X112482406Y-46441017D01*
X112855406Y-46464079D01*
X113102366Y-46519013D01*
X113285367Y-46619316D01*
X113458146Y-46770481D01*
X113692526Y-46979719D01*
X113841196Y-47028459D01*
X113995744Y-46932809D01*
X114059327Y-46876212D01*
X114243038Y-46607875D01*
X114309905Y-46299725D01*
X114245256Y-46052948D01*
X114186607Y-45998399D01*
X114089467Y-45825785D01*
X114061484Y-45618029D01*
X114142535Y-45355661D01*
X114375916Y-45236071D01*
X114716744Y-45242386D01*
X114959035Y-45405969D01*
X115062482Y-45660170D01*
X114986777Y-45938341D01*
X114874784Y-46060960D01*
X114721317Y-46306817D01*
X114687099Y-46494819D01*
X114597649Y-46788438D01*
X114436853Y-46999384D01*
X114249508Y-47216107D01*
X114186607Y-47365101D01*
X114268978Y-47507236D01*
X114491260Y-47771295D01*
X114816204Y-48120888D01*
X115206561Y-48519630D01*
X115625083Y-48931132D01*
X116034521Y-49319006D01*
X116397627Y-49646865D01*
X116677152Y-49878321D01*
X116835848Y-49976987D01*
X116856217Y-49973009D01*
X116880861Y-49810861D01*
X116898166Y-49447128D01*
X116906926Y-48930395D01*
X116905932Y-48309249D01*
X116903176Y-48084176D01*
X116876755Y-46314077D01*
X115095312Y-44529637D01*
X114491138Y-43925759D01*
X114033572Y-43476273D01*
X113692506Y-43158385D01*
X113437831Y-42949302D01*
X113239439Y-42826231D01*
X113067223Y-42766378D01*
X112891072Y-42746950D01*
X112738198Y-42745197D01*
X112211492Y-42652994D01*
X111841456Y-42368795D01*
X111613803Y-41881208D01*
X111603117Y-41840310D01*
X111602779Y-41653761D01*
X112470428Y-41653761D01*
X112490023Y-41794766D01*
X112685852Y-41923890D01*
X112911153Y-41872735D01*
X113018478Y-41735801D01*
X113009829Y-41488694D01*
X112951096Y-41397075D01*
X112773968Y-41357550D01*
X112583853Y-41468895D01*
X112470428Y-41653761D01*
X111602779Y-41653761D01*
X111602294Y-41385684D01*
X111798420Y-40982615D01*
X112138357Y-40673700D01*
X112568970Y-40501539D01*
X113037121Y-40508730D01*
X113198880Y-40561033D01*
X113565243Y-40826395D01*
X113825261Y-41225898D01*
X113919539Y-41661398D01*
X113913573Y-41741960D01*
X113985506Y-42073083D01*
X114249868Y-42452560D01*
X114624538Y-42870320D01*
X114660820Y-41689830D01*
X114697101Y-40509339D01*
X113863324Y-39669124D01*
X113413276Y-39247233D01*
X113017498Y-38935650D01*
X112724037Y-38771322D01*
X112679716Y-38758942D01*
X112371825Y-38609250D01*
X112232662Y-38367325D01*
X112252772Y-38106641D01*
X112422700Y-37900678D01*
X112732991Y-37822912D01*
X112799542Y-37827787D01*
X113061936Y-37929402D01*
X113160529Y-38187480D01*
X113280298Y-38455133D01*
X113582812Y-38852023D01*
X114051210Y-39356452D01*
X114130233Y-39435580D01*
X115062469Y-40361594D01*
X115062469Y-41806997D01*
X115062469Y-43252401D01*
X115910190Y-44093626D01*
X116284605Y-44456322D01*
X116594928Y-44740490D01*
X116797779Y-44907244D01*
X116848614Y-44934852D01*
X116878736Y-44816592D01*
X116904626Y-44489242D01*
X116924485Y-43993946D01*
X116936514Y-43371848D01*
X116939316Y-42861031D01*
X116939316Y-40787210D01*
X116251139Y-40065728D01*
X115915466Y-39681636D01*
X115672914Y-39341390D01*
X115564977Y-39104339D01*
X115562961Y-39081416D01*
X115509686Y-38833632D01*
X115437838Y-38741256D01*
X115322147Y-38544239D01*
X115335034Y-38260723D01*
X115459990Y-38008102D01*
X115551342Y-37934174D01*
X115839034Y-37898701D01*
X116102057Y-38040343D01*
X116260845Y-38292063D01*
X116258602Y-38530057D01*
X116146277Y-38744382D01*
X116055022Y-38803817D01*
X115936850Y-38887634D01*
X115965024Y-39100580D01*
X116119470Y-39384897D01*
X116350938Y-39655134D01*
X116616268Y-39894306D01*
X116810654Y-40037211D01*
X116856440Y-40055049D01*
X116894937Y-39939171D01*
X116921359Y-39628223D01*
X116932191Y-39177237D01*
X116930367Y-38897660D01*
X116911399Y-37740271D01*
X116080776Y-36920239D01*
X115250154Y-36100208D01*
X113079916Y-36132137D01*
X110909678Y-36164066D01*
X110327207Y-35619662D01*
X109972622Y-35324448D01*
X109642239Y-35109650D01*
X109444705Y-35031410D01*
X109114407Y-34894966D01*
X108961290Y-34657069D01*
X108983311Y-34390915D01*
X109178427Y-34169700D01*
X109471464Y-34072528D01*
X109721399Y-34089209D01*
X109847796Y-34265008D01*
X109881019Y-34385336D01*
X110012993Y-34670212D01*
X110264909Y-35029017D01*
X110474489Y-35269088D01*
X110764256Y-35557009D01*
X110995192Y-35716138D01*
X111262100Y-35784621D01*
X111659784Y-35800600D01*
X111796166Y-35800862D01*
X112606825Y-35800862D01*
X112260185Y-35439048D01*
X111941427Y-35181749D01*
X111607382Y-35018447D01*
X111558662Y-35006258D01*
X111248878Y-34856617D01*
X111107295Y-34615098D01*
X111124928Y-34354679D01*
X111292792Y-34148339D01*
X111601901Y-34069055D01*
X111673434Y-34074092D01*
X111939814Y-34179672D01*
X112038251Y-34424507D01*
X112146094Y-34683774D01*
X112380786Y-35023570D01*
X112596076Y-35269088D01*
X112881710Y-35551196D01*
X113108599Y-35710261D01*
X113367282Y-35781521D01*
X113748296Y-35800211D01*
X113962412Y-35800862D01*
X114386900Y-35787439D01*
X114691552Y-35752199D01*
X114812121Y-35702680D01*
X114812222Y-35701132D01*
X114729573Y-35564357D01*
X114517568Y-35321161D01*
X114337735Y-35138078D01*
X113925403Y-34806384D01*
X113561925Y-34678293D01*
X113490022Y-34674753D01*
X113276737Y-34637860D01*
X113033934Y-34507241D01*
X112720015Y-34252994D01*
X112293380Y-33845212D01*
X112184636Y-33736330D01*
X111753321Y-33311015D01*
X111443505Y-33036875D01*
X111206568Y-32881556D01*
X110993891Y-32812701D01*
X110774445Y-32797906D01*
X110287910Y-32693227D01*
X109926424Y-32417017D01*
X109712488Y-32026014D01*
X109677875Y-31671798D01*
X110558035Y-31671798D01*
X110646511Y-31880917D01*
X110808282Y-31922044D01*
X111017401Y-31833568D01*
X111058528Y-31671798D01*
X110970052Y-31462678D01*
X110808282Y-31421551D01*
X110599162Y-31510027D01*
X110558035Y-31671798D01*
X109677875Y-31671798D01*
X109668607Y-31576959D01*
X109817282Y-31126590D01*
X110012043Y-30875559D01*
X110441580Y-30598785D01*
X110915853Y-30559141D01*
X111399246Y-30756768D01*
X111549420Y-30869620D01*
X111812450Y-31144238D01*
X111919904Y-31448323D01*
X111934390Y-31717816D01*
X111950436Y-31988773D01*
X112022474Y-32216106D01*
X112186349Y-32459271D01*
X112477908Y-32777725D01*
X112719776Y-33020486D01*
X113172849Y-33443008D01*
X113511922Y-33692044D01*
X113774322Y-33793413D01*
X113845158Y-33798891D01*
X114165897Y-33891412D01*
X114563018Y-34180656D01*
X114756294Y-34361945D01*
X115058337Y-34651890D01*
X115285233Y-34855149D01*
X115382636Y-34925000D01*
X115413582Y-34812124D01*
X115433613Y-34522403D01*
X115437838Y-34272839D01*
X115421073Y-33884725D01*
X115341005Y-33607738D01*
X115152974Y-33341059D01*
X114911294Y-33084169D01*
X114595500Y-32795945D01*
X114319107Y-32601198D01*
X114175876Y-32547660D01*
X113898808Y-32452765D01*
X113753963Y-32224251D01*
X113750460Y-31946367D01*
X113897417Y-31703365D01*
X114073888Y-31605299D01*
X114386554Y-31615391D01*
X114613993Y-31817670D01*
X114687099Y-32101640D01*
X114773847Y-32359493D01*
X114989463Y-32660162D01*
X115062469Y-32735344D01*
X115437838Y-33094971D01*
X115437838Y-32230071D01*
X115437838Y-31365172D01*
X114609070Y-30580061D01*
X114104866Y-30137373D01*
X113717136Y-29872009D01*
X113485345Y-29794950D01*
X113235839Y-29691272D01*
X113095370Y-29443427D01*
X113098641Y-29146203D01*
X113186970Y-28980025D01*
X113455543Y-28808009D01*
X113741460Y-28835407D01*
X113968760Y-29029430D01*
X114061484Y-29357291D01*
X114061484Y-29357499D01*
X114163585Y-29620260D01*
X114446274Y-29968916D01*
X114874127Y-30363017D01*
X115093750Y-30536256D01*
X115310686Y-30637148D01*
X115499022Y-30546833D01*
X115623550Y-30371738D01*
X115618359Y-30283852D01*
X115618010Y-30100123D01*
X115686701Y-29922659D01*
X115913329Y-29719019D01*
X116215086Y-29681223D01*
X116484100Y-29810710D01*
X116559096Y-29911009D01*
X116631911Y-30245206D01*
X116478391Y-30500955D01*
X116175584Y-30629618D01*
X115822106Y-30757355D01*
X115625303Y-30943696D01*
X115624211Y-31144616D01*
X115668363Y-31201633D01*
X115732605Y-31391281D01*
X115777939Y-31815896D01*
X115804694Y-32480403D01*
X115813208Y-33360591D01*
X115813208Y-35374705D01*
X116287695Y-35838030D01*
X116569619Y-36098287D01*
X116781262Y-36266378D01*
X116850749Y-36301354D01*
X116895100Y-36186360D01*
X116923979Y-35880826D01*
X116938235Y-35443927D01*
X116938716Y-34934837D01*
X116926272Y-34412731D01*
X116901749Y-33936781D01*
X116865997Y-33566164D01*
X116819864Y-33360052D01*
X116808325Y-33342580D01*
X116746151Y-33154244D01*
X116712841Y-32782258D01*
X116714210Y-32292153D01*
X116714482Y-32285289D01*
X116751631Y-31358990D01*
X117314686Y-31358990D01*
X117877740Y-31358990D01*
X117842111Y-32359975D01*
X117811215Y-33305155D01*
X117784241Y-34280553D01*
X117761648Y-35252483D01*
X117743894Y-36187260D01*
X117731438Y-37051197D01*
X117724738Y-37810607D01*
X117724253Y-38431806D01*
X117730440Y-38881106D01*
X117743759Y-39124821D01*
X117749647Y-39154005D01*
X117834191Y-39234388D01*
X117982734Y-39119624D01*
X118067137Y-39017744D01*
X118179782Y-38841418D01*
X118252847Y-38619553D01*
X118294415Y-38297460D01*
X118312564Y-37820447D01*
X118315671Y-37335695D01*
X118319037Y-36730205D01*
X118335905Y-36321069D01*
X118376425Y-36054418D01*
X118450748Y-35876385D01*
X118569026Y-35733099D01*
X118628479Y-35675739D01*
X118847143Y-35394631D01*
X118934006Y-35036533D01*
X118941287Y-34829082D01*
X119029922Y-34257284D01*
X119191533Y-33958157D01*
X119323172Y-33741742D01*
X119400224Y-33462141D01*
X119435345Y-33051583D01*
X119441779Y-32617892D01*
X119436715Y-32107564D01*
X119407684Y-31775930D01*
X119333933Y-31551458D01*
X119194705Y-31362616D01*
X119029172Y-31195850D01*
X118723250Y-30952003D01*
X118440427Y-30810382D01*
X118356315Y-30795936D01*
X118038440Y-30700015D01*
X117864604Y-30466433D01*
X117857629Y-30176458D01*
X118040342Y-29911358D01*
X118096705Y-29871563D01*
X118383374Y-29815042D01*
X118645824Y-29954384D01*
X118797208Y-30243167D01*
X118797800Y-30246292D01*
X118909194Y-30515724D01*
X119100743Y-30770431D01*
X119295452Y-30913888D01*
X119336049Y-30921059D01*
X119386115Y-30806057D01*
X119423373Y-30501387D01*
X119441147Y-30067553D01*
X119441779Y-29962758D01*
X119441779Y-29004456D01*
X120317641Y-28125118D01*
X120691467Y-27728394D01*
X120985768Y-27375313D01*
X121161385Y-27115138D01*
X121193503Y-27023289D01*
X121293615Y-26776725D01*
X121533547Y-26645908D01*
X121822690Y-26648981D01*
G37*
%TD*%
%LPC*%
D12*
%TO.C,MX43*%
X183038750Y-92075000D03*
D13*
X188118750Y-92075000D03*
D12*
X193198750Y-92075000D03*
%TD*%
%TO.C,MX7*%
X144938750Y-34925000D03*
D13*
X150018750Y-34925000D03*
D12*
X155098750Y-34925000D03*
%TD*%
%TO.C,MX18*%
X163988750Y-53975000D03*
D13*
X169068750Y-53975000D03*
D12*
X174148750Y-53975000D03*
%TD*%
%TO.C,MX10*%
X202088750Y-34925000D03*
D13*
X207168750Y-34925000D03*
D12*
X212248750Y-34925000D03*
%TD*%
%TO.C,MX28*%
X173513750Y-73025000D03*
D13*
X178593750Y-73025000D03*
D12*
X183673750Y-73025000D03*
%TD*%
%TO.C,MX2*%
X49688750Y-34925000D03*
D13*
X54768750Y-34925000D03*
D12*
X59848750Y-34925000D03*
%TD*%
%TO.C,MX33*%
X71120000Y-92075000D03*
D13*
X76200000Y-92075000D03*
D12*
X81280000Y-92075000D03*
%TD*%
D13*
%TO.C,S4*%
X169068750Y-83820000D03*
X130968750Y-83820000D03*
%TD*%
%TO.C,S5*%
X169068750Y-83820000D03*
X73818750Y-83820000D03*
%TD*%
D12*
%TO.C,MX23*%
X78263750Y-73025000D03*
D13*
X83343750Y-73025000D03*
D12*
X88423750Y-73025000D03*
%TD*%
%TO.C,MX34*%
X97313750Y-92075000D03*
D13*
X102393750Y-92075000D03*
D12*
X107473750Y-92075000D03*
%TD*%
%TO.C,MX9*%
X183038750Y-34925000D03*
D13*
X188118750Y-34925000D03*
D12*
X193198750Y-34925000D03*
%TD*%
%TO.C,MX26*%
X135413750Y-73025000D03*
D13*
X140493750Y-73025000D03*
D12*
X145573750Y-73025000D03*
%TD*%
%TO.C,MX14*%
X87788750Y-53975000D03*
D13*
X92868750Y-53975000D03*
D12*
X97948750Y-53975000D03*
%TD*%
D13*
%TO.C,S1*%
X114300000Y-83820000D03*
X90487500Y-83820000D03*
%TD*%
D12*
%TO.C,MX27*%
X154463750Y-73025000D03*
D13*
X159543750Y-73025000D03*
D12*
X164623750Y-73025000D03*
%TD*%
%TO.C,MX11*%
X30638750Y-53975000D03*
D13*
X35718750Y-53975000D03*
D12*
X40798750Y-53975000D03*
%TD*%
%TO.C,MX1*%
X30638750Y-34925000D03*
D13*
X35718750Y-34925000D03*
D12*
X40798750Y-34925000D03*
%TD*%
%TO.C,MX39*%
X144938750Y-92075000D03*
D13*
X150018750Y-92075000D03*
D12*
X155098750Y-92075000D03*
%TD*%
%TO.C,MX22*%
X59213750Y-73025000D03*
D13*
X64293750Y-73025000D03*
D12*
X69373750Y-73025000D03*
%TD*%
%TO.C,MX24*%
X97313750Y-73025000D03*
D13*
X102393750Y-73025000D03*
D12*
X107473750Y-73025000D03*
%TD*%
%TO.C,MX25*%
X116363750Y-73025000D03*
D13*
X121443750Y-73025000D03*
D12*
X126523750Y-73025000D03*
%TD*%
%TO.C,MX21*%
X35401250Y-73025000D03*
D13*
X40481250Y-73025000D03*
D12*
X45561250Y-73025000D03*
%TD*%
D13*
%TO.C,S2*%
X152400000Y-83820000D03*
X128587500Y-83820000D03*
%TD*%
D12*
%TO.C,MX8*%
X163988750Y-34925000D03*
D13*
X169068750Y-34925000D03*
D12*
X174148750Y-34925000D03*
%TD*%
%TO.C,MX12*%
X49688750Y-53975000D03*
D13*
X54768750Y-53975000D03*
D12*
X59848750Y-53975000D03*
%TD*%
%TO.C,MX42*%
X161607500Y-92075000D03*
D13*
X166687500Y-92075000D03*
D12*
X171767500Y-92075000D03*
%TD*%
%TO.C,MX17*%
X144938750Y-53975000D03*
D13*
X150018750Y-53975000D03*
D12*
X155098750Y-53975000D03*
%TD*%
%TO.C,MX44*%
X202088750Y-92075000D03*
D13*
X207168750Y-92075000D03*
D12*
X212248750Y-92075000D03*
%TD*%
%TO.C,MX20*%
X202088750Y-53975000D03*
D13*
X207168750Y-53975000D03*
D12*
X212248750Y-53975000D03*
%TD*%
%TO.C,MX3*%
X68738750Y-34925000D03*
D13*
X73818750Y-34925000D03*
D12*
X78898750Y-34925000D03*
%TD*%
%TO.C,MX37*%
X116363750Y-92075000D03*
D13*
X121443750Y-92075000D03*
D12*
X126523750Y-92075000D03*
%TD*%
%TO.C,MX41*%
X163988750Y-92075000D03*
D13*
X169068750Y-92075000D03*
D12*
X174148750Y-92075000D03*
%TD*%
%TO.C,MX15*%
X106838750Y-53975000D03*
D13*
X111918750Y-53975000D03*
D12*
X116998750Y-53975000D03*
%TD*%
%TO.C,MX40*%
X133032500Y-92075000D03*
D13*
X138112500Y-92075000D03*
D12*
X143192500Y-92075000D03*
%TD*%
%TO.C,MX30*%
X30638750Y-92075000D03*
D13*
X35718750Y-92075000D03*
D12*
X40798750Y-92075000D03*
%TD*%
%TO.C,MX13*%
X68738750Y-53975000D03*
D13*
X73818750Y-53975000D03*
D12*
X78898750Y-53975000D03*
%TD*%
%TO.C,MX16*%
X125888750Y-53975000D03*
D13*
X130968750Y-53975000D03*
D12*
X136048750Y-53975000D03*
%TD*%
%TO.C,MX36*%
X99695000Y-92075000D03*
D13*
X104775000Y-92075000D03*
D12*
X109855000Y-92075000D03*
%TD*%
D13*
%TO.C,S3*%
X111918750Y-83820000D03*
X73818750Y-83820000D03*
%TD*%
D12*
%TO.C,MX31*%
X49688750Y-92075000D03*
D13*
X54768750Y-92075000D03*
D12*
X59848750Y-92075000D03*
%TD*%
%TO.C,MX19*%
X183038750Y-53975000D03*
D13*
X188118750Y-53975000D03*
D12*
X193198750Y-53975000D03*
%TD*%
%TO.C,MX38*%
X135413750Y-92075000D03*
D13*
X140493750Y-92075000D03*
D12*
X145573750Y-92075000D03*
%TD*%
%TO.C,MX29*%
X197326250Y-73025000D03*
D13*
X202406250Y-73025000D03*
D12*
X207486250Y-73025000D03*
%TD*%
%TO.C,MX32*%
X68738750Y-92075000D03*
D13*
X73818750Y-92075000D03*
D12*
X78898750Y-92075000D03*
%TD*%
%TO.C,MX6*%
X125888750Y-34925000D03*
D13*
X130968750Y-34925000D03*
D12*
X136048750Y-34925000D03*
%TD*%
%TO.C,MX4*%
X87788750Y-34925000D03*
D13*
X92868750Y-34925000D03*
D12*
X97948750Y-34925000D03*
%TD*%
%TO.C,MX35*%
X87788750Y-92075000D03*
D13*
X92868750Y-92075000D03*
D12*
X97948750Y-92075000D03*
%TD*%
%TO.C,MX5*%
X106838750Y-34925000D03*
D13*
X111918750Y-34925000D03*
D12*
X116998750Y-34925000D03*
%TD*%
D14*
%TO.C,SWD1*%
X52531250Y-78581250D03*
D15*
X49991250Y-78581250D03*
X47451250Y-78581250D03*
%TD*%
D16*
%TO.C,J1*%
X38628772Y-25880010D03*
X44408772Y-25880010D03*
D17*
X37198772Y-22230010D03*
D18*
X37198772Y-26410010D03*
D17*
X45838772Y-22230010D03*
D18*
X45838772Y-26410010D03*
%TD*%
%LPD*%
M02*
