M48
; DRILL file {KiCad 8.0.5} date 2024-09-26T22:45:49+0200
; FORMAT={-:-/ absolute / inch / decimal}
; #@! TF.CreationDate,2024-09-26T22:45:49+02:00
; #@! TF.GenerationSoftware,Kicad,Pcbnew,8.0.5
; #@! TF.FileFunction,Plated,1,2,PTH
FMAT,2
INCH
; #@! TA.AperFunction,Plated,PTH,ViaDrill
T1C0.0118
; #@! TA.AperFunction,Plated,PTH,ComponentDrill
T2C0.0138
; #@! TA.AperFunction,Plated,PTH,ComponentDrill
T3C0.0236
; #@! TA.AperFunction,Plated,PTH,ComponentDrill
T4C0.0394
; #@! TA.AperFunction,Plated,PTH,ComponentDrill
T5C0.0600
; #@! TA.AperFunction,Plated,PTH,ComponentDrill
T6C0.1200
; #@! TA.AperFunction,Plated,PTH,ViaDrill
T7C0.1260
%
G90
G05
T1
X1.375Y-2.3438
X1.625Y-0.875
X1.6453Y-1.27
X1.6553Y-1.4721
X1.6562Y-2.2246
X1.6795Y-2.3633
X1.7237Y-2.4056
X1.7237Y-2.4459
X1.7281Y-1.6607
X1.772Y-1.5052
X1.7743Y-1.7634
X1.7749Y-1.7241
X1.7953Y-2.2929
X1.8063Y-2.6866
X1.8359Y-2.2929
X1.8567Y-2.9732
X1.875Y-1.375
X1.875Y-2.75
X1.8845Y-1.2718
X1.8986Y-2.6019
X1.9062Y-1.4729
X1.9197Y-2.9732
X1.9215Y-2.1858
X1.9303Y-2.473
X1.9303Y-2.8815
X1.9318Y-2.9202
X1.9634Y-2.3017
X1.9644Y-2.1861
X1.9647Y-2.6452
X1.9688Y-3.1562
X1.9719Y-2.375
X1.9963Y-2.302
X2.0034Y-2.1867
X2.0347Y-2.2232
X2.0874Y-2.5955
X2.1155Y-2.2664
X2.1699Y-2.6892
X2.239Y-2.4316
X2.5312Y-2.3438
X5.0312Y-2.2527
T2
X1.9375Y-2.5123
X1.9375Y-2.5625
X1.9375Y-2.6127
X1.9877Y-2.5123
X1.9877Y-2.5625
X1.9877Y-2.6127
X2.0379Y-2.5123
X2.0379Y-2.5625
X2.0379Y-2.6127
T4
X1.8682Y-3.0938
X1.9682Y-3.0938
X2.0682Y-3.0938
T5
X1.2562Y-1.275
X1.2562Y-2.025
X1.2562Y-3.525
X1.4437Y-2.775
X1.5062Y-1.175
X1.5062Y-1.925
X1.5062Y-3.425
X1.6937Y-2.675
X2.0063Y-1.275
X2.0063Y-2.025
X2.0063Y-3.525
X2.2563Y-1.175
X2.2563Y-1.925
X2.2563Y-3.425
X2.3813Y-2.775
X2.6313Y-2.675
X2.7563Y-1.275
X2.7563Y-2.025
X2.7563Y-3.525
X2.85Y-3.525
X3.0063Y-1.175
X3.0063Y-1.925
X3.0063Y-3.425
X3.1Y-3.425
X3.1313Y-2.775
X3.3813Y-2.675
X3.5063Y-1.275
X3.5063Y-2.025
X3.5063Y-3.525
X3.7563Y-1.175
X3.7563Y-1.925
X3.7563Y-3.425
X3.8813Y-2.775
X3.8813Y-3.525
X3.975Y-3.525
X4.1312Y-2.675
X4.1312Y-3.425
X4.225Y-3.425
X4.2562Y-1.275
X4.2562Y-2.025
X4.5062Y-1.175
X4.5062Y-1.925
X4.6312Y-2.775
X4.6312Y-3.525
X4.8812Y-2.675
X4.8812Y-3.425
X5.0062Y-1.275
X5.0062Y-2.025
X5.2562Y-1.175
X5.2562Y-1.925
X5.2875Y-3.525
X5.3812Y-2.775
X5.3812Y-3.525
X5.5375Y-3.425
X5.6312Y-2.675
X5.6312Y-3.425
X5.7562Y-1.275
X5.7562Y-2.025
X5.7562Y-3.525
X6.0062Y-1.175
X6.0062Y-1.925
X6.0062Y-3.425
X6.1312Y-2.775
X6.3812Y-2.675
X6.4125Y-3.525
X6.5062Y-1.275
X6.5062Y-2.025
X6.5062Y-3.525
X6.6625Y-3.425
X6.7562Y-1.175
X6.7562Y-1.925
X6.7562Y-3.425
X6.8812Y-2.775
X7.1312Y-2.675
X7.2562Y-1.275
X7.2562Y-2.025
X7.2562Y-3.525
X7.5062Y-1.175
X7.5062Y-1.925
X7.5062Y-3.425
X7.8187Y-2.775
X8.0062Y-1.275
X8.0062Y-2.025
X8.0062Y-3.525
X8.0687Y-2.675
X8.2562Y-1.175
X8.2562Y-1.925
X8.2562Y-3.425
T6
X2.9062Y-3.9
X2.9062Y-3.9
X3.5625Y-3.9
X4.4062Y-3.9
X4.5Y-3.9
X5.0625Y-3.9
X5.1562Y-3.9
X6.0Y-3.9
X6.6562Y-3.9
X6.6562Y-3.9
T7
X1.0122Y-4.0407
X1.0125Y-0.9892
X5.2889Y-4.0455
X5.5314Y-0.9833
X8.5578Y-4.0341
X8.5688Y-0.9789
T3
G00X1.4645Y-0.8634
M15
G01X1.4645Y-0.887
M16
G05
G00X1.4645Y-1.0181
M15
G01X1.4645Y-1.0614
M16
G05
G00X1.8047Y-0.8634
M15
G01X1.8047Y-0.887
M16
G05
G00X1.8047Y-1.0181
M15
G01X1.8047Y-1.0614
M16
G05
M30
